<?xml version="1.0" encoding="UTF-8" standalone="no"?>
<!DOCTYPE svg PUBLIC "-//W3C//DTD SVG 1.1//EN"
 "http://www.w3.org/Graphics/SVG/1.1/DTD/svg11.dtd">
<!-- Generated by graphviz version 14.1.2 (20260124.0452)
 -->
<!-- Title: ArchitectureOverview Pages: 1 -->
<svg width="919pt" height="1468pt"
 viewBox="0.00 0.00 919.00 1468.00" xmlns="http://www.w3.org/2000/svg" xmlns:xlink="http://www.w3.org/1999/xlink">
<g id="graph0" class="graph" transform="scale(1 1) rotate(0) translate(4 1463.93)">
<title>ArchitectureOverview</title>
<polygon fill="white" stroke="none" points="-4,4 -4,-1463.93 915,-1463.93 915,4 -4,4"/>
<text xml:space="preserve" text-anchor="middle" x="455.5" y="-1444.53" font-family="Segoe UI" font-size="12.00">SV Publisher — Complete System Architecture</text>
<g id="clust1" class="cluster">
<title>cluster_frontend</title>
<path fill="#e3f2fd" stroke="#1565c0" d="M48,-1347.43C48,-1347.43 380,-1347.43 380,-1347.43 386,-1347.43 392,-1353.43 392,-1359.43 392,-1359.43 392,-1414.68 392,-1414.68 392,-1420.68 386,-1426.68 380,-1426.68 380,-1426.68 48,-1426.68 48,-1426.68 42,-1426.68 36,-1420.68 36,-1414.68 36,-1414.68 36,-1359.43 36,-1359.43 36,-1353.43 42,-1347.43 48,-1347.43"/>
<text xml:space="preserve" text-anchor="middle" x="214" y="-1411.28" font-family="Segoe UI" font-size="12.00" fill="#1565c0">Web Frontend (HTML/CSS/JS)</text>
</g>
<g id="clust2" class="cluster">
<title>cluster_tauri_ipc</title>
<path fill="#fff3e0" stroke="#e65100" d="M85,-1197.93C85,-1197.93 359,-1197.93 359,-1197.93 365,-1197.93 371,-1203.93 371,-1209.93 371,-1209.93 371,-1303.18 371,-1303.18 371,-1309.18 365,-1315.18 359,-1315.18 359,-1315.18 85,-1315.18 85,-1315.18 79,-1315.18 73,-1309.18 73,-1303.18 73,-1303.18 73,-1209.93 73,-1209.93 73,-1203.93 79,-1197.93 85,-1197.93"/>
<text xml:space="preserve" text-anchor="middle" x="222" y="-1299.78" font-family="Segoe UI" font-size="12.00" fill="#e65100">Tauri IPC Bridge</text>
</g>
<g id="clust3" class="cluster">
<title>cluster_rust</title>
<path fill="#e8f5e9" stroke="#2e7d32" d="M391,-870.55C391,-870.55 891,-870.55 891,-870.55 897,-870.55 903,-876.55 903,-882.55 903,-882.55 903,-1291.68 903,-1291.68 903,-1297.68 897,-1303.68 891,-1303.68 891,-1303.68 391,-1303.68 391,-1303.68 385,-1303.68 379,-1297.68 379,-1291.68 379,-1291.68 379,-882.55 379,-882.55 379,-876.55 385,-870.55 391,-870.55"/>
<text xml:space="preserve" text-anchor="middle" x="641" y="-1288.28" font-family="Segoe UI" font-size="12.00" fill="#2e7d32">Rust Layer (src&#45;tauri/src/)</text>
</g>
<g id="clust4" class="cluster">
<title>cluster_rust_state</title>
<path fill="#a5d6a7" stroke="#1b5e20" d="M513,-878.55C513,-878.55 883,-878.55 883,-878.55 889,-878.55 895,-884.55 895,-890.55 895,-890.55 895,-1021.93 895,-1021.93 895,-1027.93 889,-1033.93 883,-1033.93 883,-1033.93 513,-1033.93 513,-1033.93 507,-1033.93 501,-1027.93 501,-1021.93 501,-1021.93 501,-890.55 501,-890.55 501,-884.55 507,-878.55 513,-878.55"/>
<text xml:space="preserve" text-anchor="middle" x="698" y="-1018.53" font-family="Segoe UI" font-size="12.00" fill="#2e7d32">Global State</text>
</g>
<g id="clust5" class="cluster">
<title>cluster_cpp</title>
<path fill="#f3e5f5" stroke="#6a1b9a" d="M20,-394.05C20,-394.05 714,-394.05 714,-394.05 720,-394.05 726,-400.05 726,-406.05 726,-406.05 726,-814.05 726,-814.05 726,-820.05 720,-826.05 714,-826.05 714,-826.05 20,-826.05 20,-826.05 14,-826.05 8,-820.05 8,-814.05 8,-814.05 8,-406.05 8,-406.05 8,-400.05 14,-394.05 20,-394.05"/>
<text xml:space="preserve" text-anchor="middle" x="367" y="-810.65" font-family="Segoe UI" font-size="12.00" fill="#6a1b9a">C++ Native Layer (native/)</text>
</g>
<g id="clust6" class="cluster">
<title>cluster_single</title>
<path fill="#e1bee7" stroke="#8e24aa" d="M452,-557.8C452,-557.8 588,-557.8 588,-557.8 594,-557.8 600,-563.8 600,-569.8 600,-569.8 600,-640.05 600,-640.05 600,-646.05 594,-652.05 588,-652.05 588,-652.05 452,-652.05 452,-652.05 446,-652.05 440,-646.05 440,-640.05 440,-640.05 440,-569.8 440,-569.8 440,-563.8 446,-557.8 452,-557.8"/>
<text xml:space="preserve" text-anchor="middle" x="520" y="-636.65" font-family="Segoe UI" font-size="12.00" fill="#6a1b9a">Single&#45;Publisher Path</text>
</g>
<g id="clust7" class="cluster">
<title>cluster_multi</title>
<path fill="#e1bee7" stroke="#8e24aa" d="M135,-557.8C135,-557.8 279,-557.8 279,-557.8 285,-557.8 291,-563.8 291,-569.8 291,-569.8 291,-780.8 291,-780.8 291,-786.8 285,-792.8 279,-792.8 279,-792.8 135,-792.8 135,-792.8 129,-792.8 123,-786.8 123,-780.8 123,-780.8 123,-569.8 123,-569.8 123,-563.8 129,-557.8 135,-557.8"/>
<text xml:space="preserve" text-anchor="middle" x="207" y="-777.4" font-family="Segoe UI" font-size="12.00" fill="#6a1b9a">Multi&#45;Publisher Path</text>
</g>
<g id="clust8" class="cluster">
<title>cluster_modules</title>
<path fill="#d1c4e9" stroke="#4527a0" d="M28,-402.05C28,-402.05 706,-402.05 706,-402.05 712,-402.05 718,-408.05 718,-414.05 718,-414.05 718,-499.3 718,-499.3 718,-505.3 712,-511.3 706,-511.3 706,-511.3 28,-511.3 28,-511.3 22,-511.3 16,-505.3 16,-499.3 16,-499.3 16,-414.05 16,-414.05 16,-408.05 22,-402.05 28,-402.05"/>
<text xml:space="preserve" text-anchor="middle" x="367" y="-495.9" font-family="Segoe UI" font-size="12.00" fill="#6a1b9a">Shared Modules</text>
</g>
<g id="clust9" class="cluster">
<title>cluster_network</title>
<path fill="#ffebee" stroke="#c62828" d="M274,-8C274,-8 468,-8 468,-8 474,-8 480,-14 480,-20 480,-20 480,-337.55 480,-337.55 480,-343.55 474,-349.55 468,-349.55 468,-349.55 274,-349.55 274,-349.55 268,-349.55 262,-343.55 262,-337.55 262,-337.55 262,-20 262,-20 262,-14 268,-8 274,-8"/>
<text xml:space="preserve" text-anchor="middle" x="371" y="-334.15" font-family="Segoe UI" font-size="12.00" fill="#c62828">System / Network</text>
</g>
<!-- ui -->
<g id="node1" class="node">
<title>ui</title>
<path fill="#bbdefb" stroke="#1565c0" d="M150.38,-1393.43C150.38,-1393.43 55.62,-1393.43 55.62,-1393.43 49.62,-1393.43 43.62,-1387.43 43.62,-1381.43 43.62,-1381.43 43.62,-1367.43 43.62,-1367.43 43.62,-1361.43 49.62,-1355.43 55.62,-1355.43 55.62,-1355.43 150.38,-1355.43 150.38,-1355.43 156.38,-1355.43 162.38,-1361.43 162.38,-1367.43 162.38,-1367.43 162.38,-1381.43 162.38,-1381.43 162.38,-1387.43 156.38,-1393.43 150.38,-1393.43"/>
<text xml:space="preserve" text-anchor="middle" x="103" y="-1378.98" font-family="Segoe UI" font-size="11.00">User Interface</text>
<text xml:space="preserve" text-anchor="middle" x="103" y="-1363.98" font-family="Segoe UI" font-size="11.00">(Configuration Panel)</text>
</g>
<!-- invoke -->
<g id="node4" class="node">
<title>invoke</title>
<path fill="#ffe0b2" stroke="#e65100" d="M351,-1281.93C351,-1281.93 150.7,-1281.93 150.7,-1281.93 144.7,-1281.93 135.07,-1277.15 131.45,-1272.37 131.45,-1272.37 88.26,-1215.49 88.26,-1215.49 84.63,-1210.71 87,-1205.93 93,-1205.93 93,-1205.93 293.3,-1205.93 293.3,-1205.93 299.3,-1205.93 308.93,-1210.71 312.55,-1215.49 312.55,-1215.49 355.74,-1272.37 355.74,-1272.37 359.37,-1277.15 357,-1281.93 351,-1281.93"/>
<text xml:space="preserve" text-anchor="middle" x="222" y="-1248.48" font-family="Segoe UI" font-size="11.00">window.__TAURI__</text>
<text xml:space="preserve" text-anchor="middle" x="222" y="-1233.48" font-family="Segoe UI" font-size="11.00">.invoke(&#39;command&#39;, args)</text>
</g>
<!-- ui&#45;&gt;invoke -->
<g id="edge1" class="edge">
<title>ui&#45;&gt;invoke</title>
<path fill="none" stroke="#1565c0" d="M114.32,-1355.06C120.72,-1345.22 129.14,-1333.12 137.75,-1323.18 147.54,-1311.87 158.81,-1300.49 169.86,-1290.03"/>
<polygon fill="#1565c0" stroke="#1565c0" points="172.2,-1292.64 177.13,-1283.27 167.43,-1287.51 172.2,-1292.64"/>
<text xml:space="preserve" text-anchor="middle" x="177.88" y="-1327.93" font-family="Segoe UI" font-size="10.00">config/commands</text>
</g>
<!-- preview -->
<g id="node2" class="node">
<title>preview</title>
<path fill="#bbdefb" stroke="#1565c0" d="M251.38,-1393.43C251.38,-1393.43 192.62,-1393.43 192.62,-1393.43 186.62,-1393.43 180.62,-1387.43 180.62,-1381.43 180.62,-1381.43 180.62,-1367.43 180.62,-1367.43 180.62,-1361.43 186.62,-1355.43 192.62,-1355.43 192.62,-1355.43 251.38,-1355.43 251.38,-1355.43 257.38,-1355.43 263.38,-1361.43 263.38,-1367.43 263.38,-1367.43 263.38,-1381.43 263.38,-1381.43 263.38,-1387.43 257.38,-1393.43 251.38,-1393.43"/>
<text xml:space="preserve" text-anchor="middle" x="222" y="-1378.98" font-family="Segoe UI" font-size="11.00">Frame Viewer</text>
<text xml:space="preserve" text-anchor="middle" x="222" y="-1363.98" font-family="Segoe UI" font-size="11.00">(Live Preview)</text>
</g>
<!-- preview&#45;&gt;invoke -->
<g id="edge2" class="edge">
<title>preview&#45;&gt;invoke</title>
<path fill="none" stroke="#1565c0" stroke-dasharray="5,2" d="M222,-1355.02C222,-1339.02 222,-1315.1 222,-1293.65"/>
<polygon fill="#1565c0" stroke="#1565c0" points="225.5,-1293.89 222,-1283.89 218.5,-1293.89 225.5,-1293.89"/>
<text xml:space="preserve" text-anchor="middle" x="262.5" y="-1327.93" font-family="Segoe UI" font-size="10.00">get_sample_frame</text>
</g>
<!-- stats_ui -->
<g id="node3" class="node">
<title>stats_ui</title>
<path fill="#bbdefb" stroke="#1565c0" d="M372.12,-1393.43C372.12,-1393.43 293.88,-1393.43 293.88,-1393.43 287.88,-1393.43 281.88,-1387.43 281.88,-1381.43 281.88,-1381.43 281.88,-1367.43 281.88,-1367.43 281.88,-1361.43 287.88,-1355.43 293.88,-1355.43 293.88,-1355.43 372.12,-1355.43 372.12,-1355.43 378.12,-1355.43 384.12,-1361.43 384.12,-1367.43 384.12,-1367.43 384.12,-1381.43 384.12,-1381.43 384.12,-1387.43 378.12,-1393.43 372.12,-1393.43"/>
<text xml:space="preserve" text-anchor="middle" x="333" y="-1378.98" font-family="Segoe UI" font-size="11.00">Statistics Display</text>
<text xml:space="preserve" text-anchor="middle" x="333" y="-1363.98" font-family="Segoe UI" font-size="11.00">(Real&#45;time Charts)</text>
</g>
<!-- stats_ui&#45;&gt;invoke -->
<g id="edge3" class="edge">
<title>stats_ui&#45;&gt;invoke</title>
<path fill="none" stroke="#1565c0" stroke-dasharray="5,2" d="M325.51,-1355.32C320.93,-1345.34 314.51,-1333.02 307,-1323.18 298.08,-1311.49 287.29,-1300.08 276.45,-1289.75"/>
<polygon fill="#1565c0" stroke="#1565c0" points="278.99,-1287.33 269.28,-1283.1 274.23,-1292.46 278.99,-1287.33"/>
<text xml:space="preserve" text-anchor="middle" x="348.94" y="-1327.93" font-family="Segoe UI" font-size="10.00">get_stats (poll)</text>
</g>
<!-- commands_rs -->
<g id="node6" class="node">
<title>commands_rs</title>
<path fill="#c8e6c9" stroke="#2e7d32" d="M606,-1141.43C606,-1141.43 518,-1141.43 518,-1141.43 512,-1141.43 506,-1135.43 506,-1129.43 506,-1129.43 506,-1100.43 506,-1100.43 506,-1094.43 512,-1088.43 518,-1088.43 518,-1088.43 606,-1088.43 606,-1088.43 612,-1088.43 618,-1094.43 618,-1100.43 618,-1100.43 618,-1129.43 618,-1129.43 618,-1135.43 612,-1141.43 606,-1141.43"/>
<text xml:space="preserve" text-anchor="middle" x="562" y="-1126.98" font-family="Segoe UI" font-size="11.00">commands.rs</text>
<text xml:space="preserve" text-anchor="middle" x="562" y="-1111.98" font-family="Segoe UI" font-size="11.00">(713 lines)</text>
<text xml:space="preserve" text-anchor="middle" x="562" y="-1096.98" font-family="Segoe UI" font-size="11.00">43 Tauri Commands</text>
</g>
<!-- invoke&#45;&gt;commands_rs -->
<g id="edge4" class="edge">
<title>invoke&#45;&gt;commands_rs</title>
<path fill="none" stroke="#e65100" d="M309.12,-1210.39C366.92,-1188.8 441.64,-1160.89 494.84,-1141.02"/>
<polygon fill="#e65100" stroke="#e65100" points="495.95,-1144.34 504.09,-1137.56 493.5,-1137.78 495.95,-1144.34"/>
<text xml:space="preserve" text-anchor="middle" x="476.44" y="-1178.43" font-family="Segoe UI" font-size="10.00">Tauri IPC</text>
<text xml:space="preserve" text-anchor="middle" x="476.44" y="-1164.18" font-family="Segoe UI" font-size="10.00">(JSON serialize)</text>
</g>
<!-- lib_rs -->
<g id="node5" class="node">
<title>lib_rs</title>
<path fill="#c8e6c9" stroke="#2e7d32" d="M615.75,-1270.43C615.75,-1270.43 508.25,-1270.43 508.25,-1270.43 502.25,-1270.43 496.25,-1264.43 496.25,-1258.43 496.25,-1258.43 496.25,-1229.43 496.25,-1229.43 496.25,-1223.43 502.25,-1217.43 508.25,-1217.43 508.25,-1217.43 615.75,-1217.43 615.75,-1217.43 621.75,-1217.43 627.75,-1223.43 627.75,-1229.43 627.75,-1229.43 627.75,-1258.43 627.75,-1258.43 627.75,-1264.43 621.75,-1270.43 615.75,-1270.43"/>
<text xml:space="preserve" text-anchor="middle" x="562" y="-1255.98" font-family="Segoe UI" font-size="11.00">lib.rs</text>
<text xml:space="preserve" text-anchor="middle" x="562" y="-1240.98" font-family="Segoe UI" font-size="11.00">(Entry Point +</text>
<text xml:space="preserve" text-anchor="middle" x="562" y="-1225.98" font-family="Segoe UI" font-size="11.00">Command Registration)</text>
</g>
<!-- lib_rs&#45;&gt;commands_rs -->
<g id="edge5" class="edge">
<title>lib_rs&#45;&gt;commands_rs</title>
<path fill="none" stroke="#2e7d32" stroke-dasharray="5,2" d="M562,-1217.23C562,-1198.72 562,-1173.48 562,-1152.83"/>
<polygon fill="#2e7d32" stroke="#2e7d32" points="565.5,-1153.1 562,-1143.1 558.5,-1153.1 565.5,-1153.1"/>
<text xml:space="preserve" text-anchor="middle" x="581.5" y="-1171.3" font-family="Segoe UI" font-size="10.00">registers</text>
</g>
<!-- ffi_rs -->
<g id="node7" class="node">
<title>ffi_rs</title>
<path fill="#c8e6c9" stroke="#2e7d32" d="M478.88,-970.12C478.88,-970.12 399.12,-970.12 399.12,-970.12 393.12,-970.12 387.12,-964.12 387.12,-958.12 387.12,-958.12 387.12,-929.12 387.12,-929.12 387.12,-923.12 393.12,-917.12 399.12,-917.12 399.12,-917.12 478.88,-917.12 478.88,-917.12 484.88,-917.12 490.88,-923.12 490.88,-929.12 490.88,-929.12 490.88,-958.12 490.88,-958.12 490.88,-964.12 484.88,-970.12 478.88,-970.12"/>
<text xml:space="preserve" text-anchor="middle" x="439" y="-955.67" font-family="Segoe UI" font-size="11.00">ffi.rs</text>
<text xml:space="preserve" text-anchor="middle" x="439" y="-940.67" font-family="Segoe UI" font-size="11.00">(680 lines)</text>
<text xml:space="preserve" text-anchor="middle" x="439" y="-925.67" font-family="Segoe UI" font-size="11.00">Safe FFI Wrappers</text>
</g>
<!-- commands_rs&#45;&gt;ffi_rs -->
<g id="edge6" class="edge">
<title>commands_rs&#45;&gt;ffi_rs</title>
<path fill="none" stroke="#2e7d32" d="M532.59,-1088.34C526.8,-1082.71 520.98,-1076.58 516,-1070.43 493.08,-1042.16 471.87,-1006.5 457.54,-980.37"/>
<polygon fill="#2e7d32" stroke="#2e7d32" points="460.77,-978.97 452.93,-971.83 454.61,-982.3 460.77,-978.97"/>
<text xml:space="preserve" text-anchor="middle" x="537" y="-1060.93" font-family="Segoe UI" font-size="10.00">calls safe</text>
<text xml:space="preserve" text-anchor="middle" x="537" y="-1046.68" font-family="Segoe UI" font-size="10.00">wrappers</text>
</g>
<!-- config_mutex -->
<g id="node8" class="node">
<title>config_mutex</title>
<path fill="#81c784" stroke="black" d="M614.62,-964.99C614.62,-967.61 591.04,-969.74 562,-969.74 532.96,-969.74 509.38,-967.61 509.38,-964.99 509.38,-964.99 509.38,-922.24 509.38,-922.24 509.38,-919.62 532.96,-917.49 562,-917.49 591.04,-917.49 614.62,-919.62 614.62,-922.24 614.62,-922.24 614.62,-964.99 614.62,-964.99"/>
<path fill="none" stroke="black" d="M614.62,-964.99C614.62,-962.37 591.04,-960.24 562,-960.24 532.96,-960.24 509.38,-962.37 509.38,-964.99"/>
<text xml:space="preserve" text-anchor="middle" x="562" y="-948.17" font-family="Segoe UI" font-size="11.00">CONFIG</text>
<text xml:space="preserve" text-anchor="middle" x="562" y="-933.17" font-family="Segoe UI" font-size="11.00">Mutex&lt;SvConfig&gt;</text>
</g>
<!-- commands_rs&#45;&gt;config_mutex -->
<g id="edge7" class="edge">
<title>commands_rs&#45;&gt;config_mutex</title>
<path fill="none" stroke="#2e7d32" stroke-dasharray="5,2" d="M562,-1088.21C562,-1059.71 562,-1013.5 562,-981.22"/>
<polygon fill="#2e7d32" stroke="#2e7d32" points="565.5,-981.53 562,-971.53 558.5,-981.53 565.5,-981.53"/>
</g>
<!-- channels_mutex -->
<g id="node9" class="node">
<title>channels_mutex</title>
<path fill="#81c784" stroke="black" d="M765.5,-964.99C765.5,-967.61 735.69,-969.74 699,-969.74 662.31,-969.74 632.5,-967.61 632.5,-964.99 632.5,-964.99 632.5,-922.24 632.5,-922.24 632.5,-919.62 662.31,-917.49 699,-917.49 735.69,-917.49 765.5,-919.62 765.5,-922.24 765.5,-922.24 765.5,-964.99 765.5,-964.99"/>
<path fill="none" stroke="black" d="M765.5,-964.99C765.5,-962.37 735.69,-960.24 699,-960.24 662.31,-960.24 632.5,-962.37 632.5,-964.99"/>
<text xml:space="preserve" text-anchor="middle" x="699" y="-948.17" font-family="Segoe UI" font-size="11.00">CHANNELS</text>
<text xml:space="preserve" text-anchor="middle" x="699" y="-933.17" font-family="Segoe UI" font-size="11.00">Mutex&lt;Vec&lt;Channel&gt;&gt;</text>
</g>
<!-- commands_rs&#45;&gt;channels_mutex -->
<g id="edge8" class="edge">
<title>commands_rs&#45;&gt;channels_mutex</title>
<path fill="none" stroke="#2e7d32" stroke-dasharray="5,2" d="M582.81,-1088.21C606.48,-1058.96 645.24,-1011.05 671.42,-978.7"/>
<polygon fill="#2e7d32" stroke="#2e7d32" points="673.92,-981.17 677.49,-971.2 668.48,-976.77 673.92,-981.17"/>
</g>
<!-- atomics -->
<g id="node10" class="node">
<title>atomics</title>
<path fill="#81c784" stroke="black" d="M886.88,-990.3C886.88,-996.03 863.62,-1000.68 835,-1000.68 806.38,-1000.68 783.12,-996.03 783.12,-990.3 783.12,-990.3 783.12,-896.93 783.12,-896.93 783.12,-891.2 806.38,-886.55 835,-886.55 863.62,-886.55 886.88,-891.2 886.88,-896.93 886.88,-896.93 886.88,-990.3 886.88,-990.3"/>
<path fill="none" stroke="black" d="M886.88,-990.3C886.88,-984.58 863.62,-979.93 835,-979.93 806.38,-979.93 783.12,-984.58 783.12,-990.3"/>
<text xml:space="preserve" text-anchor="middle" x="835" y="-970.67" font-family="Segoe UI" font-size="11.00">IS_PUBLISHING</text>
<text xml:space="preserve" text-anchor="middle" x="835" y="-955.67" font-family="Segoe UI" font-size="11.00">PACKETS_SENT</text>
<text xml:space="preserve" text-anchor="middle" x="835" y="-940.67" font-family="Segoe UI" font-size="11.00">BYTES_SENT</text>
<text xml:space="preserve" text-anchor="middle" x="835" y="-925.67" font-family="Segoe UI" font-size="11.00">ERRORS</text>
<text xml:space="preserve" text-anchor="middle" x="835" y="-910.67" font-family="Segoe UI" font-size="11.00">(AtomicBool/U64)</text>
</g>
<!-- commands_rs&#45;&gt;atomics -->
<g id="edge9" class="edge">
<title>commands_rs&#45;&gt;atomics</title>
<path fill="none" stroke="#2e7d32" stroke-dasharray="5,2" d="M618.33,-1102.82C664.26,-1091.55 728.84,-1070.44 775,-1033.93 783.68,-1027.06 791.56,-1018.59 798.54,-1009.62"/>
<polygon fill="#2e7d32" stroke="#2e7d32" points="801.22,-1011.88 804.32,-1001.75 795.58,-1007.74 801.22,-1011.88"/>
</g>
<!-- sv_native -->
<g id="node11" class="node">
<title>sv_native</title>
<path fill="#ce93d8" stroke="#6a1b9a" d="M579.75,-618.8C579.75,-618.8 460.25,-618.8 460.25,-618.8 454.25,-618.8 448.25,-612.8 448.25,-606.8 448.25,-606.8 448.25,-577.8 448.25,-577.8 448.25,-571.8 454.25,-565.8 460.25,-565.8 460.25,-565.8 579.75,-565.8 579.75,-565.8 585.75,-565.8 591.75,-571.8 591.75,-577.8 591.75,-577.8 591.75,-606.8 591.75,-606.8 591.75,-612.8 585.75,-618.8 579.75,-618.8"/>
<text xml:space="preserve" text-anchor="middle" x="520" y="-604.35" font-family="Segoe UI" font-size="11.00">sv_native_refactored.cc</text>
<text xml:space="preserve" text-anchor="middle" x="520" y="-589.35" font-family="Segoe UI" font-size="11.00">(962 lines)</text>
<text xml:space="preserve" text-anchor="middle" x="520" y="-574.35" font-family="Segoe UI" font-size="11.00">FFI Entry + Publisher Loop</text>
</g>
<!-- ffi_rs&#45;&gt;sv_native -->
<g id="edge10" class="edge">
<title>ffi_rs&#45;&gt;sv_native</title>
<path fill="none" stroke="#d32f2f" stroke-width="2" d="M445.02,-916.65C459.17,-855.62 494.6,-702.85 511.18,-631.34"/>
<polygon fill="#d32f2f" stroke="#d32f2f" stroke-width="2" points="514.52,-632.45 513.36,-621.92 507.7,-630.87 514.52,-632.45"/>
<text xml:space="preserve" text-anchor="middle" x="515.28" y="-737.8" font-family="Segoe UI" font-size="10.00">extern &quot;C&quot;</text>
<text xml:space="preserve" text-anchor="middle" x="515.28" y="-723.55" font-family="Segoe UI" font-size="10.00">npcap_*</text>
</g>
<!-- sv_controller -->
<g id="node12" class="node">
<title>sv_controller</title>
<path fill="#ce93d8" stroke="#6a1b9a" d="M271.25,-759.55C271.25,-759.55 142.75,-759.55 142.75,-759.55 136.75,-759.55 130.75,-753.55 130.75,-747.55 130.75,-747.55 130.75,-718.55 130.75,-718.55 130.75,-712.55 136.75,-706.55 142.75,-706.55 142.75,-706.55 271.25,-706.55 271.25,-706.55 277.25,-706.55 283.25,-712.55 283.25,-718.55 283.25,-718.55 283.25,-747.55 283.25,-747.55 283.25,-753.55 277.25,-759.55 271.25,-759.55"/>
<text xml:space="preserve" text-anchor="middle" x="207" y="-745.1" font-family="Segoe UI" font-size="11.00">sv_controller.cc</text>
<text xml:space="preserve" text-anchor="middle" x="207" y="-730.1" font-family="Segoe UI" font-size="11.00">(1020 lines)</text>
<text xml:space="preserve" text-anchor="middle" x="207" y="-715.1" font-family="Segoe UI" font-size="11.00">SvController + SharedBuffer</text>
</g>
<!-- ffi_rs&#45;&gt;sv_controller -->
<g id="edge11" class="edge">
<title>ffi_rs&#45;&gt;sv_controller</title>
<path fill="none" stroke="#d32f2f" stroke-width="2" d="M410.09,-916.62C368.55,-879.29 291.93,-810.4 245.6,-768.75"/>
<polygon fill="#d32f2f" stroke="#d32f2f" stroke-width="2" points="247.94,-766.15 238.16,-762.07 243.26,-771.36 247.94,-766.15"/>
<text xml:space="preserve" text-anchor="middle" x="366.28" y="-853.05" font-family="Segoe UI" font-size="10.00">extern &quot;C&quot;</text>
<text xml:space="preserve" text-anchor="middle" x="366.28" y="-838.8" font-family="Segoe UI" font-size="10.00">sv_mp_*</text>
</g>
<!-- sv_encoder -->
<g id="node14" class="node">
<title>sv_encoder</title>
<path fill="#b39ddb" stroke="#4527a0" d="M122.25,-478.05C122.25,-478.05 35.75,-478.05 35.75,-478.05 29.75,-478.05 23.75,-472.05 23.75,-466.05 23.75,-466.05 23.75,-422.05 23.75,-422.05 23.75,-416.05 29.75,-410.05 35.75,-410.05 35.75,-410.05 122.25,-410.05 122.25,-410.05 128.25,-410.05 134.25,-416.05 134.25,-422.05 134.25,-422.05 134.25,-466.05 134.25,-466.05 134.25,-472.05 128.25,-478.05 122.25,-478.05"/>
<text xml:space="preserve" text-anchor="middle" x="79" y="-463.6" font-family="Segoe UI" font-size="11.00">sv_encoder_impl.cc</text>
<text xml:space="preserve" text-anchor="middle" x="79" y="-448.6" font-family="Segoe UI" font-size="11.00">(286 lines)</text>
<text xml:space="preserve" text-anchor="middle" x="79" y="-433.6" font-family="Segoe UI" font-size="11.00">IEC 61850&#45;9&#45;2LE</text>
<text xml:space="preserve" text-anchor="middle" x="79" y="-418.6" font-family="Segoe UI" font-size="11.00">Packet Encoding</text>
</g>
<!-- sv_native&#45;&gt;sv_encoder -->
<g id="edge13" class="edge">
<title>sv_native&#45;&gt;sv_encoder</title>
<path fill="none" stroke="#6a1b9a" d="M461.3,-565.43C452.62,-562.41 443.67,-559.72 435,-557.8 399.14,-549.86 303.69,-562.45 270,-547.8 253.13,-540.47 256.78,-526.82 240,-519.3 200.52,-501.62 182.09,-529.83 143,-511.3 130.81,-505.53 119.7,-496.36 110.28,-486.67"/>
<polygon fill="#6a1b9a" stroke="#6a1b9a" points="113.14,-484.6 103.81,-479.58 107.97,-489.32 113.14,-484.6"/>
<text xml:space="preserve" text-anchor="middle" x="286.5" y="-538.3" font-family="Segoe UI" font-size="10.00">encode</text>
<text xml:space="preserve" text-anchor="middle" x="286.5" y="-524.05" font-family="Segoe UI" font-size="10.00">frames</text>
</g>
<!-- eq_processor -->
<g id="node15" class="node">
<title>eq_processor</title>
<path fill="#b39ddb" stroke="#4527a0" d="M269.62,-478.05C269.62,-478.05 164.38,-478.05 164.38,-478.05 158.38,-478.05 152.38,-472.05 152.38,-466.05 152.38,-466.05 152.38,-422.05 152.38,-422.05 152.38,-416.05 158.38,-410.05 164.38,-410.05 164.38,-410.05 269.62,-410.05 269.62,-410.05 275.62,-410.05 281.62,-416.05 281.62,-422.05 281.62,-422.05 281.62,-466.05 281.62,-466.05 281.62,-472.05 275.62,-478.05 269.62,-478.05"/>
<text xml:space="preserve" text-anchor="middle" x="217" y="-463.6" font-family="Segoe UI" font-size="11.00">equation_processor.cc</text>
<text xml:space="preserve" text-anchor="middle" x="217" y="-448.6" font-family="Segoe UI" font-size="11.00">(341 lines)</text>
<text xml:space="preserve" text-anchor="middle" x="217" y="-433.6" font-family="Segoe UI" font-size="11.00">Waveform Generation</text>
<text xml:space="preserve" text-anchor="middle" x="217" y="-418.6" font-family="Segoe UI" font-size="11.00">sin/cos/square/triangle</text>
</g>
<!-- sv_native&#45;&gt;eq_processor -->
<g id="edge12" class="edge">
<title>sv_native&#45;&gt;eq_processor</title>
<path fill="none" stroke="#6a1b9a" d="M455.66,-565.44C448.71,-562.79 441.72,-560.2 435,-557.8 371.26,-535.05 348.61,-545.15 290,-511.3 278.07,-504.42 266.43,-495.31 256.07,-486.07"/>
<polygon fill="#6a1b9a" stroke="#6a1b9a" points="258.53,-483.57 248.81,-479.34 253.77,-488.7 258.53,-483.57"/>
<text xml:space="preserve" text-anchor="middle" x="421.32" y="-538.3" font-family="Segoe UI" font-size="10.00">generate</text>
<text xml:space="preserve" text-anchor="middle" x="421.32" y="-524.05" font-family="Segoe UI" font-size="10.00">samples</text>
</g>
<!-- sv_stats -->
<g id="node16" class="node">
<title>sv_stats</title>
<path fill="#b39ddb" stroke="#4527a0" d="M567.38,-470.55C567.38,-470.55 472.62,-470.55 472.62,-470.55 466.62,-470.55 460.62,-464.55 460.62,-458.55 460.62,-458.55 460.62,-429.55 460.62,-429.55 460.62,-423.55 466.62,-417.55 472.62,-417.55 472.62,-417.55 567.38,-417.55 567.38,-417.55 573.38,-417.55 579.38,-423.55 579.38,-429.55 579.38,-429.55 579.38,-458.55 579.38,-458.55 579.38,-464.55 573.38,-470.55 567.38,-470.55"/>
<text xml:space="preserve" text-anchor="middle" x="520" y="-456.1" font-family="Segoe UI" font-size="11.00">sv_stats_impl.cc</text>
<text xml:space="preserve" text-anchor="middle" x="520" y="-441.1" font-family="Segoe UI" font-size="11.00">(114 lines)</text>
<text xml:space="preserve" text-anchor="middle" x="520" y="-426.1" font-family="Segoe UI" font-size="11.00">Thread&#45;safe Statistics</text>
</g>
<!-- sv_native&#45;&gt;sv_stats -->
<g id="edge14" class="edge">
<title>sv_native&#45;&gt;sv_stats</title>
<path fill="none" stroke="#6a1b9a" d="M520,-565.49C520,-542.31 520,-508.01 520,-481.94"/>
<polygon fill="#6a1b9a" stroke="#6a1b9a" points="523.5,-482.12 520,-472.12 516.5,-482.12 523.5,-482.12"/>
<text xml:space="preserve" text-anchor="middle" x="537.25" y="-538.3" font-family="Segoe UI" font-size="10.00">record</text>
<text xml:space="preserve" text-anchor="middle" x="537.25" y="-524.05" font-family="Segoe UI" font-size="10.00">packets</text>
</g>
<!-- npcap_tx -->
<g id="node17" class="node">
<title>npcap_tx</title>
<path fill="#b39ddb" stroke="#4527a0" d="M430.75,-478.05C430.75,-478.05 311.25,-478.05 311.25,-478.05 305.25,-478.05 299.25,-472.05 299.25,-466.05 299.25,-466.05 299.25,-422.05 299.25,-422.05 299.25,-416.05 305.25,-410.05 311.25,-410.05 311.25,-410.05 430.75,-410.05 430.75,-410.05 436.75,-410.05 442.75,-416.05 442.75,-422.05 442.75,-422.05 442.75,-466.05 442.75,-466.05 442.75,-472.05 436.75,-478.05 430.75,-478.05"/>
<text xml:space="preserve" text-anchor="middle" x="371" y="-463.6" font-family="Segoe UI" font-size="11.00">npcap_transmitter_impl.cc</text>
<text xml:space="preserve" text-anchor="middle" x="371" y="-448.6" font-family="Segoe UI" font-size="11.00">(339 lines)</text>
<text xml:space="preserve" text-anchor="middle" x="371" y="-433.6" font-family="Segoe UI" font-size="11.00">Npcap DLL Loading +</text>
<text xml:space="preserve" text-anchor="middle" x="371" y="-418.6" font-family="Segoe UI" font-size="11.00">Packet Transmission</text>
</g>
<!-- sv_native&#45;&gt;npcap_tx -->
<g id="edge16" class="edge">
<title>sv_native&#45;&gt;npcap_tx</title>
<path fill="none" stroke="#d32f2f" stroke-width="2" d="M493.7,-565.49C471.68,-543.88 439.81,-512.59 414.06,-487.32"/>
<polygon fill="#d32f2f" stroke="#d32f2f" stroke-width="2" points="416.63,-484.94 407.05,-480.43 411.73,-489.94 416.63,-484.94"/>
<text xml:space="preserve" text-anchor="middle" x="489.06" y="-538.3" font-family="Segoe UI" font-size="10.00">send</text>
<text xml:space="preserve" text-anchor="middle" x="489.06" y="-524.05" font-family="Segoe UI" font-size="10.00">packets</text>
</g>
<!-- duration_mgr -->
<g id="node18" class="node">
<title>duration_mgr</title>
<path fill="#b39ddb" stroke="#4527a0" d="M698.38,-470.55C698.38,-470.55 609.62,-470.55 609.62,-470.55 603.62,-470.55 597.62,-464.55 597.62,-458.55 597.62,-458.55 597.62,-429.55 597.62,-429.55 597.62,-423.55 603.62,-417.55 609.62,-417.55 609.62,-417.55 698.38,-417.55 698.38,-417.55 704.38,-417.55 710.38,-423.55 710.38,-429.55 710.38,-429.55 710.38,-458.55 710.38,-458.55 710.38,-464.55 704.38,-470.55 698.38,-470.55"/>
<text xml:space="preserve" text-anchor="middle" x="654" y="-456.1" font-family="Segoe UI" font-size="11.00">duration_manager.h</text>
<text xml:space="preserve" text-anchor="middle" x="654" y="-441.1" font-family="Segoe UI" font-size="11.00">Duration &amp; Repeat</text>
<text xml:space="preserve" text-anchor="middle" x="654" y="-426.1" font-family="Segoe UI" font-size="11.00">Control</text>
</g>
<!-- sv_native&#45;&gt;duration_mgr -->
<g id="edge15" class="edge">
<title>sv_native&#45;&gt;duration_mgr</title>
<path fill="none" stroke="#6a1b9a" stroke-dasharray="5,2" d="M543.65,-565.49C565.75,-541.37 598.88,-505.21 623.07,-478.81"/>
<polygon fill="#6a1b9a" stroke="#6a1b9a" points="625.39,-481.46 629.57,-471.72 620.23,-476.73 625.39,-481.46"/>
<text xml:space="preserve" text-anchor="middle" x="602.48" y="-538.3" font-family="Segoe UI" font-size="10.00">check</text>
<text xml:space="preserve" text-anchor="middle" x="602.48" y="-524.05" font-family="Segoe UI" font-size="10.00">duration</text>
</g>
<!-- sv_pub_inst -->
<g id="node13" class="node">
<title>sv_pub_inst</title>
<path fill="#ce93d8" stroke="#6a1b9a" d="M252.5,-618.8C252.5,-618.8 143.5,-618.8 143.5,-618.8 137.5,-618.8 131.5,-612.8 131.5,-606.8 131.5,-606.8 131.5,-577.8 131.5,-577.8 131.5,-571.8 137.5,-565.8 143.5,-565.8 143.5,-565.8 252.5,-565.8 252.5,-565.8 258.5,-565.8 264.5,-571.8 264.5,-577.8 264.5,-577.8 264.5,-606.8 264.5,-606.8 264.5,-612.8 258.5,-618.8 252.5,-618.8"/>
<text xml:space="preserve" text-anchor="middle" x="198" y="-604.35" font-family="Segoe UI" font-size="11.00">sv_publisher_instance.cc</text>
<text xml:space="preserve" text-anchor="middle" x="198" y="-589.35" font-family="Segoe UI" font-size="11.00">(228 lines)</text>
<text xml:space="preserve" text-anchor="middle" x="198" y="-574.35" font-family="Segoe UI" font-size="11.00">Per&#45;MU Instance</text>
</g>
<!-- sv_controller&#45;&gt;sv_pub_inst -->
<g id="edge17" class="edge">
<title>sv_controller&#45;&gt;sv_pub_inst</title>
<path fill="none" stroke="#6a1b9a" d="M205.33,-706.28C203.94,-684.86 201.95,-654.12 200.39,-630.11"/>
<polygon fill="#6a1b9a" stroke="#6a1b9a" points="203.9,-630.2 199.76,-620.45 196.92,-630.65 203.9,-630.2"/>
<text xml:space="preserve" text-anchor="middle" x="225.09" y="-679.05" font-family="Segoe UI" font-size="10.00">manage</text>
<text xml:space="preserve" text-anchor="middle" x="225.09" y="-664.8" font-family="Segoe UI" font-size="10.00">instances</text>
</g>
<!-- sv_controller&#45;&gt;sv_stats -->
<g id="edge20" class="edge">
<title>sv_controller&#45;&gt;sv_stats</title>
<path fill="none" stroke="#6a1b9a" d="M277.01,-706.08C304.61,-693.15 334.92,-675.24 357,-652.05 388.95,-618.51 374.06,-595.13 401.5,-557.8 419.57,-533.22 429.85,-532.28 452,-511.3 463.06,-500.83 475,-489.28 485.74,-478.8"/>
<polygon fill="#6a1b9a" stroke="#6a1b9a" points="487.9,-481.58 492.6,-472.09 483.01,-476.57 487.9,-481.58"/>
<text xml:space="preserve" text-anchor="middle" x="418.75" y="-597.05" font-family="Segoe UI" font-size="10.00">record</text>
<text xml:space="preserve" text-anchor="middle" x="418.75" y="-582.8" font-family="Segoe UI" font-size="10.00">packets</text>
</g>
<!-- sv_controller&#45;&gt;npcap_tx -->
<g id="edge21" class="edge">
<title>sv_controller&#45;&gt;npcap_tx</title>
<path fill="none" stroke="#d32f2f" stroke-width="2" d="M234.25,-706.15C239.68,-700.54 245.19,-694.5 250,-688.55 262.22,-673.47 266.28,-669.87 274,-652.05 286.07,-624.21 292.05,-546.25 306,-519.3 311.67,-508.35 319.29,-497.69 327.32,-488.01"/>
<polygon fill="#d32f2f" stroke="#d32f2f" stroke-width="2" points="329.85,-490.44 333.78,-480.61 324.57,-485.84 329.85,-490.44"/>
<text xml:space="preserve" text-anchor="middle" x="323.78" y="-597.05" font-family="Segoe UI" font-size="10.00">send via</text>
<text xml:space="preserve" text-anchor="middle" x="323.78" y="-582.8" font-family="Segoe UI" font-size="10.00">SharedBuffer</text>
</g>
<!-- sv_pub_inst&#45;&gt;sv_encoder -->
<g id="edge19" class="edge">
<title>sv_pub_inst&#45;&gt;sv_encoder</title>
<path fill="none" stroke="#6a1b9a" d="M175.28,-565.73C170.19,-559.88 164.87,-553.67 160,-547.8 143.67,-528.13 126.04,-505.89 111.4,-487.14"/>
<polygon fill="#6a1b9a" stroke="#6a1b9a" points="114.32,-485.18 105.41,-479.44 108.79,-489.48 114.32,-485.18"/>
<text xml:space="preserve" text-anchor="middle" x="176.5" y="-538.3" font-family="Segoe UI" font-size="10.00">encode</text>
<text xml:space="preserve" text-anchor="middle" x="176.5" y="-524.05" font-family="Segoe UI" font-size="10.00">frames</text>
</g>
<!-- sv_pub_inst&#45;&gt;eq_processor -->
<g id="edge18" class="edge">
<title>sv_pub_inst&#45;&gt;eq_processor</title>
<path fill="none" stroke="#6a1b9a" d="M197.23,-565.55C197.14,-551.78 197.57,-534.56 199.5,-519.3 200.73,-509.58 202.72,-499.27 204.91,-489.52"/>
<polygon fill="#6a1b9a" stroke="#6a1b9a" points="208.3,-490.43 207.21,-479.89 201.49,-488.81 208.3,-490.43"/>
<text xml:space="preserve" text-anchor="middle" x="219.75" y="-538.3" font-family="Segoe UI" font-size="10.00">generate</text>
<text xml:space="preserve" text-anchor="middle" x="219.75" y="-524.05" font-family="Segoe UI" font-size="10.00">samples</text>
</g>
<!-- npcap_dll -->
<g id="node19" class="node">
<title>npcap_dll</title>
<path fill="#ffcdd2" stroke="#c62828" d="M404.12,-316.3C404.12,-316.3 337.88,-316.3 337.88,-316.3 331.88,-316.3 325.88,-310.3 325.88,-304.3 325.88,-304.3 325.88,-290.3 325.88,-290.3 325.88,-284.3 331.88,-278.3 337.88,-278.3 337.88,-278.3 404.12,-278.3 404.12,-278.3 410.12,-278.3 416.12,-284.3 416.12,-290.3 416.12,-290.3 416.12,-304.3 416.12,-304.3 416.12,-310.3 410.12,-316.3 404.12,-316.3"/>
<text xml:space="preserve" text-anchor="middle" x="371" y="-301.85" font-family="Segoe UI" font-size="11.00">wpcap.dll</text>
<text xml:space="preserve" text-anchor="middle" x="371" y="-286.85" font-family="Segoe UI" font-size="11.00">(Npcap Library)</text>
</g>
<!-- npcap_tx&#45;&gt;npcap_dll -->
<g id="edge22" class="edge">
<title>npcap_tx&#45;&gt;npcap_dll</title>
<path fill="none" stroke="#c62828" d="M371,-409.85C371,-385.25 371,-352.03 371,-328.25"/>
<polygon fill="#c62828" stroke="#c62828" points="374.5,-328.28 371,-318.28 367.5,-328.28 374.5,-328.28"/>
<text xml:space="preserve" text-anchor="middle" x="407" y="-376.55" font-family="Segoe UI" font-size="10.00">LoadLibrary</text>
<text xml:space="preserve" text-anchor="middle" x="407" y="-362.3" font-family="Segoe UI" font-size="10.00">GetProcAddress</text>
</g>
<!-- ndis -->
<g id="node20" class="node">
<title>ndis</title>
<path fill="#ffcdd2" stroke="#c62828" d="M402.25,-228.05C402.25,-228.05 339.75,-228.05 339.75,-228.05 333.75,-228.05 327.75,-222.05 327.75,-216.05 327.75,-216.05 327.75,-202.05 327.75,-202.05 327.75,-196.05 333.75,-190.05 339.75,-190.05 339.75,-190.05 402.25,-190.05 402.25,-190.05 408.25,-190.05 414.25,-196.05 414.25,-202.05 414.25,-202.05 414.25,-216.05 414.25,-216.05 414.25,-222.05 408.25,-228.05 402.25,-228.05"/>
<text xml:space="preserve" text-anchor="middle" x="371" y="-213.6" font-family="Segoe UI" font-size="11.00">NDIS Miniport</text>
<text xml:space="preserve" text-anchor="middle" x="371" y="-198.6" font-family="Segoe UI" font-size="11.00">Driver</text>
</g>
<!-- npcap_dll&#45;&gt;ndis -->
<g id="edge23" class="edge">
<title>npcap_dll&#45;&gt;ndis</title>
<path fill="none" stroke="#c62828" d="M371,-278.01C371,-266.92 371,-252.5 371,-239.8"/>
<polygon fill="#c62828" stroke="#c62828" points="374.5,-239.83 371,-229.83 367.5,-239.83 374.5,-239.83"/>
<text xml:space="preserve" text-anchor="middle" x="393.5" y="-250.8" font-family="Segoe UI" font-size="10.00">kernel call</text>
</g>
<!-- nic -->
<g id="node21" class="node">
<title>nic</title>
<polygon fill="#ffcdd2" stroke="#c62828" points="422.88,-153.05 323.12,-153.05 319.12,-149.05 319.12,-115.05 418.88,-115.05 422.88,-119.05 422.88,-153.05"/>
<polyline fill="none" stroke="#c62828" points="418.88,-149.05 319.12,-149.05"/>
<polyline fill="none" stroke="#c62828" points="418.88,-149.05 418.88,-115.05"/>
<polyline fill="none" stroke="#c62828" points="418.88,-149.05 422.88,-153.05"/>
<text xml:space="preserve" text-anchor="middle" x="371" y="-138.6" font-family="Segoe UI" font-size="11.00">Network Interface</text>
<text xml:space="preserve" text-anchor="middle" x="371" y="-123.6" font-family="Segoe UI" font-size="11.00">Card (NIC)</text>
</g>
<!-- ndis&#45;&gt;nic -->
<g id="edge24" class="edge">
<title>ndis&#45;&gt;nic</title>
<path fill="none" stroke="#c62828" stroke-width="2" d="M371,-189.63C371,-182.54 371,-174.24 371,-166.27"/>
<polygon fill="#c62828" stroke="#c62828" stroke-width="2" points="374.5,-166.5 371,-156.5 367.5,-166.5 374.5,-166.5"/>
</g>
<!-- ethernet -->
<g id="node22" class="node">
<title>ethernet</title>
<path fill="#ef9a9a" stroke="#c62828" d="M461.42,-53.33C461.42,-53.33 431.53,-71.76 431.53,-71.76 426.42,-74.9 415.32,-78.05 409.32,-78.05 409.32,-78.05 332.68,-78.05 332.68,-78.05 326.68,-78.05 315.58,-74.9 310.47,-71.76 310.47,-71.76 280.58,-53.33 280.58,-53.33 275.47,-50.18 275.47,-43.88 280.58,-40.73 280.58,-40.73 310.47,-22.3 310.47,-22.3 315.58,-19.15 326.68,-16 332.68,-16 332.68,-16 409.32,-16 409.32,-16 415.32,-16 426.42,-19.15 431.53,-22.3 431.53,-22.3 461.42,-40.73 461.42,-40.73 466.53,-43.88 466.53,-50.18 461.42,-53.33"/>
<text xml:space="preserve" text-anchor="middle" x="371" y="-51.58" font-family="Segoe UI" font-size="11.00">Ethernet Wire</text>
<text xml:space="preserve" text-anchor="middle" x="371" y="-36.58" font-family="Segoe UI" font-size="11.00">(IEC 61850 SV Frames)</text>
</g>
<!-- nic&#45;&gt;ethernet -->
<g id="edge25" class="edge">
<title>nic&#45;&gt;ethernet</title>
<path fill="none" stroke="#c62828" stroke-width="3" d="M371,-114.6C371,-108.09 371,-100.46 371,-92.73"/>
<polygon fill="#c62828" stroke="#c62828" stroke-width="3" points="374.5,-93.02 371,-83.02 367.5,-93.02 374.5,-93.02"/>
</g>
</g>
</svg>
