<?xml version="1.0" encoding="UTF-8" standalone="no"?>
<!DOCTYPE svg PUBLIC "-//W3C//DTD SVG 1.1//EN"
 "http://www.w3.org/Graphics/SVG/1.1/DTD/svg11.dtd">
<!-- Generated by graphviz version 14.1.2 (20260124.0452)
 -->
<!-- Title: SinglePublisherFlow Pages: 1 -->
<svg width="601pt" height="1952pt"
 viewBox="0.00 0.00 601.00 1952.00" xmlns="http://www.w3.org/2000/svg" xmlns:xlink="http://www.w3.org/1999/xlink">
<g id="graph0" class="graph" transform="scale(1 1) rotate(0) translate(4 1947.56)">
<title>SinglePublisherFlow</title>
<polygon fill="white" stroke="none" points="-4,4 -4,-1947.56 597,-1947.56 597,4 -4,4"/>
<text xml:space="preserve" text-anchor="middle" x="296.5" y="-1928.16" font-family="Segoe UI" font-size="12.00">Single&#45;Publisher Data Flow</text>
<text xml:space="preserve" text-anchor="middle" x="296.5" y="-1910.91" font-family="Segoe UI" font-size="12.00">(Frontend → Rust → C++ → Network)</text>
<g id="clust1" class="cluster">
<title>cluster_config</title>
<path fill="#e3f2fd" stroke="#1565c0" d="M20,-1772.56C20,-1772.56 573,-1772.56 573,-1772.56 579,-1772.56 585,-1778.56 585,-1784.56 585,-1784.56 585,-1881.06 585,-1881.06 585,-1887.06 579,-1893.06 573,-1893.06 573,-1893.06 20,-1893.06 20,-1893.06 14,-1893.06 8,-1887.06 8,-1881.06 8,-1881.06 8,-1784.56 8,-1784.56 8,-1778.56 14,-1772.56 20,-1772.56"/>
<text xml:space="preserve" text-anchor="middle" x="296.5" y="-1877.66" font-family="Segoe UI" font-size="12.00">1. Configuration Phase</text>
</g>
<g id="clust2" class="cluster">
<title>cluster_ffi</title>
<path fill="#fff3e0" stroke="#e65100" d="M52,-1649.81C52,-1649.81 551,-1649.81 551,-1649.81 557,-1649.81 563,-1655.81 563,-1661.81 563,-1661.81 563,-1729.81 563,-1729.81 563,-1735.81 557,-1741.81 551,-1741.81 551,-1741.81 52,-1741.81 52,-1741.81 46,-1741.81 40,-1735.81 40,-1729.81 40,-1729.81 40,-1661.81 40,-1661.81 40,-1655.81 46,-1649.81 52,-1649.81"/>
<text xml:space="preserve" text-anchor="middle" x="301.5" y="-1726.41" font-family="Segoe UI" font-size="12.00">2. FFI Bridge (ffi.rs)</text>
</g>
<g id="clust3" class="cluster">
<title>cluster_prebuild</title>
<path fill="#e8f5e9" stroke="#2e7d32" d="M52,-1089.37C52,-1089.37 340,-1089.37 340,-1089.37 346,-1089.37 352,-1095.37 352,-1101.37 352,-1101.37 352,-1607.06 352,-1607.06 352,-1613.06 346,-1619.06 340,-1619.06 340,-1619.06 52,-1619.06 52,-1619.06 46,-1619.06 40,-1613.06 40,-1607.06 40,-1607.06 40,-1101.37 40,-1101.37 40,-1095.37 46,-1089.37 52,-1089.37"/>
<text xml:space="preserve" text-anchor="middle" x="196" y="-1603.66" font-family="Segoe UI" font-size="12.00">3. Pre&#45;Build Phase (C++)</text>
</g>
<g id="clust4" class="cluster">
<title>cluster_hotloop</title>
<path fill="#fff3e0" stroke="#e65100" d="M53,-128.12C53,-128.12 329,-128.12 329,-128.12 335,-128.12 341,-134.12 341,-140.12 341,-140.12 341,-1033.87 341,-1033.87 341,-1039.87 335,-1045.87 329,-1045.87 329,-1045.87 53,-1045.87 53,-1045.87 47,-1045.87 41,-1039.87 41,-1033.87 41,-1033.87 41,-140.12 41,-140.12 41,-134.12 47,-128.12 53,-128.12"/>
<text xml:space="preserve" text-anchor="middle" x="191" y="-1030.47" font-family="Segoe UI" font-size="12.00">4. Hot Publishing Loop (zero&#45;alloc)</text>
</g>
<g id="clust5" class="cluster">
<title>cluster_net</title>
<path fill="#ffebee" stroke="#c62828" d="M361,-8C361,-8 517,-8 517,-8 523,-8 529,-14 529,-20 529,-20 529,-193.62 529,-193.62 529,-199.62 523,-205.62 517,-205.62 517,-205.62 361,-205.62 361,-205.62 355,-205.62 349,-199.62 349,-193.62 349,-193.62 349,-20 349,-20 349,-14 355,-8 361,-8"/>
<text xml:space="preserve" text-anchor="middle" x="439" y="-190.22" font-family="Segoe UI" font-size="12.00">5. Network Output</text>
</g>
<!-- set_config -->
<g id="node1" class="node">
<title>set_config</title>
<path fill="#bbdefb" stroke="black" d="M128,-1859.81C128,-1859.81 28,-1859.81 28,-1859.81 22,-1859.81 16,-1853.81 16,-1847.81 16,-1847.81 16,-1792.56 16,-1792.56 16,-1786.56 22,-1780.56 28,-1780.56 28,-1780.56 128,-1780.56 128,-1780.56 134,-1780.56 140,-1786.56 140,-1792.56 140,-1792.56 140,-1847.81 140,-1847.81 140,-1853.81 134,-1859.81 128,-1859.81"/>
<text xml:space="preserve" text-anchor="middle" x="78" y="-1846.31" font-family="Segoe UI" font-size="10.00">set_config(SvConfig)</text>
<text xml:space="preserve" text-anchor="middle" x="78" y="-1832.06" font-family="Segoe UI" font-size="10.00">• svID, appID, MACs</text>
<text xml:space="preserve" text-anchor="middle" x="78" y="-1817.81" font-family="Segoe UI" font-size="10.00">• sampleRate, frequency</text>
<text xml:space="preserve" text-anchor="middle" x="78" y="-1803.56" font-family="Segoe UI" font-size="10.00">• vlanID, noASDU</text>
<text xml:space="preserve" text-anchor="middle" x="78" y="-1789.31" font-family="Segoe UI" font-size="10.00">• channelCount (1&#45;20)</text>
</g>
<!-- ffi_config -->
<g id="node5" class="node">
<title>ffi_config</title>
<path fill="#ffe0b2" stroke="black" d="M147.62,-1708.56C147.62,-1708.56 60.38,-1708.56 60.38,-1708.56 54.38,-1708.56 48.38,-1702.56 48.38,-1696.56 48.38,-1696.56 48.38,-1669.81 48.38,-1669.81 48.38,-1663.81 54.38,-1657.81 60.38,-1657.81 60.38,-1657.81 147.62,-1657.81 147.62,-1657.81 153.62,-1657.81 159.62,-1663.81 159.62,-1669.81 159.62,-1669.81 159.62,-1696.56 159.62,-1696.56 159.62,-1702.56 153.62,-1708.56 147.62,-1708.56"/>
<text xml:space="preserve" text-anchor="middle" x="104" y="-1695.06" font-family="Segoe UI" font-size="10.00">publisher_configure()</text>
<text xml:space="preserve" text-anchor="middle" x="104" y="-1680.81" font-family="Segoe UI" font-size="10.00">CString conversion</text>
<text xml:space="preserve" text-anchor="middle" x="104" y="-1666.56" font-family="Segoe UI" font-size="10.00">MAC pointer passing</text>
</g>
<!-- set_config&#45;&gt;ffi_config -->
<g id="edge1" class="edge">
<title>set_config&#45;&gt;ffi_config</title>
<path fill="none" stroke="black" d="M85.52,-1780.14C89.18,-1761.14 93.55,-1738.46 97.12,-1719.92"/>
<polygon fill="black" stroke="black" points="100.54,-1720.67 98.99,-1710.19 93.66,-1719.35 100.54,-1720.67"/>
</g>
<!-- set_channels -->
<g id="node2" class="node">
<title>set_channels</title>
<path fill="#bbdefb" stroke="black" d="M302.12,-1852.69C302.12,-1852.69 169.88,-1852.69 169.88,-1852.69 163.88,-1852.69 157.88,-1846.69 157.88,-1840.69 157.88,-1840.69 157.88,-1799.69 157.88,-1799.69 157.88,-1793.69 163.88,-1787.69 169.88,-1787.69 169.88,-1787.69 302.12,-1787.69 302.12,-1787.69 308.12,-1787.69 314.12,-1793.69 314.12,-1799.69 314.12,-1799.69 314.12,-1840.69 314.12,-1840.69 314.12,-1846.69 308.12,-1852.69 302.12,-1852.69"/>
<text xml:space="preserve" text-anchor="middle" x="236" y="-1839.19" font-family="Segoe UI" font-size="10.00">set_channels(Vec&lt;Channel&gt;)</text>
<text xml:space="preserve" text-anchor="middle" x="236" y="-1824.94" font-family="Segoe UI" font-size="10.00">• id: &quot;Ia&quot;, &quot;Ib&quot;, ...</text>
<text xml:space="preserve" text-anchor="middle" x="236" y="-1810.69" font-family="Segoe UI" font-size="10.00">• equation: &quot;100*sin(2*PI*50*t)&quot;</text>
<text xml:space="preserve" text-anchor="middle" x="236" y="-1796.44" font-family="Segoe UI" font-size="10.00">• type: current/voltage</text>
</g>
<!-- ffi_eq -->
<g id="node6" class="node">
<title>ffi_eq</title>
<path fill="#ffe0b2" stroke="black" d="M292.5,-1701.44C292.5,-1701.44 189.5,-1701.44 189.5,-1701.44 183.5,-1701.44 177.5,-1695.44 177.5,-1689.44 177.5,-1689.44 177.5,-1676.94 177.5,-1676.94 177.5,-1670.94 183.5,-1664.94 189.5,-1664.94 189.5,-1664.94 292.5,-1664.94 292.5,-1664.94 298.5,-1664.94 304.5,-1670.94 304.5,-1676.94 304.5,-1676.94 304.5,-1689.44 304.5,-1689.44 304.5,-1695.44 298.5,-1701.44 292.5,-1701.44"/>
<text xml:space="preserve" text-anchor="middle" x="241" y="-1687.94" font-family="Segoe UI" font-size="10.00">set_equations()</text>
<text xml:space="preserve" text-anchor="middle" x="241" y="-1673.69" font-family="Segoe UI" font-size="10.00">Format: &quot;Ia:eq1|Ib:eq2|...&quot;</text>
</g>
<!-- set_channels&#45;&gt;ffi_eq -->
<g id="edge2" class="edge">
<title>set_channels&#45;&gt;ffi_eq</title>
<path fill="none" stroke="black" d="M237.18,-1787.19C238.01,-1764.8 239.11,-1735.11 239.92,-1713.36"/>
<polygon fill="black" stroke="black" points="243.42,-1713.53 240.29,-1703.41 236.42,-1713.27 243.42,-1713.53"/>
</g>
<!-- set_duration -->
<g id="node3" class="node">
<title>set_duration</title>
<path fill="#bbdefb" stroke="black" d="M429.5,-1852.69C429.5,-1852.69 344.5,-1852.69 344.5,-1852.69 338.5,-1852.69 332.5,-1846.69 332.5,-1840.69 332.5,-1840.69 332.5,-1799.69 332.5,-1799.69 332.5,-1793.69 338.5,-1787.69 344.5,-1787.69 344.5,-1787.69 429.5,-1787.69 429.5,-1787.69 435.5,-1787.69 441.5,-1793.69 441.5,-1799.69 441.5,-1799.69 441.5,-1840.69 441.5,-1840.69 441.5,-1846.69 435.5,-1852.69 429.5,-1852.69"/>
<text xml:space="preserve" text-anchor="middle" x="387" y="-1839.19" font-family="Segoe UI" font-size="10.00">set_duration_mode()</text>
<text xml:space="preserve" text-anchor="middle" x="387" y="-1824.94" font-family="Segoe UI" font-size="10.00">• durationSeconds</text>
<text xml:space="preserve" text-anchor="middle" x="387" y="-1810.69" font-family="Segoe UI" font-size="10.00">• repeatEnabled</text>
<text xml:space="preserve" text-anchor="middle" x="387" y="-1796.44" font-family="Segoe UI" font-size="10.00">• repeatCount</text>
</g>
<!-- ffi_duration -->
<g id="node7" class="node">
<title>ffi_duration</title>
<path fill="#ffe0b2" stroke="black" d="M435,-1701.44C435,-1701.44 335,-1701.44 335,-1701.44 329,-1701.44 323,-1695.44 323,-1689.44 323,-1689.44 323,-1676.94 323,-1676.94 323,-1670.94 329,-1664.94 335,-1664.94 335,-1664.94 435,-1664.94 435,-1664.94 441,-1664.94 447,-1670.94 447,-1676.94 447,-1676.94 447,-1689.44 447,-1689.44 447,-1695.44 441,-1701.44 435,-1701.44"/>
<text xml:space="preserve" text-anchor="middle" x="385" y="-1687.94" font-family="Segoe UI" font-size="10.00">set_duration_mode()</text>
<text xml:space="preserve" text-anchor="middle" x="385" y="-1673.69" font-family="Segoe UI" font-size="10.00">bool → c_int conversion</text>
</g>
<!-- set_duration&#45;&gt;ffi_duration -->
<g id="edge3" class="edge">
<title>set_duration&#45;&gt;ffi_duration</title>
<path fill="none" stroke="black" d="M386.53,-1787.19C386.19,-1764.8 385.75,-1735.11 385.43,-1713.36"/>
<polygon fill="black" stroke="black" points="388.93,-1713.35 385.28,-1703.41 381.93,-1713.46 388.93,-1713.35"/>
</g>
<!-- set_mode -->
<g id="node4" class="node">
<title>set_mode</title>
<path fill="#bbdefb" stroke="black" d="M564.62,-1845.56C564.62,-1845.56 471.38,-1845.56 471.38,-1845.56 465.38,-1845.56 459.38,-1839.56 459.38,-1833.56 459.38,-1833.56 459.38,-1806.81 459.38,-1806.81 459.38,-1800.81 465.38,-1794.81 471.38,-1794.81 471.38,-1794.81 564.62,-1794.81 564.62,-1794.81 570.62,-1794.81 576.62,-1800.81 576.62,-1806.81 576.62,-1806.81 576.62,-1833.56 576.62,-1833.56 576.62,-1839.56 570.62,-1845.56 564.62,-1845.56"/>
<text xml:space="preserve" text-anchor="middle" x="518" y="-1832.06" font-family="Segoe UI" font-size="10.00">set_send_mode(mode)</text>
<text xml:space="preserve" text-anchor="middle" x="518" y="-1817.81" font-family="Segoe UI" font-size="10.00">0=auto, 1=batch</text>
<text xml:space="preserve" text-anchor="middle" x="518" y="-1803.56" font-family="Segoe UI" font-size="10.00">2=immediate, 3=USB</text>
</g>
<!-- ffi_start -->
<g id="node8" class="node">
<title>ffi_start</title>
<path fill="#ffe0b2" stroke="black" d="M542.75,-1701.44C542.75,-1701.44 477.25,-1701.44 477.25,-1701.44 471.25,-1701.44 465.25,-1695.44 465.25,-1689.44 465.25,-1689.44 465.25,-1676.94 465.25,-1676.94 465.25,-1670.94 471.25,-1664.94 477.25,-1664.94 477.25,-1664.94 542.75,-1664.94 542.75,-1664.94 548.75,-1664.94 554.75,-1670.94 554.75,-1676.94 554.75,-1676.94 554.75,-1689.44 554.75,-1689.44 554.75,-1695.44 548.75,-1701.44 542.75,-1701.44"/>
<text xml:space="preserve" text-anchor="middle" x="510" y="-1687.94" font-family="Segoe UI" font-size="10.00">publisher_start()</text>
<text xml:space="preserve" text-anchor="middle" x="510" y="-1673.69" font-family="Segoe UI" font-size="10.00">→ returns 0 / &#45;1</text>
</g>
<!-- set_mode&#45;&gt;ffi_start -->
<g id="edge4" class="edge">
<title>set_mode&#45;&gt;ffi_start</title>
<path fill="none" stroke="black" stroke-dasharray="5,2" d="M516.53,-1794.43C515.17,-1771.5 513.15,-1737.41 511.72,-1713.22"/>
<polygon fill="black" stroke="black" points="515.23,-1713.19 511.14,-1703.42 508.24,-1713.61 515.23,-1713.19"/>
<text xml:space="preserve" text-anchor="middle" x="523.48" y="-1754.01" font-family="Segoe UI" font-size="9.00">then</text>
</g>
<!-- config_encoder -->
<g id="node10" class="node">
<title>config_encoder</title>
<path fill="#c8e6c9" stroke="black" d="M164.25,-1578.69C164.25,-1578.69 59.75,-1578.69 59.75,-1578.69 53.75,-1578.69 47.75,-1572.69 47.75,-1566.69 47.75,-1566.69 47.75,-1525.69 47.75,-1525.69 47.75,-1519.69 53.75,-1513.69 59.75,-1513.69 59.75,-1513.69 164.25,-1513.69 164.25,-1513.69 170.25,-1513.69 176.25,-1519.69 176.25,-1525.69 176.25,-1525.69 176.25,-1566.69 176.25,-1566.69 176.25,-1572.69 170.25,-1578.69 164.25,-1578.69"/>
<text xml:space="preserve" text-anchor="middle" x="112" y="-1565.19" font-family="Segoe UI" font-size="10.00">Configure Encoder</text>
<text xml:space="preserve" text-anchor="middle" x="112" y="-1550.94" font-family="Segoe UI" font-size="10.00">sv_encoder_set_config()</text>
<text xml:space="preserve" text-anchor="middle" x="112" y="-1536.69" font-family="Segoe UI" font-size="10.00">• Set MACs, VLAN, APPID</text>
<text xml:space="preserve" text-anchor="middle" x="112" y="-1522.44" font-family="Segoe UI" font-size="10.00">• Set channelCount</text>
</g>
<!-- ffi_config&#45;&gt;config_encoder -->
<g id="edge5" class="edge">
<title>ffi_config&#45;&gt;config_encoder</title>
<path fill="none" stroke="black" d="M105.47,-1657.43C106.58,-1638.71 108.13,-1612.56 109.44,-1590.42"/>
<polygon fill="black" stroke="black" points="112.93,-1590.64 110.03,-1580.45 105.94,-1590.23 112.93,-1590.64"/>
<text xml:space="preserve" text-anchor="middle" x="126.92" y="-1631.26" font-family="Segoe UI" font-size="9.00">extern &quot;C&quot;</text>
</g>
<!-- parse_eq -->
<g id="node9" class="node">
<title>parse_eq</title>
<path fill="#c8e6c9" stroke="black" d="M332.12,-1585.81C332.12,-1585.81 205.88,-1585.81 205.88,-1585.81 199.88,-1585.81 193.88,-1579.81 193.88,-1573.81 193.88,-1573.81 193.88,-1518.56 193.88,-1518.56 193.88,-1512.56 199.88,-1506.56 205.88,-1506.56 205.88,-1506.56 332.12,-1506.56 332.12,-1506.56 338.12,-1506.56 344.12,-1512.56 344.12,-1518.56 344.12,-1518.56 344.12,-1573.81 344.12,-1573.81 344.12,-1579.81 338.12,-1585.81 332.12,-1585.81"/>
<text xml:space="preserve" text-anchor="middle" x="269" y="-1572.31" font-family="Segoe UI" font-size="10.00">Equation Parsing</text>
<text xml:space="preserve" text-anchor="middle" x="269" y="-1558.06" font-family="Segoe UI" font-size="10.00">eq_load_equations()</text>
<text xml:space="preserve" text-anchor="middle" x="269" y="-1543.81" font-family="Segoe UI" font-size="10.00">• Split by &#39;|&#39;</text>
<text xml:space="preserve" text-anchor="middle" x="269" y="-1529.56" font-family="Segoe UI" font-size="10.00">• Parse amplitude, freq, phase</text>
<text xml:space="preserve" text-anchor="middle" x="269" y="-1515.31" font-family="Segoe UI" font-size="10.00">• Detect waveform type</text>
</g>
<!-- ffi_eq&#45;&gt;parse_eq -->
<g id="edge6" class="edge">
<title>ffi_eq&#45;&gt;parse_eq</title>
<path fill="none" stroke="black" d="M244.66,-1664.54C248.19,-1647.52 253.7,-1620.96 258.58,-1597.41"/>
<polygon fill="black" stroke="black" points="262.01,-1598.13 260.61,-1587.63 255.15,-1596.71 262.01,-1598.13"/>
<text xml:space="preserve" text-anchor="middle" x="271.54" y="-1631.26" font-family="Segoe UI" font-size="9.00">extern &quot;C&quot;</text>
</g>
<!-- prebuild -->
<g id="node11" class="node">
<title>prebuild</title>
<path fill="#a5d6a7" stroke="black" stroke-width="2" d="M325.75,-1469.56C325.75,-1469.56 212.25,-1469.56 212.25,-1469.56 206.25,-1469.56 200.25,-1463.56 200.25,-1457.56 200.25,-1457.56 200.25,-1445.06 200.25,-1445.06 200.25,-1439.06 206.25,-1433.06 212.25,-1433.06 212.25,-1433.06 325.75,-1433.06 325.75,-1433.06 331.75,-1433.06 337.75,-1439.06 337.75,-1445.06 337.75,-1445.06 337.75,-1457.56 337.75,-1457.56 337.75,-1463.56 331.75,-1469.56 325.75,-1469.56"/>
<text xml:space="preserve" text-anchor="middle" x="269" y="-1456.06" font-family="Segoe UI" font-size="10.00">prebuild_frames()</text>
<text xml:space="preserve" text-anchor="middle" x="269" y="-1441.81" font-family="Segoe UI" font-size="10.00">For smpCnt = 0 to (rate&#45;1):</text>
</g>
<!-- ffi_duration&#45;&gt;prebuild -->
<g id="edge7" class="edge">
<title>ffi_duration&#45;&gt;prebuild</title>
<path fill="none" stroke="black" stroke-dasharray="5,2" d="M386.18,-1664.55C387.54,-1630.87 386.22,-1556.31 353,-1506.56 344.78,-1494.25 332.72,-1484.12 320.28,-1476.09"/>
<polygon fill="black" stroke="black" points="322.43,-1473.3 312.06,-1471.13 318.82,-1479.29 322.43,-1473.3"/>
</g>
<!-- ffi_start&#45;&gt;prebuild -->
<g id="edge8" class="edge">
<title>ffi_start&#45;&gt;prebuild</title>
<path fill="none" stroke="black" stroke-width="2" d="M500.66,-1664.61C481.97,-1630.7 437.08,-1555.31 383,-1506.56 369.04,-1493.98 351.65,-1483.75 334.69,-1475.69"/>
<polygon fill="black" stroke="black" stroke-width="2" points="336.38,-1472.61 325.83,-1471.7 333.51,-1479 336.38,-1472.61"/>
<text xml:space="preserve" text-anchor="middle" x="519.46" y="-1544.01" font-family="Segoe UI" font-size="9.00">npcap_publisher_start()</text>
</g>
<!-- parse_eq&#45;&gt;prebuild -->
<g id="edge9" class="edge">
<title>parse_eq&#45;&gt;prebuild</title>
<path fill="none" stroke="black" d="M269,-1506.07C269,-1497.87 269,-1489.36 269,-1481.59"/>
<polygon fill="black" stroke="black" points="272.5,-1481.67 269,-1471.67 265.5,-1481.67 272.5,-1481.67"/>
</g>
<!-- config_encoder&#45;&gt;prebuild -->
<g id="edge10" class="edge">
<title>config_encoder&#45;&gt;prebuild</title>
<path fill="none" stroke="black" d="M166.03,-1513.22C186.48,-1501.13 209.39,-1487.57 228.4,-1476.33"/>
<polygon fill="black" stroke="black" points="230.11,-1479.38 236.94,-1471.28 226.55,-1473.36 230.11,-1479.38"/>
</g>
<!-- gen_time -->
<g id="node12" class="node">
<title>gen_time</title>
<ellipse fill="#c8e6c9" stroke="black" cx="199" cy="-1378.06" rx="81.73" ry="18"/>
<text xml:space="preserve" text-anchor="middle" x="199" y="-1375.69" font-family="Segoe UI" font-size="10.00">t = smpCnt / sampleRate</text>
</g>
<!-- prebuild&#45;&gt;gen_time -->
<g id="edge11" class="edge">
<title>prebuild&#45;&gt;gen_time</title>
<path fill="none" stroke="black" d="M251.34,-1432.33C242.9,-1423.75 232.67,-1413.33 223.5,-1404"/>
<polygon fill="black" stroke="black" points="226.02,-1401.57 216.52,-1396.89 221.03,-1406.48 226.02,-1401.57"/>
</g>
<!-- gen_samples -->
<g id="node13" class="node">
<title>gen_samples</title>
<path fill="#c8e6c9" stroke="black" d="M245.5,-1323.06C245.5,-1323.06 100.5,-1323.06 100.5,-1323.06 94.5,-1323.06 88.5,-1317.06 88.5,-1311.06 88.5,-1311.06 88.5,-1284.31 88.5,-1284.31 88.5,-1278.31 94.5,-1272.31 100.5,-1272.31 100.5,-1272.31 245.5,-1272.31 245.5,-1272.31 251.5,-1272.31 257.5,-1278.31 257.5,-1284.31 257.5,-1284.31 257.5,-1311.06 257.5,-1311.06 257.5,-1317.06 251.5,-1323.06 245.5,-1323.06"/>
<text xml:space="preserve" text-anchor="middle" x="173" y="-1309.56" font-family="Segoe UI" font-size="10.00">eq_generate_all_samples(t)</text>
<text xml:space="preserve" text-anchor="middle" x="173" y="-1295.31" font-family="Segoe UI" font-size="10.00">amp × waveform(2πft + φ) × 1000</text>
<text xml:space="preserve" text-anchor="middle" x="173" y="-1281.06" font-family="Segoe UI" font-size="10.00">→ int32_t[channelCount]</text>
</g>
<!-- gen_time&#45;&gt;gen_samples -->
<g id="edge12" class="edge">
<title>gen_time&#45;&gt;gen_samples</title>
<path fill="none" stroke="black" d="M193.23,-1359.67C190.75,-1352.18 187.75,-1343.15 184.83,-1334.35"/>
<polygon fill="black" stroke="black" points="188.17,-1333.29 181.7,-1324.9 181.52,-1335.5 188.17,-1333.29"/>
</g>
<!-- encode -->
<g id="node14" class="node">
<title>encode</title>
<path fill="#c8e6c9" stroke="black" d="M248.88,-1235.31C248.88,-1235.31 97.12,-1235.31 97.12,-1235.31 91.12,-1235.31 85.12,-1229.31 85.12,-1223.31 85.12,-1223.31 85.12,-1196.56 85.12,-1196.56 85.12,-1190.56 91.12,-1184.56 97.12,-1184.56 97.12,-1184.56 248.88,-1184.56 248.88,-1184.56 254.88,-1184.56 260.88,-1190.56 260.88,-1196.56 260.88,-1196.56 260.88,-1223.31 260.88,-1223.31 260.88,-1229.31 254.88,-1235.31 248.88,-1235.31"/>
<text xml:space="preserve" text-anchor="middle" x="173" y="-1221.81" font-family="Segoe UI" font-size="10.00">sv_encoder_encode_packet()</text>
<text xml:space="preserve" text-anchor="middle" x="173" y="-1207.56" font-family="Segoe UI" font-size="10.00">→ ETH + VLAN + SV APDU + ASN.1</text>
<text xml:space="preserve" text-anchor="middle" x="173" y="-1193.31" font-family="Segoe UI" font-size="10.00">→ frame bytes</text>
</g>
<!-- gen_samples&#45;&gt;encode -->
<g id="edge13" class="edge">
<title>gen_samples&#45;&gt;encode</title>
<path fill="none" stroke="black" d="M173,-1271.88C173,-1264.15 173,-1255.46 173,-1247.11"/>
<polygon fill="black" stroke="black" points="176.5,-1247.2 173,-1237.2 169.5,-1247.2 176.5,-1247.2"/>
</g>
<!-- store -->
<g id="node15" class="node">
<title>store</title>
<path fill="#c8e6c9" stroke="black" d="M232.38,-1143C232.38,-1145.52 205.76,-1147.56 173,-1147.56 140.24,-1147.56 113.62,-1145.52 113.62,-1143 113.62,-1143 113.62,-1101.94 113.62,-1101.94 113.62,-1099.42 140.24,-1097.37 173,-1097.37 205.76,-1097.37 232.38,-1099.42 232.38,-1101.94 232.38,-1101.94 232.38,-1143 232.38,-1143"/>
<path fill="none" stroke="black" d="M232.38,-1143C232.38,-1140.48 205.76,-1138.44 173,-1138.44 140.24,-1138.44 113.62,-1140.48 113.62,-1143"/>
<text xml:space="preserve" text-anchor="middle" x="173" y="-1127.22" font-family="Segoe UI" font-size="10.00">Cache: frames[smpCnt]</text>
<text xml:space="preserve" text-anchor="middle" x="173" y="-1112.97" font-family="Segoe UI" font-size="10.00">frameLens[smpCnt]</text>
</g>
<!-- encode&#45;&gt;store -->
<g id="edge14" class="edge">
<title>encode&#45;&gt;store</title>
<path fill="none" stroke="black" d="M173,-1184.22C173,-1176.44 173,-1167.69 173,-1159.31"/>
<polygon fill="black" stroke="black" points="176.5,-1159.35 173,-1149.35 169.5,-1159.35 176.5,-1159.35"/>
</g>
<!-- store&#45;&gt;prebuild -->
<g id="edge15" class="edge">
<title>store&#45;&gt;prebuild</title>
<path fill="none" stroke="black" stroke-dasharray="5,2" d="M227.39,-1146.27C243.65,-1155.75 259.83,-1168.39 270,-1184.56 301.44,-1234.59 302.21,-1330.68 290,-1396.06 288.39,-1404.66 285.47,-1413.65 282.3,-1421.79"/>
<polygon fill="black" stroke="black" points="279.15,-1420.26 278.52,-1430.83 285.61,-1422.96 279.15,-1420.26"/>
<text xml:space="preserve" text-anchor="middle" x="322.08" y="-1295.51" font-family="Segoe UI" font-size="9.00">next smpCnt</text>
</g>
<!-- loop_start -->
<g id="node16" class="node">
<title>loop_start</title>
<path fill="#ffe0b2" stroke="black" d="M223.38,-1012.62C223.38,-1012.62 122.62,-1012.62 122.62,-1012.62 116.62,-1012.62 110.62,-1006.62 110.62,-1000.62 110.62,-1000.62 110.62,-959.62 110.62,-959.62 110.62,-953.62 116.62,-947.62 122.62,-947.62 122.62,-947.62 223.38,-947.62 223.38,-947.62 229.38,-947.62 235.38,-953.62 235.38,-959.62 235.38,-959.62 235.38,-1000.62 235.38,-1000.62 235.38,-1006.62 229.38,-1012.62 223.38,-1012.62"/>
<text xml:space="preserve" text-anchor="middle" x="173" y="-999.12" font-family="Segoe UI" font-size="10.00">Thread Start</text>
<text xml:space="preserve" text-anchor="middle" x="173" y="-984.87" font-family="Segoe UI" font-size="10.00">elevate_thread_priority()</text>
<text xml:space="preserve" text-anchor="middle" x="173" y="-970.62" font-family="Segoe UI" font-size="10.00">TIME_CRITICAL, core 1</text>
<text xml:space="preserve" text-anchor="middle" x="173" y="-956.37" font-family="Segoe UI" font-size="10.00">timeBeginPeriod(1)</text>
</g>
<!-- store&#45;&gt;loop_start -->
<g id="edge16" class="edge">
<title>store&#45;&gt;loop_start</title>
<path fill="none" stroke="black" stroke-width="2" d="M173,-1097.02C173,-1077.43 173,-1049.42 173,-1025.85"/>
<polygon fill="black" stroke="black" stroke-width="2" points="176.5,-1025.96 173,-1015.96 169.5,-1025.96 176.5,-1025.96"/>
<text xml:space="preserve" text-anchor="middle" x="207.12" y="-1070.82" font-family="Segoe UI" font-size="9.00">all frames cached</text>
<text xml:space="preserve" text-anchor="middle" x="207.12" y="-1058.07" font-family="Segoe UI" font-size="9.00">spawn thread</text>
</g>
<!-- epoch -->
<g id="node17" class="node">
<title>epoch</title>
<path fill="#ffe0b2" stroke="black" d="M162.19,-905.41C162.19,-905.41 78.56,-865.09 78.56,-865.09 73.15,-862.48 73.15,-857.27 78.56,-854.66 78.56,-854.66 162.19,-814.34 162.19,-814.34 167.6,-811.73 178.4,-811.73 183.81,-814.34 183.81,-814.34 267.44,-854.66 267.44,-854.66 272.85,-857.27 272.85,-862.48 267.44,-865.09 267.44,-865.09 183.81,-905.41 183.81,-905.41 178.4,-908.02 167.6,-908.02 162.19,-905.41"/>
<text xml:space="preserve" text-anchor="middle" x="173" y="-871.75" font-family="Segoe UI" font-size="10.00">Set Epoch</text>
<text xml:space="preserve" text-anchor="middle" x="173" y="-857.5" font-family="Segoe UI" font-size="10.00">epoch = QPC_now()</text>
<text xml:space="preserve" text-anchor="middle" x="173" y="-843.25" font-family="Segoe UI" font-size="10.00">idx = 0</text>
</g>
<!-- loop_start&#45;&gt;epoch -->
<g id="edge17" class="edge">
<title>loop_start&#45;&gt;epoch</title>
<path fill="none" stroke="black" d="M173,-947.44C173,-939.63 173,-931.01 173,-922.33"/>
<polygon fill="black" stroke="black" points="176.5,-922.45 173,-912.45 169.5,-922.45 176.5,-922.45"/>
</g>
<!-- get_frame -->
<g id="node18" class="node">
<title>get_frame</title>
<path fill="#ffe0b2" stroke="black" d="M239.12,-772.12C239.12,-772.12 106.88,-772.12 106.88,-772.12 100.88,-772.12 94.88,-766.12 94.88,-760.12 94.88,-760.12 94.88,-747.62 94.88,-747.62 94.88,-741.62 100.88,-735.62 106.88,-735.62 106.88,-735.62 239.12,-735.62 239.12,-735.62 245.12,-735.62 251.12,-741.62 251.12,-747.62 251.12,-747.62 251.12,-760.12 251.12,-760.12 251.12,-766.12 245.12,-772.12 239.12,-772.12"/>
<text xml:space="preserve" text-anchor="middle" x="173" y="-758.62" font-family="Segoe UI" font-size="10.00">frame = cache[idx % N]</text>
<text xml:space="preserve" text-anchor="middle" x="173" y="-744.37" font-family="Segoe UI" font-size="10.00">frameLen = frameLens[idx % N]</text>
</g>
<!-- epoch&#45;&gt;get_frame -->
<g id="edge18" class="edge">
<title>epoch&#45;&gt;get_frame</title>
<path fill="none" stroke="black" d="M173,-808.7C173,-800.11 173,-791.46 173,-783.67"/>
<polygon fill="black" stroke="black" points="176.5,-783.81 173,-773.81 169.5,-783.81 176.5,-783.81"/>
</g>
<!-- send_pkt -->
<g id="node19" class="node">
<title>send_pkt</title>
<path fill="#ff8a65" stroke="black" stroke-width="2" d="M266.38,-698.62C266.38,-698.62 135.62,-698.62 135.62,-698.62 129.62,-698.62 123.62,-692.62 123.62,-686.62 123.62,-686.62 123.62,-674.12 123.62,-674.12 123.62,-668.12 129.62,-662.12 135.62,-662.12 135.62,-662.12 266.38,-662.12 266.38,-662.12 272.38,-662.12 278.38,-668.12 278.38,-674.12 278.38,-674.12 278.38,-686.62 278.38,-686.62 278.38,-692.62 272.38,-698.62 266.38,-698.62"/>
<text xml:space="preserve" text-anchor="middle" x="201" y="-685.12" font-family="Segoe UI" font-size="10.00">npcap_send_packet(frame, len)</text>
<text xml:space="preserve" text-anchor="middle" x="201" y="-670.87" font-family="Segoe UI" font-size="10.00">or npcap_queue_transmit()</text>
</g>
<!-- get_frame&#45;&gt;send_pkt -->
<g id="edge19" class="edge">
<title>get_frame&#45;&gt;send_pkt</title>
<path fill="none" stroke="black" d="M179.92,-735.2C182.87,-727.67 186.39,-718.68 189.7,-710.23"/>
<polygon fill="black" stroke="black" points="192.93,-711.59 193.31,-701 186.41,-709.04 192.93,-711.59"/>
</g>
<!-- record -->
<g id="node20" class="node">
<title>record</title>
<path fill="#ffe0b2" stroke="black" d="M251.75,-625.12C251.75,-625.12 150.25,-625.12 150.25,-625.12 144.25,-625.12 138.25,-619.12 138.25,-613.12 138.25,-613.12 138.25,-586.37 138.25,-586.37 138.25,-580.37 144.25,-574.37 150.25,-574.37 150.25,-574.37 251.75,-574.37 251.75,-574.37 257.75,-574.37 263.75,-580.37 263.75,-586.37 263.75,-586.37 263.75,-613.12 263.75,-613.12 263.75,-619.12 257.75,-625.12 251.75,-625.12"/>
<text xml:space="preserve" text-anchor="middle" x="201" y="-611.62" font-family="Segoe UI" font-size="10.00">stats_record_packet(len)</text>
<text xml:space="preserve" text-anchor="middle" x="201" y="-597.37" font-family="Segoe UI" font-size="10.00">packets_sent++</text>
<text xml:space="preserve" text-anchor="middle" x="201" y="-583.12" font-family="Segoe UI" font-size="10.00">bytes_sent += len</text>
</g>
<!-- send_pkt&#45;&gt;record -->
<g id="edge20" class="edge">
<title>send_pkt&#45;&gt;record</title>
<path fill="none" stroke="black" d="M201,-661.14C201,-653.84 201,-645.17 201,-636.7"/>
<polygon fill="black" stroke="black" points="204.5,-636.95 201,-626.95 197.5,-636.95 204.5,-636.95"/>
</g>
<!-- pcap -->
<g id="node24" class="node">
<title>pcap</title>
<path fill="#ffcdd2" stroke="black" d="M498.62,-172.37C498.62,-172.37 369.38,-172.37 369.38,-172.37 363.38,-172.37 357.38,-166.37 357.38,-160.37 357.38,-160.37 357.38,-147.87 357.38,-147.87 357.38,-141.87 363.38,-135.87 369.38,-135.87 369.38,-135.87 498.62,-135.87 498.62,-135.87 504.62,-135.87 510.62,-141.87 510.62,-147.87 510.62,-147.87 510.62,-160.37 510.62,-160.37 510.62,-166.37 504.62,-172.37 498.62,-172.37"/>
<text xml:space="preserve" text-anchor="middle" x="434" y="-158.87" font-family="Segoe UI" font-size="10.00">pcap_sendpacket()</text>
<text xml:space="preserve" text-anchor="middle" x="434" y="-144.62" font-family="Segoe UI" font-size="10.00">or pcap_sendqueue_transmit()</text>
</g>
<!-- send_pkt&#45;&gt;pcap -->
<g id="edge26" class="edge">
<title>send_pkt&#45;&gt;pcap</title>
<path fill="none" stroke="#c62828" stroke-width="2" d="M279.18,-663.6C335.28,-649.95 401,-628.12 401,-600.75 401,-600.75 401,-600.75 401,-306.87 401,-263.66 413.94,-215.07 423.61,-184.78"/>
<polygon fill="#c62828" stroke="#c62828" stroke-width="2" points="426.87,-186.08 426.69,-175.48 420.22,-183.88 426.87,-186.08"/>
<text xml:space="preserve" text-anchor="middle" x="420.12" y="-458.45" font-family="Segoe UI" font-size="9.00">via npcap</text>
</g>
<!-- timing -->
<g id="node21" class="node">
<title>timing</title>
<path fill="#ffe0b2" stroke="black" d="M190.23,-520.33C190.23,-520.33 79.52,-465.92 79.52,-465.92 74.13,-463.27 74.13,-457.98 79.52,-455.33 79.52,-455.33 190.23,-400.92 190.23,-400.92 195.62,-398.27 206.38,-398.27 211.77,-400.92 211.77,-400.92 322.48,-455.33 322.48,-455.33 327.87,-457.98 327.87,-463.27 322.48,-465.92 322.48,-465.92 211.77,-520.33 211.77,-520.33 206.38,-522.98 195.62,-522.98 190.23,-520.33"/>
<text xml:space="preserve" text-anchor="middle" x="201" y="-479.62" font-family="Segoe UI" font-size="10.00">Pacing Strategy</text>
<text xml:space="preserve" text-anchor="middle" x="201" y="-465.37" font-family="Segoe UI" font-size="10.00">• SLEEP+SPIN (≤4800 pps)</text>
<text xml:space="preserve" text-anchor="middle" x="201" y="-451.12" font-family="Segoe UI" font-size="10.00">• Pure SPIN (≤50000 pps)</text>
<text xml:space="preserve" text-anchor="middle" x="201" y="-436.87" font-family="Segoe UI" font-size="10.00">• NO WAIT (&gt;50000 pps)</text>
</g>
<!-- record&#45;&gt;timing -->
<g id="edge21" class="edge">
<title>record&#45;&gt;timing</title>
<path fill="none" stroke="black" d="M201,-573.92C201,-563.37 201,-550.44 201,-537.17"/>
<polygon fill="black" stroke="black" points="204.5,-537.49 201,-527.49 197.5,-537.49 204.5,-537.49"/>
</g>
<!-- duration_check -->
<g id="node22" class="node">
<title>duration_check</title>
<path fill="#ffe0b2" stroke="black" d="M189.85,-354.19C189.85,-354.19 84.4,-312.3 84.4,-312.3 78.83,-310.09 78.83,-305.66 84.4,-303.44 84.4,-303.44 189.85,-261.55 189.85,-261.55 195.42,-259.34 206.58,-259.34 212.15,-261.55 212.15,-261.55 317.6,-303.44 317.6,-303.44 323.17,-305.66 323.17,-310.09 317.6,-312.3 317.6,-312.3 212.15,-354.19 212.15,-354.19 206.58,-356.41 195.42,-356.41 189.85,-354.19"/>
<text xml:space="preserve" text-anchor="middle" x="201" y="-319.75" font-family="Segoe UI" font-size="10.00">Check Duration</text>
<text xml:space="preserve" text-anchor="middle" x="201" y="-305.5" font-family="Segoe UI" font-size="10.00">if elapsed &gt; durationSec:</text>
<text xml:space="preserve" text-anchor="middle" x="201" y="-291.25" font-family="Segoe UI" font-size="10.00"> &#160;next cycle or stop</text>
</g>
<!-- timing&#45;&gt;duration_check -->
<g id="edge22" class="edge">
<title>timing&#45;&gt;duration_check</title>
<path fill="none" stroke="black" d="M201,-395.26C201,-386.99 201,-378.54 201,-370.32"/>
<polygon fill="black" stroke="black" points="204.5,-370.41 201,-360.41 197.5,-370.41 204.5,-370.41"/>
</g>
<!-- idx_inc -->
<g id="node23" class="node">
<title>idx_inc</title>
<ellipse fill="#ffe0b2" stroke="black" cx="109" cy="-154.12" rx="27" ry="18"/>
<text xml:space="preserve" text-anchor="middle" x="109" y="-151.75" font-family="Segoe UI" font-size="10.00">idx++</text>
</g>
<!-- duration_check&#45;&gt;idx_inc -->
<g id="edge23" class="edge">
<title>duration_check&#45;&gt;idx_inc</title>
<path fill="none" stroke="black" d="M176.59,-266.61C160.08,-239.38 138.77,-204.24 124.54,-180.75"/>
<polygon fill="black" stroke="black" points="127.68,-179.19 119.51,-172.45 121.7,-182.82 127.68,-179.19"/>
<text xml:space="preserve" text-anchor="middle" x="175.38" y="-224.2" font-family="Segoe UI" font-size="9.00">continue</text>
</g>
<!-- duration_check&#45;&gt;pcap -->
<g id="edge24" class="edge">
<title>duration_check&#45;&gt;pcap</title>
<path fill="none" stroke="#c62828" stroke-dasharray="5,2" d="M236.65,-270.97C257.81,-251.49 286.09,-228.42 315,-213.62 327.28,-207.34 332.23,-210.85 345,-205.62 362.94,-198.28 381.75,-188.03 397.44,-178.68"/>
<polygon fill="#c62828" stroke="#c62828" points="399.24,-181.68 405.96,-173.49 395.6,-175.7 399.24,-181.68"/>
<text xml:space="preserve" text-anchor="middle" x="351" y="-230.57" font-family="Segoe UI" font-size="9.00">stop</text>
<text xml:space="preserve" text-anchor="middle" x="351" y="-217.82" font-family="Segoe UI" font-size="9.00">(duration elapsed)</text>
</g>
<!-- idx_inc&#45;&gt;get_frame -->
<g id="edge25" class="edge">
<title>idx_inc&#45;&gt;get_frame</title>
<path fill="none" stroke="black" d="M99.44,-171.4C88.51,-190.99 71.21,-225.22 64,-257.12 37.7,-373.54 41.7,-407.69 60,-525.62 72.37,-605.35 71.92,-630.41 115,-698.62 121.82,-709.42 131.3,-719.51 140.62,-727.99"/>
<polygon fill="black" stroke="black" points="138.06,-730.4 147.91,-734.3 142.64,-725.11 138.06,-730.4"/>
<text xml:space="preserve" text-anchor="middle" x="73.54" y="-547.82" font-family="Segoe UI" font-size="9.00">loop</text>
</g>
<!-- wire -->
<g id="node25" class="node">
<title>wire</title>
<path fill="#ef9a9a" stroke="black" d="M512.23,-65.99C512.23,-65.99 488.25,-90.33 488.25,-90.33 484.04,-94.6 473.82,-98.87 467.82,-98.87 467.82,-98.87 410.18,-98.87 410.18,-98.87 404.18,-98.87 393.96,-94.6 389.75,-90.33 389.75,-90.33 365.77,-65.99 365.77,-65.99 361.56,-61.71 361.56,-53.16 365.77,-48.89 365.77,-48.89 389.75,-24.55 389.75,-24.55 393.96,-20.27 404.18,-16 410.18,-16 410.18,-16 467.82,-16 467.82,-16 473.82,-16 484.04,-20.27 488.25,-24.55 488.25,-24.55 512.23,-48.89 512.23,-48.89 516.44,-53.16 516.44,-61.71 512.23,-65.99"/>
<text xml:space="preserve" text-anchor="middle" x="439" y="-69.31" font-family="Segoe UI" font-size="10.00">IEC 61850&#45;9&#45;2LE</text>
<text xml:space="preserve" text-anchor="middle" x="439" y="-55.06" font-family="Segoe UI" font-size="10.00">SV Ethernet Frame</text>
<text xml:space="preserve" text-anchor="middle" x="439" y="-40.81" font-family="Segoe UI" font-size="10.00">on the wire</text>
</g>
<!-- pcap&#45;&gt;wire -->
<g id="edge27" class="edge">
<title>pcap&#45;&gt;wire</title>
<path fill="none" stroke="#c62828" stroke-width="2" d="M434.92,-135.76C435.28,-128.95 435.71,-120.74 436.16,-112.24"/>
<polygon fill="#c62828" stroke="#c62828" stroke-width="2" points="439.65,-112.47 436.68,-102.3 432.66,-112.1 439.65,-112.47"/>
</g>
</g>
</svg>
