<?xml version="1.0" encoding="UTF-8" standalone="no"?>
<!DOCTYPE svg PUBLIC "-//W3C//DTD SVG 1.1//EN"
 "http://www.w3.org/Graphics/SVG/1.1/DTD/svg11.dtd">
<!-- Generated by graphviz version 14.1.2 (20260124.0452)
 -->
<!-- Title: MultiPublisherFlow Pages: 1 -->
<svg width="1266pt" height="1472pt"
 viewBox="0.00 0.00 1266.00 1472.00" xmlns="http://www.w3.org/2000/svg" xmlns:xlink="http://www.w3.org/1999/xlink">
<g id="graph0" class="graph" transform="scale(1 1) rotate(0) translate(4 1467.68)">
<title>MultiPublisherFlow</title>
<polygon fill="white" stroke="none" points="-4,4 -4,-1467.68 1262,-1467.68 1262,4 -4,4"/>
<text xml:space="preserve" text-anchor="middle" x="629" y="-1448.28" font-family="Segoe UI" font-size="12.00">Multi&#45;Publisher Architecture &amp; Data Flow</text>
<text xml:space="preserve" text-anchor="middle" x="629" y="-1431.03" font-family="Segoe UI" font-size="12.00">(SvController + SharedBuffer)</text>
<g id="clust1" class="cluster">
<title>cluster_frontend</title>
<path fill="#e3f2fd" stroke="#1565c0" d="M115,-1292.68C115,-1292.68 668,-1292.68 668,-1292.68 674,-1292.68 680,-1298.68 680,-1304.68 680,-1304.68 680,-1401.18 680,-1401.18 680,-1407.18 674,-1413.18 668,-1413.18 668,-1413.18 115,-1413.18 115,-1413.18 109,-1413.18 103,-1407.18 103,-1401.18 103,-1401.18 103,-1304.68 103,-1304.68 103,-1298.68 109,-1292.68 115,-1292.68"/>
<text xml:space="preserve" text-anchor="middle" x="391.5" y="-1397.78" font-family="Segoe UI" font-size="12.00">Frontend Commands</text>
</g>
<g id="clust2" class="cluster">
<title>cluster_controller</title>
<path fill="#f3e5f5" stroke="#6a1b9a" d="M108,-1107.31C108,-1107.31 576,-1107.31 576,-1107.31 582,-1107.31 588,-1113.31 588,-1119.31 588,-1119.31 588,-1230.06 588,-1230.06 588,-1236.06 582,-1242.06 576,-1242.06 576,-1242.06 108,-1242.06 108,-1242.06 102,-1242.06 96,-1236.06 96,-1230.06 96,-1230.06 96,-1119.31 96,-1119.31 96,-1113.31 102,-1107.31 108,-1107.31"/>
<text xml:space="preserve" text-anchor="middle" x="342" y="-1226.66" font-family="Segoe UI" font-size="12.00">SvController (Singleton)</text>
</g>
<g id="clust3" class="cluster">
<title>cluster_instances</title>
<path fill="#e8f5e9" stroke="#2e7d32" d="M20,-826.18C20,-826.18 624,-826.18 624,-826.18 630,-826.18 636,-832.18 636,-838.18 636,-838.18 636,-1017.18 636,-1017.18 636,-1023.18 630,-1029.18 624,-1029.18 624,-1029.18 20,-1029.18 20,-1029.18 14,-1029.18 8,-1023.18 8,-1017.18 8,-1017.18 8,-838.18 8,-838.18 8,-832.18 14,-826.18 20,-826.18"/>
<text xml:space="preserve" text-anchor="middle" x="322" y="-1013.78" font-family="Segoe UI" font-size="12.00">SvPublisherInstance Objects</text>
</g>
<g id="clust4" class="cluster">
<title>cluster_startall</title>
<path fill="#fff3e0" stroke="#e65100" d="M656,-874.56C656,-874.56 968,-874.56 968,-874.56 974,-874.56 980,-880.56 980,-886.56 980,-886.56 980,-1237.18 980,-1237.18 980,-1243.18 974,-1249.18 968,-1249.18 968,-1249.18 656,-1249.18 656,-1249.18 650,-1249.18 644,-1243.18 644,-1237.18 644,-1237.18 644,-886.56 644,-886.56 644,-880.56 650,-874.56 656,-874.56"/>
<text xml:space="preserve" text-anchor="middle" x="812" y="-1233.78" font-family="Segoe UI" font-size="12.00">startAll() — 3 Steps</text>
</g>
<g id="clust5" class="cluster">
<title>cluster_sharedbuf</title>
<path fill="#fffde7" stroke="#f57f17" d="M1000,-662.75C1000,-662.75 1238,-662.75 1238,-662.75 1244,-662.75 1250,-668.75 1250,-674.75 1250,-674.75 1250,-1057.43 1250,-1057.43 1250,-1063.43 1244,-1069.43 1238,-1069.43 1238,-1069.43 1000,-1069.43 1000,-1069.43 994,-1069.43 988,-1063.43 988,-1057.43 988,-1057.43 988,-674.75 988,-674.75 988,-668.75 994,-662.75 1000,-662.75"/>
<text xml:space="preserve" text-anchor="middle" x="1119" y="-1054.03" font-family="Segoe UI" font-size="12.00">SharedBuffer (Merged Interleaved Schedule)</text>
</g>
<g id="clust6" class="cluster">
<title>cluster_writer</title>
<path fill="#fce4ec" stroke="#ad1457" d="M510,-8C510,-8 956,-8 956,-8 962,-8 968,-14 968,-20 968,-20 968,-743.18 968,-743.18 968,-749.18 962,-755.18 956,-755.18 956,-755.18 510,-755.18 510,-755.18 504,-755.18 498,-749.18 498,-743.18 498,-743.18 498,-20 498,-20 498,-14 504,-8 510,-8"/>
<text xml:space="preserve" text-anchor="middle" x="733" y="-739.78" font-family="Segoe UI" font-size="12.00">Writer Thread (Single)</text>
</g>
<g id="clust7" class="cluster">
<title>cluster_output</title>
<path fill="#ffebee" stroke="#c62828" d="M988,-198.93C988,-198.93 1204,-198.93 1204,-198.93 1210,-198.93 1216,-204.93 1216,-210.93 1216,-210.93 1216,-431.75 1216,-431.75 1216,-437.75 1210,-443.75 1204,-443.75 1204,-443.75 988,-443.75 988,-443.75 982,-443.75 976,-437.75 976,-431.75 976,-431.75 976,-210.93 976,-210.93 976,-204.93 982,-198.93 988,-198.93"/>
<text xml:space="preserve" text-anchor="middle" x="1096" y="-428.35" font-family="Segoe UI" font-size="12.00">Network Output</text>
</g>
<!-- mp_add -->
<g id="node1" class="node">
<title>mp_add</title>
<path fill="#bbdefb" stroke="black" d="M376.88,-1358.56C376.88,-1358.56 285.12,-1358.56 285.12,-1358.56 279.12,-1358.56 273.12,-1352.56 273.12,-1346.56 273.12,-1346.56 273.12,-1334.06 273.12,-1334.06 273.12,-1328.06 279.12,-1322.06 285.12,-1322.06 285.12,-1322.06 376.88,-1322.06 376.88,-1322.06 382.88,-1322.06 388.88,-1328.06 388.88,-1334.06 388.88,-1334.06 388.88,-1346.56 388.88,-1346.56 388.88,-1352.56 382.88,-1358.56 376.88,-1358.56"/>
<text xml:space="preserve" text-anchor="middle" x="331" y="-1345.06" font-family="Segoe UI" font-size="10.00">mp_add_publisher()</text>
<text xml:space="preserve" text-anchor="middle" x="331" y="-1330.81" font-family="Segoe UI" font-size="10.00">→ returns ID (1, 2, 3...)</text>
</g>
<!-- add_pub -->
<g id="node7" class="node">
<title>add_pub</title>
<path fill="#ce93d8" stroke="black" d="M371.62,-1194.56C371.62,-1194.56 290.38,-1194.56 290.38,-1194.56 284.38,-1194.56 278.38,-1188.56 278.38,-1182.56 278.38,-1182.56 278.38,-1141.56 278.38,-1141.56 278.38,-1135.56 284.38,-1129.56 290.38,-1129.56 290.38,-1129.56 371.62,-1129.56 371.62,-1129.56 377.62,-1129.56 383.62,-1135.56 383.62,-1141.56 383.62,-1141.56 383.62,-1182.56 383.62,-1182.56 383.62,-1188.56 377.62,-1194.56 371.62,-1194.56"/>
<text xml:space="preserve" text-anchor="middle" x="331" y="-1181.06" font-family="Segoe UI" font-size="10.00">addPublisher()</text>
<text xml:space="preserve" text-anchor="middle" x="331" y="-1166.81" font-family="Segoe UI" font-size="10.00">Allocates new</text>
<text xml:space="preserve" text-anchor="middle" x="331" y="-1152.56" font-family="Segoe UI" font-size="10.00">SvPublisherInstance</text>
<text xml:space="preserve" text-anchor="middle" x="331" y="-1138.31" font-family="Segoe UI" font-size="10.00">Assigns unique ID</text>
</g>
<!-- mp_add&#45;&gt;add_pub -->
<g id="edge1" class="edge">
<title>mp_add&#45;&gt;add_pub</title>
<path fill="none" stroke="black" d="M331,-1321.77C331,-1295.05 331,-1243.37 331,-1206.23"/>
<polygon fill="black" stroke="black" points="334.5,-1206.25 331,-1196.25 327.5,-1206.25 334.5,-1206.25"/>
</g>
<!-- mp_config -->
<g id="node2" class="node">
<title>mp_config</title>
<path fill="#bbdefb" stroke="black" d="M242.75,-1379.93C242.75,-1379.93 123.25,-1379.93 123.25,-1379.93 117.25,-1379.93 111.25,-1373.93 111.25,-1367.93 111.25,-1367.93 111.25,-1312.68 111.25,-1312.68 111.25,-1306.68 117.25,-1300.68 123.25,-1300.68 123.25,-1300.68 242.75,-1300.68 242.75,-1300.68 248.75,-1300.68 254.75,-1306.68 254.75,-1312.68 254.75,-1312.68 254.75,-1367.93 254.75,-1367.93 254.75,-1373.93 248.75,-1379.93 242.75,-1379.93"/>
<text xml:space="preserve" text-anchor="middle" x="183" y="-1366.43" font-family="Segoe UI" font-size="10.00">mp_configure_publisher(id, {</text>
<text xml:space="preserve" text-anchor="middle" x="183" y="-1352.18" font-family="Segoe UI" font-size="10.00"> &#160;svID, appID, MACs,</text>
<text xml:space="preserve" text-anchor="middle" x="183" y="-1337.93" font-family="Segoe UI" font-size="10.00"> &#160;sampleRate, channels,</text>
<text xml:space="preserve" text-anchor="middle" x="183" y="-1323.68" font-family="Segoe UI" font-size="10.00"> &#160;equations</text>
<text xml:space="preserve" text-anchor="middle" x="183" y="-1309.43" font-family="Segoe UI" font-size="10.00">})</text>
</g>
<!-- configure -->
<g id="node8" class="node">
<title>configure</title>
<path fill="#ce93d8" stroke="black" d="M248.12,-1180.31C248.12,-1180.31 115.88,-1180.31 115.88,-1180.31 109.88,-1180.31 103.88,-1174.31 103.88,-1168.31 103.88,-1168.31 103.88,-1155.81 103.88,-1155.81 103.88,-1149.81 109.88,-1143.81 115.88,-1143.81 115.88,-1143.81 248.12,-1143.81 248.12,-1143.81 254.12,-1143.81 260.12,-1149.81 260.12,-1155.81 260.12,-1155.81 260.12,-1168.31 260.12,-1168.31 260.12,-1174.31 254.12,-1180.31 248.12,-1180.31"/>
<text xml:space="preserve" text-anchor="middle" x="182" y="-1166.81" font-family="Segoe UI" font-size="10.00">configurePublisher(id, config)</text>
<text xml:space="preserve" text-anchor="middle" x="182" y="-1152.56" font-family="Segoe UI" font-size="10.00">+ setPublisherEquations(id, eq)</text>
</g>
<!-- mp_config&#45;&gt;configure -->
<g id="edge2" class="edge">
<title>mp_config&#45;&gt;configure</title>
<path fill="none" stroke="black" d="M182.78,-1300.19C182.59,-1267.39 182.33,-1221.31 182.16,-1191.81"/>
<polygon fill="black" stroke="black" points="185.67,-1192.14 182.11,-1182.16 178.67,-1192.18 185.67,-1192.14"/>
</g>
<!-- mp_start -->
<g id="node3" class="node">
<title>mp_start</title>
<path fill="#bbdefb" stroke="black" stroke-width="2" d="M660,-1358.31C660,-1358.31 608,-1358.31 608,-1358.31 602,-1358.31 596,-1352.31 596,-1346.31 596,-1346.31 596,-1334.31 596,-1334.31 596,-1328.31 602,-1322.31 608,-1322.31 608,-1322.31 660,-1322.31 660,-1322.31 666,-1322.31 672,-1328.31 672,-1334.31 672,-1334.31 672,-1346.31 672,-1346.31 672,-1352.31 666,-1358.31 660,-1358.31"/>
<text xml:space="preserve" text-anchor="middle" x="634" y="-1337.93" font-family="Segoe UI" font-size="10.00">mp_start_all()</text>
</g>
<!-- step1 -->
<g id="node12" class="node">
<title>step1</title>
<path fill="#ffe0b2" stroke="black" d="M790.12,-1215.93C790.12,-1215.93 663.88,-1215.93 663.88,-1215.93 657.88,-1215.93 651.88,-1209.93 651.88,-1203.93 651.88,-1203.93 651.88,-1120.18 651.88,-1120.18 651.88,-1114.18 657.88,-1108.18 663.88,-1108.18 663.88,-1108.18 790.12,-1108.18 790.12,-1108.18 796.12,-1108.18 802.12,-1114.18 802.12,-1120.18 802.12,-1120.18 802.12,-1203.93 802.12,-1203.93 802.12,-1209.93 796.12,-1215.93 790.12,-1215.93"/>
<text xml:space="preserve" text-anchor="middle" x="727" y="-1202.43" font-family="Segoe UI" font-size="10.00">STEP 1: Pre&#45;build Frames</text>
<text xml:space="preserve" text-anchor="middle" x="727" y="-1188.18" font-family="Segoe UI" font-size="10.00">(Sequential — one at a time)</text>
<text xml:space="preserve" text-anchor="middle" x="727" y="-1173.93" font-family="Segoe UI" font-size="10.00">for each publisher:</text>
<text xml:space="preserve" text-anchor="middle" x="727" y="-1159.68" font-family="Segoe UI" font-size="10.00"> &#160;publisher&#45;&gt;prebuildFrames()</text>
<text xml:space="preserve" text-anchor="middle" x="727" y="-1145.43" font-family="Segoe UI" font-size="10.00"> &#160;• config global encoder</text>
<text xml:space="preserve" text-anchor="middle" x="727" y="-1131.18" font-family="Segoe UI" font-size="10.00"> &#160;• generate waveforms</text>
<text xml:space="preserve" text-anchor="middle" x="727" y="-1116.93" font-family="Segoe UI" font-size="10.00"> &#160;• encode &amp; cache frames</text>
</g>
<!-- mp_start&#45;&gt;step1 -->
<g id="edge3" class="edge">
<title>mp_start&#45;&gt;step1</title>
<path fill="none" stroke="#e65100" stroke-width="2" d="M643.43,-1321.44C655.05,-1299.42 675.42,-1260.81 693.15,-1227.22"/>
<polygon fill="#e65100" stroke="#e65100" stroke-width="2" points="696.05,-1229.21 697.63,-1218.73 689.86,-1225.94 696.05,-1229.21"/>
</g>
<!-- mp_stop -->
<g id="node4" class="node">
<title>mp_stop</title>
<path fill="#bbdefb" stroke="black" d="M565.62,-1358.31C565.62,-1358.31 514.38,-1358.31 514.38,-1358.31 508.38,-1358.31 502.38,-1352.31 502.38,-1346.31 502.38,-1346.31 502.38,-1334.31 502.38,-1334.31 502.38,-1328.31 508.38,-1322.31 514.38,-1322.31 514.38,-1322.31 565.62,-1322.31 565.62,-1322.31 571.62,-1322.31 577.62,-1328.31 577.62,-1334.31 577.62,-1334.31 577.62,-1346.31 577.62,-1346.31 577.62,-1352.31 571.62,-1358.31 565.62,-1358.31"/>
<text xml:space="preserve" text-anchor="middle" x="540" y="-1337.93" font-family="Segoe UI" font-size="10.00">mp_stop_all()</text>
</g>
<!-- ctrl -->
<g id="node6" class="node">
<title>ctrl</title>
<path fill="#e1bee7" stroke="black" d="M568,-1208.81C568,-1208.81 414,-1208.81 414,-1208.81 408,-1208.81 402,-1202.81 402,-1196.81 402,-1196.81 402,-1127.31 402,-1127.31 402,-1121.31 408,-1115.31 414,-1115.31 414,-1115.31 568,-1115.31 568,-1115.31 574,-1115.31 580,-1121.31 580,-1127.31 580,-1127.31 580,-1196.81 580,-1196.81 580,-1202.81 574,-1208.81 568,-1208.81"/>
<text xml:space="preserve" text-anchor="middle" x="491" y="-1195.31" font-family="Segoe UI" font-size="10.00">SvController::instance()</text>
<text xml:space="preserve" text-anchor="middle" x="491" y="-1181.06" font-family="Segoe UI" font-size="10.00">• m_publishers: vector&lt;unique_ptr&gt;</text>
<text xml:space="preserve" text-anchor="middle" x="491" y="-1166.81" font-family="Segoe UI" font-size="10.00">• m_sharedBuffer: SharedBuffer</text>
<text xml:space="preserve" text-anchor="middle" x="491" y="-1152.56" font-family="Segoe UI" font-size="10.00">• m_writerThread</text>
<text xml:space="preserve" text-anchor="middle" x="491" y="-1138.31" font-family="Segoe UI" font-size="10.00">• m_sendMode, m_durationSeconds</text>
<text xml:space="preserve" text-anchor="middle" x="491" y="-1124.06" font-family="Segoe UI" font-size="10.00">• m_usbPadSize, m_usbMinGapUs</text>
</g>
<!-- mp_stop&#45;&gt;ctrl -->
<g id="edge4" class="edge">
<title>mp_stop&#45;&gt;ctrl</title>
<path fill="none" stroke="black" stroke-dasharray="5,2" d="M535.21,-1322.09C528.69,-1298.62 516.69,-1255.45 506.83,-1220"/>
<polygon fill="black" stroke="black" points="510.31,-1219.44 504.26,-1210.74 503.56,-1221.31 510.31,-1219.44"/>
<text xml:space="preserve" text-anchor="middle" x="545.53" y="-1274.13" font-family="Segoe UI" font-size="9.00">stop writer</text>
<text xml:space="preserve" text-anchor="middle" x="545.53" y="-1261.38" font-family="Segoe UI" font-size="9.00">join thread</text>
</g>
<!-- mp_reset -->
<g id="node5" class="node">
<title>mp_reset</title>
<path fill="#bbdefb" stroke="black" d="M472.75,-1358.56C472.75,-1358.56 419.25,-1358.56 419.25,-1358.56 413.25,-1358.56 407.25,-1352.56 407.25,-1346.56 407.25,-1346.56 407.25,-1334.06 407.25,-1334.06 407.25,-1328.06 413.25,-1322.06 419.25,-1322.06 419.25,-1322.06 472.75,-1322.06 472.75,-1322.06 478.75,-1322.06 484.75,-1328.06 484.75,-1334.06 484.75,-1334.06 484.75,-1346.56 484.75,-1346.56 484.75,-1352.56 478.75,-1358.56 472.75,-1358.56"/>
<text xml:space="preserve" text-anchor="middle" x="446" y="-1345.06" font-family="Segoe UI" font-size="10.00">mp_reset_all()</text>
<text xml:space="preserve" text-anchor="middle" x="446" y="-1330.81" font-family="Segoe UI" font-size="10.00">(full cleanup)</text>
</g>
<!-- mp_reset&#45;&gt;ctrl -->
<g id="edge5" class="edge">
<title>mp_reset&#45;&gt;ctrl</title>
<path fill="none" stroke="black" stroke-dasharray="5,2" d="M450.27,-1321.67C454.31,-1305.02 460.59,-1279.38 466.25,-1257.18 469.32,-1245.15 472.66,-1232.27 475.87,-1220.01"/>
<polygon fill="black" stroke="black" points="479.23,-1221.01 478.39,-1210.45 472.46,-1219.23 479.23,-1221.01"/>
<text xml:space="preserve" text-anchor="middle" x="483.12" y="-1267.76" font-family="Segoe UI" font-size="9.00">full reset</text>
</g>
<!-- pub1 -->
<g id="node9" class="node">
<title>pub1</title>
<path fill="#c8e6c9" stroke="black" d="M405.75,-995.93C405.75,-995.93 238.25,-995.93 238.25,-995.93 232.25,-995.93 226.25,-989.93 226.25,-983.93 226.25,-983.93 226.25,-846.18 226.25,-846.18 226.25,-840.18 232.25,-834.18 238.25,-834.18 238.25,-834.18 405.75,-834.18 405.75,-834.18 411.75,-834.18 417.75,-840.18 417.75,-846.18 417.75,-846.18 417.75,-983.93 417.75,-983.93 417.75,-989.93 411.75,-995.93 405.75,-995.93"/>
<text xml:space="preserve" text-anchor="middle" x="322" y="-982.43" font-family="Segoe UI" font-size="10.00">Instance #1 (MU01)</text>
<text xml:space="preserve" text-anchor="middle" x="322" y="-968.18" font-family="Segoe UI" font-size="10.00">appID=0x4000, 4800 Hz</text>
<text xml:space="preserve" text-anchor="middle" x="322" y="-953.93" font-family="Segoe UI" font-size="10.00">┌─ EquationProcessor #1 ─┐</text>
<text xml:space="preserve" text-anchor="middle" x="322" y="-939.68" font-family="Segoe UI" font-size="10.00">│ Ia: 100*sin(2π50t) &#160;&#160;&#160;&#160;│</text>
<text xml:space="preserve" text-anchor="middle" x="322" y="-925.43" font-family="Segoe UI" font-size="10.00">│ Ib: 100*sin(2π50t&#45;2π/3)│</text>
<text xml:space="preserve" text-anchor="middle" x="322" y="-911.18" font-family="Segoe UI" font-size="10.00">│ ...8 channels &#160;&#160;&#160;&#160;&#160;&#160;&#160;&#160;&#160;│</text>
<text xml:space="preserve" text-anchor="middle" x="322" y="-896.93" font-family="Segoe UI" font-size="10.00">└────────────────────────┘</text>
<text xml:space="preserve" text-anchor="middle" x="322" y="-884.18" font-family="Segoe UI" font-size="10.00">┌─ Frame Cache #1 ───────┐</text>
<text xml:space="preserve" text-anchor="middle" x="322" y="-869.93" font-family="Segoe UI" font-size="10.00">│ 4800 pre&#45;built frames &#160;│</text>
<text xml:space="preserve" text-anchor="middle" x="322" y="-855.68" font-family="Segoe UI" font-size="10.00">│ (1 second of data) &#160;&#160;&#160;&#160;│</text>
<text xml:space="preserve" text-anchor="middle" x="322" y="-841.43" font-family="Segoe UI" font-size="10.00">└────────────────────────┘</text>
</g>
<!-- add_pub&#45;&gt;pub1 -->
<g id="edge6" class="edge">
<title>add_pub&#45;&gt;pub1</title>
<path fill="none" stroke="black" stroke-dasharray="5,2" d="M329.84,-1129.53C328.71,-1098.8 326.94,-1050.58 325.37,-1007.74"/>
<polygon fill="black" stroke="black" points="328.87,-1007.78 325.01,-997.91 321.88,-1008.03 328.87,-1007.78"/>
</g>
<!-- pub2 -->
<g id="node10" class="node">
<title>pub2</title>
<path fill="#c8e6c9" stroke="black" d="M195.75,-995.93C195.75,-995.93 28.25,-995.93 28.25,-995.93 22.25,-995.93 16.25,-989.93 16.25,-983.93 16.25,-983.93 16.25,-846.18 16.25,-846.18 16.25,-840.18 22.25,-834.18 28.25,-834.18 28.25,-834.18 195.75,-834.18 195.75,-834.18 201.75,-834.18 207.75,-840.18 207.75,-846.18 207.75,-846.18 207.75,-983.93 207.75,-983.93 207.75,-989.93 201.75,-995.93 195.75,-995.93"/>
<text xml:space="preserve" text-anchor="middle" x="112" y="-982.43" font-family="Segoe UI" font-size="10.00">Instance #2 (MU02)</text>
<text xml:space="preserve" text-anchor="middle" x="112" y="-968.18" font-family="Segoe UI" font-size="10.00">appID=0x4001, 4800 Hz</text>
<text xml:space="preserve" text-anchor="middle" x="112" y="-953.93" font-family="Segoe UI" font-size="10.00">┌─ EquationProcessor #2 ─┐</text>
<text xml:space="preserve" text-anchor="middle" x="112" y="-939.68" font-family="Segoe UI" font-size="10.00">│ Ia: 200*sin(2π50t+0.1) │</text>
<text xml:space="preserve" text-anchor="middle" x="112" y="-925.43" font-family="Segoe UI" font-size="10.00">│ Ib: 200*sin(2π50t&#45;2π/3)│</text>
<text xml:space="preserve" text-anchor="middle" x="112" y="-911.18" font-family="Segoe UI" font-size="10.00">│ ...8 channels &#160;&#160;&#160;&#160;&#160;&#160;&#160;&#160;&#160;│</text>
<text xml:space="preserve" text-anchor="middle" x="112" y="-896.93" font-family="Segoe UI" font-size="10.00">└────────────────────────┘</text>
<text xml:space="preserve" text-anchor="middle" x="112" y="-884.18" font-family="Segoe UI" font-size="10.00">┌─ Frame Cache #2 ───────┐</text>
<text xml:space="preserve" text-anchor="middle" x="112" y="-869.93" font-family="Segoe UI" font-size="10.00">│ 4800 pre&#45;built frames &#160;│</text>
<text xml:space="preserve" text-anchor="middle" x="112" y="-855.68" font-family="Segoe UI" font-size="10.00">│ (1 second of data) &#160;&#160;&#160;&#160;│</text>
<text xml:space="preserve" text-anchor="middle" x="112" y="-841.43" font-family="Segoe UI" font-size="10.00">└────────────────────────┘</text>
</g>
<!-- add_pub&#45;&gt;pub2 -->
<g id="edge7" class="edge">
<title>add_pub&#45;&gt;pub2</title>
<path fill="none" stroke="black" stroke-dasharray="5,2" d="M295.37,-1129.27C286.85,-1121.92 277.7,-1114.23 269,-1107.31 246.62,-1089.51 236.92,-1089.94 217,-1069.43 198.41,-1050.29 180.87,-1027.52 165.65,-1005.45"/>
<polygon fill="black" stroke="black" points="168.63,-1003.61 160.12,-997.3 162.84,-1007.54 168.63,-1003.61"/>
</g>
<!-- pub_n -->
<g id="node11" class="node">
<title>pub_n</title>
<path fill="#c8e6c9" stroke="black" d="M615.75,-974.56C615.75,-974.56 448.25,-974.56 448.25,-974.56 442.25,-974.56 436.25,-968.56 436.25,-962.56 436.25,-962.56 436.25,-867.56 436.25,-867.56 436.25,-861.56 442.25,-855.56 448.25,-855.56 448.25,-855.56 615.75,-855.56 615.75,-855.56 621.75,-855.56 627.75,-861.56 627.75,-867.56 627.75,-867.56 627.75,-962.56 627.75,-962.56 627.75,-968.56 621.75,-974.56 615.75,-974.56"/>
<text xml:space="preserve" text-anchor="middle" x="532" y="-961.06" font-family="Segoe UI" font-size="10.00">Instance #N (MUNN)</text>
<text xml:space="preserve" text-anchor="middle" x="532" y="-946.81" font-family="Segoe UI" font-size="10.00">appID=0x400N, rate Hz</text>
<text xml:space="preserve" text-anchor="middle" x="532" y="-932.56" font-family="Segoe UI" font-size="10.00">┌─ EquationProcessor #N ─┐</text>
<text xml:space="preserve" text-anchor="middle" x="532" y="-918.31" font-family="Segoe UI" font-size="10.00">│ Custom equations &#160;&#160;&#160;&#160;&#160;&#160;│</text>
<text xml:space="preserve" text-anchor="middle" x="532" y="-904.06" font-family="Segoe UI" font-size="10.00">└────────────────────────┘</text>
<text xml:space="preserve" text-anchor="middle" x="532" y="-891.31" font-family="Segoe UI" font-size="10.00">┌─ Frame Cache #N ───────┐</text>
<text xml:space="preserve" text-anchor="middle" x="532" y="-877.06" font-family="Segoe UI" font-size="10.00">│ (rate) pre&#45;built frames│</text>
<text xml:space="preserve" text-anchor="middle" x="532" y="-862.81" font-family="Segoe UI" font-size="10.00">└────────────────────────┘</text>
</g>
<!-- add_pub&#45;&gt;pub_n -->
<g id="edge8" class="edge">
<title>add_pub&#45;&gt;pub_n</title>
<path fill="none" stroke="black" stroke-dasharray="5,2" d="M360.67,-1129.26C370.2,-1120.83 381.33,-1112.61 393,-1107.31 443.25,-1084.49 477.89,-1130.11 516,-1090.18 541.81,-1063.13 546.49,-1021.81 544.4,-986.2"/>
<polygon fill="black" stroke="black" points="547.9,-986.07 543.62,-976.38 540.92,-986.62 547.9,-986.07"/>
</g>
<!-- configure&#45;&gt;pub1 -->
<g id="edge9" class="edge">
<title>configure&#45;&gt;pub1</title>
<path fill="none" stroke="black" stroke-dasharray="5,2" d="M192.07,-1143.44C208.38,-1114.9 241.66,-1056.65 270.46,-1006.26"/>
<polygon fill="black" stroke="black" points="273.47,-1008.03 275.4,-997.61 267.4,-1004.56 273.47,-1008.03"/>
</g>
<!-- configure&#45;&gt;pub2 -->
<g id="edge10" class="edge">
<title>configure&#45;&gt;pub2</title>
<path fill="none" stroke="black" stroke-dasharray="5,2" d="M176.97,-1143.44C168.86,-1115.07 152.38,-1057.38 138.04,-1007.21"/>
<polygon fill="black" stroke="black" points="141.45,-1006.41 135.34,-997.76 134.72,-1008.33 141.45,-1006.41"/>
</g>
<!-- step2 -->
<g id="node13" class="node">
<title>step2</title>
<path fill="#ffe0b2" stroke="black" stroke-width="2" d="M960.25,-1208.81C960.25,-1208.81 831.75,-1208.81 831.75,-1208.81 825.75,-1208.81 819.75,-1202.81 819.75,-1196.81 819.75,-1196.81 819.75,-1127.31 819.75,-1127.31 819.75,-1121.31 825.75,-1115.31 831.75,-1115.31 831.75,-1115.31 960.25,-1115.31 960.25,-1115.31 966.25,-1115.31 972.25,-1121.31 972.25,-1127.31 972.25,-1127.31 972.25,-1196.81 972.25,-1196.81 972.25,-1202.81 966.25,-1208.81 960.25,-1208.81"/>
<text xml:space="preserve" text-anchor="middle" x="896" y="-1195.31" font-family="Segoe UI" font-size="10.00">STEP 2: Build SharedBuffer</text>
<text xml:space="preserve" text-anchor="middle" x="896" y="-1181.06" font-family="Segoe UI" font-size="10.00">buildFromPublishers(all)</text>
<text xml:space="preserve" text-anchor="middle" x="896" y="-1166.81" font-family="Segoe UI" font-size="10.00">• Merge all frame caches</text>
<text xml:space="preserve" text-anchor="middle" x="896" y="-1152.56" font-family="Segoe UI" font-size="10.00">• Stagger timestamps evenly</text>
<text xml:space="preserve" text-anchor="middle" x="896" y="-1138.31" font-family="Segoe UI" font-size="10.00">• Sort by timestamp (stable)</text>
<text xml:space="preserve" text-anchor="middle" x="896" y="-1124.06" font-family="Segoe UI" font-size="10.00">• Zero&#45;copy: framePtr → cache</text>
</g>
<!-- pub1&#45;&gt;step2 -->
<g id="edge14" class="edge">
<title>pub1&#45;&gt;step2</title>
<path fill="none" stroke="black" d="M357.57,-996.04C374.38,-1024.25 397.37,-1053 427,-1069.43 445.48,-1079.68 596.57,-1072.03 617,-1077.43 628.96,-1080.6 629.89,-1086.67 641.75,-1090.18 714.24,-1111.68 739.53,-1082.64 811,-1107.31 813.26,-1108.09 815.51,-1108.94 817.77,-1109.85"/>
<polygon fill="black" stroke="black" points="816.3,-1113.03 826.86,-1113.89 819.15,-1106.63 816.3,-1113.03"/>
<text xml:space="preserve" text-anchor="middle" x="665.38" y="-1081.63" font-family="Segoe UI" font-size="9.00">cache ready</text>
</g>
<!-- pub2&#45;&gt;step2 -->
<g id="edge15" class="edge">
<title>pub2&#45;&gt;step2</title>
<path fill="none" stroke="black" d="M147.43,-996.3C164.22,-1024.54 187.23,-1053.25 217,-1069.43 232.28,-1077.74 512.9,-1074.25 530,-1077.43 546.58,-1080.52 549.24,-1086.73 565.75,-1090.18 672.7,-1112.55 707.17,-1073.27 811,-1107.31 813.43,-1108.1 815.85,-1108.98 818.27,-1109.94"/>
<polygon fill="black" stroke="black" points="816.85,-1113.14 827.42,-1113.93 819.65,-1106.72 816.85,-1113.14"/>
<text xml:space="preserve" text-anchor="middle" x="589.38" y="-1081.63" font-family="Segoe UI" font-size="9.00">cache ready</text>
</g>
<!-- pub_n&#45;&gt;step2 -->
<g id="edge16" class="edge">
<title>pub_n&#45;&gt;step2</title>
<path fill="none" stroke="black" d="M557.24,-974.82C575.11,-1008.69 602.59,-1048.59 640,-1069.43 666.25,-1084.06 746.59,-1067.64 775,-1077.43 795.25,-1084.41 815.22,-1095.8 832.92,-1107.95"/>
<polygon fill="black" stroke="black" points="830.54,-1110.55 840.72,-1113.48 834.59,-1104.84 830.54,-1110.55"/>
<text xml:space="preserve" text-anchor="middle" x="824.27" y="-1081.63" font-family="Segoe UI" font-size="9.00">cache ready</text>
</g>
<!-- step1&#45;&gt;pub1 -->
<g id="edge11" class="edge">
<title>step1&#45;&gt;pub1</title>
<path fill="none" stroke="black" d="M651.65,-1127.51C632.49,-1119.97 611.73,-1112.63 592,-1107.31 519.36,-1087.71 485.46,-1116.81 427,-1069.43 405.3,-1051.85 386.26,-1028.61 370.58,-1005.56"/>
<polygon fill="black" stroke="black" points="373.56,-1003.73 365.12,-997.33 367.72,-1007.6 373.56,-1003.73"/>
<text xml:space="preserve" text-anchor="middle" x="493.01" y="-1081.63" font-family="Segoe UI" font-size="9.00">prebuildFrames()</text>
</g>
<!-- step1&#45;&gt;pub2 -->
<g id="edge12" class="edge">
<title>step1&#45;&gt;pub2</title>
<path fill="none" stroke="black" d="M651.54,-1126.38C632.47,-1118.92 611.78,-1111.9 592,-1107.31 495.71,-1084.97 468.55,-1100.63 370.25,-1090.18 353.16,-1088.37 231.63,-1078.45 217,-1069.43 192.02,-1054.03 171.54,-1030.22 155.52,-1005.92"/>
<polygon fill="black" stroke="black" points="158.49,-1004.08 150.18,-997.51 152.58,-1007.83 158.49,-1004.08"/>
<text xml:space="preserve" text-anchor="middle" x="403.62" y="-1081.63" font-family="Segoe UI" font-size="9.00">prebuildFrames()</text>
</g>
<!-- step1&#45;&gt;pub_n -->
<g id="edge13" class="edge">
<title>step1&#45;&gt;pub_n</title>
<path fill="none" stroke="black" d="M714.85,-1107.83C709.86,-1096.27 702.85,-1085.19 693,-1077.43 674.29,-1062.69 660.26,-1081.96 640,-1069.43 607.5,-1049.35 582.11,-1015.47 564.14,-984.65"/>
<polygon fill="black" stroke="black" points="567.27,-983.08 559.31,-976.09 561.17,-986.52 567.27,-983.08"/>
<text xml:space="preserve" text-anchor="middle" x="737.98" y="-1081.63" font-family="Segoe UI" font-size="9.00">prebuildFrames()</text>
</g>
<!-- step3 -->
<g id="node14" class="node">
<title>step3</title>
<path fill="#ffe0b2" stroke="black" d="M956.88,-947.56C956.88,-947.56 835.12,-947.56 835.12,-947.56 829.12,-947.56 823.12,-941.56 823.12,-935.56 823.12,-935.56 823.12,-894.56 823.12,-894.56 823.12,-888.56 829.12,-882.56 835.12,-882.56 835.12,-882.56 956.88,-882.56 956.88,-882.56 962.88,-882.56 968.88,-888.56 968.88,-894.56 968.88,-894.56 968.88,-935.56 968.88,-935.56 968.88,-941.56 962.88,-947.56 956.88,-947.56"/>
<text xml:space="preserve" text-anchor="middle" x="896" y="-934.06" font-family="Segoe UI" font-size="10.00">STEP 3: Spawn Writer Thread</text>
<text xml:space="preserve" text-anchor="middle" x="896" y="-919.81" font-family="Segoe UI" font-size="10.00">TIME_CRITICAL priority</text>
<text xml:space="preserve" text-anchor="middle" x="896" y="-905.56" font-family="Segoe UI" font-size="10.00">Pinned to CPU core 1</text>
<text xml:space="preserve" text-anchor="middle" x="896" y="-891.31" font-family="Segoe UI" font-size="10.00">timeBeginPeriod(1)</text>
</g>
<!-- step2&#45;&gt;step3 -->
<g id="edge19" class="edge">
<title>step2&#45;&gt;step3</title>
<path fill="none" stroke="black" d="M896,-1114.4C896,-1069.63 896,-1002.59 896,-959.08"/>
<polygon fill="black" stroke="black" points="899.5,-959.26 896,-949.26 892.5,-959.26 899.5,-959.26"/>
</g>
<!-- schedule -->
<g id="node15" class="node">
<title>schedule</title>
<path fill="#fff9c4" stroke="black" d="M1008.25,-794.43C1008.25,-794.43 1229.75,-794.43 1229.75,-794.43 1235.75,-794.43 1241.75,-800.43 1241.75,-806.43 1241.75,-806.43 1241.75,-1023.68 1241.75,-1023.68 1241.75,-1029.68 1235.75,-1035.68 1229.75,-1035.68 1229.75,-1035.68 1008.25,-1035.68 1008.25,-1035.68 1002.25,-1035.68 996.25,-1029.68 996.25,-1023.68 996.25,-1023.68 996.25,-806.43 996.25,-806.43 996.25,-800.43 1002.25,-794.43 1008.25,-794.43"/>
<text xml:space="preserve" text-anchor="middle" x="1119" y="-1022.18" font-family="Segoe UI" font-size="10.00">ScheduleEntry[]</text>
<text xml:space="preserve" text-anchor="middle" x="1119" y="-1007.93" font-family="Segoe UI" font-size="10.00">Sorted by timestamp_us</text>
<text xml:space="preserve" text-anchor="middle" x="1119" y="-981.68" font-family="Segoe UI" font-size="10.00">┌─────────┬──────────┬─────┬─────┐</text>
<text xml:space="preserve" text-anchor="middle" x="1119" y="-968.93" font-family="Segoe UI" font-size="10.00">│ Time µs │ FramePtr │ Len │ ID │</text>
<text xml:space="preserve" text-anchor="middle" x="1119" y="-954.68" font-family="Segoe UI" font-size="10.00">├─────────┼──────────┼─────┼─────┤</text>
<text xml:space="preserve" text-anchor="middle" x="1119" y="-941.93" font-family="Segoe UI" font-size="10.00">│ 0 │ →MU01[0] │ 126 │ 1 │</text>
<text xml:space="preserve" text-anchor="middle" x="1119" y="-927.68" font-family="Segoe UI" font-size="10.00">│ 104 │ →MU02[0] │ 126 │ 2 │</text>
<text xml:space="preserve" text-anchor="middle" x="1119" y="-913.43" font-family="Segoe UI" font-size="10.00">│ 208 │ →MU01[1] │ 126 │ 1 │</text>
<text xml:space="preserve" text-anchor="middle" x="1119" y="-899.18" font-family="Segoe UI" font-size="10.00">│ 313 │ →MU02[1] │ 126 │ 2 │</text>
<text xml:space="preserve" text-anchor="middle" x="1119" y="-884.93" font-family="Segoe UI" font-size="10.00">│ 417 │ →MU01[2] │ 126 │ 1 │</text>
<text xml:space="preserve" text-anchor="middle" x="1119" y="-870.68" font-family="Segoe UI" font-size="10.00">│ 521 │ →MU02[2] │ 126 │ 2 │</text>
<text xml:space="preserve" text-anchor="middle" x="1119" y="-856.43" font-family="Segoe UI" font-size="10.00">│ ... │ ... │ ... │ ... │</text>
<text xml:space="preserve" text-anchor="middle" x="1119" y="-842.18" font-family="Segoe UI" font-size="10.00">└─────────┴──────────┴─────┴─────┘</text>
<text xml:space="preserve" text-anchor="middle" x="1119" y="-817.43" font-family="Segoe UI" font-size="10.00">Zero&#45;copy: pointers into caches</text>
<text xml:space="preserve" text-anchor="middle" x="1119" y="-803.18" font-family="Segoe UI" font-size="10.00">Immutable after build (no locking)</text>
</g>
<!-- step2&#45;&gt;schedule -->
<g id="edge17" class="edge">
<title>step2&#45;&gt;schedule</title>
<path fill="none" stroke="black" stroke-width="2" d="M941.62,-1114.35C955.37,-1100.06 970.41,-1084.21 984,-1069.43 991.16,-1061.65 998.49,-1053.59 1005.84,-1045.43"/>
<polygon fill="black" stroke="black" stroke-width="2" points="1008.37,-1047.85 1012.46,-1038.08 1003.17,-1043.17 1008.37,-1047.85"/>
<text xml:space="preserve" text-anchor="middle" x="999.76" y="-1081.63" font-family="Segoe UI" font-size="9.00">merge + sort</text>
</g>
<!-- writer_start -->
<g id="node17" class="node">
<title>writer_start</title>
<path fill="#f8bbd0" stroke="black" d="M936.62,-721.93C936.62,-721.93 855.38,-721.93 855.38,-721.93 849.38,-721.93 843.38,-715.93 843.38,-709.93 843.38,-709.93 843.38,-683.18 843.38,-683.18 843.38,-677.18 849.38,-671.18 855.38,-671.18 855.38,-671.18 936.62,-671.18 936.62,-671.18 942.62,-671.18 948.62,-677.18 948.62,-683.18 948.62,-683.18 948.62,-709.93 948.62,-709.93 948.62,-715.93 942.62,-721.93 936.62,-721.93"/>
<text xml:space="preserve" text-anchor="middle" x="896" y="-708.43" font-family="Segoe UI" font-size="10.00">Initialize</text>
<text xml:space="preserve" text-anchor="middle" x="896" y="-694.18" font-family="Segoe UI" font-size="10.00">epoch = QPC_now()</text>
<text xml:space="preserve" text-anchor="middle" x="896" y="-679.93" font-family="Segoe UI" font-size="10.00">scheduleIdx = 0</text>
</g>
<!-- step3&#45;&gt;writer_start -->
<g id="edge20" class="edge">
<title>step3&#45;&gt;writer_start</title>
<path fill="none" stroke="black" stroke-width="2" d="M896,-882.11C896,-842.93 896,-776.6 896,-735.04"/>
<polygon fill="black" stroke="black" stroke-width="2" points="899.5,-735.26 896,-725.26 892.5,-735.26 899.5,-735.26"/>
<text xml:space="preserve" text-anchor="middle" x="922.62" y="-767.38" font-family="Segoe UI" font-size="9.00">spawn thread</text>
</g>
<!-- cycle_dur -->
<g id="node16" class="node">
<title>cycle_dur</title>
<ellipse fill="#fff9c4" stroke="black" cx="1119" cy="-696.56" rx="79.2" ry="25.81"/>
<text xml:space="preserve" text-anchor="middle" x="1119" y="-701.31" font-family="Segoe UI" font-size="10.00">cycleDuration_us</text>
<text xml:space="preserve" text-anchor="middle" x="1119" y="-687.06" font-family="Segoe UI" font-size="10.00">= 1,000,000 µs (1 sec)</text>
</g>
<!-- schedule&#45;&gt;cycle_dur -->
<g id="edge18" class="edge">
<title>schedule&#45;&gt;cycle_dur</title>
<path fill="none" stroke="black" stroke-dasharray="5,2" d="M1119,-794.1C1119,-772.06 1119,-750.68 1119,-733.66"/>
<polygon fill="black" stroke="black" points="1122.5,-734.14 1119,-724.14 1115.5,-734.14 1122.5,-734.14"/>
</g>
<!-- get_entry -->
<g id="node18" class="node">
<title>get_entry</title>
<path fill="#f8bbd0" stroke="black" d="M852.38,-633.75C852.38,-633.75 739.62,-633.75 739.62,-633.75 733.62,-633.75 727.62,-627.75 727.62,-621.75 727.62,-621.75 727.62,-595 727.62,-595 727.62,-589 733.62,-583 739.62,-583 739.62,-583 852.38,-583 852.38,-583 858.38,-583 864.38,-589 864.38,-595 864.38,-595 864.38,-621.75 864.38,-621.75 864.38,-627.75 858.38,-633.75 852.38,-633.75"/>
<text xml:space="preserve" text-anchor="middle" x="796" y="-620.25" font-family="Segoe UI" font-size="10.00">entry = schedule[idx]</text>
<text xml:space="preserve" text-anchor="middle" x="796" y="-606" font-family="Segoe UI" font-size="10.00">framePtr = entry.framePtr</text>
<text xml:space="preserve" text-anchor="middle" x="796" y="-591.75" font-family="Segoe UI" font-size="10.00">frameLen = entry.frameLen</text>
</g>
<!-- writer_start&#45;&gt;get_entry -->
<g id="edge21" class="edge">
<title>writer_start&#45;&gt;get_entry</title>
<path fill="none" stroke="black" d="M867.34,-670.86C856.67,-661.67 844.41,-651.09 833.09,-641.34"/>
<polygon fill="black" stroke="black" points="835.67,-638.94 825.81,-635.06 831.1,-644.24 835.67,-638.94"/>
</g>
<!-- send -->
<g id="node19" class="node">
<title>send</title>
<path fill="#f48fb1" stroke="black" stroke-width="2" d="M881.62,-546C881.62,-546 710.38,-546 710.38,-546 704.38,-546 698.38,-540 698.38,-534 698.38,-534 698.38,-507.25 698.38,-507.25 698.38,-501.25 704.38,-495.25 710.38,-495.25 710.38,-495.25 881.62,-495.25 881.62,-495.25 887.62,-495.25 893.62,-501.25 893.62,-507.25 893.62,-507.25 893.62,-534 893.62,-534 893.62,-540 887.62,-546 881.62,-546"/>
<text xml:space="preserve" text-anchor="middle" x="796" y="-532.5" font-family="Segoe UI" font-size="10.00">npcap_send_packet(framePtr, frameLen)</text>
<text xml:space="preserve" text-anchor="middle" x="796" y="-518.25" font-family="Segoe UI" font-size="10.00">or npcap_send_packet_padded()</text>
<text xml:space="preserve" text-anchor="middle" x="796" y="-504" font-family="Segoe UI" font-size="10.00">(if USB padding enabled)</text>
</g>
<!-- get_entry&#45;&gt;send -->
<g id="edge22" class="edge">
<title>get_entry&#45;&gt;send</title>
<path fill="none" stroke="black" d="M796,-582.57C796,-574.97 796,-566.45 796,-558.24"/>
<polygon fill="black" stroke="black" points="799.5,-558.48 796,-548.48 792.5,-558.48 799.5,-558.48"/>
</g>
<!-- stats -->
<g id="node20" class="node">
<title>stats</title>
<path fill="#f8bbd0" stroke="black" d="M835.62,-410.5C835.62,-410.5 706.38,-410.5 706.38,-410.5 700.38,-410.5 694.38,-404.5 694.38,-398.5 694.38,-398.5 694.38,-386 694.38,-386 694.38,-380 700.38,-374 706.38,-374 706.38,-374 835.62,-374 835.62,-374 841.62,-374 847.62,-380 847.62,-386 847.62,-386 847.62,-398.5 847.62,-398.5 847.62,-404.5 841.62,-410.5 835.62,-410.5"/>
<text xml:space="preserve" text-anchor="middle" x="771" y="-397" font-family="Segoe UI" font-size="10.00">stats_record_packet(frameLen)</text>
<text xml:space="preserve" text-anchor="middle" x="771" y="-382.75" font-family="Segoe UI" font-size="10.00">packets++, bytes+=len</text>
</g>
<!-- send&#45;&gt;stats -->
<g id="edge23" class="edge">
<title>send&#45;&gt;stats</title>
<path fill="none" stroke="black" d="M791,-494.35C786.87,-473.45 780.99,-443.75 776.68,-421.95"/>
<polygon fill="black" stroke="black" points="780.13,-421.38 774.76,-412.24 773.26,-422.73 780.13,-421.38"/>
</g>
<!-- nic -->
<g id="node23" class="node">
<title>nic</title>
<polygon fill="#ffcdd2" stroke="black" points="1089.12,-410.5 1026.88,-410.5 1022.88,-406.5 1022.88,-374 1085.12,-374 1089.12,-378 1089.12,-410.5"/>
<polyline fill="none" stroke="black" points="1085.12,-406.5 1022.88,-406.5"/>
<polyline fill="none" stroke="black" points="1085.12,-406.5 1085.12,-374"/>
<polyline fill="none" stroke="black" points="1085.12,-406.5 1089.12,-410.5"/>
<text xml:space="preserve" text-anchor="middle" x="1056" y="-397" font-family="Segoe UI" font-size="10.00">NIC</text>
<text xml:space="preserve" text-anchor="middle" x="1056" y="-382.75" font-family="Segoe UI" font-size="10.00">(via Npcap)</text>
</g>
<!-- send&#45;&gt;nic -->
<g id="edge28" class="edge">
<title>send&#45;&gt;nic</title>
<path fill="none" stroke="#c62828" stroke-width="2" d="M894.54,-503.36C918.15,-497.17 942.68,-488.72 964,-477.25 990.8,-462.83 1015.94,-438.89 1033.14,-420.24"/>
<polygon fill="#c62828" stroke="#c62828" stroke-width="2" points="1035.52,-422.83 1039.59,-413.04 1030.31,-418.16 1035.52,-422.83"/>
</g>
<!-- timing_wait -->
<g id="node21" class="node">
<title>timing_wait</title>
<path fill="#f8bbd0" stroke="black" d="M721.75,-332.82C721.75,-332.82 537,-264.18 537,-264.18 531.37,-262.09 531.37,-257.91 537,-255.82 537,-255.82 721.75,-187.18 721.75,-187.18 727.38,-185.09 738.62,-185.09 744.25,-187.18 744.25,-187.18 929,-255.82 929,-255.82 934.63,-257.91 934.63,-262.09 929,-264.18 929,-264.18 744.25,-332.82 744.25,-332.82 738.62,-334.91 727.38,-334.91 721.75,-332.82"/>
<text xml:space="preserve" text-anchor="middle" x="733" y="-285" font-family="Segoe UI" font-size="10.00">Wait for next timestamp</text>
<text xml:space="preserve" text-anchor="middle" x="733" y="-270.75" font-family="Segoe UI" font-size="10.00">next = epoch + entry[idx+1].timestamp_us</text>
<text xml:space="preserve" text-anchor="middle" x="733" y="-244.5" font-family="Segoe UI" font-size="10.00">Batch: sendqueue_transmit(sync=0/1)</text>
<text xml:space="preserve" text-anchor="middle" x="733" y="-230.25" font-family="Segoe UI" font-size="10.00">Immediate: QPC spin&#45;wait</text>
</g>
<!-- stats&#45;&gt;timing_wait -->
<g id="edge24" class="edge">
<title>stats&#45;&gt;timing_wait</title>
<path fill="none" stroke="black" d="M765.88,-373.68C763.27,-364.77 759.91,-353.24 756.33,-340.97"/>
<polygon fill="black" stroke="black" points="759.73,-340.11 753.57,-331.49 753.01,-342.07 759.73,-340.11"/>
</g>
<!-- cycle_check -->
<g id="node22" class="node">
<title>cycle_check</title>
<path fill="#f8bbd0" stroke="black" d="M722.39,-140.4C722.39,-140.4 620.36,-86.6 620.36,-86.6 615.06,-83.8 615.06,-78.2 620.36,-75.4 620.36,-75.4 722.39,-21.6 722.39,-21.6 727.69,-18.8 738.31,-18.8 743.61,-21.6 743.61,-21.6 845.64,-75.4 845.64,-75.4 850.94,-78.2 850.94,-83.8 845.64,-86.6 845.64,-86.6 743.61,-140.4 743.61,-140.4 738.31,-143.2 727.69,-143.2 722.39,-140.4"/>
<text xml:space="preserve" text-anchor="middle" x="733" y="-100" font-family="Segoe UI" font-size="10.00">if idx &gt;= schedule.size():</text>
<text xml:space="preserve" text-anchor="middle" x="733" y="-85.75" font-family="Segoe UI" font-size="10.00"> &#160;idx = 0 (wrap)</text>
<text xml:space="preserve" text-anchor="middle" x="733" y="-71.5" font-family="Segoe UI" font-size="10.00"> &#160;check repeat/duration</text>
<text xml:space="preserve" text-anchor="middle" x="733" y="-57.25" font-family="Segoe UI" font-size="10.00"> &#160;re&#45;anchor epoch</text>
</g>
<!-- timing_wait&#45;&gt;cycle_check -->
<g id="edge25" class="edge">
<title>timing_wait&#45;&gt;cycle_check</title>
<path fill="none" stroke="black" d="M733,-182.65C733,-174.45 733,-166.1 733,-157.9"/>
<polygon fill="black" stroke="black" points="736.5,-157.95 733,-147.95 729.5,-157.95 736.5,-157.95"/>
</g>
<!-- cycle_check&#45;&gt;writer_start -->
<g id="edge27" class="edge">
<title>cycle_check&#45;&gt;writer_start</title>
<path fill="none" stroke="black" stroke-dasharray="5,2" d="M821.87,-99.64C868.23,-113.84 921,-138.99 949,-183 999.46,-262.31 931.36,-556.81 905.35,-659.76"/>
<polygon fill="black" stroke="black" points="901.99,-658.76 902.91,-669.32 908.77,-660.49 901.99,-658.76"/>
<text xml:space="preserve" text-anchor="middle" x="970.63" y="-468.7" font-family="Segoe UI" font-size="9.00">cycle wrap</text>
<text xml:space="preserve" text-anchor="middle" x="970.63" y="-455.95" font-family="Segoe UI" font-size="9.00">(repeat)</text>
</g>
<!-- cycle_check&#45;&gt;get_entry -->
<g id="edge26" class="edge">
<title>cycle_check&#45;&gt;get_entry</title>
<path fill="none" stroke="black" d="M644.13,-99.64C597.77,-113.84 545,-138.99 517,-183 480.26,-240.74 493.9,-272.57 517,-337 557.61,-450.24 597.11,-468.36 689,-546 702.75,-557.62 719.01,-568.22 734.64,-577.23"/>
<polygon fill="black" stroke="black" points="732.51,-580.05 742.95,-581.88 735.93,-573.94 732.51,-580.05"/>
<text xml:space="preserve" text-anchor="middle" x="593.69" y="-390.08" font-family="Segoe UI" font-size="9.00">next entry</text>
</g>
<!-- wire -->
<g id="node24" class="node">
<title>wire</title>
<path fill="#ef9a9a" stroke="black" d="M1199.55,-268.24C1199.55,-268.24 1160.85,-304.83 1160.85,-304.83 1156.49,-308.95 1146.13,-313.07 1140.13,-313.07 1140.13,-313.07 1051.87,-313.07 1051.87,-313.07 1045.87,-313.07 1035.51,-308.95 1031.15,-304.83 1031.15,-304.83 992.45,-268.24 992.45,-268.24 988.09,-264.12 988.09,-255.88 992.45,-251.76 992.45,-251.76 1031.15,-215.17 1031.15,-215.17 1035.51,-211.05 1045.87,-206.93 1051.87,-206.93 1051.87,-206.93 1140.13,-206.93 1140.13,-206.93 1146.13,-206.93 1156.49,-211.05 1160.85,-215.17 1160.85,-215.17 1199.55,-251.76 1199.55,-251.76 1203.91,-255.88 1203.91,-264.12 1199.55,-268.24"/>
<text xml:space="preserve" text-anchor="middle" x="1096" y="-279" font-family="Segoe UI" font-size="10.00">Ethernet:</text>
<text xml:space="preserve" text-anchor="middle" x="1096" y="-264.75" font-family="Segoe UI" font-size="10.00">MU01 frame, MU02 frame,</text>
<text xml:space="preserve" text-anchor="middle" x="1096" y="-250.5" font-family="Segoe UI" font-size="10.00">MU01 frame, MU02 frame...</text>
<text xml:space="preserve" text-anchor="middle" x="1096" y="-236.25" font-family="Segoe UI" font-size="10.00">(interleaved, time&#45;ordered)</text>
</g>
<!-- nic&#45;&gt;wire -->
<g id="edge29" class="edge">
<title>nic&#45;&gt;wire</title>
<path fill="none" stroke="#c62828" stroke-width="2" d="M1061.39,-373.68C1065.26,-361.1 1070.72,-343.31 1076.17,-325.58"/>
<polygon fill="#c62828" stroke="#c62828" stroke-width="2" points="1079.44,-326.86 1079.03,-316.27 1072.75,-324.8 1079.44,-326.86"/>
</g>
</g>
</svg>
