<?xml version="1.0" encoding="UTF-8" standalone="no"?>
<!DOCTYPE svg PUBLIC "-//W3C//DTD SVG 1.1//EN"
 "http://www.w3.org/Graphics/SVG/1.1/DTD/svg11.dtd">
<!-- Generated by graphviz version 14.1.2 (20260124.0452)
 -->
<!-- Title: EquationFlow Pages: 1 -->
<svg width="689pt" height="1363pt"
 viewBox="0.00 0.00 689.00 1363.00" xmlns="http://www.w3.org/2000/svg" xmlns:xlink="http://www.w3.org/1999/xlink">
<g id="graph0" class="graph" transform="scale(1 1) rotate(0) translate(4 1359)">
<title>EquationFlow</title>
<polygon fill="white" stroke="none" points="-4,4 -4,-1359 685,-1359 685,4 -4,4"/>
<text xml:space="preserve" text-anchor="middle" x="340.5" y="-1339.6" font-family="Segoe UI" font-size="12.00">Equation Processing &amp; Waveform Generation</text>
<g id="clust1" class="cluster">
<title>cluster_input</title>
<path fill="#e3f2fd" stroke="#1565c0" d="M241,-1144.25C241,-1144.25 389,-1144.25 389,-1144.25 395,-1144.25 401,-1150.25 401,-1156.25 401,-1156.25 401,-1309.75 401,-1309.75 401,-1315.75 395,-1321.75 389,-1321.75 389,-1321.75 241,-1321.75 241,-1321.75 235,-1321.75 229,-1315.75 229,-1309.75 229,-1309.75 229,-1156.25 229,-1156.25 229,-1150.25 235,-1144.25 241,-1144.25"/>
<text xml:space="preserve" text-anchor="middle" x="315" y="-1306.35" font-family="Segoe UI" font-size="12.00">1. Frontend Input</text>
</g>
<g id="clust2" class="cluster">
<title>cluster_parsing</title>
<path fill="#e8f5e9" stroke="#2e7d32" d="M20,-829C20,-829 580,-829 580,-829 586,-829 592,-835 592,-841 592,-841 592,-1124.25 592,-1124.25 592,-1130.25 586,-1136.25 580,-1136.25 580,-1136.25 20,-1136.25 20,-1136.25 14,-1136.25 8,-1130.25 8,-1124.25 8,-1124.25 8,-841 8,-841 8,-835 14,-829 20,-829"/>
<text xml:space="preserve" text-anchor="middle" x="300" y="-1120.85" font-family="Segoe UI" font-size="12.00">2. Equation Parsing (eq_load_equations)</text>
</g>
<g id="clust3" class="cluster">
<title>cluster_parse_details</title>
<path fill="#a5d6a7" stroke="#1b5e20" d="M28,-837C28,-837 572,-837 572,-837 578,-837 584,-843 584,-849 584,-849 584,-959.75 584,-959.75 584,-965.75 578,-971.75 572,-971.75 572,-971.75 28,-971.75 28,-971.75 22,-971.75 16,-965.75 16,-959.75 16,-959.75 16,-849 16,-849 16,-843 22,-837 28,-837"/>
<text xml:space="preserve" text-anchor="middle" x="300" y="-956.35" font-family="Segoe UI" font-size="12.00">eq_parse_equation()</text>
</g>
<g id="clust4" class="cluster">
<title>cluster_channels</title>
<path fill="#f3e5f5" stroke="#6a1b9a" d="M204,-551.5C204,-551.5 426,-551.5 426,-551.5 432,-551.5 438,-557.5 438,-563.5 438,-563.5 438,-809 438,-809 438,-815 432,-821 426,-821 426,-821 204,-821 204,-821 198,-821 192,-815 192,-809 192,-809 192,-563.5 192,-563.5 192,-557.5 198,-551.5 204,-551.5"/>
<text xml:space="preserve" text-anchor="middle" x="315" y="-805.6" font-family="Segoe UI" font-size="12.00">3. Parsed Channel Data (EqChannelData[20])</text>
</g>
<g id="clust5" class="cluster">
<title>cluster_generation</title>
<path fill="#fff3e0" stroke="#e65100" d="M118,-194.75C118,-194.75 661,-194.75 661,-194.75 667,-194.75 673,-200.75 673,-206.75 673,-206.75 673,-531.5 673,-531.5 673,-537.5 667,-543.5 661,-543.5 661,-543.5 118,-543.5 118,-543.5 112,-543.5 106,-537.5 106,-531.5 106,-531.5 106,-206.75 106,-206.75 106,-200.75 112,-194.75 118,-194.75"/>
<text xml:space="preserve" text-anchor="middle" x="389.5" y="-528.1" font-family="Segoe UI" font-size="12.00">4. Sample Generation (eq_generate_sample)</text>
</g>
<g id="clust6" class="cluster">
<title>cluster_waveforms</title>
<path fill="#ffe0b2" stroke="#e65100" d="M126,-223.25C126,-223.25 477,-223.25 477,-223.25 483,-223.25 489,-229.25 489,-235.25 489,-235.25 489,-289 489,-289 489,-295 483,-301 477,-301 477,-301 126,-301 126,-301 120,-301 114,-295 114,-289 114,-289 114,-235.25 114,-235.25 114,-229.25 120,-223.25 126,-223.25"/>
<text xml:space="preserve" text-anchor="middle" x="301.5" y="-285.6" font-family="Segoe UI" font-size="12.00">Waveform Functions</text>
</g>
<g id="clust7" class="cluster">
<title>cluster_output</title>
<path fill="#ffebee" stroke="#c62828" d="M508,-8C508,-8 656,-8 656,-8 662,-8 668,-14 668,-20 668,-20 668,-174.75 668,-174.75 668,-180.75 662,-186.75 656,-186.75 656,-186.75 508,-186.75 508,-186.75 502,-186.75 496,-180.75 496,-174.75 496,-174.75 496,-20 496,-20 496,-14 502,-8 508,-8"/>
<text xml:space="preserve" text-anchor="middle" x="582" y="-171.35" font-family="Segoe UI" font-size="12.00">5. Output to Encoder</text>
</g>
<!-- raw_eq -->
<g id="node1" class="node">
<title>raw_eq</title>
<polygon fill="#bbdefb" stroke="black" points="386.75,-1288.5 237.25,-1288.5 237.25,-1152.25 392.75,-1152.25 392.75,-1282.5 386.75,-1288.5"/>
<polyline fill="none" stroke="black" points="386.75,-1288.5 386.75,-1282.5"/>
<polyline fill="none" stroke="black" points="392.75,-1282.5 386.75,-1282.5"/>
<text xml:space="preserve" text-anchor="middle" x="315" y="-1275" font-family="Segoe UI" font-size="10.00">Equation String from Frontend</text>
<text xml:space="preserve" text-anchor="middle" x="315" y="-1260.75" font-family="Segoe UI" font-size="10.00">&quot;Ia:100*sin(2*PI*50*t)|</text>
<text xml:space="preserve" text-anchor="middle" x="315" y="-1246.5" font-family="Segoe UI" font-size="10.00">Ib:100*sin(2*PI*50*t&#45;2*PI/3)|</text>
<text xml:space="preserve" text-anchor="middle" x="315" y="-1232.25" font-family="Segoe UI" font-size="10.00">Ic:100*sin(2*PI*50*t&#45;4*PI/3)|</text>
<text xml:space="preserve" text-anchor="middle" x="315" y="-1218" font-family="Segoe UI" font-size="10.00">In:0|</text>
<text xml:space="preserve" text-anchor="middle" x="315" y="-1203.75" font-family="Segoe UI" font-size="10.00">Va:325*sin(2*PI*50*t)|</text>
<text xml:space="preserve" text-anchor="middle" x="315" y="-1189.5" font-family="Segoe UI" font-size="10.00">Vb:325*sin(2*PI*50*t&#45;2*PI/3)|</text>
<text xml:space="preserve" text-anchor="middle" x="315" y="-1175.25" font-family="Segoe UI" font-size="10.00">Vc:325*sin(2*PI*50*t&#45;4*PI/3)|</text>
<text xml:space="preserve" text-anchor="middle" x="315" y="-1161" font-family="Segoe UI" font-size="10.00">Vn:0&quot;</text>
</g>
<!-- split_pipe -->
<g id="node2" class="node">
<title>split_pipe</title>
<path fill="#c8e6c9" stroke="black" d="M359.38,-1103C359.38,-1103 270.62,-1103 270.62,-1103 264.62,-1103 258.62,-1097 258.62,-1091 258.62,-1091 258.62,-1078.5 258.62,-1078.5 258.62,-1072.5 264.62,-1066.5 270.62,-1066.5 270.62,-1066.5 359.38,-1066.5 359.38,-1066.5 365.38,-1066.5 371.38,-1072.5 371.38,-1078.5 371.38,-1078.5 371.38,-1091 371.38,-1091 371.38,-1097 365.38,-1103 359.38,-1103"/>
<text xml:space="preserve" text-anchor="middle" x="315" y="-1089.5" font-family="Segoe UI" font-size="10.00">Split by &#39;|&#39;</text>
<text xml:space="preserve" text-anchor="middle" x="315" y="-1075.25" font-family="Segoe UI" font-size="10.00">into id:equation pairs</text>
</g>
<!-- raw_eq&#45;&gt;split_pipe -->
<g id="edge1" class="edge">
<title>raw_eq&#45;&gt;split_pipe</title>
<path fill="none" stroke="black" d="M315,-1151.78C315,-1138.7 315,-1125.67 315,-1114.68"/>
<polygon fill="black" stroke="black" points="318.5,-1114.76 315,-1104.76 311.5,-1114.76 318.5,-1114.76"/>
</g>
<!-- split_colon -->
<g id="node3" class="node">
<title>split_colon</title>
<path fill="#c8e6c9" stroke="black" d="M381.5,-1030.5C381.5,-1030.5 248.5,-1030.5 248.5,-1030.5 242.5,-1030.5 236.5,-1024.5 236.5,-1018.5 236.5,-1018.5 236.5,-991.75 236.5,-991.75 236.5,-985.75 242.5,-979.75 248.5,-979.75 248.5,-979.75 381.5,-979.75 381.5,-979.75 387.5,-979.75 393.5,-985.75 393.5,-991.75 393.5,-991.75 393.5,-1018.5 393.5,-1018.5 393.5,-1024.5 387.5,-1030.5 381.5,-1030.5"/>
<text xml:space="preserve" text-anchor="middle" x="315" y="-1017" font-family="Segoe UI" font-size="10.00">Split by &#39;:&#39;</text>
<text xml:space="preserve" text-anchor="middle" x="315" y="-1002.75" font-family="Segoe UI" font-size="10.00">id = &quot;Ia&quot;</text>
<text xml:space="preserve" text-anchor="middle" x="315" y="-988.5" font-family="Segoe UI" font-size="10.00">equation = &quot;100*sin(2*PI*50*t)&quot;</text>
</g>
<!-- split_pipe&#45;&gt;split_colon -->
<g id="edge2" class="edge">
<title>split_pipe&#45;&gt;split_colon</title>
<path fill="none" stroke="black" d="M315,-1066.14C315,-1059.02 315,-1050.54 315,-1042.22"/>
<polygon fill="black" stroke="black" points="318.5,-1042.24 315,-1032.24 311.5,-1042.24 318.5,-1042.24"/>
</g>
<!-- parse_amp -->
<g id="node4" class="node">
<title>parse_amp</title>
<path fill="#81c784" stroke="black" d="M151.88,-917.12C151.88,-917.12 36.12,-917.12 36.12,-917.12 30.12,-917.12 24.12,-911.12 24.12,-905.12 24.12,-905.12 24.12,-878.38 24.12,-878.38 24.12,-872.38 30.12,-866.38 36.12,-866.38 36.12,-866.38 151.88,-866.38 151.88,-866.38 157.88,-866.38 163.88,-872.38 163.88,-878.38 163.88,-878.38 163.88,-905.12 163.88,-905.12 163.88,-911.12 157.88,-917.12 151.88,-917.12"/>
<text xml:space="preserve" text-anchor="middle" x="94" y="-903.62" font-family="Segoe UI" font-size="10.00">parse_amplitude()</text>
<text xml:space="preserve" text-anchor="middle" x="94" y="-889.38" font-family="Segoe UI" font-size="10.00">Extract coefficient before &#39;*&#39;</text>
<text xml:space="preserve" text-anchor="middle" x="94" y="-875.12" font-family="Segoe UI" font-size="10.00">&quot;100*sin(...)&quot; → amp = 100.0</text>
</g>
<!-- split_colon&#45;&gt;parse_amp -->
<g id="edge3" class="edge">
<title>split_colon&#45;&gt;parse_amp</title>
<path fill="none" stroke="black" d="M236.23,-994.34C214.82,-989.54 192.25,-982.39 173,-971.75 152.52,-960.43 133.79,-942.23 119.72,-926.16"/>
<polygon fill="black" stroke="black" points="122.5,-924.03 113.38,-918.65 117.16,-928.55 122.5,-924.03"/>
</g>
<!-- parse_freq -->
<g id="node5" class="node">
<title>parse_freq</title>
<path fill="#81c784" stroke="black" d="M298.25,-917.12C298.25,-917.12 193.75,-917.12 193.75,-917.12 187.75,-917.12 181.75,-911.12 181.75,-905.12 181.75,-905.12 181.75,-878.38 181.75,-878.38 181.75,-872.38 187.75,-866.38 193.75,-866.38 193.75,-866.38 298.25,-866.38 298.25,-866.38 304.25,-866.38 310.25,-872.38 310.25,-878.38 310.25,-878.38 310.25,-905.12 310.25,-905.12 310.25,-911.12 304.25,-917.12 298.25,-917.12"/>
<text xml:space="preserve" text-anchor="middle" x="246" y="-903.62" font-family="Segoe UI" font-size="10.00">parse_frequency()</text>
<text xml:space="preserve" text-anchor="middle" x="246" y="-889.38" font-family="Segoe UI" font-size="10.00">Find &#39;PI*f*t&#39; pattern</text>
<text xml:space="preserve" text-anchor="middle" x="246" y="-875.12" font-family="Segoe UI" font-size="10.00">&quot;2*PI*50*t&quot; → freq = 50.0</text>
</g>
<!-- split_colon&#45;&gt;parse_freq -->
<g id="edge4" class="edge">
<title>split_colon&#45;&gt;parse_freq</title>
<path fill="none" stroke="black" d="M299.69,-979.41C290.13,-963.98 277.69,-943.9 267.19,-926.95"/>
<polygon fill="black" stroke="black" points="270.31,-925.34 262.07,-918.69 264.36,-929.03 270.31,-925.34"/>
</g>
<!-- parse_phase -->
<g id="node6" class="node">
<title>parse_phase</title>
<path fill="#81c784" stroke="black" d="M430.12,-931.38C430.12,-931.38 339.88,-931.38 339.88,-931.38 333.88,-931.38 327.88,-925.38 327.88,-919.38 327.88,-919.38 327.88,-864.12 327.88,-864.12 327.88,-858.12 333.88,-852.12 339.88,-852.12 339.88,-852.12 430.12,-852.12 430.12,-852.12 436.12,-852.12 442.12,-858.12 442.12,-864.12 442.12,-864.12 442.12,-919.38 442.12,-919.38 442.12,-925.38 436.12,-931.38 430.12,-931.38"/>
<text xml:space="preserve" text-anchor="middle" x="385" y="-917.88" font-family="Segoe UI" font-size="10.00">parse_phase()</text>
<text xml:space="preserve" text-anchor="middle" x="385" y="-903.62" font-family="Segoe UI" font-size="10.00">Recognize patterns:</text>
<text xml:space="preserve" text-anchor="middle" x="385" y="-889.38" font-family="Segoe UI" font-size="10.00">&quot;&#45;2*PI/3&quot; → &#45;2.094 rad</text>
<text xml:space="preserve" text-anchor="middle" x="385" y="-875.12" font-family="Segoe UI" font-size="10.00">&quot;&#45;4*PI/3&quot; → &#45;4.189 rad</text>
<text xml:space="preserve" text-anchor="middle" x="385" y="-860.88" font-family="Segoe UI" font-size="10.00">&quot;&#45;PI/2&quot; &#160;&#160;→ &#45;1.571 rad</text>
</g>
<!-- split_colon&#45;&gt;parse_phase -->
<g id="edge5" class="edge">
<title>split_colon&#45;&gt;parse_phase</title>
<path fill="none" stroke="black" d="M330.54,-979.41C337.6,-968.17 346.22,-954.45 354.5,-941.29"/>
<polygon fill="black" stroke="black" points="357.27,-943.45 359.63,-933.12 351.34,-939.72 357.27,-943.45"/>
</g>
<!-- parse_wave -->
<g id="node7" class="node">
<title>parse_wave</title>
<path fill="#81c784" stroke="black" d="M564.25,-938.5C564.25,-938.5 471.75,-938.5 471.75,-938.5 465.75,-938.5 459.75,-932.5 459.75,-926.5 459.75,-926.5 459.75,-857 459.75,-857 459.75,-851 465.75,-845 471.75,-845 471.75,-845 564.25,-845 564.25,-845 570.25,-845 576.25,-851 576.25,-857 576.25,-857 576.25,-926.5 576.25,-926.5 576.25,-932.5 570.25,-938.5 564.25,-938.5"/>
<text xml:space="preserve" text-anchor="middle" x="518" y="-925" font-family="Segoe UI" font-size="10.00">parse_wavetype()</text>
<text xml:space="preserve" text-anchor="middle" x="518" y="-910.75" font-family="Segoe UI" font-size="10.00">Detect function name:</text>
<text xml:space="preserve" text-anchor="middle" x="518" y="-896.5" font-family="Segoe UI" font-size="10.00">sin() → SINE</text>
<text xml:space="preserve" text-anchor="middle" x="518" y="-882.25" font-family="Segoe UI" font-size="10.00">cos() → COSINE</text>
<text xml:space="preserve" text-anchor="middle" x="518" y="-868" font-family="Segoe UI" font-size="10.00">square() → SQUARE</text>
<text xml:space="preserve" text-anchor="middle" x="518" y="-853.75" font-family="Segoe UI" font-size="10.00">triangle() → TRIANGLE</text>
</g>
<!-- split_colon&#45;&gt;parse_wave -->
<g id="edge6" class="edge">
<title>split_colon&#45;&gt;parse_wave</title>
<path fill="none" stroke="black" d="M393.86,-994.19C413.5,-989.4 433.83,-982.29 451,-971.75 461.56,-965.27 471.29,-956.55 479.87,-947.27"/>
<polygon fill="black" stroke="black" points="482.47,-949.61 486.42,-939.78 477.21,-945 482.47,-949.61"/>
</g>
<!-- ch_table -->
<g id="node8" class="node">
<title>ch_table</title>
<path fill="lightgrey" stroke="none" d="M406,-787.75C406,-787.75 224,-787.75 224,-787.75 218,-787.75 212,-781.75 212,-775.75 212,-775.75 212,-571.5 212,-571.5 212,-565.5 218,-559.5 224,-559.5 224,-559.5 406,-559.5 406,-559.5 412,-559.5 418,-565.5 418,-571.5 418,-571.5 418,-775.75 418,-775.75 418,-781.75 412,-787.75 406,-787.75"/>
<polygon fill="#ce93d8" stroke="none" points="221,-758.5 221,-782.75 243,-782.75 243,-758.5 221,-758.5"/>
<polygon fill="none" stroke="black" points="221,-758.5 221,-782.75 243,-782.75 243,-758.5 221,-758.5"/>
<text xml:space="preserve" text-anchor="start" x="226.75" y="-769.25" font-family="Segoe UI" font-weight="bold" font-size="10.00">ID</text>
<polygon fill="#ce93d8" stroke="none" points="243,-758.5 243,-782.75 301.75,-782.75 301.75,-758.5 243,-758.5"/>
<polygon fill="none" stroke="black" points="243,-758.5 243,-782.75 301.75,-782.75 301.75,-758.5 243,-758.5"/>
<text xml:space="preserve" text-anchor="start" x="248" y="-769.25" font-family="Segoe UI" font-weight="bold" font-size="10.00">Amplitude</text>
<polygon fill="#ce93d8" stroke="none" points="301.75,-758.5 301.75,-782.75 336.5,-782.75 336.5,-758.5 301.75,-758.5"/>
<polygon fill="none" stroke="black" points="301.75,-758.5 301.75,-782.75 336.5,-782.75 336.5,-758.5 301.75,-758.5"/>
<text xml:space="preserve" text-anchor="start" x="309" y="-769.25" font-family="Segoe UI" font-weight="bold" font-size="10.00">Freq</text>
<polygon fill="#ce93d8" stroke="none" points="336.5,-758.5 336.5,-782.75 373.5,-782.75 373.5,-758.5 336.5,-758.5"/>
<polygon fill="none" stroke="black" points="336.5,-758.5 336.5,-782.75 373.5,-782.75 373.5,-758.5 336.5,-758.5"/>
<text xml:space="preserve" text-anchor="start" x="341.5" y="-769.25" font-family="Segoe UI" font-weight="bold" font-size="10.00">Phase</text>
<polygon fill="#ce93d8" stroke="none" points="373.5,-758.5 373.5,-782.75 409,-782.75 409,-758.5 373.5,-758.5"/>
<polygon fill="none" stroke="black" points="373.5,-758.5 373.5,-782.75 409,-782.75 409,-758.5 373.5,-758.5"/>
<text xml:space="preserve" text-anchor="start" x="378.5" y="-769.25" font-family="Segoe UI" font-weight="bold" font-size="10.00">Wave</text>
<polygon fill="none" stroke="black" points="221,-734.25 221,-758.5 243,-758.5 243,-734.25 221,-734.25"/>
<text xml:space="preserve" text-anchor="start" x="227.88" y="-744" font-family="Segoe UI" font-size="10.00">Ia</text>
<polygon fill="none" stroke="black" points="243,-734.25 243,-758.5 301.75,-758.5 301.75,-734.25 243,-734.25"/>
<text xml:space="preserve" text-anchor="start" x="260.75" y="-744" font-family="Segoe UI" font-size="10.00">100.0</text>
<polygon fill="none" stroke="black" points="301.75,-734.25 301.75,-758.5 336.5,-758.5 336.5,-734.25 301.75,-734.25"/>
<text xml:space="preserve" text-anchor="start" x="306.75" y="-744" font-family="Segoe UI" font-size="10.00">50 Hz</text>
<polygon fill="none" stroke="black" points="336.5,-734.25 336.5,-758.5 373.5,-758.5 373.5,-734.25 336.5,-734.25"/>
<text xml:space="preserve" text-anchor="start" x="352.38" y="-744" font-family="Segoe UI" font-size="10.00">0</text>
<polygon fill="none" stroke="black" points="373.5,-734.25 373.5,-758.5 409,-758.5 409,-734.25 373.5,-734.25"/>
<text xml:space="preserve" text-anchor="start" x="380.75" y="-744" font-family="Segoe UI" font-size="10.00">SINE</text>
<polygon fill="none" stroke="black" points="221,-710 221,-734.25 243,-734.25 243,-710 221,-710"/>
<text xml:space="preserve" text-anchor="start" x="227.5" y="-719.75" font-family="Segoe UI" font-size="10.00">Ib</text>
<polygon fill="none" stroke="black" points="243,-710 243,-734.25 301.75,-734.25 301.75,-710 243,-710"/>
<text xml:space="preserve" text-anchor="start" x="260.75" y="-719.75" font-family="Segoe UI" font-size="10.00">100.0</text>
<polygon fill="none" stroke="black" points="301.75,-710 301.75,-734.25 336.5,-734.25 336.5,-710 301.75,-710"/>
<text xml:space="preserve" text-anchor="start" x="306.75" y="-719.75" font-family="Segoe UI" font-size="10.00">50 Hz</text>
<polygon fill="none" stroke="black" points="336.5,-710 336.5,-734.25 373.5,-734.25 373.5,-710 336.5,-710"/>
<text xml:space="preserve" text-anchor="start" x="343" y="-719.75" font-family="Segoe UI" font-size="10.00">&#45;2π/3</text>
<polygon fill="none" stroke="black" points="373.5,-710 373.5,-734.25 409,-734.25 409,-710 373.5,-710"/>
<text xml:space="preserve" text-anchor="start" x="380.75" y="-719.75" font-family="Segoe UI" font-size="10.00">SINE</text>
<polygon fill="none" stroke="black" points="221,-685.75 221,-710 243,-710 243,-685.75 221,-685.75"/>
<text xml:space="preserve" text-anchor="start" x="228.25" y="-695.5" font-family="Segoe UI" font-size="10.00">Ic</text>
<polygon fill="none" stroke="black" points="243,-685.75 243,-710 301.75,-710 301.75,-685.75 243,-685.75"/>
<text xml:space="preserve" text-anchor="start" x="260.75" y="-695.5" font-family="Segoe UI" font-size="10.00">100.0</text>
<polygon fill="none" stroke="black" points="301.75,-685.75 301.75,-710 336.5,-710 336.5,-685.75 301.75,-685.75"/>
<text xml:space="preserve" text-anchor="start" x="306.75" y="-695.5" font-family="Segoe UI" font-size="10.00">50 Hz</text>
<polygon fill="none" stroke="black" points="336.5,-685.75 336.5,-710 373.5,-710 373.5,-685.75 336.5,-685.75"/>
<text xml:space="preserve" text-anchor="start" x="343" y="-695.5" font-family="Segoe UI" font-size="10.00">&#45;4π/3</text>
<polygon fill="none" stroke="black" points="373.5,-685.75 373.5,-710 409,-710 409,-685.75 373.5,-685.75"/>
<text xml:space="preserve" text-anchor="start" x="380.75" y="-695.5" font-family="Segoe UI" font-size="10.00">SINE</text>
<polygon fill="none" stroke="black" points="221,-661.5 221,-685.75 243,-685.75 243,-661.5 221,-661.5"/>
<text xml:space="preserve" text-anchor="start" x="227.5" y="-671.25" font-family="Segoe UI" font-size="10.00">In</text>
<polygon fill="none" stroke="black" points="243,-661.5 243,-685.75 301.75,-685.75 301.75,-661.5 243,-661.5"/>
<text xml:space="preserve" text-anchor="start" x="266" y="-671.25" font-family="Segoe UI" font-size="10.00">0.0</text>
<polygon fill="none" stroke="black" points="301.75,-661.5 301.75,-685.75 336.5,-685.75 336.5,-661.5 301.75,-661.5"/>
<text xml:space="preserve" text-anchor="start" x="314.25" y="-671.25" font-family="Segoe UI" font-size="10.00">—</text>
<polygon fill="none" stroke="black" points="336.5,-661.5 336.5,-685.75 373.5,-685.75 373.5,-661.5 336.5,-661.5"/>
<text xml:space="preserve" text-anchor="start" x="350.12" y="-671.25" font-family="Segoe UI" font-size="10.00">—</text>
<polygon fill="none" stroke="black" points="373.5,-661.5 373.5,-685.75 409,-685.75 409,-661.5 373.5,-661.5"/>
<text xml:space="preserve" text-anchor="start" x="378.88" y="-671.25" font-family="Segoe UI" font-size="10.00">ZERO</text>
<polygon fill="none" stroke="black" points="221,-637.25 221,-661.5 243,-661.5 243,-637.25 221,-637.25"/>
<text xml:space="preserve" text-anchor="start" x="226.75" y="-647" font-family="Segoe UI" font-size="10.00">Va</text>
<polygon fill="none" stroke="black" points="243,-637.25 243,-661.5 301.75,-661.5 301.75,-637.25 243,-637.25"/>
<text xml:space="preserve" text-anchor="start" x="260.75" y="-647" font-family="Segoe UI" font-size="10.00">325.0</text>
<polygon fill="none" stroke="black" points="301.75,-637.25 301.75,-661.5 336.5,-661.5 336.5,-637.25 301.75,-637.25"/>
<text xml:space="preserve" text-anchor="start" x="306.75" y="-647" font-family="Segoe UI" font-size="10.00">50 Hz</text>
<polygon fill="none" stroke="black" points="336.5,-637.25 336.5,-661.5 373.5,-661.5 373.5,-637.25 336.5,-637.25"/>
<text xml:space="preserve" text-anchor="start" x="352.38" y="-647" font-family="Segoe UI" font-size="10.00">0</text>
<polygon fill="none" stroke="black" points="373.5,-637.25 373.5,-661.5 409,-661.5 409,-637.25 373.5,-637.25"/>
<text xml:space="preserve" text-anchor="start" x="380.75" y="-647" font-family="Segoe UI" font-size="10.00">SINE</text>
<polygon fill="none" stroke="black" points="221,-613 221,-637.25 243,-637.25 243,-613 221,-613"/>
<text xml:space="preserve" text-anchor="start" x="226" y="-622.75" font-family="Segoe UI" font-size="10.00">Vb</text>
<polygon fill="none" stroke="black" points="243,-613 243,-637.25 301.75,-637.25 301.75,-613 243,-613"/>
<text xml:space="preserve" text-anchor="start" x="260.75" y="-622.75" font-family="Segoe UI" font-size="10.00">325.0</text>
<polygon fill="none" stroke="black" points="301.75,-613 301.75,-637.25 336.5,-637.25 336.5,-613 301.75,-613"/>
<text xml:space="preserve" text-anchor="start" x="306.75" y="-622.75" font-family="Segoe UI" font-size="10.00">50 Hz</text>
<polygon fill="none" stroke="black" points="336.5,-613 336.5,-637.25 373.5,-637.25 373.5,-613 336.5,-613"/>
<text xml:space="preserve" text-anchor="start" x="343" y="-622.75" font-family="Segoe UI" font-size="10.00">&#45;2π/3</text>
<polygon fill="none" stroke="black" points="373.5,-613 373.5,-637.25 409,-637.25 409,-613 373.5,-613"/>
<text xml:space="preserve" text-anchor="start" x="380.75" y="-622.75" font-family="Segoe UI" font-size="10.00">SINE</text>
<polygon fill="none" stroke="black" points="221,-588.75 221,-613 243,-613 243,-588.75 221,-588.75"/>
<text xml:space="preserve" text-anchor="start" x="227.12" y="-598.5" font-family="Segoe UI" font-size="10.00">Vc</text>
<polygon fill="none" stroke="black" points="243,-588.75 243,-613 301.75,-613 301.75,-588.75 243,-588.75"/>
<text xml:space="preserve" text-anchor="start" x="260.75" y="-598.5" font-family="Segoe UI" font-size="10.00">325.0</text>
<polygon fill="none" stroke="black" points="301.75,-588.75 301.75,-613 336.5,-613 336.5,-588.75 301.75,-588.75"/>
<text xml:space="preserve" text-anchor="start" x="306.75" y="-598.5" font-family="Segoe UI" font-size="10.00">50 Hz</text>
<polygon fill="none" stroke="black" points="336.5,-588.75 336.5,-613 373.5,-613 373.5,-588.75 336.5,-588.75"/>
<text xml:space="preserve" text-anchor="start" x="343" y="-598.5" font-family="Segoe UI" font-size="10.00">&#45;4π/3</text>
<polygon fill="none" stroke="black" points="373.5,-588.75 373.5,-613 409,-613 409,-588.75 373.5,-588.75"/>
<text xml:space="preserve" text-anchor="start" x="380.75" y="-598.5" font-family="Segoe UI" font-size="10.00">SINE</text>
<polygon fill="none" stroke="black" points="221,-564.5 221,-588.75 243,-588.75 243,-564.5 221,-564.5"/>
<text xml:space="preserve" text-anchor="start" x="226" y="-574.25" font-family="Segoe UI" font-size="10.00">Vn</text>
<polygon fill="none" stroke="black" points="243,-564.5 243,-588.75 301.75,-588.75 301.75,-564.5 243,-564.5"/>
<text xml:space="preserve" text-anchor="start" x="266" y="-574.25" font-family="Segoe UI" font-size="10.00">0.0</text>
<polygon fill="none" stroke="black" points="301.75,-564.5 301.75,-588.75 336.5,-588.75 336.5,-564.5 301.75,-564.5"/>
<text xml:space="preserve" text-anchor="start" x="314.25" y="-574.25" font-family="Segoe UI" font-size="10.00">—</text>
<polygon fill="none" stroke="black" points="336.5,-564.5 336.5,-588.75 373.5,-588.75 373.5,-564.5 336.5,-564.5"/>
<text xml:space="preserve" text-anchor="start" x="350.12" y="-574.25" font-family="Segoe UI" font-size="10.00">—</text>
<polygon fill="none" stroke="black" points="373.5,-564.5 373.5,-588.75 409,-588.75 409,-564.5 373.5,-564.5"/>
<text xml:space="preserve" text-anchor="start" x="378.88" y="-574.25" font-family="Segoe UI" font-size="10.00">ZERO</text>
<polygon fill="none" stroke="black" points="220,-563.5 220,-783.75 410,-783.75 410,-563.5 220,-563.5"/>
</g>
<!-- parse_amp&#45;&gt;ch_table -->
<g id="edge7" class="edge">
<title>parse_amp&#45;&gt;ch_table</title>
<path fill="none" stroke="black" d="M119.35,-865.96C140.52,-845.26 172.26,-814.22 204.05,-783.13"/>
<polygon fill="black" stroke="black" points="206.34,-785.78 211.04,-776.29 201.45,-780.78 206.34,-785.78"/>
</g>
<!-- parse_freq&#45;&gt;ch_table -->
<g id="edge8" class="edge">
<title>parse_freq&#45;&gt;ch_table</title>
<path fill="none" stroke="black" d="M253.92,-865.96C259.45,-848.61 267.31,-824 275.55,-798.19"/>
<polygon fill="black" stroke="black" points="278.81,-799.5 278.51,-788.91 272.14,-797.37 278.81,-799.5"/>
</g>
<!-- parse_phase&#45;&gt;ch_table -->
<g id="edge9" class="edge">
<title>parse_phase&#45;&gt;ch_table</title>
<path fill="none" stroke="black" d="M372.49,-852.11C367.48,-836.64 361.4,-817.88 355.1,-798.43"/>
<polygon fill="black" stroke="black" points="358.46,-797.44 352.04,-789 351.8,-799.59 358.46,-797.44"/>
</g>
<!-- parse_wave&#45;&gt;ch_table -->
<g id="edge10" class="edge">
<title>parse_wave&#45;&gt;ch_table</title>
<path fill="none" stroke="black" d="M474.7,-844.65C460.03,-829.03 442.91,-810.8 425.43,-792.19"/>
<polygon fill="black" stroke="black" points="428.36,-790.2 418.96,-785.3 423.25,-794.99 428.36,-790.2"/>
</g>
<!-- time_calc -->
<g id="node9" class="node">
<title>time_calc</title>
<path fill="#ffe0b2" stroke="black" d="M375.88,-510.25C375.88,-510.25 254.12,-510.25 254.12,-510.25 248.12,-510.25 242.12,-504.25 242.12,-498.25 242.12,-498.25 242.12,-471.5 242.12,-471.5 242.12,-465.5 248.12,-459.5 254.12,-459.5 254.12,-459.5 375.88,-459.5 375.88,-459.5 381.88,-459.5 387.88,-465.5 387.88,-471.5 387.88,-471.5 387.88,-498.25 387.88,-498.25 387.88,-504.25 381.88,-510.25 375.88,-510.25"/>
<text xml:space="preserve" text-anchor="middle" x="315" y="-496.75" font-family="Segoe UI" font-size="10.00">Time Calculation</text>
<text xml:space="preserve" text-anchor="middle" x="315" y="-482.5" font-family="Segoe UI" font-size="10.00">t = smpCnt / sampleRate</text>
<text xml:space="preserve" text-anchor="middle" x="315" y="-468.25" font-family="Segoe UI" font-size="10.00">e.g., t = 42 / 4800 = 0.00875s</text>
</g>
<!-- ch_table&#45;&gt;time_calc -->
<g id="edge11" class="edge">
<title>ch_table&#45;&gt;time_calc</title>
<path fill="none" stroke="black" d="M315,-559.68C315,-546.15 315,-533.18 315,-522"/>
<polygon fill="black" stroke="black" points="318.5,-522.14 315,-512.14 311.5,-522.14 318.5,-522.14"/>
</g>
<!-- formula -->
<g id="node10" class="node">
<title>formula</title>
<path fill="#ffe0b2" stroke="black" stroke-width="2" d="M387.88,-423.5C387.88,-423.5 242.12,-423.5 242.12,-423.5 236.12,-423.5 230.12,-417.5 230.12,-411.5 230.12,-411.5 230.12,-344.25 230.12,-344.25 230.12,-338.25 236.12,-332.25 242.12,-332.25 242.12,-332.25 387.88,-332.25 387.88,-332.25 393.88,-332.25 399.88,-338.25 399.88,-344.25 399.88,-344.25 399.88,-411.5 399.88,-411.5 399.88,-417.5 393.88,-423.5 387.88,-423.5"/>
<text xml:space="preserve" text-anchor="middle" x="315" y="-410" font-family="Segoe UI" font-size="10.00">For each channel:</text>
<text xml:space="preserve" text-anchor="middle" x="315" y="-395.75" font-family="Segoe UI" font-size="10.00">value = amplitude ×</text>
<text xml:space="preserve" text-anchor="middle" x="315" y="-381.5" font-family="Segoe UI" font-size="10.00"> &#160;waveform(2π × freq × t + phase)</text>
<text xml:space="preserve" text-anchor="middle" x="315" y="-367.25" font-family="Segoe UI" font-size="10.00"> &#160;× scaleFactor</text>
<text xml:space="preserve" text-anchor="middle" x="315" y="-341" font-family="Segoe UI" font-size="10.00">scaleFactor = 1000.0</text>
</g>
<!-- time_calc&#45;&gt;formula -->
<g id="edge12" class="edge">
<title>time_calc&#45;&gt;formula</title>
<path fill="none" stroke="black" d="M315,-459.26C315,-452.09 315,-443.94 315,-435.66"/>
<polygon fill="black" stroke="black" points="318.5,-435.86 315,-425.86 311.5,-435.86 318.5,-435.86"/>
</g>
<!-- sine -->
<g id="node11" class="node">
<title>sine</title>
<path fill="#ffcc80" stroke="black" d="M164,-267.75C164,-267.75 134,-267.75 134,-267.75 128,-267.75 122,-261.75 122,-255.75 122,-255.75 122,-243.25 122,-243.25 122,-237.25 128,-231.25 134,-231.25 134,-231.25 164,-231.25 164,-231.25 170,-231.25 176,-237.25 176,-243.25 176,-243.25 176,-255.75 176,-255.75 176,-261.75 170,-267.75 164,-267.75"/>
<text xml:space="preserve" text-anchor="middle" x="149" y="-254.25" font-family="Segoe UI" font-size="10.00">SINE</text>
<text xml:space="preserve" text-anchor="middle" x="149" y="-240" font-family="Segoe UI" font-size="10.00">sin(θ)</text>
</g>
<!-- formula&#45;&gt;sine -->
<g id="edge13" class="edge">
<title>formula&#45;&gt;sine</title>
<path fill="none" stroke="black" stroke-dasharray="5,2" d="M229.22,-333.81C213.67,-324.11 198.22,-313.07 185,-301 177.54,-294.19 170.71,-285.58 165.05,-277.42"/>
<polygon fill="black" stroke="black" points="168,-275.54 159.6,-269.09 162.15,-279.37 168,-275.54"/>
</g>
<!-- cosine -->
<g id="node12" class="node">
<title>cosine</title>
<path fill="#ffcc80" stroke="black" d="M236,-267.75C236,-267.75 206,-267.75 206,-267.75 200,-267.75 194,-261.75 194,-255.75 194,-255.75 194,-243.25 194,-243.25 194,-237.25 200,-231.25 206,-231.25 206,-231.25 236,-231.25 236,-231.25 242,-231.25 248,-237.25 248,-243.25 248,-243.25 248,-255.75 248,-255.75 248,-261.75 242,-267.75 236,-267.75"/>
<text xml:space="preserve" text-anchor="middle" x="221" y="-254.25" font-family="Segoe UI" font-size="10.00">COSINE</text>
<text xml:space="preserve" text-anchor="middle" x="221" y="-240" font-family="Segoe UI" font-size="10.00">cos(θ)</text>
</g>
<!-- formula&#45;&gt;cosine -->
<g id="edge14" class="edge">
<title>formula&#45;&gt;cosine</title>
<path fill="none" stroke="black" stroke-dasharray="5,2" d="M279.79,-331.32C272.21,-321.37 264.29,-310.87 257,-301 251.33,-293.33 245.28,-284.92 239.78,-277.2"/>
<polygon fill="black" stroke="black" points="242.7,-275.27 234.06,-269.13 236.99,-279.32 242.7,-275.27"/>
</g>
<!-- square -->
<g id="node13" class="node">
<title>square</title>
<path fill="#ffcc80" stroke="black" d="M352.25,-267.75C352.25,-267.75 277.75,-267.75 277.75,-267.75 271.75,-267.75 265.75,-261.75 265.75,-255.75 265.75,-255.75 265.75,-243.25 265.75,-243.25 265.75,-237.25 271.75,-231.25 277.75,-231.25 277.75,-231.25 352.25,-231.25 352.25,-231.25 358.25,-231.25 364.25,-237.25 364.25,-243.25 364.25,-243.25 364.25,-255.75 364.25,-255.75 364.25,-261.75 358.25,-267.75 352.25,-267.75"/>
<text xml:space="preserve" text-anchor="middle" x="315" y="-254.25" font-family="Segoe UI" font-size="10.00">SQUARE</text>
<text xml:space="preserve" text-anchor="middle" x="315" y="-240" font-family="Segoe UI" font-size="10.00">sin(θ) ≥ 0 ? +1 : &#45;1</text>
</g>
<!-- formula&#45;&gt;square -->
<g id="edge15" class="edge">
<title>formula&#45;&gt;square</title>
<path fill="none" stroke="black" stroke-dasharray="5,2" d="M315,-331.25C315,-313.96 315,-294.76 315,-279.42"/>
<polygon fill="black" stroke="black" points="318.5,-279.57 315,-269.57 311.5,-279.57 318.5,-279.57"/>
</g>
<!-- triangle -->
<g id="node14" class="node">
<title>triangle</title>
<path fill="#ffcc80" stroke="black" d="M469.25,-267.75C469.25,-267.75 394.75,-267.75 394.75,-267.75 388.75,-267.75 382.75,-261.75 382.75,-255.75 382.75,-255.75 382.75,-243.25 382.75,-243.25 382.75,-237.25 388.75,-231.25 394.75,-231.25 394.75,-231.25 469.25,-231.25 469.25,-231.25 475.25,-231.25 481.25,-237.25 481.25,-243.25 481.25,-243.25 481.25,-255.75 481.25,-255.75 481.25,-261.75 475.25,-267.75 469.25,-267.75"/>
<text xml:space="preserve" text-anchor="middle" x="432" y="-254.25" font-family="Segoe UI" font-size="10.00">TRIANGLE</text>
<text xml:space="preserve" text-anchor="middle" x="432" y="-240" font-family="Segoe UI" font-size="10.00">(2/π) × asin(sin(θ))</text>
</g>
<!-- formula&#45;&gt;triangle -->
<g id="edge16" class="edge">
<title>formula&#45;&gt;triangle</title>
<path fill="none" stroke="black" stroke-dasharray="5,2" d="M357.24,-331.25C374.36,-312.76 393.5,-292.09 408.13,-276.29"/>
<polygon fill="black" stroke="black" points="410.49,-278.88 414.72,-269.17 405.36,-274.13 410.49,-278.88"/>
</g>
<!-- output_val -->
<g id="node15" class="node">
<title>output_val</title>
<polygon fill="#ffe0b2" stroke="black" points="659,-296.25 499,-296.25 499,-202.75 665,-202.75 665,-290.25 659,-296.25"/>
<polyline fill="none" stroke="black" points="659,-296.25 659,-290.25"/>
<polyline fill="none" stroke="black" points="665,-290.25 659,-290.25"/>
<text xml:space="preserve" text-anchor="middle" x="582" y="-282.75" font-family="Segoe UI" font-size="10.00">Output: int32_t</text>
<text xml:space="preserve" text-anchor="middle" x="582" y="-268.5" font-family="Segoe UI" font-size="10.00">e.g., Ia at t=0.00875:</text>
<text xml:space="preserve" text-anchor="middle" x="582" y="-254.25" font-family="Segoe UI" font-size="10.00">100 × sin(2π×50×0.00875) × 1000</text>
<text xml:space="preserve" text-anchor="middle" x="582" y="-240" font-family="Segoe UI" font-size="10.00">= 100 × sin(2.749) × 1000</text>
<text xml:space="preserve" text-anchor="middle" x="582" y="-225.75" font-family="Segoe UI" font-size="10.00">= 100 × 0.3827 × 1000</text>
<text xml:space="preserve" text-anchor="middle" x="582" y="-211.5" font-family="Segoe UI" font-size="10.00">= 38,268</text>
</g>
<!-- formula&#45;&gt;output_val -->
<g id="edge17" class="edge">
<title>formula&#45;&gt;output_val</title>
<path fill="none" stroke="black" d="M400.55,-342.72C427.5,-331.41 457.41,-318.28 491.48,-301.64"/>
<polygon fill="black" stroke="black" points="492.91,-304.84 500.33,-297.28 489.82,-298.56 492.91,-304.84"/>
</g>
<!-- samples_array -->
<g id="node16" class="node">
<title>samples_array</title>
<path fill="#ffcdd2" stroke="black" d="M647.38,-153.5C647.38,-153.5 516.62,-153.5 516.62,-153.5 510.62,-153.5 504.62,-147.5 504.62,-141.5 504.62,-141.5 504.62,-114.75 504.62,-114.75 504.62,-108.75 510.62,-102.75 516.62,-102.75 516.62,-102.75 647.38,-102.75 647.38,-102.75 653.38,-102.75 659.38,-108.75 659.38,-114.75 659.38,-114.75 659.38,-141.5 659.38,-141.5 659.38,-147.5 653.38,-153.5 647.38,-153.5"/>
<text xml:space="preserve" text-anchor="middle" x="582" y="-140" font-family="Segoe UI" font-size="10.00">int32_t samples[channelCount]</text>
<text xml:space="preserve" text-anchor="middle" x="582" y="-125.75" font-family="Segoe UI" font-size="10.00">[38268, &#45;70711, 32443, 0,</text>
<text xml:space="preserve" text-anchor="middle" x="582" y="-111.5" font-family="Segoe UI" font-size="10.00"> 124361, &#45;230000, 105640, 0]</text>
</g>
<!-- output_val&#45;&gt;samples_array -->
<g id="edge18" class="edge">
<title>output_val&#45;&gt;samples_array</title>
<path fill="none" stroke="black" d="M582,-202.35C582,-189.95 582,-176.72 582,-164.97"/>
<polygon fill="black" stroke="black" points="585.5,-165.32 582,-155.32 578.5,-165.32 585.5,-165.32"/>
</g>
<!-- encoder -->
<g id="node17" class="node">
<title>encoder</title>
<path fill="#ffcdd2" stroke="black" d="M648.12,-66.75C648.12,-66.75 515.88,-66.75 515.88,-66.75 509.88,-66.75 503.88,-60.75 503.88,-54.75 503.88,-54.75 503.88,-28 503.88,-28 503.88,-22 509.88,-16 515.88,-16 515.88,-16 648.12,-16 648.12,-16 654.12,-16 660.12,-22 660.12,-28 660.12,-28 660.12,-54.75 660.12,-54.75 660.12,-60.75 654.12,-66.75 648.12,-66.75"/>
<text xml:space="preserve" text-anchor="middle" x="582" y="-53.25" font-family="Segoe UI" font-size="10.00">→ sv_encoder_encode_packet()</text>
<text xml:space="preserve" text-anchor="middle" x="582" y="-39" font-family="Segoe UI" font-size="10.00">Each value written as 4 bytes</text>
<text xml:space="preserve" text-anchor="middle" x="582" y="-24.75" font-family="Segoe UI" font-size="10.00">big&#45;endian in seqData</text>
</g>
<!-- samples_array&#45;&gt;encoder -->
<g id="edge19" class="edge">
<title>samples_array&#45;&gt;encoder</title>
<path fill="none" stroke="black" d="M582,-102.61C582,-95.12 582,-86.72 582,-78.63"/>
<polygon fill="black" stroke="black" points="585.5,-78.64 582,-68.64 578.5,-78.64 585.5,-78.64"/>
</g>
</g>
</svg>
