<?xml version="1.0" encoding="UTF-8" standalone="no"?>
<!DOCTYPE svg PUBLIC "-//W3C//DTD SVG 1.1//EN"
 "http://www.w3.org/Graphics/SVG/1.1/DTD/svg11.dtd">
<!-- Generated by graphviz version 14.1.2 (20260124.0452)
 -->
<!-- Title: FFIAPIMap Pages: 1 -->
<svg width="541pt" height="1764pt"
 viewBox="0.00 0.00 541.00 1764.00" xmlns="http://www.w3.org/2000/svg" xmlns:xlink="http://www.w3.org/1999/xlink">
<g id="graph0" class="graph" transform="scale(1 1) rotate(0) translate(4 1760.25)">
<title>FFIAPIMap</title>
<polygon fill="white" stroke="none" points="-4,4 -4,-1760.25 537.25,-1760.25 537.25,4 -4,4"/>
<text xml:space="preserve" text-anchor="middle" x="266.62" y="-1740.85" font-family="Segoe UI" font-size="12.00">API Map: Tauri Commands → Rust FFI → C++ Functions</text>
<g id="clust1" class="cluster">
<title>cluster_tauri</title>
<path fill="#e3f2fd" stroke="#1565c0" d="M20,-8C20,-8 136.75,-8 136.75,-8 142.75,-8 148.75,-14 148.75,-20 148.75,-20 148.75,-1657 148.75,-1657 148.75,-1663 142.75,-1669 136.75,-1669 136.75,-1669 20,-1669 20,-1669 14,-1669 8,-1663 8,-1657 8,-1657 8,-20 8,-20 8,-14 14,-8 20,-8"/>
<text xml:space="preserve" text-anchor="middle" x="78.38" y="-1653.6" font-family="Segoe UI" font-size="12.00">Tauri Commands</text>
<text xml:space="preserve" text-anchor="middle" x="78.38" y="-1636.35" font-family="Segoe UI" font-size="12.00">(commands.rs)</text>
</g>
<g id="clust2" class="cluster">
<title>cluster_ffi</title>
<path fill="#e8f5e9" stroke="#2e7d32" d="M194.25,-62C194.25,-62 317,-62 317,-62 323,-62 329,-68 329,-74 329,-74 329,-1711 329,-1711 329,-1717 323,-1723 317,-1723 317,-1723 194.25,-1723 194.25,-1723 188.25,-1723 182.25,-1717 182.25,-1711 182.25,-1711 182.25,-74 182.25,-74 182.25,-68 188.25,-62 194.25,-62"/>
<text xml:space="preserve" text-anchor="middle" x="255.62" y="-1707.6" font-family="Segoe UI" font-size="12.00">Rust FFI Wrappers</text>
<text xml:space="preserve" text-anchor="middle" x="255.62" y="-1690.35" font-family="Segoe UI" font-size="12.00">(ffi.rs)</text>
</g>
<g id="clust3" class="cluster">
<title>cluster_cpp</title>
<path fill="#f3e5f5" stroke="#6a1b9a" d="M362,-62C362,-62 513.25,-62 513.25,-62 519.25,-62 525.25,-68 525.25,-74 525.25,-74 525.25,-1711 525.25,-1711 525.25,-1717 519.25,-1723 513.25,-1723 513.25,-1723 362,-1723 362,-1723 356,-1723 350,-1717 350,-1711 350,-1711 350,-74 350,-74 350,-68 356,-62 362,-62"/>
<text xml:space="preserve" text-anchor="middle" x="437.62" y="-1707.6" font-family="Segoe UI" font-size="12.00">C++ extern &quot;C&quot; Functions</text>
<text xml:space="preserve" text-anchor="middle" x="437.62" y="-1690.35" font-family="Segoe UI" font-size="12.00">(sv_native.h / sv_controller.h)</text>
</g>
<!-- t_get_interfaces -->
<g id="node1" class="node">
<title>t_get_interfaces</title>
<path fill="#bbdefb" stroke="black" d="M101.75,-1618C101.75,-1618 55,-1618 55,-1618 49,-1618 43,-1612 43,-1606 43,-1606 43,-1594 43,-1594 43,-1588 49,-1582 55,-1582 55,-1582 101.75,-1582 101.75,-1582 107.75,-1582 113.75,-1588 113.75,-1594 113.75,-1594 113.75,-1606 113.75,-1606 113.75,-1612 107.75,-1618 101.75,-1618"/>
<text xml:space="preserve" text-anchor="middle" x="78.38" y="-1597.83" font-family="Segoe UI" font-size="9.00">get_interfaces</text>
</g>
<!-- f_list -->
<g id="node31" class="node">
<title>f_list</title>
<path fill="#c8e6c9" stroke="black" d="M281.25,-1672C281.25,-1672 230,-1672 230,-1672 224,-1672 218,-1666 218,-1660 218,-1660 218,-1648 218,-1648 218,-1642 224,-1636 230,-1636 230,-1636 281.25,-1636 281.25,-1636 287.25,-1636 293.25,-1642 293.25,-1648 293.25,-1648 293.25,-1660 293.25,-1660 293.25,-1666 287.25,-1672 281.25,-1672"/>
<text xml:space="preserve" text-anchor="middle" x="255.62" y="-1651.83" font-family="Segoe UI" font-size="9.00">list_interfaces()</text>
</g>
<!-- t_get_interfaces&#45;&gt;f_list -->
<g id="edge1" class="edge">
<title>t_get_interfaces&#45;&gt;f_list</title>
<path fill="none" stroke="black" d="M114,-1610.67C140.53,-1618.85 177.46,-1630.22 206.81,-1639.27"/>
<polygon fill="black" stroke="black" points="205.62,-1642.56 216.21,-1642.16 207.68,-1635.87 205.62,-1642.56"/>
</g>
<!-- t_open_interface -->
<g id="node2" class="node">
<title>t_open_interface</title>
<path fill="#bbdefb" stroke="black" d="M103.62,-1564C103.62,-1564 53.12,-1564 53.12,-1564 47.12,-1564 41.12,-1558 41.12,-1552 41.12,-1552 41.12,-1540 41.12,-1540 41.12,-1534 47.12,-1528 53.12,-1528 53.12,-1528 103.62,-1528 103.62,-1528 109.62,-1528 115.62,-1534 115.62,-1540 115.62,-1540 115.62,-1552 115.62,-1552 115.62,-1558 109.62,-1564 103.62,-1564"/>
<text xml:space="preserve" text-anchor="middle" x="78.38" y="-1543.83" font-family="Segoe UI" font-size="9.00">open_interface</text>
</g>
<!-- f_open -->
<g id="node32" class="node">
<title>f_open</title>
<path fill="#c8e6c9" stroke="black" d="M292.5,-1618C292.5,-1618 218.75,-1618 218.75,-1618 212.75,-1618 206.75,-1612 206.75,-1606 206.75,-1606 206.75,-1594 206.75,-1594 206.75,-1588 212.75,-1582 218.75,-1582 218.75,-1582 292.5,-1582 292.5,-1582 298.5,-1582 304.5,-1588 304.5,-1594 304.5,-1594 304.5,-1606 304.5,-1606 304.5,-1612 298.5,-1618 292.5,-1618"/>
<text xml:space="preserve" text-anchor="middle" x="255.62" y="-1597.83" font-family="Segoe UI" font-size="9.00">open_interface(&amp;str)</text>
</g>
<!-- t_open_interface&#45;&gt;f_open -->
<g id="edge3" class="edge">
<title>t_open_interface&#45;&gt;f_open</title>
<path fill="none" stroke="black" d="M116.11,-1557.32C139.03,-1564.38 169.07,-1573.64 195.3,-1581.72"/>
<polygon fill="black" stroke="black" points="194.25,-1585.06 204.84,-1584.66 196.31,-1578.37 194.25,-1585.06"/>
</g>
<!-- t_close_interface -->
<g id="node3" class="node">
<title>t_close_interface</title>
<path fill="#bbdefb" stroke="black" d="M103.62,-1510C103.62,-1510 53.12,-1510 53.12,-1510 47.12,-1510 41.12,-1504 41.12,-1498 41.12,-1498 41.12,-1486 41.12,-1486 41.12,-1480 47.12,-1474 53.12,-1474 53.12,-1474 103.62,-1474 103.62,-1474 109.62,-1474 115.62,-1480 115.62,-1486 115.62,-1486 115.62,-1498 115.62,-1498 115.62,-1504 109.62,-1510 103.62,-1510"/>
<text xml:space="preserve" text-anchor="middle" x="78.38" y="-1489.83" font-family="Segoe UI" font-size="9.00">close_interface</text>
</g>
<!-- f_close -->
<g id="node33" class="node">
<title>f_close</title>
<path fill="#c8e6c9" stroke="black" d="M283.88,-1564C283.88,-1564 227.38,-1564 227.38,-1564 221.38,-1564 215.38,-1558 215.38,-1552 215.38,-1552 215.38,-1540 215.38,-1540 215.38,-1534 221.38,-1528 227.38,-1528 227.38,-1528 283.88,-1528 283.88,-1528 289.88,-1528 295.88,-1534 295.88,-1540 295.88,-1540 295.88,-1552 295.88,-1552 295.88,-1558 289.88,-1564 283.88,-1564"/>
<text xml:space="preserve" text-anchor="middle" x="255.62" y="-1543.83" font-family="Segoe UI" font-size="9.00">close_interface()</text>
</g>
<!-- t_close_interface&#45;&gt;f_close -->
<g id="edge5" class="edge">
<title>t_close_interface&#45;&gt;f_close</title>
<path fill="none" stroke="black" d="M116.11,-1503.32C141.63,-1511.18 175.96,-1521.76 204.06,-1530.42"/>
<polygon fill="black" stroke="black" points="202.85,-1533.71 213.44,-1533.31 204.91,-1527.02 202.85,-1533.71"/>
</g>
<!-- t_is_iface_open -->
<g id="node4" class="node">
<title>t_is_iface_open</title>
<path fill="#bbdefb" stroke="black" d="M108.5,-1456C108.5,-1456 48.25,-1456 48.25,-1456 42.25,-1456 36.25,-1450 36.25,-1444 36.25,-1444 36.25,-1432 36.25,-1432 36.25,-1426 42.25,-1420 48.25,-1420 48.25,-1420 108.5,-1420 108.5,-1420 114.5,-1420 120.5,-1426 120.5,-1432 120.5,-1432 120.5,-1444 120.5,-1444 120.5,-1450 114.5,-1456 108.5,-1456"/>
<text xml:space="preserve" text-anchor="middle" x="78.38" y="-1435.83" font-family="Segoe UI" font-size="9.00">is_interface_open</text>
</g>
<!-- f_is_open -->
<g id="node34" class="node">
<title>f_is_open</title>
<path fill="#c8e6c9" stroke="black" d="M270.62,-1510C270.62,-1510 240.62,-1510 240.62,-1510 234.62,-1510 228.62,-1504 228.62,-1498 228.62,-1498 228.62,-1486 228.62,-1486 228.62,-1480 234.62,-1474 240.62,-1474 240.62,-1474 270.62,-1474 270.62,-1474 276.62,-1474 282.62,-1480 282.62,-1486 282.62,-1486 282.62,-1498 282.62,-1498 282.62,-1504 276.62,-1510 270.62,-1510"/>
<text xml:space="preserve" text-anchor="middle" x="255.62" y="-1489.83" font-family="Segoe UI" font-size="9.00">is_open()</text>
</g>
<!-- t_is_iface_open&#45;&gt;f_is_open -->
<g id="edge7" class="edge">
<title>t_is_iface_open&#45;&gt;f_is_open</title>
<path fill="none" stroke="black" d="M120.91,-1450.8C150.31,-1459.86 189.38,-1471.9 217.69,-1480.62"/>
<polygon fill="black" stroke="black" points="216.32,-1483.86 226.9,-1483.46 218.38,-1477.17 216.32,-1483.86"/>
</g>
<!-- t_start -->
<g id="node5" class="node">
<title>t_start</title>
<path fill="#90caf9" stroke="black" d="M105.88,-1402C105.88,-1402 50.88,-1402 50.88,-1402 44.88,-1402 38.88,-1396 38.88,-1390 38.88,-1390 38.88,-1378 38.88,-1378 38.88,-1372 44.88,-1366 50.88,-1366 50.88,-1366 105.88,-1366 105.88,-1366 111.88,-1366 117.88,-1372 117.88,-1378 117.88,-1378 117.88,-1390 117.88,-1390 117.88,-1396 111.88,-1402 105.88,-1402"/>
<text xml:space="preserve" text-anchor="middle" x="78.38" y="-1381.83" font-family="Segoe UI" font-size="9.00">start_publishing</text>
</g>
<!-- f_configure -->
<g id="node35" class="node">
<title>f_configure</title>
<path fill="#c8e6c9" stroke="black" d="M297.38,-1456C297.38,-1456 213.88,-1456 213.88,-1456 207.88,-1456 201.88,-1450 201.88,-1444 201.88,-1444 201.88,-1432 201.88,-1432 201.88,-1426 207.88,-1420 213.88,-1420 213.88,-1420 297.38,-1420 297.38,-1420 303.38,-1420 309.38,-1426 309.38,-1432 309.38,-1432 309.38,-1444 309.38,-1444 309.38,-1450 303.38,-1456 297.38,-1456"/>
<text xml:space="preserve" text-anchor="middle" x="255.62" y="-1435.83" font-family="Segoe UI" font-size="9.00">publisher_configure(...)</text>
</g>
<!-- t_start&#45;&gt;f_configure -->
<g id="edge9" class="edge">
<title>t_start&#45;&gt;f_configure</title>
<path fill="none" stroke="black" d="M118.27,-1395.98C139.52,-1402.53 166.37,-1410.81 190.62,-1418.28"/>
<polygon fill="black" stroke="black" points="189.52,-1421.6 200.1,-1421.2 191.58,-1414.91 189.52,-1421.6"/>
<text xml:space="preserve" text-anchor="middle" x="165.5" y="-1414.65" font-family="Segoe UI" font-size="8.00">1st</text>
</g>
<!-- f_start -->
<g id="node36" class="node">
<title>f_start</title>
<path fill="#c8e6c9" stroke="black" d="M283.5,-1402C283.5,-1402 227.75,-1402 227.75,-1402 221.75,-1402 215.75,-1396 215.75,-1390 215.75,-1390 215.75,-1378 215.75,-1378 215.75,-1372 221.75,-1366 227.75,-1366 227.75,-1366 283.5,-1366 283.5,-1366 289.5,-1366 295.5,-1372 295.5,-1378 295.5,-1378 295.5,-1390 295.5,-1390 295.5,-1396 289.5,-1402 283.5,-1402"/>
<text xml:space="preserve" text-anchor="middle" x="255.62" y="-1381.83" font-family="Segoe UI" font-size="9.00">publisher_start()</text>
</g>
<!-- t_start&#45;&gt;f_start -->
<g id="edge10" class="edge">
<title>t_start&#45;&gt;f_start</title>
<path fill="none" stroke="black" d="M118.27,-1384C143.59,-1384 176.88,-1384 204.22,-1384"/>
<polygon fill="black" stroke="black" points="204.02,-1387.5 214.02,-1384 204.02,-1380.5 204.02,-1387.5"/>
<text xml:space="preserve" text-anchor="middle" x="165.5" y="-1387.65" font-family="Segoe UI" font-size="8.00">2nd</text>
</g>
<!-- t_stop -->
<g id="node6" class="node">
<title>t_stop</title>
<path fill="#90caf9" stroke="black" d="M105.88,-1348C105.88,-1348 50.88,-1348 50.88,-1348 44.88,-1348 38.88,-1342 38.88,-1336 38.88,-1336 38.88,-1324 38.88,-1324 38.88,-1318 44.88,-1312 50.88,-1312 50.88,-1312 105.88,-1312 105.88,-1312 111.88,-1312 117.88,-1318 117.88,-1324 117.88,-1324 117.88,-1336 117.88,-1336 117.88,-1342 111.88,-1348 105.88,-1348"/>
<text xml:space="preserve" text-anchor="middle" x="78.38" y="-1327.83" font-family="Segoe UI" font-size="9.00">stop_publishing</text>
</g>
<!-- f_stop -->
<g id="node37" class="node">
<title>f_stop</title>
<path fill="#c8e6c9" stroke="black" d="M283.5,-1348C283.5,-1348 227.75,-1348 227.75,-1348 221.75,-1348 215.75,-1342 215.75,-1336 215.75,-1336 215.75,-1324 215.75,-1324 215.75,-1318 221.75,-1312 227.75,-1312 227.75,-1312 283.5,-1312 283.5,-1312 289.5,-1312 295.5,-1318 295.5,-1324 295.5,-1324 295.5,-1336 295.5,-1336 295.5,-1342 289.5,-1348 283.5,-1348"/>
<text xml:space="preserve" text-anchor="middle" x="255.62" y="-1327.83" font-family="Segoe UI" font-size="9.00">publisher_stop()</text>
</g>
<!-- t_stop&#45;&gt;f_stop -->
<g id="edge13" class="edge">
<title>t_stop&#45;&gt;f_stop</title>
<path fill="none" stroke="black" d="M118.27,-1330C143.59,-1330 176.88,-1330 204.22,-1330"/>
<polygon fill="black" stroke="black" points="204.02,-1333.5 214.02,-1330 204.02,-1326.5 204.02,-1333.5"/>
</g>
<!-- t_get_status -->
<g id="node7" class="node">
<title>t_get_status</title>
<path fill="#90caf9" stroke="black" d="M110.75,-1294C110.75,-1294 46,-1294 46,-1294 40,-1294 34,-1288 34,-1282 34,-1282 34,-1270 34,-1270 34,-1264 40,-1258 46,-1258 46,-1258 110.75,-1258 110.75,-1258 116.75,-1258 122.75,-1264 122.75,-1270 122.75,-1270 122.75,-1282 122.75,-1282 122.75,-1288 116.75,-1294 110.75,-1294"/>
<text xml:space="preserve" text-anchor="middle" x="78.38" y="-1273.83" font-family="Segoe UI" font-size="9.00">get_publish_status</text>
</g>
<!-- f_running -->
<g id="node38" class="node">
<title>f_running</title>
<path fill="#c8e6c9" stroke="black" d="M295.5,-1294C295.5,-1294 215.75,-1294 215.75,-1294 209.75,-1294 203.75,-1288 203.75,-1282 203.75,-1282 203.75,-1270 203.75,-1270 203.75,-1264 209.75,-1258 215.75,-1258 215.75,-1258 295.5,-1258 295.5,-1258 301.5,-1258 307.5,-1264 307.5,-1270 307.5,-1270 307.5,-1282 307.5,-1282 307.5,-1288 301.5,-1294 295.5,-1294"/>
<text xml:space="preserve" text-anchor="middle" x="255.62" y="-1273.83" font-family="Segoe UI" font-size="9.00">publisher_is_running()</text>
</g>
<!-- t_get_status&#45;&gt;f_running -->
<g id="edge15" class="edge">
<title>t_get_status&#45;&gt;f_running</title>
<path fill="none" stroke="black" d="M123.15,-1276C143.96,-1276 169.22,-1276 192.02,-1276"/>
<polygon fill="black" stroke="black" points="191.82,-1279.5 201.82,-1276 191.82,-1272.5 191.82,-1279.5"/>
</g>
<!-- t_get_config -->
<g id="node8" class="node">
<title>t_get_config</title>
<path fill="#bbdefb" stroke="black" d="M95.38,-430C95.38,-430 61.38,-430 61.38,-430 55.38,-430 49.38,-424 49.38,-418 49.38,-418 49.38,-406 49.38,-406 49.38,-400 55.38,-394 61.38,-394 61.38,-394 95.38,-394 95.38,-394 101.38,-394 107.38,-400 107.38,-406 107.38,-406 107.38,-418 107.38,-418 107.38,-424 101.38,-430 95.38,-430"/>
<text xml:space="preserve" text-anchor="middle" x="78.38" y="-409.82" font-family="Segoe UI" font-size="9.00">get_config</text>
</g>
<!-- t_set_config -->
<g id="node9" class="node">
<title>t_set_config</title>
<path fill="#bbdefb" stroke="black" d="M94.62,-484C94.62,-484 62.12,-484 62.12,-484 56.12,-484 50.12,-478 50.12,-472 50.12,-472 50.12,-460 50.12,-460 50.12,-454 56.12,-448 62.12,-448 62.12,-448 94.62,-448 94.62,-448 100.62,-448 106.62,-454 106.62,-460 106.62,-460 106.62,-472 106.62,-472 106.62,-478 100.62,-484 94.62,-484"/>
<text xml:space="preserve" text-anchor="middle" x="78.38" y="-463.82" font-family="Segoe UI" font-size="9.00">set_config</text>
</g>
<!-- t_set_channels -->
<g id="node10" class="node">
<title>t_set_channels</title>
<path fill="#bbdefb" stroke="black" d="M99.5,-1240C99.5,-1240 57.25,-1240 57.25,-1240 51.25,-1240 45.25,-1234 45.25,-1228 45.25,-1228 45.25,-1216 45.25,-1216 45.25,-1210 51.25,-1204 57.25,-1204 57.25,-1204 99.5,-1204 99.5,-1204 105.5,-1204 111.5,-1210 111.5,-1216 111.5,-1216 111.5,-1228 111.5,-1228 111.5,-1234 105.5,-1240 99.5,-1240"/>
<text xml:space="preserve" text-anchor="middle" x="78.38" y="-1219.83" font-family="Segoe UI" font-size="9.00">set_channels</text>
</g>
<!-- f_set_eq -->
<g id="node39" class="node">
<title>f_set_eq</title>
<path fill="#c8e6c9" stroke="black" d="M290.25,-1240C290.25,-1240 221,-1240 221,-1240 215,-1240 209,-1234 209,-1228 209,-1228 209,-1216 209,-1216 209,-1210 215,-1204 221,-1204 221,-1204 290.25,-1204 290.25,-1204 296.25,-1204 302.25,-1210 302.25,-1216 302.25,-1216 302.25,-1228 302.25,-1228 302.25,-1234 296.25,-1240 290.25,-1240"/>
<text xml:space="preserve" text-anchor="middle" x="255.62" y="-1219.83" font-family="Segoe UI" font-size="9.00">set_equations(&amp;str)</text>
</g>
<!-- t_set_channels&#45;&gt;f_set_eq -->
<g id="edge17" class="edge">
<title>t_set_channels&#45;&gt;f_set_eq</title>
<path fill="none" stroke="black" d="M111.93,-1222C135.85,-1222 168.99,-1222 197.31,-1222"/>
<polygon fill="black" stroke="black" points="197.19,-1225.5 207.19,-1222 197.19,-1218.5 197.19,-1225.5"/>
</g>
<!-- t_get_stats -->
<g id="node11" class="node">
<title>t_get_stats</title>
<path fill="#90caf9" stroke="black" d="M93.38,-1186C93.38,-1186 63.38,-1186 63.38,-1186 57.38,-1186 51.38,-1180 51.38,-1174 51.38,-1174 51.38,-1162 51.38,-1162 51.38,-1156 57.38,-1150 63.38,-1150 63.38,-1150 93.38,-1150 93.38,-1150 99.38,-1150 105.38,-1156 105.38,-1162 105.38,-1162 105.38,-1174 105.38,-1174 105.38,-1180 99.38,-1186 93.38,-1186"/>
<text xml:space="preserve" text-anchor="middle" x="78.38" y="-1165.83" font-family="Segoe UI" font-size="9.00">get_stats</text>
</g>
<!-- f_stats_update -->
<g id="node40" class="node">
<title>f_stats_update</title>
<path fill="#c8e6c9" stroke="black" d="M290.62,-1186C290.62,-1186 220.62,-1186 220.62,-1186 214.62,-1186 208.62,-1180 208.62,-1174 208.62,-1174 208.62,-1162 208.62,-1162 208.62,-1156 214.62,-1150 220.62,-1150 220.62,-1150 290.62,-1150 290.62,-1150 296.62,-1150 302.62,-1156 302.62,-1162 302.62,-1162 302.62,-1174 302.62,-1174 302.62,-1180 296.62,-1186 290.62,-1186"/>
<text xml:space="preserve" text-anchor="middle" x="255.62" y="-1165.83" font-family="Segoe UI" font-size="9.00">stats_update_rates()</text>
</g>
<!-- t_get_stats&#45;&gt;f_stats_update -->
<g id="edge19" class="edge">
<title>t_get_stats&#45;&gt;f_stats_update</title>
<path fill="none" stroke="black" d="M105.61,-1168C129.66,-1168 166.1,-1168 196.92,-1168"/>
<polygon fill="black" stroke="black" points="196.91,-1171.5 206.91,-1168 196.91,-1164.5 196.91,-1171.5"/>
</g>
<!-- f_stats_get -->
<g id="node41" class="node">
<title>f_stats_get</title>
<path fill="#c8e6c9" stroke="black" d="M271.88,-1132C271.88,-1132 239.38,-1132 239.38,-1132 233.38,-1132 227.38,-1126 227.38,-1120 227.38,-1120 227.38,-1108 227.38,-1108 227.38,-1102 233.38,-1096 239.38,-1096 239.38,-1096 271.88,-1096 271.88,-1096 277.88,-1096 283.88,-1102 283.88,-1108 283.88,-1108 283.88,-1120 283.88,-1120 283.88,-1126 277.88,-1132 271.88,-1132"/>
<text xml:space="preserve" text-anchor="middle" x="255.62" y="-1111.83" font-family="Segoe UI" font-size="9.00">stats_get()</text>
</g>
<!-- t_get_stats&#45;&gt;f_stats_get -->
<g id="edge21" class="edge">
<title>t_get_stats&#45;&gt;f_stats_get</title>
<path fill="none" stroke="black" d="M105.61,-1159.92C134.95,-1150.88 182.74,-1136.15 216.27,-1125.82"/>
<polygon fill="black" stroke="black" points="217.08,-1129.23 225.6,-1122.94 215.02,-1122.54 217.08,-1129.23"/>
</g>
<!-- t_reset_stats -->
<g id="node12" class="node">
<title>t_reset_stats</title>
<path fill="#90caf9" stroke="black" d="M94.62,-1132C94.62,-1132 62.12,-1132 62.12,-1132 56.12,-1132 50.12,-1126 50.12,-1120 50.12,-1120 50.12,-1108 50.12,-1108 50.12,-1102 56.12,-1096 62.12,-1096 62.12,-1096 94.62,-1096 94.62,-1096 100.62,-1096 106.62,-1102 106.62,-1108 106.62,-1108 106.62,-1120 106.62,-1120 106.62,-1126 100.62,-1132 94.62,-1132"/>
<text xml:space="preserve" text-anchor="middle" x="78.38" y="-1111.83" font-family="Segoe UI" font-size="9.00">reset_stats</text>
</g>
<!-- f_stats_reset -->
<g id="node42" class="node">
<title>f_stats_reset</title>
<path fill="#c8e6c9" stroke="black" d="M274.88,-1078C274.88,-1078 236.38,-1078 236.38,-1078 230.38,-1078 224.38,-1072 224.38,-1066 224.38,-1066 224.38,-1054 224.38,-1054 224.38,-1048 230.38,-1042 236.38,-1042 236.38,-1042 274.88,-1042 274.88,-1042 280.88,-1042 286.88,-1048 286.88,-1054 286.88,-1054 286.88,-1066 286.88,-1066 286.88,-1072 280.88,-1078 274.88,-1078"/>
<text xml:space="preserve" text-anchor="middle" x="255.62" y="-1057.83" font-family="Segoe UI" font-size="9.00">stats_reset()</text>
</g>
<!-- t_reset_stats&#45;&gt;f_stats_reset -->
<g id="edge23" class="edge">
<title>t_reset_stats&#45;&gt;f_stats_reset</title>
<path fill="none" stroke="black" d="M106.76,-1105.56C135.3,-1096.77 180.37,-1082.88 213.25,-1072.75"/>
<polygon fill="black" stroke="black" points="213.93,-1076.2 222.45,-1069.91 211.86,-1069.51 213.93,-1076.2"/>
</g>
<!-- t_set_duration -->
<g id="node13" class="node">
<title>t_set_duration</title>
<path fill="#bbdefb" stroke="black" d="M111.88,-1078C111.88,-1078 44.88,-1078 44.88,-1078 38.88,-1078 32.88,-1072 32.88,-1066 32.88,-1066 32.88,-1054 32.88,-1054 32.88,-1048 38.88,-1042 44.88,-1042 44.88,-1042 111.88,-1042 111.88,-1042 117.88,-1042 123.88,-1048 123.88,-1054 123.88,-1054 123.88,-1066 123.88,-1066 123.88,-1072 117.88,-1078 111.88,-1078"/>
<text xml:space="preserve" text-anchor="middle" x="78.38" y="-1057.83" font-family="Segoe UI" font-size="9.00">set_duration_mode</text>
</g>
<!-- f_set_dur -->
<g id="node43" class="node">
<title>f_set_dur</title>
<path fill="#c8e6c9" stroke="black" d="M295.5,-1024C295.5,-1024 215.75,-1024 215.75,-1024 209.75,-1024 203.75,-1018 203.75,-1012 203.75,-1012 203.75,-1000 203.75,-1000 203.75,-994 209.75,-988 215.75,-988 215.75,-988 295.5,-988 295.5,-988 301.5,-988 307.5,-994 307.5,-1000 307.5,-1000 307.5,-1012 307.5,-1012 307.5,-1018 301.5,-1024 295.5,-1024"/>
<text xml:space="preserve" text-anchor="middle" x="255.62" y="-1003.83" font-family="Segoe UI" font-size="9.00">set_duration_mode(...)</text>
</g>
<!-- t_set_duration&#45;&gt;f_set_dur -->
<g id="edge25" class="edge">
<title>t_set_duration&#45;&gt;f_set_dur</title>
<path fill="none" stroke="black" d="M124.05,-1046.23C144.88,-1039.82 170.01,-1032.07 192.64,-1025.1"/>
<polygon fill="black" stroke="black" points="193.54,-1028.48 202.07,-1022.19 191.48,-1021.79 193.54,-1028.48"/>
</g>
<!-- t_get_remaining -->
<g id="node14" class="node">
<title>t_get_remaining</title>
<path fill="#bbdefb" stroke="black" d="M120.5,-1024C120.5,-1024 36.25,-1024 36.25,-1024 30.25,-1024 24.25,-1018 24.25,-1012 24.25,-1012 24.25,-1000 24.25,-1000 24.25,-994 30.25,-988 36.25,-988 36.25,-988 120.5,-988 120.5,-988 126.5,-988 132.5,-994 132.5,-1000 132.5,-1000 132.5,-1012 132.5,-1012 132.5,-1018 126.5,-1024 120.5,-1024"/>
<text xml:space="preserve" text-anchor="middle" x="78.38" y="-1003.83" font-family="Segoe UI" font-size="9.00">get_remaining_seconds</text>
</g>
<!-- f_get_rem -->
<g id="node44" class="node">
<title>f_get_rem</title>
<path fill="#c8e6c9" stroke="black" d="M300.75,-970C300.75,-970 210.5,-970 210.5,-970 204.5,-970 198.5,-964 198.5,-958 198.5,-958 198.5,-946 198.5,-946 198.5,-940 204.5,-934 210.5,-934 210.5,-934 300.75,-934 300.75,-934 306.75,-934 312.75,-940 312.75,-946 312.75,-946 312.75,-958 312.75,-958 312.75,-964 306.75,-970 300.75,-970"/>
<text xml:space="preserve" text-anchor="middle" x="255.62" y="-949.83" font-family="Segoe UI" font-size="9.00">get_remaining_seconds()</text>
</g>
<!-- t_get_remaining&#45;&gt;f_get_rem -->
<g id="edge27" class="edge">
<title>t_get_remaining&#45;&gt;f_get_rem</title>
<path fill="none" stroke="black" d="M132.91,-989.5C150,-984.24 169.13,-978.34 187.08,-972.81"/>
<polygon fill="black" stroke="black" points="188.11,-976.16 196.63,-969.87 186.04,-969.47 188.11,-976.16"/>
</g>
<!-- t_get_cycle -->
<g id="node15" class="node">
<title>t_get_cycle</title>
<path fill="#bbdefb" stroke="black" d="M123.12,-970C123.12,-970 33.62,-970 33.62,-970 27.62,-970 21.62,-964 21.62,-958 21.62,-958 21.62,-946 21.62,-946 21.62,-940 27.62,-934 33.62,-934 33.62,-934 123.12,-934 123.12,-934 129.12,-934 135.12,-940 135.12,-946 135.12,-946 135.12,-958 135.12,-958 135.12,-964 129.12,-970 123.12,-970"/>
<text xml:space="preserve" text-anchor="middle" x="78.38" y="-949.83" font-family="Segoe UI" font-size="9.00">get_current_repeat_cycle</text>
</g>
<!-- f_get_cycle -->
<g id="node45" class="node">
<title>f_get_cycle</title>
<path fill="#c8e6c9" stroke="black" d="M303.38,-916C303.38,-916 207.88,-916 207.88,-916 201.88,-916 195.88,-910 195.88,-904 195.88,-904 195.88,-892 195.88,-892 195.88,-886 201.88,-880 207.88,-880 207.88,-880 303.38,-880 303.38,-880 309.38,-880 315.38,-886 315.38,-892 315.38,-892 315.38,-904 315.38,-904 315.38,-910 309.38,-916 303.38,-916"/>
<text xml:space="preserve" text-anchor="middle" x="255.62" y="-895.83" font-family="Segoe UI" font-size="9.00">get_current_repeat_cycle()</text>
</g>
<!-- t_get_cycle&#45;&gt;f_get_cycle -->
<g id="edge29" class="edge">
<title>t_get_cycle&#45;&gt;f_get_cycle</title>
<path fill="none" stroke="black" d="M135.31,-934.77C151.08,-929.9 168.45,-924.55 184.92,-919.48"/>
<polygon fill="black" stroke="black" points="185.63,-922.92 194.15,-916.63 183.56,-916.23 185.63,-922.92"/>
</g>
<!-- t_is_complete -->
<g id="node16" class="node">
<title>t_is_complete</title>
<path fill="#bbdefb" stroke="black" d="M116.38,-916C116.38,-916 40.38,-916 40.38,-916 34.38,-916 28.38,-910 28.38,-904 28.38,-904 28.38,-892 28.38,-892 28.38,-886 34.38,-880 40.38,-880 40.38,-880 116.38,-880 116.38,-880 122.38,-880 128.38,-886 128.38,-892 128.38,-892 128.38,-904 128.38,-904 128.38,-910 122.38,-916 116.38,-916"/>
<text xml:space="preserve" text-anchor="middle" x="78.38" y="-895.83" font-family="Segoe UI" font-size="9.00">is_duration_complete</text>
</g>
<!-- f_is_complete -->
<g id="node46" class="node">
<title>f_is_complete</title>
<path fill="#c8e6c9" stroke="black" d="M296.62,-862C296.62,-862 214.62,-862 214.62,-862 208.62,-862 202.62,-856 202.62,-850 202.62,-850 202.62,-838 202.62,-838 202.62,-832 208.62,-826 214.62,-826 214.62,-826 296.62,-826 296.62,-826 302.62,-826 308.62,-832 308.62,-838 308.62,-838 308.62,-850 308.62,-850 308.62,-856 302.62,-862 296.62,-862"/>
<text xml:space="preserve" text-anchor="middle" x="255.62" y="-841.83" font-family="Segoe UI" font-size="9.00">is_duration_complete()</text>
</g>
<!-- t_is_complete&#45;&gt;f_is_complete -->
<g id="edge31" class="edge">
<title>t_is_complete&#45;&gt;f_is_complete</title>
<path fill="none" stroke="black" d="M128.66,-882.81C148.14,-876.81 170.77,-869.84 191.43,-863.47"/>
<polygon fill="black" stroke="black" points="192.38,-866.84 200.9,-860.55 190.31,-860.15 192.38,-866.84"/>
</g>
<!-- t_set_mode -->
<g id="node17" class="node">
<title>t_set_mode</title>
<path fill="#bbdefb" stroke="black" d="M104.38,-862C104.38,-862 52.38,-862 52.38,-862 46.38,-862 40.38,-856 40.38,-850 40.38,-850 40.38,-838 40.38,-838 40.38,-832 46.38,-826 52.38,-826 52.38,-826 104.38,-826 104.38,-826 110.38,-826 116.38,-832 116.38,-838 116.38,-838 116.38,-850 116.38,-850 116.38,-856 110.38,-862 104.38,-862"/>
<text xml:space="preserve" text-anchor="middle" x="78.38" y="-841.83" font-family="Segoe UI" font-size="9.00">set_send_mode</text>
</g>
<!-- f_set_mode -->
<g id="node47" class="node">
<title>f_set_mode</title>
<path fill="#c8e6c9" stroke="black" d="M290.25,-808C290.25,-808 221,-808 221,-808 215,-808 209,-802 209,-796 209,-796 209,-784 209,-784 209,-778 215,-772 221,-772 221,-772 290.25,-772 290.25,-772 296.25,-772 302.25,-778 302.25,-784 302.25,-784 302.25,-796 302.25,-796 302.25,-802 296.25,-808 290.25,-808"/>
<text xml:space="preserve" text-anchor="middle" x="255.62" y="-787.83" font-family="Segoe UI" font-size="9.00">set_send_mode(i32)</text>
</g>
<!-- t_set_mode&#45;&gt;f_set_mode -->
<g id="edge33" class="edge">
<title>t_set_mode&#45;&gt;f_set_mode</title>
<path fill="none" stroke="black" d="M116.54,-832.55C140.21,-825.26 171.32,-815.67 198.03,-807.44"/>
<polygon fill="black" stroke="black" points="198.81,-810.86 207.33,-804.57 196.75,-804.17 198.81,-810.86"/>
</g>
<!-- t_get_mode -->
<g id="node18" class="node">
<title>t_get_mode</title>
<path fill="#bbdefb" stroke="black" d="M105.12,-808C105.12,-808 51.62,-808 51.62,-808 45.62,-808 39.62,-802 39.62,-796 39.62,-796 39.62,-784 39.62,-784 39.62,-778 45.62,-772 51.62,-772 51.62,-772 105.12,-772 105.12,-772 111.12,-772 117.12,-778 117.12,-784 117.12,-784 117.12,-796 117.12,-796 117.12,-802 111.12,-808 105.12,-808"/>
<text xml:space="preserve" text-anchor="middle" x="78.38" y="-787.83" font-family="Segoe UI" font-size="9.00">get_send_mode</text>
</g>
<!-- f_get_mode -->
<g id="node48" class="node">
<title>f_get_mode</title>
<path fill="#c8e6c9" stroke="black" d="M285.38,-754C285.38,-754 225.88,-754 225.88,-754 219.88,-754 213.88,-748 213.88,-742 213.88,-742 213.88,-730 213.88,-730 213.88,-724 219.88,-718 225.88,-718 225.88,-718 285.38,-718 285.38,-718 291.38,-718 297.38,-724 297.38,-730 297.38,-730 297.38,-742 297.38,-742 297.38,-748 291.38,-754 285.38,-754"/>
<text xml:space="preserve" text-anchor="middle" x="255.62" y="-733.83" font-family="Segoe UI" font-size="9.00">get_send_mode()</text>
</g>
<!-- t_get_mode&#45;&gt;f_get_mode -->
<g id="edge35" class="edge">
<title>t_get_mode&#45;&gt;f_get_mode</title>
<path fill="none" stroke="black" d="M117.4,-778.28C142.35,-770.59 175.3,-760.44 202.66,-752.01"/>
<polygon fill="black" stroke="black" points="203.64,-755.37 212.17,-749.08 201.58,-748.68 203.64,-755.37"/>
</g>
<!-- t_sample_frame -->
<g id="node19" class="node">
<title>t_sample_frame</title>
<path fill="#90caf9" stroke="black" d="M109.62,-754C109.62,-754 47.12,-754 47.12,-754 41.12,-754 35.12,-748 35.12,-742 35.12,-742 35.12,-730 35.12,-730 35.12,-724 41.12,-718 47.12,-718 47.12,-718 109.62,-718 109.62,-718 115.62,-718 121.62,-724 121.62,-730 121.62,-730 121.62,-742 121.62,-742 121.62,-748 115.62,-754 109.62,-754"/>
<text xml:space="preserve" text-anchor="middle" x="78.38" y="-733.83" font-family="Segoe UI" font-size="9.00">get_sample_frame</text>
</g>
<!-- f_sample -->
<g id="node49" class="node">
<title>f_sample</title>
<path fill="#c8e6c9" stroke="black" d="M297,-700C297,-700 214.25,-700 214.25,-700 208.25,-700 202.25,-694 202.25,-688 202.25,-688 202.25,-676 202.25,-676 202.25,-670 208.25,-664 214.25,-664 214.25,-664 297,-664 297,-664 303,-664 309,-670 309,-676 309,-676 309,-688 309,-688 309,-694 303,-700 297,-700"/>
<text xml:space="preserve" text-anchor="middle" x="255.62" y="-679.83" font-family="Segoe UI" font-size="9.00">get_sample_frame(u32)</text>
</g>
<!-- t_sample_frame&#45;&gt;f_sample -->
<g id="edge37" class="edge">
<title>t_sample_frame&#45;&gt;f_sample</title>
<path fill="none" stroke="black" d="M121.8,-722.93C142.61,-716.51 168.11,-708.66 191.18,-701.55"/>
<polygon fill="black" stroke="black" points="191.96,-704.97 200.49,-698.68 189.9,-698.28 191.96,-704.97"/>
</g>
<!-- t_channel_vals -->
<g id="node20" class="node">
<title>t_channel_vals</title>
<path fill="#90caf9" stroke="black" d="M128.75,-700C128.75,-700 28,-700 28,-700 22,-700 16,-694 16,-688 16,-688 16,-676 16,-676 16,-670 22,-664 28,-664 28,-664 128.75,-664 128.75,-664 134.75,-664 140.75,-670 140.75,-676 140.75,-676 140.75,-688 140.75,-688 140.75,-694 134.75,-700 128.75,-700"/>
<text xml:space="preserve" text-anchor="middle" x="78.38" y="-679.83" font-family="Segoe UI" font-size="9.00">get_current_channel_values</text>
</g>
<!-- f_vals -->
<g id="node50" class="node">
<title>f_vals</title>
<path fill="#c8e6c9" stroke="black" d="M309,-646C309,-646 202.25,-646 202.25,-646 196.25,-646 190.25,-640 190.25,-634 190.25,-634 190.25,-622 190.25,-622 190.25,-616 196.25,-610 202.25,-610 202.25,-610 309,-610 309,-610 315,-610 321,-616 321,-622 321,-622 321,-634 321,-634 321,-640 315,-646 309,-646"/>
<text xml:space="preserve" text-anchor="middle" x="255.62" y="-625.83" font-family="Segoe UI" font-size="9.00">get_current_channel_values()</text>
</g>
<!-- t_channel_vals&#45;&gt;f_vals -->
<g id="edge39" class="edge">
<title>t_channel_vals&#45;&gt;f_vals</title>
<path fill="none" stroke="black" d="M139.2,-663.57C153.64,-659.12 169.2,-654.32 184.09,-649.74"/>
<polygon fill="black" stroke="black" points="184.8,-653.18 193.33,-646.89 182.74,-646.49 184.8,-653.18"/>
</g>
<!-- t_smp_cnt -->
<g id="node21" class="node">
<title>t_smp_cnt</title>
<path fill="#90caf9" stroke="black" d="M115.25,-646C115.25,-646 41.5,-646 41.5,-646 35.5,-646 29.5,-640 29.5,-634 29.5,-634 29.5,-622 29.5,-622 29.5,-616 35.5,-610 41.5,-610 41.5,-610 115.25,-610 115.25,-610 121.25,-610 127.25,-616 127.25,-622 127.25,-622 127.25,-634 127.25,-634 127.25,-640 121.25,-646 115.25,-646"/>
<text xml:space="preserve" text-anchor="middle" x="78.38" y="-625.83" font-family="Segoe UI" font-size="9.00">get_current_smp_cnt</text>
</g>
<!-- f_smp -->
<g id="node51" class="node">
<title>f_smp</title>
<path fill="#c8e6c9" stroke="black" d="M295.5,-592C295.5,-592 215.75,-592 215.75,-592 209.75,-592 203.75,-586 203.75,-580 203.75,-580 203.75,-568 203.75,-568 203.75,-562 209.75,-556 215.75,-556 215.75,-556 295.5,-556 295.5,-556 301.5,-556 307.5,-562 307.5,-568 307.5,-568 307.5,-580 307.5,-580 307.5,-586 301.5,-592 295.5,-592"/>
<text xml:space="preserve" text-anchor="middle" x="255.62" y="-571.83" font-family="Segoe UI" font-size="9.00">get_current_smp_cnt()</text>
</g>
<!-- t_smp_cnt&#45;&gt;f_smp -->
<g id="edge41" class="edge">
<title>t_smp_cnt&#45;&gt;f_smp</title>
<path fill="none" stroke="black" d="M127.73,-613.1C147.74,-606.93 171.21,-599.7 192.48,-593.15"/>
<polygon fill="black" stroke="black" points="193.4,-596.53 201.92,-590.24 191.33,-589.84 193.4,-596.53"/>
</g>
<!-- t_mp_add -->
<g id="node22" class="node">
<title>t_mp_add</title>
<path fill="#64b5f6" stroke="black" d="M110.38,-592C110.38,-592 46.38,-592 46.38,-592 40.38,-592 34.38,-586 34.38,-580 34.38,-580 34.38,-568 34.38,-568 34.38,-562 40.38,-556 46.38,-556 46.38,-556 110.38,-556 110.38,-556 116.38,-556 122.38,-562 122.38,-568 122.38,-568 122.38,-580 122.38,-580 122.38,-586 116.38,-592 110.38,-592"/>
<text xml:space="preserve" text-anchor="middle" x="78.38" y="-571.83" font-family="Segoe UI" font-size="9.00">mp_add_publisher</text>
</g>
<!-- f_mp_add -->
<g id="node52" class="node">
<title>f_mp_add</title>
<path fill="#a5d6a7" stroke="black" d="M290.62,-538C290.62,-538 220.62,-538 220.62,-538 214.62,-538 208.62,-532 208.62,-526 208.62,-526 208.62,-514 208.62,-514 208.62,-508 214.62,-502 220.62,-502 220.62,-502 290.62,-502 290.62,-502 296.62,-502 302.62,-508 302.62,-514 302.62,-514 302.62,-526 302.62,-526 302.62,-532 296.62,-538 290.62,-538"/>
<text xml:space="preserve" text-anchor="middle" x="255.62" y="-517.83" font-family="Segoe UI" font-size="9.00">mp_add_publisher()</text>
</g>
<!-- t_mp_add&#45;&gt;f_mp_add -->
<g id="edge43" class="edge">
<title>t_mp_add&#45;&gt;f_mp_add</title>
<path fill="none" stroke="black" d="M122.7,-560.65C145.29,-553.69 173.21,-545.09 197.54,-537.59"/>
<polygon fill="black" stroke="black" points="198.46,-540.97 206.99,-534.68 196.4,-534.28 198.46,-540.97"/>
</g>
<!-- t_mp_remove -->
<g id="node23" class="node">
<title>t_mp_remove</title>
<path fill="#64b5f6" stroke="black" d="M117.5,-538C117.5,-538 39.25,-538 39.25,-538 33.25,-538 27.25,-532 27.25,-526 27.25,-526 27.25,-514 27.25,-514 27.25,-508 33.25,-502 39.25,-502 39.25,-502 117.5,-502 117.5,-502 123.5,-502 129.5,-508 129.5,-514 129.5,-514 129.5,-526 129.5,-526 129.5,-532 123.5,-538 117.5,-538"/>
<text xml:space="preserve" text-anchor="middle" x="78.38" y="-517.83" font-family="Segoe UI" font-size="9.00">mp_remove_publisher</text>
</g>
<!-- f_mp_remove -->
<g id="node53" class="node">
<title>f_mp_remove</title>
<path fill="#a5d6a7" stroke="black" d="M304.88,-484C304.88,-484 206.38,-484 206.38,-484 200.38,-484 194.38,-478 194.38,-472 194.38,-472 194.38,-460 194.38,-460 194.38,-454 200.38,-448 206.38,-448 206.38,-448 304.88,-448 304.88,-448 310.88,-448 316.88,-454 316.88,-460 316.88,-460 316.88,-472 316.88,-472 316.88,-478 310.88,-484 304.88,-484"/>
<text xml:space="preserve" text-anchor="middle" x="255.62" y="-463.82" font-family="Segoe UI" font-size="9.00">mp_remove_publisher(u32)</text>
</g>
<!-- t_mp_remove&#45;&gt;f_mp_remove -->
<g id="edge45" class="edge">
<title>t_mp_remove&#45;&gt;f_mp_remove</title>
<path fill="none" stroke="black" d="M129.59,-504.53C146.51,-499.31 165.71,-493.4 183.91,-487.79"/>
<polygon fill="black" stroke="black" points="184.8,-491.18 193.33,-484.89 182.74,-484.49 184.8,-491.18"/>
</g>
<!-- t_mp_config -->
<g id="node24" class="node">
<title>t_mp_config</title>
<path fill="#64b5f6" stroke="black" d="M122,-376C122,-376 34.75,-376 34.75,-376 28.75,-376 22.75,-370 22.75,-364 22.75,-364 22.75,-352 22.75,-352 22.75,-346 28.75,-340 34.75,-340 34.75,-340 122,-340 122,-340 128,-340 134,-346 134,-352 134,-352 134,-364 134,-364 134,-370 128,-376 122,-376"/>
<text xml:space="preserve" text-anchor="middle" x="78.38" y="-355.82" font-family="Segoe UI" font-size="9.00">mp_configure_publisher</text>
</g>
<!-- f_mp_config -->
<g id="node54" class="node">
<title>f_mp_config</title>
<path fill="#a5d6a7" stroke="black" d="M305.62,-430C305.62,-430 205.62,-430 205.62,-430 199.62,-430 193.62,-424 193.62,-418 193.62,-418 193.62,-406 193.62,-406 193.62,-400 199.62,-394 205.62,-394 205.62,-394 305.62,-394 305.62,-394 311.62,-394 317.62,-400 317.62,-406 317.62,-406 317.62,-418 317.62,-418 317.62,-424 311.62,-430 305.62,-430"/>
<text xml:space="preserve" text-anchor="middle" x="255.62" y="-409.82" font-family="Segoe UI" font-size="9.00">mp_configure_publisher(...)</text>
</g>
<!-- t_mp_config&#45;&gt;f_mp_config -->
<g id="edge47" class="edge">
<title>t_mp_config&#45;&gt;f_mp_config</title>
<path fill="none" stroke="black" d="M134.34,-374.94C150.07,-379.78 167.44,-385.13 183.97,-390.23"/>
<polygon fill="black" stroke="black" points="182.65,-393.48 193.23,-393.08 184.71,-386.79 182.65,-393.48"/>
</g>
<!-- t_mp_start -->
<g id="node25" class="node">
<title>t_mp_start</title>
<path fill="#64b5f6" stroke="black" d="M97.62,-322C97.62,-322 59.12,-322 59.12,-322 53.12,-322 47.12,-316 47.12,-310 47.12,-310 47.12,-298 47.12,-298 47.12,-292 53.12,-286 59.12,-286 59.12,-286 97.62,-286 97.62,-286 103.62,-286 109.62,-292 109.62,-298 109.62,-298 109.62,-310 109.62,-310 109.62,-316 103.62,-322 97.62,-322"/>
<text xml:space="preserve" text-anchor="middle" x="78.38" y="-301.82" font-family="Segoe UI" font-size="9.00">mp_start_all</text>
</g>
<!-- f_mp_start -->
<g id="node55" class="node">
<title>f_mp_start</title>
<path fill="#a5d6a7" stroke="black" d="M277.88,-376C277.88,-376 233.38,-376 233.38,-376 227.38,-376 221.38,-370 221.38,-364 221.38,-364 221.38,-352 221.38,-352 221.38,-346 227.38,-340 233.38,-340 233.38,-340 277.88,-340 277.88,-340 283.88,-340 289.88,-346 289.88,-352 289.88,-352 289.88,-364 289.88,-364 289.88,-370 283.88,-376 277.88,-376"/>
<text xml:space="preserve" text-anchor="middle" x="255.62" y="-355.82" font-family="Segoe UI" font-size="9.00">mp_start_all()</text>
</g>
<!-- t_mp_start&#45;&gt;f_mp_start -->
<g id="edge49" class="edge">
<title>t_mp_start&#45;&gt;f_mp_start</title>
<path fill="none" stroke="black" d="M109.9,-313.41C137.71,-321.97 179.11,-334.73 210.51,-344.41"/>
<polygon fill="black" stroke="black" points="209.13,-347.64 219.72,-347.24 211.19,-340.95 209.13,-347.64"/>
</g>
<!-- t_mp_stop -->
<g id="node26" class="node">
<title>t_mp_stop</title>
<path fill="#64b5f6" stroke="black" d="M97.62,-268C97.62,-268 59.12,-268 59.12,-268 53.12,-268 47.12,-262 47.12,-256 47.12,-256 47.12,-244 47.12,-244 47.12,-238 53.12,-232 59.12,-232 59.12,-232 97.62,-232 97.62,-232 103.62,-232 109.62,-238 109.62,-244 109.62,-244 109.62,-256 109.62,-256 109.62,-262 103.62,-268 97.62,-268"/>
<text xml:space="preserve" text-anchor="middle" x="78.38" y="-247.82" font-family="Segoe UI" font-size="9.00">mp_stop_all</text>
</g>
<!-- f_mp_stop -->
<g id="node56" class="node">
<title>f_mp_stop</title>
<path fill="#a5d6a7" stroke="black" d="M277.88,-322C277.88,-322 233.38,-322 233.38,-322 227.38,-322 221.38,-316 221.38,-310 221.38,-310 221.38,-298 221.38,-298 221.38,-292 227.38,-286 233.38,-286 233.38,-286 277.88,-286 277.88,-286 283.88,-286 289.88,-292 289.88,-298 289.88,-298 289.88,-310 289.88,-310 289.88,-316 283.88,-322 277.88,-322"/>
<text xml:space="preserve" text-anchor="middle" x="255.62" y="-301.82" font-family="Segoe UI" font-size="9.00">mp_stop_all()</text>
</g>
<!-- t_mp_stop&#45;&gt;f_mp_stop -->
<g id="edge51" class="edge">
<title>t_mp_stop&#45;&gt;f_mp_stop</title>
<path fill="none" stroke="black" d="M109.9,-259.41C137.71,-267.97 179.11,-280.73 210.51,-290.41"/>
<polygon fill="black" stroke="black" points="209.13,-293.64 219.72,-293.24 211.19,-286.95 209.13,-293.64"/>
</g>
<!-- t_mp_reset -->
<g id="node27" class="node">
<title>t_mp_reset</title>
<path fill="#64b5f6" stroke="black" d="M98.38,-214C98.38,-214 58.38,-214 58.38,-214 52.38,-214 46.38,-208 46.38,-202 46.38,-202 46.38,-190 46.38,-190 46.38,-184 52.38,-178 58.38,-178 58.38,-178 98.38,-178 98.38,-178 104.38,-178 110.38,-184 110.38,-190 110.38,-190 110.38,-202 110.38,-202 110.38,-208 104.38,-214 98.38,-214"/>
<text xml:space="preserve" text-anchor="middle" x="78.38" y="-193.82" font-family="Segoe UI" font-size="9.00">mp_reset_all</text>
</g>
<!-- f_mp_reset -->
<g id="node57" class="node">
<title>f_mp_reset</title>
<path fill="#a5d6a7" stroke="black" d="M278.62,-268C278.62,-268 232.62,-268 232.62,-268 226.62,-268 220.62,-262 220.62,-256 220.62,-256 220.62,-244 220.62,-244 220.62,-238 226.62,-232 232.62,-232 232.62,-232 278.62,-232 278.62,-232 284.62,-232 290.62,-238 290.62,-244 290.62,-244 290.62,-256 290.62,-256 290.62,-262 284.62,-268 278.62,-268"/>
<text xml:space="preserve" text-anchor="middle" x="255.62" y="-247.82" font-family="Segoe UI" font-size="9.00">mp_reset_all()</text>
</g>
<!-- t_mp_reset&#45;&gt;f_mp_reset -->
<g id="edge53" class="edge">
<title>t_mp_reset&#45;&gt;f_mp_reset</title>
<path fill="none" stroke="black" d="M110.71,-205.65C138.15,-214.11 178.37,-226.5 209.32,-236.04"/>
<polygon fill="black" stroke="black" points="208.23,-239.37 218.82,-238.97 210.3,-232.68 208.23,-239.37"/>
</g>
<!-- t_mp_running -->
<g id="node28" class="node">
<title>t_mp_running</title>
<path fill="#64b5f6" stroke="black" d="M103.25,-160C103.25,-160 53.5,-160 53.5,-160 47.5,-160 41.5,-154 41.5,-148 41.5,-148 41.5,-136 41.5,-136 41.5,-130 47.5,-124 53.5,-124 53.5,-124 103.25,-124 103.25,-124 109.25,-124 115.25,-130 115.25,-136 115.25,-136 115.25,-148 115.25,-148 115.25,-154 109.25,-160 103.25,-160"/>
<text xml:space="preserve" text-anchor="middle" x="78.38" y="-139.82" font-family="Segoe UI" font-size="9.00">mp_is_running</text>
</g>
<!-- f_mp_running -->
<g id="node58" class="node">
<title>f_mp_running</title>
<path fill="#a5d6a7" stroke="black" d="M283.5,-214C283.5,-214 227.75,-214 227.75,-214 221.75,-214 215.75,-208 215.75,-202 215.75,-202 215.75,-190 215.75,-190 215.75,-184 221.75,-178 227.75,-178 227.75,-178 283.5,-178 283.5,-178 289.5,-178 295.5,-184 295.5,-190 295.5,-190 295.5,-202 295.5,-202 295.5,-208 289.5,-214 283.5,-214"/>
<text xml:space="preserve" text-anchor="middle" x="255.62" y="-193.82" font-family="Segoe UI" font-size="9.00">mp_is_running()</text>
</g>
<!-- t_mp_running&#45;&gt;f_mp_running -->
<g id="edge55" class="edge">
<title>t_mp_running&#45;&gt;f_mp_running</title>
<path fill="none" stroke="black" d="M115.69,-153.19C141.35,-161.1 176.09,-171.8 204.41,-180.53"/>
<polygon fill="black" stroke="black" points="203.28,-183.84 213.87,-183.44 205.34,-177.15 203.28,-183.84"/>
</g>
<!-- t_usb_pad -->
<g id="node29" class="node">
<title>t_usb_pad</title>
<path fill="#bbdefb" stroke="black" d="M107.38,-106C107.38,-106 49.38,-106 49.38,-106 43.38,-106 37.38,-100 37.38,-94 37.38,-94 37.38,-82 37.38,-82 37.38,-76 43.38,-70 49.38,-70 49.38,-70 107.38,-70 107.38,-70 113.38,-70 119.38,-76 119.38,-82 119.38,-82 119.38,-94 119.38,-94 119.38,-100 113.38,-106 107.38,-106"/>
<text xml:space="preserve" text-anchor="middle" x="78.38" y="-85.83" font-family="Segoe UI" font-size="9.00">set_usb_pad_size</text>
</g>
<!-- f_usb_pad -->
<g id="node59" class="node">
<title>f_usb_pad</title>
<path fill="#c8e6c9" stroke="black" d="M293.25,-160C293.25,-160 218,-160 218,-160 212,-160 206,-154 206,-148 206,-148 206,-136 206,-136 206,-130 212,-124 218,-124 218,-124 293.25,-124 293.25,-124 299.25,-124 305.25,-130 305.25,-136 305.25,-136 305.25,-148 305.25,-148 305.25,-154 299.25,-160 293.25,-160"/>
<text xml:space="preserve" text-anchor="middle" x="255.62" y="-139.82" font-family="Segoe UI" font-size="9.00">set_usb_pad_size(i32)</text>
</g>
<!-- t_usb_pad&#45;&gt;f_usb_pad -->
<g id="edge57" class="edge">
<title>t_usb_pad&#45;&gt;f_usb_pad</title>
<path fill="none" stroke="black" d="M119.58,-100.39C141.85,-107.25 169.97,-115.92 194.78,-123.56"/>
<polygon fill="black" stroke="black" points="193.51,-126.83 204.1,-126.43 195.57,-120.14 193.51,-126.83"/>
</g>
<!-- t_usb_gap -->
<g id="node30" class="node">
<title>t_usb_gap</title>
<path fill="#bbdefb" stroke="black" d="M114.12,-52C114.12,-52 42.62,-52 42.62,-52 36.62,-52 30.62,-46 30.62,-40 30.62,-40 30.62,-28 30.62,-28 30.62,-22 36.62,-16 42.62,-16 42.62,-16 114.12,-16 114.12,-16 120.12,-16 126.12,-22 126.12,-28 126.12,-28 126.12,-40 126.12,-40 126.12,-46 120.12,-52 114.12,-52"/>
<text xml:space="preserve" text-anchor="middle" x="78.38" y="-31.82" font-family="Segoe UI" font-size="9.00">set_usb_min_gap_us</text>
</g>
<!-- f_usb_gap -->
<g id="node60" class="node">
<title>f_usb_gap</title>
<path fill="#c8e6c9" stroke="black" d="M300,-106C300,-106 211.25,-106 211.25,-106 205.25,-106 199.25,-100 199.25,-94 199.25,-94 199.25,-82 199.25,-82 199.25,-76 205.25,-70 211.25,-70 211.25,-70 300,-70 300,-70 306,-70 312,-76 312,-82 312,-82 312,-94 312,-94 312,-100 306,-106 300,-106"/>
<text xml:space="preserve" text-anchor="middle" x="255.62" y="-85.83" font-family="Segoe UI" font-size="9.00">set_usb_min_gap_us(i32)</text>
</g>
<!-- t_usb_gap&#45;&gt;f_usb_gap -->
<g id="edge59" class="edge">
<title>t_usb_gap&#45;&gt;f_usb_gap</title>
<path fill="none" stroke="black" d="M126.34,-48.47C145.25,-54.3 167.4,-61.12 187.92,-67.45"/>
<polygon fill="black" stroke="black" points="186.77,-70.75 197.36,-70.35 188.83,-64.07 186.77,-70.75"/>
</g>
<!-- c_list -->
<g id="node61" class="node">
<title>c_list</title>
<path fill="#e1bee7" stroke="black" d="M477.5,-1672C477.5,-1672 397.75,-1672 397.75,-1672 391.75,-1672 385.75,-1666 385.75,-1660 385.75,-1660 385.75,-1648 385.75,-1648 385.75,-1642 391.75,-1636 397.75,-1636 397.75,-1636 477.5,-1636 477.5,-1636 483.5,-1636 489.5,-1642 489.5,-1648 489.5,-1648 489.5,-1660 489.5,-1660 489.5,-1666 483.5,-1672 477.5,-1672"/>
<text xml:space="preserve" text-anchor="middle" x="437.62" y="-1651.83" font-family="Segoe UI" font-size="9.00">npcap_list_interfaces()</text>
</g>
<!-- f_list&#45;&gt;c_list -->
<g id="edge2" class="edge">
<title>f_list&#45;&gt;c_list</title>
<path fill="none" stroke="black" d="M293.49,-1654C316.7,-1654 347.28,-1654 374.2,-1654"/>
<polygon fill="black" stroke="black" points="373.97,-1657.5 383.97,-1654 373.97,-1650.5 373.97,-1657.5"/>
</g>
<!-- c_open -->
<g id="node62" class="node">
<title>c_open</title>
<path fill="#e1bee7" stroke="black" d="M461,-1618C461,-1618 414.25,-1618 414.25,-1618 408.25,-1618 402.25,-1612 402.25,-1606 402.25,-1606 402.25,-1594 402.25,-1594 402.25,-1588 408.25,-1582 414.25,-1582 414.25,-1582 461,-1582 461,-1582 467,-1582 473,-1588 473,-1594 473,-1594 473,-1606 473,-1606 473,-1612 467,-1618 461,-1618"/>
<text xml:space="preserve" text-anchor="middle" x="437.62" y="-1597.83" font-family="Segoe UI" font-size="9.00">npcap_open()</text>
</g>
<!-- f_open&#45;&gt;c_open -->
<g id="edge4" class="edge">
<title>f_open&#45;&gt;c_open</title>
<path fill="none" stroke="black" d="M304.86,-1600C331.53,-1600 364.49,-1600 390.77,-1600"/>
<polygon fill="black" stroke="black" points="390.44,-1603.5 400.44,-1600 390.44,-1596.5 390.44,-1603.5"/>
</g>
<!-- c_close -->
<g id="node63" class="node">
<title>c_close</title>
<path fill="#e1bee7" stroke="black" d="M461,-1564C461,-1564 414.25,-1564 414.25,-1564 408.25,-1564 402.25,-1558 402.25,-1552 402.25,-1552 402.25,-1540 402.25,-1540 402.25,-1534 408.25,-1528 414.25,-1528 414.25,-1528 461,-1528 461,-1528 467,-1528 473,-1534 473,-1540 473,-1540 473,-1552 473,-1552 473,-1558 467,-1564 461,-1564"/>
<text xml:space="preserve" text-anchor="middle" x="437.62" y="-1543.83" font-family="Segoe UI" font-size="9.00">npcap_close()</text>
</g>
<!-- f_close&#45;&gt;c_close -->
<g id="edge6" class="edge">
<title>f_close&#45;&gt;c_close</title>
<path fill="none" stroke="black" d="M296.13,-1546C323.99,-1546 361.41,-1546 390.62,-1546"/>
<polygon fill="black" stroke="black" points="390.26,-1549.5 400.26,-1546 390.26,-1542.5 390.26,-1549.5"/>
</g>
<!-- c_is_open -->
<g id="node64" class="node">
<title>c_is_open</title>
<path fill="#e1bee7" stroke="black" d="M465.88,-1510C465.88,-1510 409.38,-1510 409.38,-1510 403.38,-1510 397.38,-1504 397.38,-1498 397.38,-1498 397.38,-1486 397.38,-1486 397.38,-1480 403.38,-1474 409.38,-1474 409.38,-1474 465.88,-1474 465.88,-1474 471.88,-1474 477.88,-1480 477.88,-1486 477.88,-1486 477.88,-1498 477.88,-1498 477.88,-1504 471.88,-1510 465.88,-1510"/>
<text xml:space="preserve" text-anchor="middle" x="437.62" y="-1489.83" font-family="Segoe UI" font-size="9.00">npcap_is_open()</text>
</g>
<!-- f_is_open&#45;&gt;c_is_open -->
<g id="edge8" class="edge">
<title>f_is_open&#45;&gt;c_is_open</title>
<path fill="none" stroke="black" d="M282.8,-1492C309.66,-1492 352.16,-1492 385.68,-1492"/>
<polygon fill="black" stroke="black" points="385.61,-1495.5 395.61,-1492 385.61,-1488.5 385.61,-1495.5"/>
</g>
<!-- c_configure -->
<g id="node65" class="node">
<title>c_configure</title>
<path fill="#e1bee7" stroke="black" d="M490.25,-1456C490.25,-1456 385,-1456 385,-1456 379,-1456 373,-1450 373,-1444 373,-1444 373,-1432 373,-1432 373,-1426 379,-1420 385,-1420 385,-1420 490.25,-1420 490.25,-1420 496.25,-1420 502.25,-1426 502.25,-1432 502.25,-1432 502.25,-1444 502.25,-1444 502.25,-1450 496.25,-1456 490.25,-1456"/>
<text xml:space="preserve" text-anchor="middle" x="437.62" y="-1435.83" font-family="Segoe UI" font-size="9.00">npcap_publisher_configure()</text>
</g>
<!-- f_configure&#45;&gt;c_configure -->
<g id="edge11" class="edge">
<title>f_configure&#45;&gt;c_configure</title>
<path fill="none" stroke="black" d="M309.66,-1438C325.82,-1438 343.91,-1438 361.25,-1438"/>
<polygon fill="black" stroke="black" points="361,-1441.5 371,-1438 361,-1434.5 361,-1441.5"/>
</g>
<!-- c_start -->
<g id="node66" class="node">
<title>c_start</title>
<path fill="#e1bee7" stroke="black" d="M479.75,-1402C479.75,-1402 395.5,-1402 395.5,-1402 389.5,-1402 383.5,-1396 383.5,-1390 383.5,-1390 383.5,-1378 383.5,-1378 383.5,-1372 389.5,-1366 395.5,-1366 395.5,-1366 479.75,-1366 479.75,-1366 485.75,-1366 491.75,-1372 491.75,-1378 491.75,-1378 491.75,-1390 491.75,-1390 491.75,-1396 485.75,-1402 479.75,-1402"/>
<text xml:space="preserve" text-anchor="middle" x="437.62" y="-1381.83" font-family="Segoe UI" font-size="9.00">npcap_publisher_start()</text>
</g>
<!-- f_start&#45;&gt;c_start -->
<g id="edge12" class="edge">
<title>f_start&#45;&gt;c_start</title>
<path fill="none" stroke="black" d="M295.68,-1384C317.92,-1384 346.34,-1384 371.83,-1384"/>
<polygon fill="black" stroke="black" points="371.79,-1387.5 381.79,-1384 371.79,-1380.5 371.79,-1387.5"/>
</g>
<!-- c_stop -->
<g id="node67" class="node">
<title>c_stop</title>
<path fill="#e1bee7" stroke="black" d="M479.75,-1348C479.75,-1348 395.5,-1348 395.5,-1348 389.5,-1348 383.5,-1342 383.5,-1336 383.5,-1336 383.5,-1324 383.5,-1324 383.5,-1318 389.5,-1312 395.5,-1312 395.5,-1312 479.75,-1312 479.75,-1312 485.75,-1312 491.75,-1318 491.75,-1324 491.75,-1324 491.75,-1336 491.75,-1336 491.75,-1342 485.75,-1348 479.75,-1348"/>
<text xml:space="preserve" text-anchor="middle" x="437.62" y="-1327.83" font-family="Segoe UI" font-size="9.00">npcap_publisher_stop()</text>
</g>
<!-- f_stop&#45;&gt;c_stop -->
<g id="edge14" class="edge">
<title>f_stop&#45;&gt;c_stop</title>
<path fill="none" stroke="black" d="M295.68,-1330C317.92,-1330 346.34,-1330 371.83,-1330"/>
<polygon fill="black" stroke="black" points="371.79,-1333.5 381.79,-1330 371.79,-1326.5 371.79,-1333.5"/>
</g>
<!-- c_running -->
<g id="node68" class="node">
<title>c_running</title>
<path fill="#e1bee7" stroke="black" d="M491.75,-1294C491.75,-1294 383.5,-1294 383.5,-1294 377.5,-1294 371.5,-1288 371.5,-1282 371.5,-1282 371.5,-1270 371.5,-1270 371.5,-1264 377.5,-1258 383.5,-1258 383.5,-1258 491.75,-1258 491.75,-1258 497.75,-1258 503.75,-1264 503.75,-1270 503.75,-1270 503.75,-1282 503.75,-1282 503.75,-1288 497.75,-1294 491.75,-1294"/>
<text xml:space="preserve" text-anchor="middle" x="437.62" y="-1273.83" font-family="Segoe UI" font-size="9.00">npcap_publisher_is_running()</text>
</g>
<!-- f_running&#45;&gt;c_running -->
<g id="edge16" class="edge">
<title>f_running&#45;&gt;c_running</title>
<path fill="none" stroke="black" d="M307.72,-1276C323.92,-1276 342.21,-1276 359.8,-1276"/>
<polygon fill="black" stroke="black" points="359.72,-1279.5 369.72,-1276 359.72,-1272.5 359.72,-1279.5"/>
</g>
<!-- c_eq -->
<g id="node69" class="node">
<title>c_eq</title>
<path fill="#e1bee7" stroke="black" d="M477.88,-1240C477.88,-1240 397.38,-1240 397.38,-1240 391.38,-1240 385.38,-1234 385.38,-1228 385.38,-1228 385.38,-1216 385.38,-1216 385.38,-1210 391.38,-1204 397.38,-1204 397.38,-1204 477.88,-1204 477.88,-1204 483.88,-1204 489.88,-1210 489.88,-1216 489.88,-1216 489.88,-1228 489.88,-1228 489.88,-1234 483.88,-1240 477.88,-1240"/>
<text xml:space="preserve" text-anchor="middle" x="437.62" y="-1219.83" font-family="Segoe UI" font-size="9.00">npcap_set_equations()</text>
</g>
<!-- f_set_eq&#45;&gt;c_eq -->
<g id="edge18" class="edge">
<title>f_set_eq&#45;&gt;c_eq</title>
<path fill="none" stroke="black" d="M302.51,-1222C324.17,-1222 350.37,-1222 373.83,-1222"/>
<polygon fill="black" stroke="black" points="373.59,-1225.5 383.59,-1222 373.59,-1218.5 373.59,-1225.5"/>
</g>
<!-- c_stats_update -->
<g id="node70" class="node">
<title>c_stats_update</title>
<path fill="#e1bee7" stroke="black" d="M486.88,-1186C486.88,-1186 388.38,-1186 388.38,-1186 382.38,-1186 376.38,-1180 376.38,-1174 376.38,-1174 376.38,-1162 376.38,-1162 376.38,-1156 382.38,-1150 388.38,-1150 388.38,-1150 486.88,-1150 486.88,-1150 492.88,-1150 498.88,-1156 498.88,-1162 498.88,-1162 498.88,-1174 498.88,-1174 498.88,-1180 492.88,-1186 486.88,-1186"/>
<text xml:space="preserve" text-anchor="middle" x="437.62" y="-1165.83" font-family="Segoe UI" font-size="9.00">npcap_stats_update_rates()</text>
</g>
<!-- f_stats_update&#45;&gt;c_stats_update -->
<g id="edge20" class="edge">
<title>f_stats_update&#45;&gt;c_stats_update</title>
<path fill="none" stroke="black" d="M302.98,-1168C321.79,-1168 343.95,-1168 364.77,-1168"/>
<polygon fill="black" stroke="black" points="364.65,-1171.5 374.65,-1168 364.65,-1164.5 364.65,-1171.5"/>
</g>
<!-- c_stats_get -->
<g id="node71" class="node">
<title>c_stats_get</title>
<path fill="#e1bee7" stroke="black" d="M468.12,-1132C468.12,-1132 407.12,-1132 407.12,-1132 401.12,-1132 395.12,-1126 395.12,-1120 395.12,-1120 395.12,-1108 395.12,-1108 395.12,-1102 401.12,-1096 407.12,-1096 407.12,-1096 468.12,-1096 468.12,-1096 474.12,-1096 480.12,-1102 480.12,-1108 480.12,-1108 480.12,-1120 480.12,-1120 480.12,-1126 474.12,-1132 468.12,-1132"/>
<text xml:space="preserve" text-anchor="middle" x="437.62" y="-1111.83" font-family="Segoe UI" font-size="9.00">npcap_stats_get()</text>
</g>
<!-- f_stats_get&#45;&gt;c_stats_get -->
<g id="edge22" class="edge">
<title>f_stats_get&#45;&gt;c_stats_get</title>
<path fill="none" stroke="black" d="M284.36,-1114C310.73,-1114 351.1,-1114 383.65,-1114"/>
<polygon fill="black" stroke="black" points="383.29,-1117.5 393.29,-1114 383.29,-1110.5 383.29,-1117.5"/>
</g>
<!-- c_stats_reset -->
<g id="node72" class="node">
<title>c_stats_reset</title>
<path fill="#e1bee7" stroke="black" d="M471.12,-1078C471.12,-1078 404.12,-1078 404.12,-1078 398.12,-1078 392.12,-1072 392.12,-1066 392.12,-1066 392.12,-1054 392.12,-1054 392.12,-1048 398.12,-1042 404.12,-1042 404.12,-1042 471.12,-1042 471.12,-1042 477.12,-1042 483.12,-1048 483.12,-1054 483.12,-1054 483.12,-1066 483.12,-1066 483.12,-1072 477.12,-1078 471.12,-1078"/>
<text xml:space="preserve" text-anchor="middle" x="437.62" y="-1057.83" font-family="Segoe UI" font-size="9.00">npcap_stats_reset()</text>
</g>
<!-- f_stats_reset&#45;&gt;c_stats_reset -->
<g id="edge24" class="edge">
<title>f_stats_reset&#45;&gt;c_stats_reset</title>
<path fill="none" stroke="black" d="M287.16,-1060C312.6,-1060 349.5,-1060 380.28,-1060"/>
<polygon fill="black" stroke="black" points="380.22,-1063.5 390.22,-1060 380.22,-1056.5 380.22,-1063.5"/>
</g>
<!-- c_dur -->
<g id="node73" class="node">
<title>c_dur</title>
<path fill="#e1bee7" stroke="black" d="M488.38,-1024C488.38,-1024 386.88,-1024 386.88,-1024 380.88,-1024 374.88,-1018 374.88,-1012 374.88,-1012 374.88,-1000 374.88,-1000 374.88,-994 380.88,-988 386.88,-988 386.88,-988 488.38,-988 488.38,-988 494.38,-988 500.38,-994 500.38,-1000 500.38,-1000 500.38,-1012 500.38,-1012 500.38,-1018 494.38,-1024 488.38,-1024"/>
<text xml:space="preserve" text-anchor="middle" x="437.62" y="-1003.83" font-family="Segoe UI" font-size="9.00">npcap_set_duration_mode()</text>
</g>
<!-- f_set_dur&#45;&gt;c_dur -->
<g id="edge26" class="edge">
<title>f_set_dur&#45;&gt;c_dur</title>
<path fill="none" stroke="black" d="M307.72,-1006C324.94,-1006 344.5,-1006 363.1,-1006"/>
<polygon fill="black" stroke="black" points="363.01,-1009.5 373.01,-1006 363.01,-1002.5 363.01,-1009.5"/>
</g>
<!-- c_rem -->
<g id="node74" class="node">
<title>c_rem</title>
<path fill="#e1bee7" stroke="black" d="M497,-970C497,-970 378.25,-970 378.25,-970 372.25,-970 366.25,-964 366.25,-958 366.25,-958 366.25,-946 366.25,-946 366.25,-940 372.25,-934 378.25,-934 378.25,-934 497,-934 497,-934 503,-934 509,-940 509,-946 509,-946 509,-958 509,-958 509,-964 503,-970 497,-970"/>
<text xml:space="preserve" text-anchor="middle" x="437.62" y="-949.83" font-family="Segoe UI" font-size="9.00">npcap_get_remaining_seconds()</text>
</g>
<!-- f_get_rem&#45;&gt;c_rem -->
<g id="edge28" class="edge">
<title>f_get_rem&#45;&gt;c_rem</title>
<path fill="none" stroke="black" d="M313.08,-952C326.26,-952 340.56,-952 354.6,-952"/>
<polygon fill="black" stroke="black" points="354.26,-955.5 364.26,-952 354.26,-948.5 354.26,-955.5"/>
</g>
<!-- c_cycle -->
<g id="node75" class="node">
<title>c_cycle</title>
<path fill="#e1bee7" stroke="black" d="M499.62,-916C499.62,-916 375.62,-916 375.62,-916 369.62,-916 363.62,-910 363.62,-904 363.62,-904 363.62,-892 363.62,-892 363.62,-886 369.62,-880 375.62,-880 375.62,-880 499.62,-880 499.62,-880 505.62,-880 511.62,-886 511.62,-892 511.62,-892 511.62,-904 511.62,-904 511.62,-910 505.62,-916 499.62,-916"/>
<text xml:space="preserve" text-anchor="middle" x="437.62" y="-895.83" font-family="Segoe UI" font-size="9.00">npcap_get_current_repeat_cycle()</text>
</g>
<!-- f_get_cycle&#45;&gt;c_cycle -->
<g id="edge30" class="edge">
<title>f_get_cycle&#45;&gt;c_cycle</title>
<path fill="none" stroke="black" d="M315.56,-898C327.26,-898 339.75,-898 352.11,-898"/>
<polygon fill="black" stroke="black" points="351.88,-901.5 361.88,-898 351.88,-894.5 351.88,-901.5"/>
</g>
<!-- c_complete -->
<g id="node76" class="node">
<title>c_complete</title>
<path fill="#e1bee7" stroke="black" d="M492.88,-862C492.88,-862 382.38,-862 382.38,-862 376.38,-862 370.38,-856 370.38,-850 370.38,-850 370.38,-838 370.38,-838 370.38,-832 376.38,-826 382.38,-826 382.38,-826 492.88,-826 492.88,-826 498.88,-826 504.88,-832 504.88,-838 504.88,-838 504.88,-850 504.88,-850 504.88,-856 498.88,-862 492.88,-862"/>
<text xml:space="preserve" text-anchor="middle" x="437.62" y="-841.83" font-family="Segoe UI" font-size="9.00">npcap_is_duration_complete()</text>
</g>
<!-- f_is_complete&#45;&gt;c_complete -->
<g id="edge32" class="edge">
<title>f_is_complete&#45;&gt;c_complete</title>
<path fill="none" stroke="black" d="M308.69,-844C324.36,-844 341.91,-844 358.87,-844"/>
<polygon fill="black" stroke="black" points="358.39,-847.5 368.39,-844 358.39,-840.5 358.39,-847.5"/>
</g>
<!-- c_mode -->
<g id="node77" class="node">
<title>c_mode</title>
<path fill="#e1bee7" stroke="black" d="M480.88,-808C480.88,-808 394.38,-808 394.38,-808 388.38,-808 382.38,-802 382.38,-796 382.38,-796 382.38,-784 382.38,-784 382.38,-778 388.38,-772 394.38,-772 394.38,-772 480.88,-772 480.88,-772 486.88,-772 492.88,-778 492.88,-784 492.88,-784 492.88,-796 492.88,-796 492.88,-802 486.88,-808 480.88,-808"/>
<text xml:space="preserve" text-anchor="middle" x="437.62" y="-787.83" font-family="Segoe UI" font-size="9.00">npcap_set_send_mode()</text>
</g>
<!-- f_set_mode&#45;&gt;c_mode -->
<g id="edge34" class="edge">
<title>f_set_mode&#45;&gt;c_mode</title>
<path fill="none" stroke="black" d="M302.51,-790C323.27,-790 348.2,-790 370.89,-790"/>
<polygon fill="black" stroke="black" points="370.66,-793.5 380.66,-790 370.66,-786.5 370.66,-793.5"/>
</g>
<!-- c_get_mode -->
<g id="node78" class="node">
<title>c_get_mode</title>
<path fill="#e1bee7" stroke="black" d="M481.62,-754C481.62,-754 393.62,-754 393.62,-754 387.62,-754 381.62,-748 381.62,-742 381.62,-742 381.62,-730 381.62,-730 381.62,-724 387.62,-718 393.62,-718 393.62,-718 481.62,-718 481.62,-718 487.62,-718 493.62,-724 493.62,-730 493.62,-730 493.62,-742 493.62,-742 493.62,-748 487.62,-754 481.62,-754"/>
<text xml:space="preserve" text-anchor="middle" x="437.62" y="-733.83" font-family="Segoe UI" font-size="9.00">npcap_get_send_mode()</text>
</g>
<!-- f_get_mode&#45;&gt;c_get_mode -->
<g id="edge36" class="edge">
<title>f_get_mode&#45;&gt;c_get_mode</title>
<path fill="none" stroke="black" d="M297.47,-736C318.87,-736 345.62,-736 369.93,-736"/>
<polygon fill="black" stroke="black" points="369.76,-739.5 379.76,-736 369.76,-732.5 369.76,-739.5"/>
</g>
<!-- c_sample -->
<g id="node79" class="node">
<title>c_sample</title>
<path fill="#e1bee7" stroke="black" d="M486.12,-700C486.12,-700 389.12,-700 389.12,-700 383.12,-700 377.12,-694 377.12,-688 377.12,-688 377.12,-676 377.12,-676 377.12,-670 383.12,-664 389.12,-664 389.12,-664 486.12,-664 486.12,-664 492.12,-664 498.12,-670 498.12,-676 498.12,-676 498.12,-688 498.12,-688 498.12,-694 492.12,-700 486.12,-700"/>
<text xml:space="preserve" text-anchor="middle" x="437.62" y="-679.83" font-family="Segoe UI" font-size="9.00">npcap_get_sample_frame()</text>
</g>
<!-- f_sample&#45;&gt;c_sample -->
<g id="edge38" class="edge">
<title>f_sample&#45;&gt;c_sample</title>
<path fill="none" stroke="black" d="M309.17,-682C326.7,-682 346.54,-682 365.25,-682"/>
<polygon fill="black" stroke="black" points="365.22,-685.5 375.22,-682 365.22,-678.5 365.22,-685.5"/>
</g>
<!-- c_vals -->
<g id="node80" class="node">
<title>c_vals</title>
<path fill="#e1bee7" stroke="black" d="M505.25,-646C505.25,-646 370,-646 370,-646 364,-646 358,-640 358,-634 358,-634 358,-622 358,-622 358,-616 364,-610 370,-610 370,-610 505.25,-610 505.25,-610 511.25,-610 517.25,-616 517.25,-622 517.25,-622 517.25,-634 517.25,-634 517.25,-640 511.25,-646 505.25,-646"/>
<text xml:space="preserve" text-anchor="middle" x="437.62" y="-625.83" font-family="Segoe UI" font-size="9.00">npcap_get_current_channel_values()</text>
</g>
<!-- f_vals&#45;&gt;c_vals -->
<g id="edge40" class="edge">
<title>f_vals&#45;&gt;c_vals</title>
<path fill="none" stroke="black" d="M321.35,-628C329.46,-628 337.87,-628 346.28,-628"/>
<polygon fill="black" stroke="black" points="346.2,-631.5 356.2,-628 346.2,-624.5 346.2,-631.5"/>
</g>
<!-- c_smp -->
<g id="node81" class="node">
<title>c_smp</title>
<path fill="#e1bee7" stroke="black" d="M491.75,-592C491.75,-592 383.5,-592 383.5,-592 377.5,-592 371.5,-586 371.5,-580 371.5,-580 371.5,-568 371.5,-568 371.5,-562 377.5,-556 383.5,-556 383.5,-556 491.75,-556 491.75,-556 497.75,-556 503.75,-562 503.75,-568 503.75,-568 503.75,-580 503.75,-580 503.75,-586 497.75,-592 491.75,-592"/>
<text xml:space="preserve" text-anchor="middle" x="437.62" y="-571.83" font-family="Segoe UI" font-size="9.00">npcap_get_current_smp_cnt()</text>
</g>
<!-- f_smp&#45;&gt;c_smp -->
<g id="edge42" class="edge">
<title>f_smp&#45;&gt;c_smp</title>
<path fill="none" stroke="black" d="M307.72,-574C323.92,-574 342.21,-574 359.8,-574"/>
<polygon fill="black" stroke="black" points="359.72,-577.5 369.72,-574 359.72,-570.5 359.72,-577.5"/>
</g>
<!-- c_mp_add -->
<g id="node82" class="node">
<title>c_mp_add</title>
<path fill="#ce93d8" stroke="black" d="M478.62,-538C478.62,-538 396.62,-538 396.62,-538 390.62,-538 384.62,-532 384.62,-526 384.62,-526 384.62,-514 384.62,-514 384.62,-508 390.62,-502 396.62,-502 396.62,-502 478.62,-502 478.62,-502 484.62,-502 490.62,-508 490.62,-514 490.62,-514 490.62,-526 490.62,-526 490.62,-532 484.62,-538 478.62,-538"/>
<text xml:space="preserve" text-anchor="middle" x="437.62" y="-517.83" font-family="Segoe UI" font-size="9.00">sv_mp_add_publisher()</text>
</g>
<!-- f_mp_add&#45;&gt;c_mp_add -->
<g id="edge44" class="edge">
<title>f_mp_add&#45;&gt;c_mp_add</title>
<path fill="none" stroke="black" d="M302.98,-520C324.28,-520 349.88,-520 372.95,-520"/>
<polygon fill="black" stroke="black" points="372.88,-523.5 382.88,-520 372.88,-516.5 372.88,-523.5"/>
</g>
<!-- c_mp_remove -->
<g id="node83" class="node">
<title>c_mp_remove</title>
<path fill="#ce93d8" stroke="black" d="M485.75,-484C485.75,-484 389.5,-484 389.5,-484 383.5,-484 377.5,-478 377.5,-472 377.5,-472 377.5,-460 377.5,-460 377.5,-454 383.5,-448 389.5,-448 389.5,-448 485.75,-448 485.75,-448 491.75,-448 497.75,-454 497.75,-460 497.75,-460 497.75,-472 497.75,-472 497.75,-478 491.75,-484 485.75,-484"/>
<text xml:space="preserve" text-anchor="middle" x="437.62" y="-463.82" font-family="Segoe UI" font-size="9.00">sv_mp_remove_publisher()</text>
</g>
<!-- f_mp_remove&#45;&gt;c_mp_remove -->
<g id="edge46" class="edge">
<title>f_mp_remove&#45;&gt;c_mp_remove</title>
<path fill="none" stroke="black" d="M317.31,-466C332.84,-466 349.66,-466 365.65,-466"/>
<polygon fill="black" stroke="black" points="365.6,-469.5 375.6,-466 365.6,-462.5 365.6,-469.5"/>
</g>
<!-- c_mp_config -->
<g id="node84" class="node">
<title>c_mp_config</title>
<path fill="#ce93d8" stroke="black" d="M490.25,-430C490.25,-430 385,-430 385,-430 379,-430 373,-424 373,-418 373,-418 373,-406 373,-406 373,-400 379,-394 385,-394 385,-394 490.25,-394 490.25,-394 496.25,-394 502.25,-400 502.25,-406 502.25,-406 502.25,-418 502.25,-418 502.25,-424 496.25,-430 490.25,-430"/>
<text xml:space="preserve" text-anchor="middle" x="437.62" y="-409.82" font-family="Segoe UI" font-size="9.00">sv_mp_configure_publisher()</text>
</g>
<!-- f_mp_config&#45;&gt;c_mp_config -->
<g id="edge48" class="edge">
<title>f_mp_config&#45;&gt;c_mp_config</title>
<path fill="none" stroke="black" d="M318.07,-412C331.97,-412 346.89,-412 361.29,-412"/>
<polygon fill="black" stroke="black" points="361.19,-415.5 371.19,-412 361.19,-408.5 361.19,-415.5"/>
</g>
<!-- c_mp_start -->
<g id="node85" class="node">
<title>c_mp_start</title>
<path fill="#ce93d8" stroke="black" d="M465.88,-376C465.88,-376 409.38,-376 409.38,-376 403.38,-376 397.38,-370 397.38,-364 397.38,-364 397.38,-352 397.38,-352 397.38,-346 403.38,-340 409.38,-340 409.38,-340 465.88,-340 465.88,-340 471.88,-340 477.88,-346 477.88,-352 477.88,-352 477.88,-364 477.88,-364 477.88,-370 471.88,-376 465.88,-376"/>
<text xml:space="preserve" text-anchor="middle" x="437.62" y="-355.82" font-family="Segoe UI" font-size="9.00">sv_mp_start_all()</text>
</g>
<!-- f_mp_start&#45;&gt;c_mp_start -->
<g id="edge50" class="edge">
<title>f_mp_start&#45;&gt;c_mp_start</title>
<path fill="none" stroke="black" d="M290.06,-358C316.93,-358 355.1,-358 385.75,-358"/>
<polygon fill="black" stroke="black" points="385.58,-361.5 395.58,-358 385.58,-354.5 385.58,-361.5"/>
</g>
<!-- c_mp_stop -->
<g id="node86" class="node">
<title>c_mp_stop</title>
<path fill="#ce93d8" stroke="black" d="M465.88,-322C465.88,-322 409.38,-322 409.38,-322 403.38,-322 397.38,-316 397.38,-310 397.38,-310 397.38,-298 397.38,-298 397.38,-292 403.38,-286 409.38,-286 409.38,-286 465.88,-286 465.88,-286 471.88,-286 477.88,-292 477.88,-298 477.88,-298 477.88,-310 477.88,-310 477.88,-316 471.88,-322 465.88,-322"/>
<text xml:space="preserve" text-anchor="middle" x="437.62" y="-301.82" font-family="Segoe UI" font-size="9.00">sv_mp_stop_all()</text>
</g>
<!-- f_mp_stop&#45;&gt;c_mp_stop -->
<g id="edge52" class="edge">
<title>f_mp_stop&#45;&gt;c_mp_stop</title>
<path fill="none" stroke="black" d="M290.06,-304C316.93,-304 355.1,-304 385.75,-304"/>
<polygon fill="black" stroke="black" points="385.58,-307.5 395.58,-304 385.58,-300.5 385.58,-307.5"/>
</g>
<!-- c_mp_reset -->
<g id="node87" class="node">
<title>c_mp_reset</title>
<path fill="#ce93d8" stroke="black" d="M466.62,-268C466.62,-268 408.62,-268 408.62,-268 402.62,-268 396.62,-262 396.62,-256 396.62,-256 396.62,-244 396.62,-244 396.62,-238 402.62,-232 408.62,-232 408.62,-232 466.62,-232 466.62,-232 472.62,-232 478.62,-238 478.62,-244 478.62,-244 478.62,-256 478.62,-256 478.62,-262 472.62,-268 466.62,-268"/>
<text xml:space="preserve" text-anchor="middle" x="437.62" y="-247.82" font-family="Segoe UI" font-size="9.00">sv_mp_reset_all()</text>
</g>
<!-- f_mp_reset&#45;&gt;c_mp_reset -->
<g id="edge54" class="edge">
<title>f_mp_reset&#45;&gt;c_mp_reset</title>
<path fill="none" stroke="black" d="M290.91,-250C317.5,-250 354.79,-250 384.99,-250"/>
<polygon fill="black" stroke="black" points="384.67,-253.5 394.67,-250 384.67,-246.5 384.67,-253.5"/>
</g>
<!-- c_mp_running -->
<g id="node88" class="node">
<title>c_mp_running</title>
<path fill="#ce93d8" stroke="black" d="M471.5,-214C471.5,-214 403.75,-214 403.75,-214 397.75,-214 391.75,-208 391.75,-202 391.75,-202 391.75,-190 391.75,-190 391.75,-184 397.75,-178 403.75,-178 403.75,-178 471.5,-178 471.5,-178 477.5,-178 483.5,-184 483.5,-190 483.5,-190 483.5,-202 483.5,-202 483.5,-208 477.5,-214 471.5,-214"/>
<text xml:space="preserve" text-anchor="middle" x="437.62" y="-193.82" font-family="Segoe UI" font-size="9.00">sv_mp_is_running()</text>
</g>
<!-- f_mp_running&#45;&gt;c_mp_running -->
<g id="edge56" class="edge">
<title>f_mp_running&#45;&gt;c_mp_running</title>
<path fill="none" stroke="black" d="M295.68,-196C320.29,-196 352.48,-196 379.88,-196"/>
<polygon fill="black" stroke="black" points="379.78,-199.5 389.78,-196 379.78,-192.5 379.78,-199.5"/>
</g>
<!-- c_usb_pad -->
<g id="node89" class="node">
<title>c_usb_pad</title>
<path fill="#e1bee7" stroke="black" d="M483.88,-160C483.88,-160 391.38,-160 391.38,-160 385.38,-160 379.38,-154 379.38,-148 379.38,-148 379.38,-136 379.38,-136 379.38,-130 385.38,-124 391.38,-124 391.38,-124 483.88,-124 483.88,-124 489.88,-124 495.88,-130 495.88,-136 495.88,-136 495.88,-148 495.88,-148 495.88,-154 489.88,-160 483.88,-160"/>
<text xml:space="preserve" text-anchor="middle" x="437.62" y="-139.82" font-family="Segoe UI" font-size="9.00">npcap_set_usb_pad_size()</text>
</g>
<!-- f_usb_pad&#45;&gt;c_usb_pad -->
<g id="edge58" class="edge">
<title>f_usb_pad&#45;&gt;c_usb_pad</title>
<path fill="none" stroke="black" d="M305.34,-142C324.49,-142 346.82,-142 367.58,-142"/>
<polygon fill="black" stroke="black" points="367.41,-145.5 377.41,-142 367.41,-138.5 367.41,-145.5"/>
</g>
<!-- c_usb_gap -->
<g id="node90" class="node">
<title>c_usb_gap</title>
<path fill="#e1bee7" stroke="black" d="M490.62,-106C490.62,-106 384.62,-106 384.62,-106 378.62,-106 372.62,-100 372.62,-94 372.62,-94 372.62,-82 372.62,-82 372.62,-76 378.62,-70 384.62,-70 384.62,-70 490.62,-70 490.62,-70 496.62,-70 502.62,-76 502.62,-82 502.62,-82 502.62,-94 502.62,-94 502.62,-100 496.62,-106 490.62,-106"/>
<text xml:space="preserve" text-anchor="middle" x="437.62" y="-85.83" font-family="Segoe UI" font-size="9.00">npcap_set_usb_min_gap_us()</text>
</g>
<!-- f_usb_gap&#45;&gt;c_usb_gap -->
<g id="edge60" class="edge">
<title>f_usb_gap&#45;&gt;c_usb_gap</title>
<path fill="none" stroke="black" d="M312.1,-88C327.54,-88 344.58,-88 360.97,-88"/>
<polygon fill="black" stroke="black" points="360.68,-91.5 370.68,-88 360.68,-84.5 360.68,-91.5"/>
</g>
</g>
</svg>
