<?xml version="1.0" encoding="UTF-8" standalone="no"?>
<!DOCTYPE svg PUBLIC "-//W3C//DTD SVG 1.1//EN"
 "http://www.w3.org/Graphics/SVG/1.1/DTD/svg11.dtd">
<!-- Generated by graphviz version 14.1.2 (20260124.0452)
 -->
<!-- Title: NpcapTransmission Pages: 1 -->
<svg width="1019pt" height="1859pt"
 viewBox="0.00 0.00 1019.00 1859.00" xmlns="http://www.w3.org/2000/svg" xmlns:xlink="http://www.w3.org/1999/xlink">
<g id="graph0" class="graph" transform="scale(1 1) rotate(0) translate(4 1854.74)">
<title>NpcapTransmission</title>
<polygon fill="white" stroke="none" points="-4,4 -4,-1854.74 1015,-1854.74 1015,4 -4,4"/>
<text xml:space="preserve" text-anchor="middle" x="505.5" y="-1835.34" font-family="Segoe UI" font-size="12.00">Npcap Integration &amp; Transmission Strategy</text>
<g id="clust1" class="cluster">
<title>cluster_dll</title>
<path fill="#e3f2fd" stroke="#1565c0" d="M374,-1447.49C374,-1447.49 648,-1447.49 648,-1447.49 654,-1447.49 660,-1453.49 660,-1459.49 660,-1459.49 660,-1805.49 660,-1805.49 660,-1811.49 654,-1817.49 648,-1817.49 648,-1817.49 374,-1817.49 374,-1817.49 368,-1817.49 362,-1811.49 362,-1805.49 362,-1805.49 362,-1459.49 362,-1459.49 362,-1453.49 368,-1447.49 374,-1447.49"/>
<text xml:space="preserve" text-anchor="middle" x="511" y="-1802.09" font-family="Segoe UI" font-size="12.00">1. DLL Dynamic Loading (npcap_load_dll)</text>
</g>
<g id="clust2" class="cluster">
<title>cluster_funcs</title>
<path fill="#bbdefb" stroke="#1565c0" d="M382,-1455.49C382,-1455.49 640,-1455.49 640,-1455.49 646,-1455.49 652,-1461.49 652,-1467.49 652,-1467.49 652,-1620.99 652,-1620.99 652,-1626.99 646,-1632.99 640,-1632.99 640,-1632.99 382,-1632.99 382,-1632.99 376,-1632.99 370,-1626.99 370,-1620.99 370,-1620.99 370,-1467.49 370,-1467.49 370,-1461.49 376,-1455.49 382,-1455.49"/>
<text xml:space="preserve" text-anchor="middle" x="511" y="-1617.59" font-family="Segoe UI" font-size="12.00">GetProcAddress()</text>
</g>
<g id="clust3" class="cluster">
<title>cluster_open</title>
<path fill="#e8f5e9" stroke="#2e7d32" d="M254,-948.87C254,-948.87 583,-948.87 583,-948.87 589,-948.87 595,-954.87 595,-960.87 595,-960.87 595,-1406.74 595,-1406.74 595,-1412.74 589,-1418.74 583,-1418.74 583,-1418.74 254,-1418.74 254,-1418.74 248,-1418.74 242,-1412.74 242,-1406.74 242,-1406.74 242,-960.87 242,-960.87 242,-954.87 248,-948.87 254,-948.87"/>
<text xml:space="preserve" text-anchor="middle" x="418.5" y="-1403.34" font-family="Segoe UI" font-size="12.00">2. Interface Opening Strategy</text>
</g>
<g id="clust4" class="cluster">
<title>cluster_sendmode</title>
<path fill="#f3e5f5" stroke="#6a1b9a" d="M332,-677.87C332,-677.87 538,-677.87 538,-677.87 544,-677.87 550,-683.87 550,-689.87 550,-689.87 550,-893.37 550,-893.37 550,-899.37 544,-905.37 538,-905.37 538,-905.37 332,-905.37 332,-905.37 326,-905.37 320,-899.37 320,-893.37 320,-893.37 320,-689.87 320,-689.87 320,-683.87 326,-677.87 332,-677.87"/>
<text xml:space="preserve" text-anchor="middle" x="435" y="-889.97" font-family="Segoe UI" font-size="12.00">3. Send Mode Selection</text>
</g>
<g id="clust5" class="cluster">
<title>cluster_batch</title>
<path fill="#fff3e0" stroke="#e65100" d="M662,-535.5C662,-535.5 991,-535.5 991,-535.5 997,-535.5 1003,-541.5 1003,-547.5 1003,-547.5 1003,-1310.49 1003,-1310.49 1003,-1316.49 997,-1322.49 991,-1322.49 991,-1322.49 662,-1322.49 662,-1322.49 656,-1322.49 650,-1316.49 650,-1310.49 650,-1310.49 650,-547.5 650,-547.5 650,-541.5 656,-535.5 662,-535.5"/>
<text xml:space="preserve" text-anchor="middle" x="826.5" y="-1307.09" font-family="Segoe UI" font-size="12.00">4a. SendQueue (Batch) Mode</text>
</g>
<g id="clust6" class="cluster">
<title>cluster_immediate</title>
<path fill="#e8f5e9" stroke="#2e7d32" d="M200,-305.5C200,-305.5 630,-305.5 630,-305.5 636,-305.5 642,-311.5 642,-317.5 642,-317.5 642,-600.75 642,-600.75 642,-606.75 636,-612.75 630,-612.75 630,-612.75 200,-612.75 200,-612.75 194,-612.75 188,-606.75 188,-600.75 188,-600.75 188,-317.5 188,-317.5 188,-311.5 194,-305.5 200,-305.5"/>
<text xml:space="preserve" text-anchor="middle" x="415" y="-597.35" font-family="Segoe UI" font-size="12.00">4b. SendPacket (Immediate) Mode</text>
</g>
<g id="clust7" class="cluster">
<title>cluster_usb</title>
<path fill="#fce4ec" stroke="#ad1457" d="M20,-298.12C20,-298.12 168,-298.12 168,-298.12 174,-298.12 180,-304.12 180,-310.12 180,-310.12 180,-622.37 180,-622.37 180,-628.37 174,-634.37 168,-634.37 168,-634.37 20,-634.37 20,-634.37 14,-634.37 8,-628.37 8,-622.37 8,-622.37 8,-310.12 8,-310.12 8,-304.12 14,-298.12 20,-298.12"/>
<text xml:space="preserve" text-anchor="middle" x="94" y="-618.97" font-family="Segoe UI" font-size="12.00">4c. USB&#45;Optimized Mode</text>
</g>
<g id="clust8" class="cluster">
<title>cluster_output</title>
<path fill="#ffebee" stroke="#c62828" d="M338,-8C338,-8 472,-8 472,-8 478,-8 484,-14 484,-20 484,-20 484,-267.12 484,-267.12 484,-273.12 478,-279.12 472,-279.12 472,-279.12 338,-279.12 338,-279.12 332,-279.12 326,-273.12 326,-267.12 326,-267.12 326,-20 326,-20 326,-14 332,-8 338,-8"/>
<text xml:space="preserve" text-anchor="middle" x="405" y="-263.72" font-family="Segoe UI" font-size="12.00">5. Network Output</text>
</g>
<!-- init -->
<g id="node1" class="node">
<title>init</title>
<path fill="#bbdefb" stroke="black" d="M603.38,-1784.24C603.38,-1784.24 418.62,-1784.24 418.62,-1784.24 412.62,-1784.24 406.62,-1778.24 406.62,-1772.24 406.62,-1772.24 406.62,-1745.49 406.62,-1745.49 406.62,-1739.49 412.62,-1733.49 418.62,-1733.49 418.62,-1733.49 603.38,-1733.49 603.38,-1733.49 609.38,-1733.49 615.38,-1739.49 615.38,-1745.49 615.38,-1745.49 615.38,-1772.24 615.38,-1772.24 615.38,-1778.24 609.38,-1784.24 603.38,-1784.24"/>
<text xml:space="preserve" text-anchor="middle" x="511" y="-1770.74" font-family="Segoe UI" font-size="10.00">Application Start</text>
<text xml:space="preserve" text-anchor="middle" x="511" y="-1756.49" font-family="Segoe UI" font-size="10.00">init_npcap_path()</text>
<text xml:space="preserve" text-anchor="middle" x="511" y="-1742.24" font-family="Segoe UI" font-size="10.00">Add C:\Windows\System32\Npcap to PATH</text>
</g>
<!-- load -->
<g id="node2" class="node">
<title>load</title>
<path fill="#bbdefb" stroke="black" d="M564,-1696.49C564,-1696.49 458,-1696.49 458,-1696.49 452,-1696.49 446,-1690.49 446,-1684.49 446,-1684.49 446,-1671.99 446,-1671.99 446,-1665.99 452,-1659.99 458,-1659.99 458,-1659.99 564,-1659.99 564,-1659.99 570,-1659.99 576,-1665.99 576,-1671.99 576,-1671.99 576,-1684.49 576,-1684.49 576,-1690.49 570,-1696.49 564,-1696.49"/>
<text xml:space="preserve" text-anchor="middle" x="511" y="-1682.99" font-family="Segoe UI" font-size="10.00">LoadLibraryA(&quot;wpcap.dll&quot;)</text>
<text xml:space="preserve" text-anchor="middle" x="511" y="-1668.74" font-family="Segoe UI" font-size="10.00">from Npcap directory</text>
</g>
<!-- init&#45;&gt;load -->
<g id="edge1" class="edge">
<title>init&#45;&gt;load</title>
<path fill="none" stroke="black" d="M511,-1733.42C511,-1725.43 511,-1716.47 511,-1708.17"/>
<polygon fill="black" stroke="black" points="514.5,-1708.2 511,-1698.2 507.5,-1708.2 514.5,-1708.2"/>
</g>
<!-- required -->
<g id="node3" class="node">
<title>required</title>
<path fill="#90caf9" stroke="black" d="M469.88,-1578.37C469.88,-1578.37 390.12,-1578.37 390.12,-1578.37 384.12,-1578.37 378.12,-1572.37 378.12,-1566.37 378.12,-1566.37 378.12,-1496.87 378.12,-1496.87 378.12,-1490.87 384.12,-1484.87 390.12,-1484.87 390.12,-1484.87 469.88,-1484.87 469.88,-1484.87 475.88,-1484.87 481.88,-1490.87 481.88,-1496.87 481.88,-1496.87 481.88,-1566.37 481.88,-1566.37 481.88,-1572.37 475.88,-1578.37 469.88,-1578.37"/>
<text xml:space="preserve" text-anchor="middle" x="430" y="-1564.87" font-family="Segoe UI" font-size="10.00">Required Functions</text>
<text xml:space="preserve" text-anchor="middle" x="430" y="-1550.62" font-family="Segoe UI" font-size="10.00">• pcap_findalldevs</text>
<text xml:space="preserve" text-anchor="middle" x="430" y="-1536.37" font-family="Segoe UI" font-size="10.00">• pcap_freealldevs</text>
<text xml:space="preserve" text-anchor="middle" x="430" y="-1522.12" font-family="Segoe UI" font-size="10.00">• pcap_open_live</text>
<text xml:space="preserve" text-anchor="middle" x="430" y="-1507.87" font-family="Segoe UI" font-size="10.00">• pcap_close</text>
<text xml:space="preserve" text-anchor="middle" x="430" y="-1493.62" font-family="Segoe UI" font-size="10.00">• pcap_sendpacket</text>
</g>
<!-- load&#45;&gt;required -->
<g id="edge2" class="edge">
<title>load&#45;&gt;required</title>
<path fill="none" stroke="black" d="M501.07,-1659.51C491.18,-1641.86 475.5,-1613.85 461.37,-1588.63"/>
<polygon fill="black" stroke="black" points="464.52,-1587.1 456.58,-1580.08 458.42,-1590.52 464.52,-1587.1"/>
</g>
<!-- optional -->
<g id="node4" class="node">
<title>optional</title>
<path fill="#90caf9" stroke="black" d="M631.75,-1599.74C631.75,-1599.74 512.25,-1599.74 512.25,-1599.74 506.25,-1599.74 500.25,-1593.74 500.25,-1587.74 500.25,-1587.74 500.25,-1475.49 500.25,-1475.49 500.25,-1469.49 506.25,-1463.49 512.25,-1463.49 512.25,-1463.49 631.75,-1463.49 631.75,-1463.49 637.75,-1463.49 643.75,-1469.49 643.75,-1475.49 643.75,-1475.49 643.75,-1587.74 643.75,-1587.74 643.75,-1593.74 637.75,-1599.74 631.75,-1599.74"/>
<text xml:space="preserve" text-anchor="middle" x="572" y="-1586.24" font-family="Segoe UI" font-size="10.00">Optional Functions</text>
<text xml:space="preserve" text-anchor="middle" x="572" y="-1571.99" font-family="Segoe UI" font-size="10.00">• pcap_sendqueue_alloc</text>
<text xml:space="preserve" text-anchor="middle" x="572" y="-1557.74" font-family="Segoe UI" font-size="10.00">• pcap_sendqueue_queue</text>
<text xml:space="preserve" text-anchor="middle" x="572" y="-1543.49" font-family="Segoe UI" font-size="10.00">• pcap_sendqueue_transmit</text>
<text xml:space="preserve" text-anchor="middle" x="572" y="-1529.24" font-family="Segoe UI" font-size="10.00">• pcap_sendqueue_destroy</text>
<text xml:space="preserve" text-anchor="middle" x="572" y="-1514.99" font-family="Segoe UI" font-size="10.00">• pcap_create</text>
<text xml:space="preserve" text-anchor="middle" x="572" y="-1500.74" font-family="Segoe UI" font-size="10.00">• pcap_set_tstamp_type</text>
<text xml:space="preserve" text-anchor="middle" x="572" y="-1486.49" font-family="Segoe UI" font-size="10.00">• pcap_set_immediate_mode</text>
<text xml:space="preserve" text-anchor="middle" x="572" y="-1472.24" font-family="Segoe UI" font-size="10.00">• pcap_activate</text>
</g>
<!-- load&#45;&gt;optional -->
<g id="edge3" class="edge">
<title>load&#45;&gt;optional</title>
<path fill="none" stroke="black" d="M518.48,-1659.51C523.8,-1646.9 531.35,-1629.01 539.1,-1610.62"/>
<polygon fill="black" stroke="black" points="542.3,-1612.04 542.96,-1601.47 535.85,-1609.32 542.3,-1612.04"/>
</g>
<!-- open_start -->
<g id="node5" class="node">
<title>open_start</title>
<path fill="#c8e6c9" stroke="black" d="M485.25,-1385.49C485.25,-1385.49 374.75,-1385.49 374.75,-1385.49 368.75,-1385.49 362.75,-1379.49 362.75,-1373.49 362.75,-1373.49 362.75,-1361.49 362.75,-1361.49 362.75,-1355.49 368.75,-1349.49 374.75,-1349.49 374.75,-1349.49 485.25,-1349.49 485.25,-1349.49 491.25,-1349.49 497.25,-1355.49 497.25,-1361.49 497.25,-1361.49 497.25,-1373.49 497.25,-1373.49 497.25,-1379.49 491.25,-1385.49 485.25,-1385.49"/>
<text xml:space="preserve" text-anchor="middle" x="430" y="-1365.12" font-family="Segoe UI" font-size="10.00">npcap_open(device_name)</text>
</g>
<!-- required&#45;&gt;open_start -->
<g id="edge4" class="edge">
<title>required&#45;&gt;open_start</title>
<path fill="none" stroke="black" stroke-dasharray="5,2" d="M430,-1484.59C430,-1456.4 430,-1421.21 430,-1397.01"/>
<polygon fill="black" stroke="black" points="433.5,-1397.28 430,-1387.28 426.5,-1397.28 433.5,-1397.28"/>
<text xml:space="preserve" text-anchor="middle" x="463.38" y="-1430.94" font-family="Segoe UI" font-size="9.00">functions loaded</text>
</g>
<!-- pcap_create_avail -->
<g id="node6" class="node">
<title>pcap_create_avail</title>
<path fill="#fff9c4" stroke="black" d="M419.36,-1283.7C419.36,-1283.7 370.64,-1258.29 370.64,-1258.29 365.32,-1255.52 365.32,-1249.97 370.64,-1247.2 370.64,-1247.2 419.36,-1221.79 419.36,-1221.79 424.68,-1219.02 435.32,-1219.02 440.64,-1221.79 440.64,-1221.79 489.36,-1247.2 489.36,-1247.2 494.68,-1249.97 494.68,-1255.52 489.36,-1258.29 489.36,-1258.29 440.64,-1283.7 440.64,-1283.7 435.32,-1286.47 424.68,-1286.47 419.36,-1283.7"/>
<text xml:space="preserve" text-anchor="middle" x="430" y="-1257.49" font-family="Segoe UI" font-size="10.00">pcap_create</text>
<text xml:space="preserve" text-anchor="middle" x="430" y="-1243.24" font-family="Segoe UI" font-size="10.00">available?</text>
</g>
<!-- open_start&#45;&gt;pcap_create_avail -->
<g id="edge5" class="edge">
<title>open_start&#45;&gt;pcap_create_avail</title>
<path fill="none" stroke="black" d="M430,-1349.37C430,-1336.43 430,-1318.02 430,-1300.8"/>
<polygon fill="black" stroke="black" points="433.5,-1301.24 430,-1291.24 426.5,-1301.24 433.5,-1301.24"/>
</g>
<!-- advanced_open -->
<g id="node7" class="node">
<title>advanced_open</title>
<path fill="#a5d6a7" stroke="black" d="M421.62,-1167.49C421.62,-1167.49 262.38,-1167.49 262.38,-1167.49 256.38,-1167.49 250.38,-1161.49 250.38,-1155.49 250.38,-1155.49 250.38,-1057.49 250.38,-1057.49 250.38,-1051.49 256.38,-1045.49 262.38,-1045.49 262.38,-1045.49 421.62,-1045.49 421.62,-1045.49 427.62,-1045.49 433.62,-1051.49 433.62,-1057.49 433.62,-1057.49 433.62,-1155.49 433.62,-1155.49 433.62,-1161.49 427.62,-1167.49 421.62,-1167.49"/>
<text xml:space="preserve" text-anchor="middle" x="342" y="-1153.99" font-family="Segoe UI" font-size="10.00">Advanced Open (Preferred)</text>
<text xml:space="preserve" text-anchor="middle" x="342" y="-1139.74" font-family="Segoe UI" font-size="10.00">pcap_create(device)</text>
<text xml:space="preserve" text-anchor="middle" x="342" y="-1125.49" font-family="Segoe UI" font-size="10.00">pcap_set_snaplen(65536)</text>
<text xml:space="preserve" text-anchor="middle" x="342" y="-1111.24" font-family="Segoe UI" font-size="10.00">pcap_set_promisc(1)</text>
<text xml:space="preserve" text-anchor="middle" x="342" y="-1096.99" font-family="Segoe UI" font-size="10.00">pcap_set_timeout(1)</text>
<text xml:space="preserve" text-anchor="middle" x="342" y="-1082.74" font-family="Segoe UI" font-size="10.00">pcap_set_tstamp_type(HOST_HIPREC)</text>
<text xml:space="preserve" text-anchor="middle" x="342" y="-1068.49" font-family="Segoe UI" font-size="10.00">pcap_set_immediate_mode(1)</text>
<text xml:space="preserve" text-anchor="middle" x="342" y="-1054.24" font-family="Segoe UI" font-size="10.00">pcap_activate()</text>
</g>
<!-- pcap_create_avail&#45;&gt;advanced_open -->
<g id="edge6" class="edge">
<title>pcap_create_avail&#45;&gt;advanced_open</title>
<path fill="none" stroke="black" d="M413.45,-1224.61C405.29,-1211.24 395.04,-1194.43 384.87,-1177.76"/>
<polygon fill="black" stroke="black" points="387.89,-1175.99 379.69,-1169.27 381.91,-1179.63 387.89,-1175.99"/>
<text xml:space="preserve" text-anchor="middle" x="402.84" y="-1189.69" font-family="Segoe UI" font-size="9.00">yes</text>
</g>
<!-- simple_open -->
<g id="node8" class="node">
<title>simple_open</title>
<path fill="#c8e6c9" stroke="black" d="M574.62,-1138.99C574.62,-1138.99 463.38,-1138.99 463.38,-1138.99 457.38,-1138.99 451.38,-1132.99 451.38,-1126.99 451.38,-1126.99 451.38,-1085.99 451.38,-1085.99 451.38,-1079.99 457.38,-1073.99 463.38,-1073.99 463.38,-1073.99 574.62,-1073.99 574.62,-1073.99 580.62,-1073.99 586.62,-1079.99 586.62,-1085.99 586.62,-1085.99 586.62,-1126.99 586.62,-1126.99 586.62,-1132.99 580.62,-1138.99 574.62,-1138.99"/>
<text xml:space="preserve" text-anchor="middle" x="519" y="-1125.49" font-family="Segoe UI" font-size="10.00">Simple Open (Fallback)</text>
<text xml:space="preserve" text-anchor="middle" x="519" y="-1111.24" font-family="Segoe UI" font-size="10.00">pcap_open_live(</text>
<text xml:space="preserve" text-anchor="middle" x="519" y="-1096.99" font-family="Segoe UI" font-size="10.00"> &#160;device, 65536, 1, 1, errbuf</text>
<text xml:space="preserve" text-anchor="middle" x="519" y="-1082.74" font-family="Segoe UI" font-size="10.00">)</text>
</g>
<!-- pcap_create_avail&#45;&gt;simple_open -->
<g id="edge7" class="edge">
<title>pcap_create_avail&#45;&gt;simple_open</title>
<path fill="none" stroke="black" d="M446.74,-1224.61C459.88,-1203.31 478.41,-1173.28 493.41,-1148.97"/>
<polygon fill="black" stroke="black" points="496.32,-1150.92 498.59,-1140.57 490.36,-1147.24 496.32,-1150.92"/>
<text xml:space="preserve" text-anchor="middle" x="474.42" y="-1189.69" font-family="Segoe UI" font-size="9.00">no</text>
</g>
<!-- open_result -->
<g id="node9" class="node">
<title>open_result</title>
<ellipse fill="#c8e6c9" stroke="black" cx="427" cy="-982.68" rx="112.61" ry="25.81"/>
<text xml:space="preserve" text-anchor="middle" x="427" y="-987.43" font-family="Segoe UI" font-size="10.00">g_handle = pcap_t*</text>
<text xml:space="preserve" text-anchor="middle" x="427" y="-973.18" font-family="Segoe UI" font-size="10.00">Interface ready for transmission</text>
</g>
<!-- advanced_open&#45;&gt;open_result -->
<g id="edge8" class="edge">
<title>advanced_open&#45;&gt;open_result</title>
<path fill="none" stroke="black" d="M384,-1045.3C390.57,-1035.9 397.15,-1026.47 403.12,-1017.91"/>
<polygon fill="black" stroke="black" points="405.84,-1020.12 408.7,-1009.91 400.1,-1016.11 405.84,-1020.12"/>
</g>
<!-- simple_open&#45;&gt;open_result -->
<g id="edge9" class="edge">
<title>simple_open&#45;&gt;open_result</title>
<path fill="none" stroke="black" d="M495.07,-1073.81C481.92,-1056.4 465.62,-1034.82 452.27,-1017.14"/>
<polygon fill="black" stroke="black" points="455.32,-1015.37 446.5,-1009.5 449.73,-1019.59 455.32,-1015.37"/>
</g>
<!-- mode_select -->
<g id="node10" class="node">
<title>mode_select</title>
<path fill="#e1bee7" stroke="black" d="M415.23,-869.8C415.23,-869.8 347.48,-856.45 347.48,-856.45 341.59,-855.29 341.59,-852.96 347.48,-851.8 347.48,-851.8 415.23,-838.45 415.23,-838.45 421.11,-837.29 432.89,-837.29 438.77,-838.45 438.77,-838.45 506.52,-851.8 506.52,-851.8 512.41,-852.96 512.41,-855.29 506.52,-856.45 506.52,-856.45 438.77,-869.8 438.77,-869.8 432.89,-870.96 421.11,-870.96 415.23,-869.8"/>
<text xml:space="preserve" text-anchor="middle" x="427" y="-851.75" font-family="Segoe UI" font-size="10.00">Which send mode?</text>
</g>
<!-- open_result&#45;&gt;mode_select -->
<g id="edge10" class="edge">
<title>open_result&#45;&gt;mode_select</title>
<path fill="none" stroke="black" d="M427,-956.38C427,-935.42 427,-905.63 427,-883.79"/>
<polygon fill="black" stroke="black" points="430.5,-883.8 427,-873.8 423.5,-883.8 430.5,-883.8"/>
<text xml:space="preserve" text-anchor="middle" x="458.88" y="-930.32" font-family="Segoe UI" font-size="9.00">interface open</text>
<text xml:space="preserve" text-anchor="middle" x="458.88" y="-917.57" font-family="Segoe UI" font-size="9.00">ready to publish</text>
</g>
<!-- auto_mode -->
<g id="node11" class="node">
<title>auto_mode</title>
<path fill="#ce93d8" stroke="black" d="M424.16,-782.22C424.16,-782.22 339.09,-741.78 339.09,-741.78 333.67,-739.2 333.67,-734.05 339.09,-731.47 339.09,-731.47 424.16,-691.03 424.16,-691.03 429.58,-688.45 440.42,-688.45 445.84,-691.03 445.84,-691.03 530.91,-731.47 530.91,-731.47 536.33,-734.05 536.33,-739.2 530.91,-741.78 530.91,-741.78 445.84,-782.22 445.84,-782.22 440.42,-784.8 429.58,-784.8 424.16,-782.22"/>
<text xml:space="preserve" text-anchor="middle" x="435" y="-748.5" font-family="Segoe UI" font-size="10.00">AUTO (0)</text>
<text xml:space="preserve" text-anchor="middle" x="435" y="-734.25" font-family="Segoe UI" font-size="10.00">Check if SendQueue</text>
<text xml:space="preserve" text-anchor="middle" x="435" y="-720" font-family="Segoe UI" font-size="10.00">is available</text>
</g>
<!-- mode_select&#45;&gt;auto_mode -->
<g id="edge11" class="edge">
<title>mode_select&#45;&gt;auto_mode</title>
<path fill="none" stroke="black" d="M428.18,-836.08C428.9,-825.68 429.87,-811.7 430.85,-797.55"/>
<polygon fill="black" stroke="black" points="434.33,-797.95 431.53,-787.73 427.35,-797.47 434.33,-797.95"/>
<text xml:space="preserve" text-anchor="middle" x="448.28" y="-809.57" font-family="Segoe UI" font-size="9.00">AUTO (0)</text>
</g>
<!-- sq_create -->
<g id="node15" class="node">
<title>sq_create</title>
<path fill="#ffe0b2" stroke="black" d="M807.75,-579.5C807.75,-579.5 670.25,-579.5 670.25,-579.5 664.25,-579.5 658.25,-573.5 658.25,-567.5 658.25,-567.5 658.25,-555.5 658.25,-555.5 658.25,-549.5 664.25,-543.5 670.25,-543.5 670.25,-543.5 807.75,-543.5 807.75,-543.5 813.75,-543.5 819.75,-549.5 819.75,-555.5 819.75,-555.5 819.75,-567.5 819.75,-567.5 819.75,-573.5 813.75,-579.5 807.75,-579.5"/>
<text xml:space="preserve" text-anchor="middle" x="739" y="-559.12" font-family="Segoe UI" font-size="10.00">pcap_sendqueue_alloc(memsize)</text>
</g>
<!-- mode_select&#45;&gt;sq_create -->
<g id="edge12" class="edge">
<title>mode_select&#45;&gt;sq_create</title>
<path fill="none" stroke="black" d="M461.61,-842.47C489.24,-832.35 527.15,-814.58 551,-787.37 585.23,-748.33 561.11,-719.8 591.75,-677.87 593.89,-674.94 664.93,-619.78 707.54,-586.81"/>
<polygon fill="black" stroke="black" points="709.46,-589.75 715.23,-580.86 705.17,-584.21 709.46,-589.75"/>
<text xml:space="preserve" text-anchor="middle" x="622.88" y="-734.45" font-family="Segoe UI" font-size="9.00">SENDQUEUE (1)</text>
</g>
<!-- imm_rate -->
<g id="node19" class="node">
<title>imm_rate</title>
<path fill="#c8e6c9" stroke="black" d="M393.45,-576.23C393.45,-576.23 352.91,-564.77 352.91,-564.77 347.14,-563.13 347.14,-559.87 352.91,-558.23 352.91,-558.23 393.45,-546.77 393.45,-546.77 399.23,-545.13 410.77,-545.13 416.55,-546.77 416.55,-546.77 457.09,-558.23 457.09,-558.23 462.86,-559.87 462.86,-563.13 457.09,-564.77 457.09,-564.77 416.55,-576.23 416.55,-576.23 410.77,-577.87 399.23,-577.87 393.45,-576.23"/>
<text xml:space="preserve" text-anchor="middle" x="405" y="-559.12" font-family="Segoe UI" font-size="10.00">Packet rate?</text>
</g>
<!-- mode_select&#45;&gt;imm_rate -->
<g id="edge13" class="edge">
<title>mode_select&#45;&gt;imm_rate</title>
<path fill="none" stroke="black" d="M367.68,-847.46C328.46,-840.29 279.78,-824.06 254.5,-787.37 226.89,-747.3 232.97,-721.52 254.5,-677.87 278.37,-629.51 333.32,-595.79 369.8,-577.79"/>
<polygon fill="black" stroke="black" points="371.13,-581.03 378.65,-573.57 368.12,-574.71 371.13,-581.03"/>
<text xml:space="preserve" text-anchor="middle" x="286.75" y="-734.45" font-family="Segoe UI" font-size="9.00">SENDPACKET (2)</text>
</g>
<!-- usb_pad -->
<g id="node24" class="node">
<title>usb_pad</title>
<path fill="#f8bbd0" stroke="black" d="M160.12,-601.12C160.12,-601.12 27.88,-601.12 27.88,-601.12 21.88,-601.12 15.88,-595.12 15.88,-589.12 15.88,-589.12 15.88,-533.87 15.88,-533.87 15.88,-527.87 21.88,-521.87 27.88,-521.87 27.88,-521.87 160.12,-521.87 160.12,-521.87 166.12,-521.87 172.12,-527.87 172.12,-533.87 172.12,-533.87 172.12,-589.12 172.12,-589.12 172.12,-595.12 166.12,-601.12 160.12,-601.12"/>
<text xml:space="preserve" text-anchor="middle" x="94" y="-587.62" font-family="Segoe UI" font-size="10.00">Frame Padding</text>
<text xml:space="preserve" text-anchor="middle" x="94" y="-573.37" font-family="Segoe UI" font-size="10.00">npcap_send_packet_padded()</text>
<text xml:space="preserve" text-anchor="middle" x="94" y="-559.12" font-family="Segoe UI" font-size="10.00">Pad to usbPadSize bytes</text>
<text xml:space="preserve" text-anchor="middle" x="94" y="-544.87" font-family="Segoe UI" font-size="10.00">(e.g., 256&#45;1522)</text>
<text xml:space="preserve" text-anchor="middle" x="94" y="-530.62" font-family="Segoe UI" font-size="10.00">Prevents USB bulk aggregation</text>
</g>
<!-- mode_select&#45;&gt;usb_pad -->
<g id="edge14" class="edge">
<title>mode_select&#45;&gt;usb_pad</title>
<path fill="none" stroke="black" d="M356.39,-849.59C307.34,-843.45 243.8,-827.58 203.5,-787.37 154.06,-738.04 123.52,-661.94 107.65,-612.17"/>
<polygon fill="black" stroke="black" points="111.05,-611.32 104.75,-602.8 104.36,-613.39 111.05,-611.32"/>
<text xml:space="preserve" text-anchor="middle" x="217.75" y="-734.45" font-family="Segoe UI" font-size="9.00">USB (3)</text>
</g>
<!-- auto_mode&#45;&gt;sq_create -->
<g id="edge15" class="edge">
<title>auto_mode&#45;&gt;sq_create</title>
<path fill="none" stroke="black" d="M459.44,-697.15C474.43,-677.09 495.53,-654.32 520.5,-642.37 545.71,-630.31 619.85,-644.24 646,-634.37 672.58,-624.35 697.75,-603.97 715.19,-587.46"/>
<polygon fill="black" stroke="black" points="717.31,-590.28 722.02,-580.79 712.42,-585.28 717.31,-590.28"/>
<text xml:space="preserve" text-anchor="middle" x="542.25" y="-659.32" font-family="Segoe UI" font-size="9.00">sendqueue</text>
<text xml:space="preserve" text-anchor="middle" x="542.25" y="-646.57" font-family="Segoe UI" font-size="9.00">available</text>
</g>
<!-- auto_mode&#45;&gt;imm_rate -->
<g id="edge16" class="edge">
<title>auto_mode&#45;&gt;imm_rate</title>
<path fill="none" stroke="black" d="M426.96,-689.23C421.48,-657.61 414.41,-616.81 409.79,-590.17"/>
<polygon fill="black" stroke="black" points="413.27,-589.75 408.12,-580.5 406.38,-590.95 413.27,-589.75"/>
<text xml:space="preserve" text-anchor="middle" x="439.94" y="-659.32" font-family="Segoe UI" font-size="9.00">not</text>
<text xml:space="preserve" text-anchor="middle" x="439.94" y="-646.57" font-family="Segoe UI" font-size="9.00">available</text>
</g>
<!-- batch_rate -->
<g id="node12" class="node">
<title>batch_rate</title>
<path fill="#ffe0b2" stroke="black" d="M746.97,-1284.51C746.97,-1284.51 684.03,-1257.48 684.03,-1257.48 678.51,-1255.11 678.51,-1250.38 684.03,-1248.01 684.03,-1248.01 746.97,-1220.98 746.97,-1220.98 752.49,-1218.61 763.51,-1218.61 769.03,-1220.98 769.03,-1220.98 831.97,-1248.01 831.97,-1248.01 837.49,-1250.38 837.49,-1255.11 831.97,-1257.48 831.97,-1257.48 769.03,-1284.51 769.03,-1284.51 763.51,-1286.88 752.49,-1286.88 746.97,-1284.51"/>
<text xml:space="preserve" text-anchor="middle" x="758" y="-1257.49" font-family="Segoe UI" font-size="10.00">Aggregate rate</text>
<text xml:space="preserve" text-anchor="middle" x="758" y="-1243.24" font-family="Segoe UI" font-size="10.00">≤ 4800 pps?</text>
</g>
<!-- tier1 -->
<g id="node13" class="node">
<title>tier1</title>
<path fill="#ffcc80" stroke="black" d="M982.5,-1146.12C982.5,-1146.12 867.5,-1146.12 867.5,-1146.12 861.5,-1146.12 855.5,-1140.12 855.5,-1134.12 855.5,-1134.12 855.5,-1078.87 855.5,-1078.87 855.5,-1072.87 861.5,-1066.87 867.5,-1066.87 867.5,-1066.87 982.5,-1066.87 982.5,-1066.87 988.5,-1066.87 994.5,-1072.87 994.5,-1078.87 994.5,-1078.87 994.5,-1134.12 994.5,-1134.12 994.5,-1140.12 988.5,-1146.12 982.5,-1146.12"/>
<text xml:space="preserve" text-anchor="middle" x="925" y="-1132.62" font-family="Segoe UI" font-size="10.00">TIER 1: Low Rate</text>
<text xml:space="preserve" text-anchor="middle" x="925" y="-1118.37" font-family="Segoe UI" font-size="10.00">1 packet per SendQueue</text>
<text xml:space="preserve" text-anchor="middle" x="925" y="-1104.12" font-family="Segoe UI" font-size="10.00">sync = 1 (kernel pacing)</text>
<text xml:space="preserve" text-anchor="middle" x="925" y="-1089.87" font-family="Segoe UI" font-size="10.00">NdisMSleep handles timing</text>
<text xml:space="preserve" text-anchor="middle" x="925" y="-1075.62" font-family="Segoe UI" font-size="10.00">Accuracy: ~1ms</text>
</g>
<!-- batch_rate&#45;&gt;tier1 -->
<g id="edge18" class="edge">
<title>batch_rate&#45;&gt;tier1</title>
<path fill="none" stroke="black" d="M785.58,-1227.92C808.75,-1207.91 842.55,-1178.71 871.07,-1154.07"/>
<polygon fill="black" stroke="black" points="873.31,-1156.76 878.59,-1147.58 868.74,-1151.47 873.31,-1156.76"/>
<text xml:space="preserve" text-anchor="middle" x="844.63" y="-1189.69" font-family="Segoe UI" font-size="9.00">≤ 4800</text>
</g>
<!-- tier2 -->
<g id="node14" class="node">
<title>tier2</title>
<path fill="#ffcc80" stroke="black" d="M825.62,-1153.24C825.62,-1153.24 690.38,-1153.24 690.38,-1153.24 684.38,-1153.24 678.38,-1147.24 678.38,-1141.24 678.38,-1141.24 678.38,-1071.74 678.38,-1071.74 678.38,-1065.74 684.38,-1059.74 690.38,-1059.74 690.38,-1059.74 825.62,-1059.74 825.62,-1059.74 831.62,-1059.74 837.62,-1065.74 837.62,-1071.74 837.62,-1071.74 837.62,-1141.24 837.62,-1141.24 837.62,-1147.24 831.62,-1153.24 825.62,-1153.24"/>
<text xml:space="preserve" text-anchor="middle" x="758" y="-1139.74" font-family="Segoe UI" font-size="10.00">TIER 2: High Rate</text>
<text xml:space="preserve" text-anchor="middle" x="758" y="-1125.49" font-family="Segoe UI" font-size="10.00">Adaptive batch size</text>
<text xml:space="preserve" text-anchor="middle" x="758" y="-1111.24" font-family="Segoe UI" font-size="10.00">target ~500µs wire time</text>
<text xml:space="preserve" text-anchor="middle" x="758" y="-1096.99" font-family="Segoe UI" font-size="10.00">sync = 0 (blast ASAP)</text>
<text xml:space="preserve" text-anchor="middle" x="758" y="-1082.74" font-family="Segoe UI" font-size="10.00">QPC spin&#45;wait between batches</text>
<text xml:space="preserve" text-anchor="middle" x="758" y="-1068.49" font-family="Segoe UI" font-size="10.00">Re&#45;anchor every 200 batches</text>
</g>
<!-- batch_rate&#45;&gt;tier2 -->
<g id="edge19" class="edge">
<title>batch_rate&#45;&gt;tier2</title>
<path fill="none" stroke="black" d="M758,-1215.71C758,-1200.31 758,-1181.95 758,-1164.77"/>
<polygon fill="black" stroke="black" points="761.5,-1165.2 758,-1155.2 754.5,-1165.2 761.5,-1165.2"/>
<text xml:space="preserve" text-anchor="middle" x="771.12" y="-1189.69" font-family="Segoe UI" font-size="9.00">&gt; 4800</text>
</g>
<!-- sq_add -->
<g id="node16" class="node">
<title>sq_add</title>
<path fill="#ffe0b2" stroke="black" d="M876.25,-1000.93C876.25,-1000.93 753.75,-1000.93 753.75,-1000.93 747.75,-1000.93 741.75,-994.93 741.75,-988.93 741.75,-988.93 741.75,-976.43 741.75,-976.43 741.75,-970.43 747.75,-964.43 753.75,-964.43 753.75,-964.43 876.25,-964.43 876.25,-964.43 882.25,-964.43 888.25,-970.43 888.25,-976.43 888.25,-976.43 888.25,-988.93 888.25,-988.93 888.25,-994.93 882.25,-1000.93 876.25,-1000.93"/>
<text xml:space="preserve" text-anchor="middle" x="815" y="-987.43" font-family="Segoe UI" font-size="10.00">pcap_sendqueue_queue(pkt)</text>
<text xml:space="preserve" text-anchor="middle" x="815" y="-973.18" font-family="Segoe UI" font-size="10.00">× batch_size packets</text>
</g>
<!-- tier1&#45;&gt;sq_add -->
<g id="edge20" class="edge">
<title>tier1&#45;&gt;sq_add</title>
<path fill="none" stroke="black" d="M889.89,-1066.62C872.97,-1047.88 853.15,-1025.93 838.15,-1009.32"/>
<polygon fill="black" stroke="black" points="841.1,-1007.37 831.8,-1002.29 835.91,-1012.06 841.1,-1007.37"/>
</g>
<!-- tier2&#45;&gt;sq_add -->
<g id="edge21" class="edge">
<title>tier2&#45;&gt;sq_add</title>
<path fill="none" stroke="black" d="M779.55,-1059.44C787.14,-1043.23 795.42,-1025.52 802.08,-1011.3"/>
<polygon fill="black" stroke="black" points="805.1,-1013.11 806.16,-1002.57 798.76,-1010.14 805.1,-1013.11"/>
</g>
<!-- sq_create&#45;&gt;batch_rate -->
<g id="edge17" class="edge">
<title>sq_create&#45;&gt;batch_rate</title>
<path fill="none" stroke="black" d="M724.7,-579.96C701.69,-609.87 659,-673.71 659,-735.62 659,-1107.49 659,-1107.49 659,-1107.49 659,-1134.53 656.3,-1143.63 669,-1167.49 680.4,-1188.93 699.32,-1207.99 716.79,-1222.54"/>
<polygon fill="black" stroke="black" points="714.58,-1225.25 724.57,-1228.78 718.96,-1219.79 714.58,-1225.25"/>
</g>
<!-- sq_transmit -->
<g id="node17" class="node">
<title>sq_transmit</title>
<path fill="#ff8a65" stroke="black" stroke-width="2" d="M883,-872.12C883,-872.12 747,-872.12 747,-872.12 741,-872.12 735,-866.12 735,-860.12 735,-860.12 735,-848.12 735,-848.12 735,-842.12 741,-836.12 747,-836.12 747,-836.12 883,-836.12 883,-836.12 889,-836.12 895,-842.12 895,-848.12 895,-848.12 895,-860.12 895,-860.12 895,-866.12 889,-872.12 883,-872.12"/>
<text xml:space="preserve" text-anchor="middle" x="815" y="-851.75" font-family="Segoe UI" font-size="10.00">pcap_sendqueue_transmit(sync)</text>
</g>
<!-- sq_add&#45;&gt;sq_transmit -->
<g id="edge22" class="edge">
<title>sq_add&#45;&gt;sq_transmit</title>
<path fill="none" stroke="black" d="M815,-964.09C815,-943.42 815,-908.85 815,-884.19"/>
<polygon fill="black" stroke="black" points="818.5,-884.49 815,-874.49 811.5,-884.49 818.5,-884.49"/>
</g>
<!-- sq_destroy -->
<g id="node18" class="node">
<title>sq_destroy</title>
<path fill="#ffe0b2" stroke="black" d="M805.38,-754.62C805.38,-754.62 692.62,-754.62 692.62,-754.62 686.62,-754.62 680.62,-748.62 680.62,-742.62 680.62,-742.62 680.62,-730.62 680.62,-730.62 680.62,-724.62 686.62,-718.62 692.62,-718.62 692.62,-718.62 805.38,-718.62 805.38,-718.62 811.38,-718.62 817.38,-724.62 817.38,-730.62 817.38,-730.62 817.38,-742.62 817.38,-742.62 817.38,-748.62 811.38,-754.62 805.38,-754.62"/>
<text xml:space="preserve" text-anchor="middle" x="749" y="-734.25" font-family="Segoe UI" font-size="10.00">pcap_sendqueue_destroy()</text>
</g>
<!-- sq_transmit&#45;&gt;sq_destroy -->
<g id="edge23" class="edge">
<title>sq_transmit&#45;&gt;sq_destroy</title>
<path fill="none" stroke="black" d="M804.98,-835.58C794.25,-816.82 777.11,-786.81 764.61,-764.95"/>
<polygon fill="black" stroke="black" points="767.65,-763.21 759.65,-756.27 761.58,-766.69 767.65,-763.21"/>
</g>
<!-- ndis -->
<g id="node27" class="node">
<title>ndis</title>
<path fill="#ffcdd2" stroke="black" d="M447.88,-245.87C447.88,-245.87 362.12,-245.87 362.12,-245.87 356.12,-245.87 350.12,-239.87 350.12,-233.87 350.12,-233.87 350.12,-221.37 350.12,-221.37 350.12,-215.37 356.12,-209.37 362.12,-209.37 362.12,-209.37 447.88,-209.37 447.88,-209.37 453.88,-209.37 459.88,-215.37 459.88,-221.37 459.88,-221.37 459.88,-233.87 459.88,-233.87 459.88,-239.87 453.88,-245.87 447.88,-245.87"/>
<text xml:space="preserve" text-anchor="middle" x="405" y="-232.37" font-family="Segoe UI" font-size="10.00">NDIS Miniport Driver</text>
<text xml:space="preserve" text-anchor="middle" x="405" y="-218.12" font-family="Segoe UI" font-size="10.00">(kernel mode)</text>
</g>
<!-- sq_transmit&#45;&gt;ndis -->
<g id="edge33" class="edge">
<title>sq_transmit&#45;&gt;ndis</title>
<path fill="none" stroke="#c62828" stroke-width="2" d="M823.5,-835.17C833.28,-812.84 848,-773.29 848,-737.62 848,-737.62 848,-737.62 848,-330.5 848,-254.47 597.04,-235.18 472.9,-230.28"/>
<polygon fill="#c62828" stroke="#c62828" stroke-width="2" points="473.36,-226.8 463.24,-229.93 473.1,-233.79 473.36,-226.8"/>
</g>
<!-- sq_destroy&#45;&gt;sq_create -->
<g id="edge24" class="edge">
<title>sq_destroy&#45;&gt;sq_create</title>
<path fill="none" stroke="black" stroke-dasharray="5,2" d="M748,-718.39C746.29,-688.65 742.75,-627.41 740.66,-591.17"/>
<polygon fill="black" stroke="black" points="744.16,-591.21 740.09,-581.43 737.18,-591.62 744.16,-591.21"/>
<text xml:space="preserve" text-anchor="middle" x="765.9" y="-652.95" font-family="Segoe UI" font-size="9.00">next batch</text>
</g>
<!-- sleep_spin -->
<g id="node20" class="node">
<title>sleep_spin</title>
<path fill="#a5d6a7" stroke="black" d="M622.12,-466C622.12,-466 501.88,-466 501.88,-466 495.88,-466 489.88,-460 489.88,-454 489.88,-454 489.88,-413 489.88,-413 489.88,-407 495.88,-401 501.88,-401 501.88,-401 622.12,-401 622.12,-401 628.12,-401 634.12,-407 634.12,-413 634.12,-413 634.12,-454 634.12,-454 634.12,-460 628.12,-466 622.12,-466"/>
<text xml:space="preserve" text-anchor="middle" x="562" y="-452.5" font-family="Segoe UI" font-size="10.00">≤ 4800 pps: SLEEP+SPIN</text>
<text xml:space="preserve" text-anchor="middle" x="562" y="-438.25" font-family="Segoe UI" font-size="10.00">sleep_for(80% of interval)</text>
<text xml:space="preserve" text-anchor="middle" x="562" y="-424" font-family="Segoe UI" font-size="10.00">then spin remaining 20%</text>
<text xml:space="preserve" text-anchor="middle" x="562" y="-409.75" font-family="Segoe UI" font-size="10.00">Best: balanced CPU/accuracy</text>
</g>
<!-- imm_rate&#45;&gt;sleep_spin -->
<g id="edge25" class="edge">
<title>imm_rate&#45;&gt;sleep_spin</title>
<path fill="none" stroke="black" d="M420.92,-547.72C442.44,-530.45 481.76,-498.89 513.44,-473.47"/>
<polygon fill="black" stroke="black" points="515.36,-476.42 520.97,-467.43 510.98,-470.96 515.36,-476.42"/>
<text xml:space="preserve" text-anchor="middle" x="501.33" y="-495.32" font-family="Segoe UI" font-size="9.00">≤ 4800</text>
</g>
<!-- pure_spin -->
<g id="node21" class="node">
<title>pure_spin</title>
<path fill="#a5d6a7" stroke="black" d="M308,-466C308,-466 208,-466 208,-466 202,-466 196,-460 196,-454 196,-454 196,-413 196,-413 196,-407 202,-401 208,-401 208,-401 308,-401 308,-401 314,-401 320,-407 320,-413 320,-413 320,-454 320,-454 320,-460 314,-466 308,-466"/>
<text xml:space="preserve" text-anchor="middle" x="258" y="-452.5" font-family="Segoe UI" font-size="10.00">≤ 50000 pps: PURE SPIN</text>
<text xml:space="preserve" text-anchor="middle" x="258" y="-438.25" font-family="Segoe UI" font-size="10.00">_mm_pause() tight loop</text>
<text xml:space="preserve" text-anchor="middle" x="258" y="-424" font-family="Segoe UI" font-size="10.00">on QPC counter</text>
<text xml:space="preserve" text-anchor="middle" x="258" y="-409.75" font-family="Segoe UI" font-size="10.00">Best: sub&#45;µs accuracy</text>
</g>
<!-- imm_rate&#45;&gt;pure_spin -->
<g id="edge26" class="edge">
<title>imm_rate&#45;&gt;pure_spin</title>
<path fill="none" stroke="black" d="M389.82,-547.49C369.66,-530.21 333.15,-498.92 303.66,-473.64"/>
<polygon fill="black" stroke="black" points="306.18,-471.18 296.31,-467.33 301.62,-476.5 306.18,-471.18"/>
<text xml:space="preserve" text-anchor="middle" x="351.28" y="-495.32" font-family="Segoe UI" font-size="9.00">≤ 50000</text>
</g>
<!-- no_wait -->
<g id="node22" class="node">
<title>no_wait</title>
<path fill="#a5d6a7" stroke="black" d="M459.5,-458.87C459.5,-458.87 350.5,-458.87 350.5,-458.87 344.5,-458.87 338.5,-452.87 338.5,-446.87 338.5,-446.87 338.5,-420.12 338.5,-420.12 338.5,-414.12 344.5,-408.12 350.5,-408.12 350.5,-408.12 459.5,-408.12 459.5,-408.12 465.5,-408.12 471.5,-414.12 471.5,-420.12 471.5,-420.12 471.5,-446.87 471.5,-446.87 471.5,-452.87 465.5,-458.87 459.5,-458.87"/>
<text xml:space="preserve" text-anchor="middle" x="405" y="-445.37" font-family="Segoe UI" font-size="10.00">&gt; 50000 pps: NO PACING</text>
<text xml:space="preserve" text-anchor="middle" x="405" y="-431.12" font-family="Segoe UI" font-size="10.00">Blast as fast as NIC allows</text>
<text xml:space="preserve" text-anchor="middle" x="405" y="-416.87" font-family="Segoe UI" font-size="10.00">NIC is the bottleneck</text>
</g>
<!-- imm_rate&#45;&gt;no_wait -->
<g id="edge27" class="edge">
<title>imm_rate&#45;&gt;no_wait</title>
<path fill="none" stroke="black" d="M405,-543.24C405,-524.68 405,-494.61 405,-470.8"/>
<polygon fill="black" stroke="black" points="408.5,-470.86 405,-460.86 401.5,-470.86 408.5,-470.86"/>
<text xml:space="preserve" text-anchor="middle" x="420.38" y="-495.32" font-family="Segoe UI" font-size="9.00">&gt; 50000</text>
</g>
<!-- sendpacket -->
<g id="node23" class="node">
<title>sendpacket</title>
<path fill="#81c784" stroke="black" stroke-width="2" d="M465.12,-349.5C465.12,-349.5 344.88,-349.5 344.88,-349.5 338.88,-349.5 332.88,-343.5 332.88,-337.5 332.88,-337.5 332.88,-325.5 332.88,-325.5 332.88,-319.5 338.88,-313.5 344.88,-313.5 344.88,-313.5 465.12,-313.5 465.12,-313.5 471.12,-313.5 477.12,-319.5 477.12,-325.5 477.12,-325.5 477.12,-337.5 477.12,-337.5 477.12,-343.5 471.12,-349.5 465.12,-349.5"/>
<text xml:space="preserve" text-anchor="middle" x="405" y="-329.12" font-family="Segoe UI" font-size="10.00">pcap_sendpacket(frame, len)</text>
</g>
<!-- sleep_spin&#45;&gt;sendpacket -->
<g id="edge28" class="edge">
<title>sleep_spin&#45;&gt;sendpacket</title>
<path fill="none" stroke="black" d="M511.89,-400.58C489.43,-386.27 463.37,-369.68 442.61,-356.46"/>
<polygon fill="black" stroke="black" points="444.77,-353.68 434.46,-351.26 441.01,-359.59 444.77,-353.68"/>
</g>
<!-- pure_spin&#45;&gt;sendpacket -->
<g id="edge29" class="edge">
<title>pure_spin&#45;&gt;sendpacket</title>
<path fill="none" stroke="black" d="M304.92,-400.58C325.76,-386.4 349.9,-369.98 369.25,-356.82"/>
<polygon fill="black" stroke="black" points="371.06,-359.82 377.36,-351.3 367.12,-354.03 371.06,-359.82"/>
</g>
<!-- no_wait&#45;&gt;sendpacket -->
<g id="edge30" class="edge">
<title>no_wait&#45;&gt;sendpacket</title>
<path fill="none" stroke="black" d="M405,-407.78C405,-393.86 405,-376.4 405,-361.8"/>
<polygon fill="black" stroke="black" points="408.5,-361.86 405,-351.86 401.5,-361.86 408.5,-361.86"/>
</g>
<!-- sendpacket&#45;&gt;ndis -->
<g id="edge34" class="edge">
<title>sendpacket&#45;&gt;ndis</title>
<path fill="none" stroke="#c62828" stroke-width="2" d="M405,-312.75C405,-298 405,-276.66 405,-259.17"/>
<polygon fill="#c62828" stroke="#c62828" stroke-width="2" points="408.5,-259.19 405,-249.19 401.5,-259.19 408.5,-259.19"/>
</g>
<!-- usb_gap -->
<g id="node25" class="node">
<title>usb_gap</title>
<path fill="#f8bbd0" stroke="black" d="M157.75,-473.12C157.75,-473.12 38.25,-473.12 38.25,-473.12 32.25,-473.12 26.25,-467.12 26.25,-461.12 26.25,-461.12 26.25,-405.87 26.25,-405.87 26.25,-399.87 32.25,-393.87 38.25,-393.87 38.25,-393.87 157.75,-393.87 157.75,-393.87 163.75,-393.87 169.75,-399.87 169.75,-405.87 169.75,-405.87 169.75,-461.12 169.75,-461.12 169.75,-467.12 163.75,-473.12 157.75,-473.12"/>
<text xml:space="preserve" text-anchor="middle" x="98" y="-459.62" font-family="Segoe UI" font-size="10.00">Minimum Gap</text>
<text xml:space="preserve" text-anchor="middle" x="98" y="-445.37" font-family="Segoe UI" font-size="10.00">Forced SPIN pacing</text>
<text xml:space="preserve" text-anchor="middle" x="98" y="-431.12" font-family="Segoe UI" font-size="10.00">usbMinGapUs microseconds</text>
<text xml:space="preserve" text-anchor="middle" x="98" y="-416.87" font-family="Segoe UI" font-size="10.00">(default 130µs)</text>
<text xml:space="preserve" text-anchor="middle" x="98" y="-402.62" font-family="Segoe UI" font-size="10.00">Respects USB microframes</text>
</g>
<!-- usb_pad&#45;&gt;usb_gap -->
<g id="edge31" class="edge">
<title>usb_pad&#45;&gt;usb_gap</title>
<path fill="none" stroke="black" d="M95.23,-521.67C95.6,-510.05 96.01,-497.14 96.4,-484.89"/>
<polygon fill="black" stroke="black" points="99.9,-485.04 96.72,-474.93 92.9,-484.82 99.9,-485.04"/>
</g>
<!-- usb_send -->
<g id="node26" class="node">
<title>usb_send</title>
<path fill="#f48fb1" stroke="black" stroke-width="2" d="M157.88,-356.87C157.88,-356.87 42.12,-356.87 42.12,-356.87 36.12,-356.87 30.12,-350.87 30.12,-344.87 30.12,-344.87 30.12,-318.12 30.12,-318.12 30.12,-312.12 36.12,-306.12 42.12,-306.12 42.12,-306.12 157.88,-306.12 157.88,-306.12 163.88,-306.12 169.88,-312.12 169.88,-318.12 169.88,-318.12 169.88,-344.87 169.88,-344.87 169.88,-350.87 163.88,-356.87 157.88,-356.87"/>
<text xml:space="preserve" text-anchor="middle" x="100" y="-343.37" font-family="Segoe UI" font-size="10.00">pcap_sendpacket(</text>
<text xml:space="preserve" text-anchor="middle" x="100" y="-329.12" font-family="Segoe UI" font-size="10.00"> &#160;paddedFrame, paddedLen</text>
<text xml:space="preserve" text-anchor="middle" x="100" y="-314.87" font-family="Segoe UI" font-size="10.00">)</text>
</g>
<!-- usb_gap&#45;&gt;usb_send -->
<g id="edge32" class="edge">
<title>usb_gap&#45;&gt;usb_send</title>
<path fill="none" stroke="black" d="M98.78,-393.55C98.94,-385.44 99.11,-376.93 99.27,-368.92"/>
<polygon fill="black" stroke="black" points="102.77,-369.23 99.47,-359.16 95.77,-369.09 102.77,-369.23"/>
</g>
<!-- usb_send&#45;&gt;ndis -->
<g id="edge35" class="edge">
<title>usb_send&#45;&gt;ndis</title>
<path fill="none" stroke="#c62828" stroke-width="2" d="M164.51,-305.16C171.07,-302.73 177.66,-300.34 184,-298.12 235.08,-280.27 293.51,-261.99 337.45,-248.66"/>
<polygon fill="#c62828" stroke="#c62828" stroke-width="2" points="338.28,-252.06 346.84,-245.82 336.25,-245.36 338.28,-252.06"/>
</g>
<!-- nic -->
<g id="node28" class="node">
<title>nic</title>
<polygon fill="#ffcdd2" stroke="black" points="444.5,-172.37 369.5,-172.37 365.5,-168.37 365.5,-135.87 440.5,-135.87 444.5,-139.87 444.5,-172.37"/>
<polyline fill="none" stroke="black" points="440.5,-168.37 365.5,-168.37"/>
<polyline fill="none" stroke="black" points="440.5,-168.37 440.5,-135.87"/>
<polyline fill="none" stroke="black" points="440.5,-168.37 444.5,-172.37"/>
<text xml:space="preserve" text-anchor="middle" x="405" y="-158.87" font-family="Segoe UI" font-size="10.00">NIC Hardware</text>
<text xml:space="preserve" text-anchor="middle" x="405" y="-144.62" font-family="Segoe UI" font-size="10.00">(PCIe or USB)</text>
</g>
<!-- ndis&#45;&gt;nic -->
<g id="edge36" class="edge">
<title>ndis&#45;&gt;nic</title>
<path fill="none" stroke="#c62828" stroke-width="2" d="M405,-208.95C405,-201.85 405,-193.46 405,-185.44"/>
<polygon fill="#c62828" stroke="#c62828" stroke-width="2" points="408.5,-185.62 405,-175.62 401.5,-185.62 408.5,-185.62"/>
</g>
<!-- wire -->
<g id="node29" class="node">
<title>wire</title>
<path fill="#ef9a9a" stroke="black" d="M468.42,-66.54C468.42,-66.54 448.44,-89.77 448.44,-89.77 444.53,-94.32 434.62,-98.87 428.62,-98.87 428.62,-98.87 381.38,-98.87 381.38,-98.87 375.38,-98.87 365.47,-94.32 361.56,-89.77 361.56,-89.77 341.58,-66.54 341.58,-66.54 337.67,-61.99 337.67,-52.89 341.58,-48.34 341.58,-48.34 361.56,-25.1 361.56,-25.1 365.47,-20.55 375.38,-16 381.38,-16 381.38,-16 428.62,-16 428.62,-16 434.62,-16 444.53,-20.55 448.44,-25.1 448.44,-25.1 468.42,-48.34 468.42,-48.34 472.33,-52.89 472.33,-61.99 468.42,-66.54"/>
<text xml:space="preserve" text-anchor="middle" x="405" y="-69.31" font-family="Segoe UI" font-size="10.00">Ethernet Wire</text>
<text xml:space="preserve" text-anchor="middle" x="405" y="-55.06" font-family="Segoe UI" font-size="10.00">IEC 61850&#45;9&#45;2LE</text>
<text xml:space="preserve" text-anchor="middle" x="405" y="-40.81" font-family="Segoe UI" font-size="10.00">SV Frames</text>
</g>
<!-- nic&#45;&gt;wire -->
<g id="edge37" class="edge">
<title>nic&#45;&gt;wire</title>
<path fill="none" stroke="#c62828" stroke-width="3" d="M405,-135.76C405,-129.35 405,-121.7 405,-113.74"/>
<polygon fill="#c62828" stroke="#c62828" stroke-width="3" points="408.5,-113.82 405,-103.82 401.5,-113.82 408.5,-113.82"/>
</g>
</g>
</svg>
