<?xml version="1.0" encoding="UTF-8" standalone="no"?>
<!DOCTYPE svg PUBLIC "-//W3C//DTD SVG 1.1//EN"
 "http://www.w3.org/Graphics/SVG/1.1/DTD/svg11.dtd">
<!-- Generated by graphviz version 14.1.2 (20260124.0452)
 -->
<!-- Title: PacketEncodingFlow Pages: 1 -->
<svg width="472pt" height="1644pt"
 viewBox="0.00 0.00 472.00 1644.00" xmlns="http://www.w3.org/2000/svg" xmlns:xlink="http://www.w3.org/1999/xlink">
<g id="graph0" class="graph" transform="scale(1 1) rotate(0) translate(4 1640.25)">
<title>PacketEncodingFlow</title>
<polygon fill="white" stroke="none" points="-4,4 -4,-1640.25 468,-1640.25 468,4 -4,4"/>
<text xml:space="preserve" text-anchor="middle" x="232" y="-1620.85" font-family="Segoe UI" font-size="12.00">IEC 61850&#45;9&#45;2LE Packet Encoding Flow</text>
<text xml:space="preserve" text-anchor="middle" x="232" y="-1603.6" font-family="Segoe UI" font-size="12.00">(sv_encoder_encode_packet)</text>
<g id="clust1" class="cluster">
<title>cluster_input</title>
<path fill="#e3f2fd" stroke="#1565c0" d="M20,-1465.25C20,-1465.25 444,-1465.25 444,-1465.25 450,-1465.25 456,-1471.25 456,-1477.25 456,-1477.25 456,-1573.75 456,-1573.75 456,-1579.75 450,-1585.75 444,-1585.75 444,-1585.75 20,-1585.75 20,-1585.75 14,-1585.75 8,-1579.75 8,-1573.75 8,-1573.75 8,-1477.25 8,-1477.25 8,-1471.25 14,-1465.25 20,-1465.25"/>
<text xml:space="preserve" text-anchor="middle" x="232" y="-1570.35" font-family="Segoe UI" font-size="12.00">Inputs</text>
</g>
<g id="clust2" class="cluster">
<title>cluster_asdu</title>
<path fill="#f3e5f5" stroke="#6a1b9a" d="M227,-275.75C227,-275.75 355,-275.75 355,-275.75 361,-275.75 367,-281.75 367,-287.75 367,-287.75 367,-735.25 367,-735.25 367,-741.25 361,-747.25 355,-747.25 355,-747.25 227,-747.25 227,-747.25 221,-747.25 215,-741.25 215,-735.25 215,-735.25 215,-287.75 215,-287.75 215,-281.75 221,-275.75 227,-275.75"/>
<text xml:space="preserve" text-anchor="middle" x="291" y="-731.85" font-family="Segoe UI" font-size="12.00">Inside each ASDU (0x30)</text>
</g>
<g id="clust3" class="cluster">
<title>cluster_output</title>
<path fill="#ffebee" stroke="#c62828" d="M217,-8C217,-8 365,-8 365,-8 371,-8 377,-14 377,-20 377,-20 377,-157 377,-157 377,-163 371,-169 365,-169 365,-169 217,-169 217,-169 211,-169 205,-163 205,-157 205,-157 205,-20 205,-20 205,-14 211,-8 217,-8"/>
<text xml:space="preserve" text-anchor="middle" x="291" y="-153.6" font-family="Segoe UI" font-size="12.00">Output</text>
</g>
<!-- smpCnt -->
<g id="node1" class="node">
<title>smpCnt</title>
<path fill="#bbdefb" stroke="black" d="M136.12,-1531.12C136.12,-1531.12 27.88,-1531.12 27.88,-1531.12 21.88,-1531.12 15.88,-1525.12 15.88,-1519.12 15.88,-1519.12 15.88,-1506.62 15.88,-1506.62 15.88,-1500.62 21.88,-1494.62 27.88,-1494.62 27.88,-1494.62 136.12,-1494.62 136.12,-1494.62 142.12,-1494.62 148.12,-1500.62 148.12,-1506.62 148.12,-1506.62 148.12,-1519.12 148.12,-1519.12 148.12,-1525.12 142.12,-1531.12 136.12,-1531.12"/>
<text xml:space="preserve" text-anchor="middle" x="82" y="-1517.62" font-family="Segoe UI" font-size="10.00">smpCnt (uint32)</text>
<text xml:space="preserve" text-anchor="middle" x="82" y="-1503.38" font-family="Segoe UI" font-size="10.00">Sample counter 0..(rate&#45;1)</text>
</g>
<!-- step7 -->
<g id="node12" class="node">
<title>step7</title>
<path fill="#e1bee7" stroke="#6a1b9a" d="M265.12,-825C265.12,-825 180.88,-825 180.88,-825 174.88,-825 168.88,-819 168.88,-813 168.88,-813 168.88,-786.25 168.88,-786.25 168.88,-780.25 174.88,-774.25 180.88,-774.25 180.88,-774.25 265.12,-774.25 265.12,-774.25 271.12,-774.25 277.12,-780.25 277.12,-786.25 277.12,-786.25 277.12,-813 277.12,-813 277.12,-819 271.12,-825 265.12,-825"/>
<text xml:space="preserve" text-anchor="middle" x="223" y="-811.5" font-family="Segoe UI" font-size="10.00">⑦ Write ASDU Block</text>
<text xml:space="preserve" text-anchor="middle" x="223" y="-797.25" font-family="Segoe UI" font-size="10.00">Tag: 0x30</text>
<text xml:space="preserve" text-anchor="middle" x="223" y="-783" font-family="Segoe UI" font-size="10.00">Length: (calculated)</text>
</g>
<!-- smpCnt&#45;&gt;step7 -->
<g id="edge2" class="edge">
<title>smpCnt&#45;&gt;step7</title>
<path fill="none" stroke="black" stroke-dasharray="5,2" d="M75.59,-1494.34C69.41,-1475.86 61,-1445.78 61,-1419 61,-1419 61,-1419 61,-886.38 61,-840.46 112.45,-819.07 157.36,-809.13"/>
<polygon fill="black" stroke="black" points="158.02,-812.57 167.12,-807.15 156.63,-805.71 158.02,-812.57"/>
</g>
<!-- samples -->
<g id="node2" class="node">
<title>samples</title>
<path fill="#bbdefb" stroke="black" d="M436,-1538.25C436,-1538.25 336,-1538.25 336,-1538.25 330,-1538.25 324,-1532.25 324,-1526.25 324,-1526.25 324,-1499.5 324,-1499.5 324,-1493.5 330,-1487.5 336,-1487.5 336,-1487.5 436,-1487.5 436,-1487.5 442,-1487.5 448,-1493.5 448,-1499.5 448,-1499.5 448,-1526.25 448,-1526.25 448,-1532.25 442,-1538.25 436,-1538.25"/>
<text xml:space="preserve" text-anchor="middle" x="386" y="-1524.75" font-family="Segoe UI" font-size="10.00">samples[channelCount]</text>
<text xml:space="preserve" text-anchor="middle" x="386" y="-1510.5" font-family="Segoe UI" font-size="10.00">int32_t channel values</text>
<text xml:space="preserve" text-anchor="middle" x="386" y="-1496.25" font-family="Segoe UI" font-size="10.00">from EquationProcessor</text>
</g>
<!-- seqdata -->
<g id="node17" class="node">
<title>seqdata</title>
<path fill="#ba68c8" stroke="black" stroke-width="2" d="M347.38,-363C347.38,-363 234.62,-363 234.62,-363 228.62,-363 222.62,-357 222.62,-351 222.62,-351 222.62,-295.75 222.62,-295.75 222.62,-289.75 228.62,-283.75 234.62,-283.75 234.62,-283.75 347.38,-283.75 347.38,-283.75 353.38,-283.75 359.38,-289.75 359.38,-295.75 359.38,-295.75 359.38,-351 359.38,-351 359.38,-357 353.38,-363 347.38,-363"/>
<text xml:space="preserve" text-anchor="middle" x="291" y="-349.5" font-family="Segoe UI" font-size="10.00">seqData [0x87]</text>
<text xml:space="preserve" text-anchor="middle" x="291" y="-335.25" font-family="Segoe UI" font-size="10.00">Length: channelCount × 8</text>
<text xml:space="preserve" text-anchor="middle" x="291" y="-321" font-family="Segoe UI" font-size="10.00">For each channel:</text>
<text xml:space="preserve" text-anchor="middle" x="291" y="-306.75" font-family="Segoe UI" font-size="10.00"> &#160;[Value: 4B big&#45;endian]</text>
<text xml:space="preserve" text-anchor="middle" x="291" y="-292.5" font-family="Segoe UI" font-size="10.00"> &#160;[Quality: 0x00000000 (4B)]</text>
</g>
<!-- samples&#45;&gt;seqdata -->
<g id="edge3" class="edge">
<title>samples&#45;&gt;seqdata</title>
<path fill="none" stroke="black" stroke-dasharray="5,2" d="M394.25,-1487.35C399.76,-1468.8 406,-1442.59 406,-1419 406,-1419 406,-1419 406,-424.38 406,-398.91 389.74,-378.45 369.45,-362.84"/>
<polygon fill="black" stroke="black" points="371.62,-360.09 361.45,-357.11 367.54,-365.78 371.62,-360.09"/>
</g>
<!-- config -->
<g id="node3" class="node">
<title>config</title>
<path fill="#bbdefb" stroke="black" d="M294.25,-1552.5C294.25,-1552.5 177.75,-1552.5 177.75,-1552.5 171.75,-1552.5 165.75,-1546.5 165.75,-1540.5 165.75,-1540.5 165.75,-1485.25 165.75,-1485.25 165.75,-1479.25 171.75,-1473.25 177.75,-1473.25 177.75,-1473.25 294.25,-1473.25 294.25,-1473.25 300.25,-1473.25 306.25,-1479.25 306.25,-1485.25 306.25,-1485.25 306.25,-1540.5 306.25,-1540.5 306.25,-1546.5 300.25,-1552.5 294.25,-1552.5"/>
<text xml:space="preserve" text-anchor="middle" x="236" y="-1539" font-family="Segoe UI" font-size="10.00">SvEncoderConfig</text>
<text xml:space="preserve" text-anchor="middle" x="236" y="-1524.75" font-family="Segoe UI" font-size="10.00">• svID, appID, confRev</text>
<text xml:space="preserve" text-anchor="middle" x="236" y="-1510.5" font-family="Segoe UI" font-size="10.00">• srcMAC, dstMAC</text>
<text xml:space="preserve" text-anchor="middle" x="236" y="-1496.25" font-family="Segoe UI" font-size="10.00">• vlanID, vlanPriority</text>
<text xml:space="preserve" text-anchor="middle" x="236" y="-1482" font-family="Segoe UI" font-size="10.00">• asduCount, channelCount</text>
</g>
<!-- step1 -->
<g id="node4" class="node">
<title>step1</title>
<path fill="#c8e6c9" stroke="#2e7d32" d="M289.75,-1436.25C289.75,-1436.25 182.25,-1436.25 182.25,-1436.25 176.25,-1436.25 170.25,-1430.25 170.25,-1424.25 170.25,-1424.25 170.25,-1411.75 170.25,-1411.75 170.25,-1405.75 176.25,-1399.75 182.25,-1399.75 182.25,-1399.75 289.75,-1399.75 289.75,-1399.75 295.75,-1399.75 301.75,-1405.75 301.75,-1411.75 301.75,-1411.75 301.75,-1424.25 301.75,-1424.25 301.75,-1430.25 295.75,-1436.25 289.75,-1436.25"/>
<text xml:space="preserve" text-anchor="middle" x="236" y="-1422.75" font-family="Segoe UI" font-size="10.00">① Write Ethernet Header</text>
<text xml:space="preserve" text-anchor="middle" x="236" y="-1408.5" font-family="Segoe UI" font-size="10.00">[DstMAC: 6B][SrcMAC: 6B]</text>
</g>
<!-- config&#45;&gt;step1 -->
<g id="edge1" class="edge">
<title>config&#45;&gt;step1</title>
<path fill="none" stroke="black" d="M236,-1472.76C236,-1464.33 236,-1455.57 236,-1447.63"/>
<polygon fill="black" stroke="black" points="239.5,-1447.87 236,-1437.87 232.5,-1447.87 239.5,-1447.87"/>
</g>
<!-- vlan_check -->
<g id="node5" class="node">
<title>vlan_check</title>
<path fill="#fff9c4" stroke="black" d="M224.47,-1359.42C224.47,-1359.42 185.24,-1348.08 185.24,-1348.08 179.48,-1346.42 179.48,-1343.08 185.24,-1341.42 185.24,-1341.42 224.47,-1330.08 224.47,-1330.08 230.24,-1328.42 241.76,-1328.42 247.53,-1330.08 247.53,-1330.08 286.76,-1341.42 286.76,-1341.42 292.52,-1343.08 292.52,-1346.42 286.76,-1348.08 286.76,-1348.08 247.53,-1359.42 247.53,-1359.42 241.76,-1361.08 230.24,-1361.08 224.47,-1359.42"/>
<text xml:space="preserve" text-anchor="middle" x="236" y="-1342.38" font-family="Segoe UI" font-size="10.00">vlanID &gt; 0 ?</text>
</g>
<!-- step1&#45;&gt;vlan_check -->
<g id="edge4" class="edge">
<title>step1&#45;&gt;vlan_check</title>
<path fill="none" stroke="black" d="M236,-1399.39C236,-1391.88 236,-1382.93 236,-1374.5"/>
<polygon fill="black" stroke="black" points="239.5,-1374.67 236,-1364.67 232.5,-1374.67 239.5,-1374.67"/>
</g>
<!-- step2a -->
<g id="node6" class="node">
<title>step2a</title>
<path fill="#c8e6c9" stroke="#2e7d32" d="M365.62,-1278C365.62,-1278 254.38,-1278 254.38,-1278 248.38,-1278 242.38,-1272 242.38,-1266 242.38,-1266 242.38,-1239.25 242.38,-1239.25 242.38,-1233.25 248.38,-1227.25 254.38,-1227.25 254.38,-1227.25 365.62,-1227.25 365.62,-1227.25 371.62,-1227.25 377.62,-1233.25 377.62,-1239.25 377.62,-1239.25 377.62,-1266 377.62,-1266 377.62,-1272 371.62,-1278 365.62,-1278"/>
<text xml:space="preserve" text-anchor="middle" x="310" y="-1264.5" font-family="Segoe UI" font-size="10.00">② Write 802.1Q VLAN Tag</text>
<text xml:space="preserve" text-anchor="middle" x="310" y="-1250.25" font-family="Segoe UI" font-size="10.00">[0x81 0x00][Priority|VID]</text>
<text xml:space="preserve" text-anchor="middle" x="310" y="-1236" font-family="Segoe UI" font-size="10.00">[0x88 0xBA] (SV EtherType)</text>
</g>
<!-- vlan_check&#45;&gt;step2a -->
<g id="edge5" class="edge">
<title>vlan_check&#45;&gt;step2a</title>
<path fill="none" stroke="black" d="M247.56,-1329.67C256.85,-1318.35 270.29,-1301.99 282.32,-1287.33"/>
<polygon fill="black" stroke="black" points="284.98,-1289.61 288.62,-1279.66 279.57,-1285.17 284.98,-1289.61"/>
<text xml:space="preserve" text-anchor="middle" x="279.38" y="-1300.2" font-family="Segoe UI" font-size="9.00">yes</text>
</g>
<!-- step2b -->
<g id="node7" class="node">
<title>step2b</title>
<path fill="#c8e6c9" stroke="#2e7d32" d="M212.62,-1270.88C212.62,-1270.88 101.38,-1270.88 101.38,-1270.88 95.38,-1270.88 89.38,-1264.88 89.38,-1258.88 89.38,-1258.88 89.38,-1246.38 89.38,-1246.38 89.38,-1240.38 95.38,-1234.38 101.38,-1234.38 101.38,-1234.38 212.62,-1234.38 212.62,-1234.38 218.62,-1234.38 224.62,-1240.38 224.62,-1246.38 224.62,-1246.38 224.62,-1258.88 224.62,-1258.88 224.62,-1264.88 218.62,-1270.88 212.62,-1270.88"/>
<text xml:space="preserve" text-anchor="middle" x="157" y="-1257.38" font-family="Segoe UI" font-size="10.00">② Write EtherType directly</text>
<text xml:space="preserve" text-anchor="middle" x="157" y="-1243.12" font-family="Segoe UI" font-size="10.00">[0x88 0xBA] (SV)</text>
</g>
<!-- vlan_check&#45;&gt;step2b -->
<g id="edge6" class="edge">
<title>vlan_check&#45;&gt;step2b</title>
<path fill="none" stroke="black" d="M224,-1330.06C212.35,-1316.77 194.35,-1296.24 179.94,-1279.8"/>
<polygon fill="black" stroke="black" points="182.59,-1277.51 173.37,-1272.3 177.33,-1282.13 182.59,-1277.51"/>
<text xml:space="preserve" text-anchor="middle" x="208.83" y="-1300.2" font-family="Segoe UI" font-size="9.00">no</text>
</g>
<!-- step3 -->
<g id="node8" class="node">
<title>step3</title>
<path fill="#c8e6c9" stroke="#2e7d32" d="M276.38,-1190.25C276.38,-1190.25 169.62,-1190.25 169.62,-1190.25 163.62,-1190.25 157.62,-1184.25 157.62,-1178.25 157.62,-1178.25 157.62,-1137.25 157.62,-1137.25 157.62,-1131.25 163.62,-1125.25 169.62,-1125.25 169.62,-1125.25 276.38,-1125.25 276.38,-1125.25 282.38,-1125.25 288.38,-1131.25 288.38,-1137.25 288.38,-1137.25 288.38,-1178.25 288.38,-1178.25 288.38,-1184.25 282.38,-1190.25 276.38,-1190.25"/>
<text xml:space="preserve" text-anchor="middle" x="223" y="-1176.75" font-family="Segoe UI" font-size="10.00">③ Write SV APDU Header</text>
<text xml:space="preserve" text-anchor="middle" x="223" y="-1162.5" font-family="Segoe UI" font-size="10.00">[APPID: 2B][Length: 2B]</text>
<text xml:space="preserve" text-anchor="middle" x="223" y="-1148.25" font-family="Segoe UI" font-size="10.00">[Reserved1: 0x0000]</text>
<text xml:space="preserve" text-anchor="middle" x="223" y="-1134" font-family="Segoe UI" font-size="10.00">[Reserved2: 0x0000]</text>
</g>
<!-- step2a&#45;&gt;step3 -->
<g id="edge7" class="edge">
<title>step2a&#45;&gt;step3</title>
<path fill="none" stroke="black" d="M287.14,-1227.22C279.04,-1218.58 269.7,-1208.6 260.7,-1198.99"/>
<polygon fill="black" stroke="black" points="263.34,-1196.69 253.94,-1191.78 258.23,-1201.48 263.34,-1196.69"/>
</g>
<!-- step2b&#45;&gt;step3 -->
<g id="edge8" class="edge">
<title>step2b&#45;&gt;step3</title>
<path fill="none" stroke="black" d="M169.41,-1234.16C176.38,-1224.36 185.38,-1211.69 194,-1199.55"/>
<polygon fill="black" stroke="black" points="196.67,-1201.84 199.61,-1191.66 190.97,-1197.78 196.67,-1201.84"/>
</g>
<!-- step4 -->
<g id="node9" class="node">
<title>step4</title>
<path fill="#c8e6c9" stroke="#2e7d32" d="M278.25,-1088.25C278.25,-1088.25 167.75,-1088.25 167.75,-1088.25 161.75,-1088.25 155.75,-1082.25 155.75,-1076.25 155.75,-1076.25 155.75,-1049.5 155.75,-1049.5 155.75,-1043.5 161.75,-1037.5 167.75,-1037.5 167.75,-1037.5 278.25,-1037.5 278.25,-1037.5 284.25,-1037.5 290.25,-1043.5 290.25,-1049.5 290.25,-1049.5 290.25,-1076.25 290.25,-1076.25 290.25,-1082.25 284.25,-1088.25 278.25,-1088.25"/>
<text xml:space="preserve" text-anchor="middle" x="223" y="-1074.75" font-family="Segoe UI" font-size="10.00">④ Write savPdu Container</text>
<text xml:space="preserve" text-anchor="middle" x="223" y="-1060.5" font-family="Segoe UI" font-size="10.00">Tag: 0x60</text>
<text xml:space="preserve" text-anchor="middle" x="223" y="-1046.25" font-family="Segoe UI" font-size="10.00">Length: (calculated)</text>
</g>
<!-- step3&#45;&gt;step4 -->
<g id="edge9" class="edge">
<title>step3&#45;&gt;step4</title>
<path fill="none" stroke="black" d="M223,-1124.79C223,-1116.82 223,-1108.22 223,-1100.07"/>
<polygon fill="black" stroke="black" points="226.5,-1100.07 223,-1090.07 219.5,-1100.07 226.5,-1100.07"/>
</g>
<!-- step5 -->
<g id="node10" class="node">
<title>step5</title>
<path fill="#c8e6c9" stroke="#2e7d32" d="M262.5,-1000.5C262.5,-1000.5 183.5,-1000.5 183.5,-1000.5 177.5,-1000.5 171.5,-994.5 171.5,-988.5 171.5,-988.5 171.5,-961.75 171.5,-961.75 171.5,-955.75 177.5,-949.75 183.5,-949.75 183.5,-949.75 262.5,-949.75 262.5,-949.75 268.5,-949.75 274.5,-955.75 274.5,-961.75 274.5,-961.75 274.5,-988.5 274.5,-988.5 274.5,-994.5 268.5,-1000.5 262.5,-1000.5"/>
<text xml:space="preserve" text-anchor="middle" x="223" y="-987" font-family="Segoe UI" font-size="10.00">⑤ Write noASDU</text>
<text xml:space="preserve" text-anchor="middle" x="223" y="-972.75" font-family="Segoe UI" font-size="10.00">Tag: 0x80, Len: 0x01</text>
<text xml:space="preserve" text-anchor="middle" x="223" y="-958.5" font-family="Segoe UI" font-size="10.00">Value: asduCount</text>
</g>
<!-- step4&#45;&gt;step5 -->
<g id="edge10" class="edge">
<title>step4&#45;&gt;step5</title>
<path fill="none" stroke="black" d="M223,-1037.07C223,-1029.34 223,-1020.65 223,-1012.3"/>
<polygon fill="black" stroke="black" points="226.5,-1012.39 223,-1002.39 219.5,-1012.39 226.5,-1012.39"/>
</g>
<!-- step6 -->
<g id="node11" class="node">
<title>step6</title>
<path fill="#c8e6c9" stroke="#2e7d32" d="M283.12,-912.75C283.12,-912.75 162.88,-912.75 162.88,-912.75 156.88,-912.75 150.88,-906.75 150.88,-900.75 150.88,-900.75 150.88,-874 150.88,-874 150.88,-868 156.88,-862 162.88,-862 162.88,-862 283.12,-862 283.12,-862 289.12,-862 295.12,-868 295.12,-874 295.12,-874 295.12,-900.75 295.12,-900.75 295.12,-906.75 289.12,-912.75 283.12,-912.75"/>
<text xml:space="preserve" text-anchor="middle" x="223" y="-899.25" font-family="Segoe UI" font-size="10.00">⑥ Write seqASDU Container</text>
<text xml:space="preserve" text-anchor="middle" x="223" y="-885" font-family="Segoe UI" font-size="10.00">Tag: 0xA2</text>
<text xml:space="preserve" text-anchor="middle" x="223" y="-870.75" font-family="Segoe UI" font-size="10.00">Length: (calculated)</text>
</g>
<!-- step5&#45;&gt;step6 -->
<g id="edge11" class="edge">
<title>step5&#45;&gt;step6</title>
<path fill="none" stroke="black" d="M223,-949.32C223,-941.59 223,-932.9 223,-924.55"/>
<polygon fill="black" stroke="black" points="226.5,-924.64 223,-914.64 219.5,-924.64 226.5,-924.64"/>
</g>
<!-- step6&#45;&gt;step7 -->
<g id="edge12" class="edge">
<title>step6&#45;&gt;step7</title>
<path fill="none" stroke="black" d="M223,-861.57C223,-853.84 223,-845.15 223,-836.8"/>
<polygon fill="black" stroke="black" points="226.5,-836.89 223,-826.89 219.5,-836.89 226.5,-836.89"/>
</g>
<!-- svid -->
<g id="node13" class="node">
<title>svid</title>
<path fill="#ce93d8" stroke="black" d="M327.75,-714C327.75,-714 238.25,-714 238.25,-714 232.25,-714 226.25,-708 226.25,-702 226.25,-702 226.25,-675.25 226.25,-675.25 226.25,-669.25 232.25,-663.25 238.25,-663.25 238.25,-663.25 327.75,-663.25 327.75,-663.25 333.75,-663.25 339.75,-669.25 339.75,-675.25 339.75,-675.25 339.75,-702 339.75,-702 339.75,-708 333.75,-714 327.75,-714"/>
<text xml:space="preserve" text-anchor="middle" x="283" y="-700.5" font-family="Segoe UI" font-size="10.00">svID [0x80]</text>
<text xml:space="preserve" text-anchor="middle" x="283" y="-686.25" font-family="Segoe UI" font-size="10.00">Length + ASCII string</text>
<text xml:space="preserve" text-anchor="middle" x="283" y="-672" font-family="Segoe UI" font-size="10.00">e.g., &quot;MU01&quot;</text>
</g>
<!-- step7&#45;&gt;svid -->
<g id="edge13" class="edge">
<title>step7&#45;&gt;svid</title>
<path fill="none" stroke="black" d="M236.61,-773.89C244.75,-759.12 255.2,-740.14 264.12,-723.93"/>
<polygon fill="black" stroke="black" points="266.95,-726.04 268.71,-715.59 260.82,-722.66 266.95,-726.04"/>
</g>
<!-- smpcnt -->
<g id="node14" class="node">
<title>smpcnt</title>
<path fill="#ce93d8" stroke="black" d="M346.62,-626.25C346.62,-626.25 235.38,-626.25 235.38,-626.25 229.38,-626.25 223.38,-620.25 223.38,-614.25 223.38,-614.25 223.38,-587.5 223.38,-587.5 223.38,-581.5 229.38,-575.5 235.38,-575.5 235.38,-575.5 346.62,-575.5 346.62,-575.5 352.62,-575.5 358.62,-581.5 358.62,-587.5 358.62,-587.5 358.62,-614.25 358.62,-614.25 358.62,-620.25 352.62,-626.25 346.62,-626.25"/>
<text xml:space="preserve" text-anchor="middle" x="291" y="-612.75" font-family="Segoe UI" font-size="10.00">smpCnt [0x82]</text>
<text xml:space="preserve" text-anchor="middle" x="291" y="-598.5" font-family="Segoe UI" font-size="10.00">Length: 0x02</text>
<text xml:space="preserve" text-anchor="middle" x="291" y="-584.25" font-family="Segoe UI" font-size="10.00">Value: 2 bytes (big&#45;endian)</text>
</g>
<!-- svid&#45;&gt;smpcnt -->
<g id="edge14" class="edge">
<title>svid&#45;&gt;smpcnt</title>
<path fill="none" stroke="black" d="M285.31,-662.82C286.04,-655.09 286.85,-646.4 287.62,-638.05"/>
<polygon fill="black" stroke="black" points="291.11,-638.41 288.55,-628.13 284.14,-637.76 291.11,-638.41"/>
</g>
<!-- confrev -->
<g id="node15" class="node">
<title>confrev</title>
<path fill="#ce93d8" stroke="black" d="M346.62,-538.5C346.62,-538.5 235.38,-538.5 235.38,-538.5 229.38,-538.5 223.38,-532.5 223.38,-526.5 223.38,-526.5 223.38,-499.75 223.38,-499.75 223.38,-493.75 229.38,-487.75 235.38,-487.75 235.38,-487.75 346.62,-487.75 346.62,-487.75 352.62,-487.75 358.62,-493.75 358.62,-499.75 358.62,-499.75 358.62,-526.5 358.62,-526.5 358.62,-532.5 352.62,-538.5 346.62,-538.5"/>
<text xml:space="preserve" text-anchor="middle" x="291" y="-525" font-family="Segoe UI" font-size="10.00">confRev [0x83]</text>
<text xml:space="preserve" text-anchor="middle" x="291" y="-510.75" font-family="Segoe UI" font-size="10.00">Length: 0x04</text>
<text xml:space="preserve" text-anchor="middle" x="291" y="-496.5" font-family="Segoe UI" font-size="10.00">Value: 4 bytes (big&#45;endian)</text>
</g>
<!-- smpcnt&#45;&gt;confrev -->
<g id="edge15" class="edge">
<title>smpcnt&#45;&gt;confrev</title>
<path fill="none" stroke="black" d="M291,-575.07C291,-567.34 291,-558.65 291,-550.3"/>
<polygon fill="black" stroke="black" points="294.5,-550.39 291,-540.39 287.5,-550.39 294.5,-550.39"/>
</g>
<!-- smpsynch -->
<g id="node16" class="node">
<title>smpsynch</title>
<path fill="#ce93d8" stroke="black" d="M324.12,-450.75C324.12,-450.75 257.88,-450.75 257.88,-450.75 251.88,-450.75 245.88,-444.75 245.88,-438.75 245.88,-438.75 245.88,-412 245.88,-412 245.88,-406 251.88,-400 257.88,-400 257.88,-400 324.12,-400 324.12,-400 330.12,-400 336.12,-406 336.12,-412 336.12,-412 336.12,-438.75 336.12,-438.75 336.12,-444.75 330.12,-450.75 324.12,-450.75"/>
<text xml:space="preserve" text-anchor="middle" x="291" y="-437.25" font-family="Segoe UI" font-size="10.00">smpSynch [0x85]</text>
<text xml:space="preserve" text-anchor="middle" x="291" y="-423" font-family="Segoe UI" font-size="10.00">Length: 0x01</text>
<text xml:space="preserve" text-anchor="middle" x="291" y="-408.75" font-family="Segoe UI" font-size="10.00">Value: 1 byte</text>
</g>
<!-- confrev&#45;&gt;smpsynch -->
<g id="edge16" class="edge">
<title>confrev&#45;&gt;smpsynch</title>
<path fill="none" stroke="black" d="M291,-487.32C291,-479.59 291,-470.9 291,-462.55"/>
<polygon fill="black" stroke="black" points="294.5,-462.64 291,-452.64 287.5,-462.64 294.5,-462.64"/>
</g>
<!-- smpsynch&#45;&gt;seqdata -->
<g id="edge17" class="edge">
<title>smpsynch&#45;&gt;seqdata</title>
<path fill="none" stroke="black" d="M291,-399.66C291,-392.26 291,-383.86 291,-375.43"/>
<polygon fill="black" stroke="black" points="294.5,-375.5 291,-365.5 287.5,-375.5 294.5,-375.5"/>
</g>
<!-- step8 -->
<g id="node18" class="node">
<title>step8</title>
<path fill="#c8e6c9" stroke="#2e7d32" d="M362.38,-246.75C362.38,-246.75 219.62,-246.75 219.62,-246.75 213.62,-246.75 207.62,-240.75 207.62,-234.75 207.62,-234.75 207.62,-208 207.62,-208 207.62,-202 213.62,-196 219.62,-196 219.62,-196 362.38,-196 362.38,-196 368.38,-196 374.38,-202 374.38,-208 374.38,-208 374.38,-234.75 374.38,-234.75 374.38,-240.75 368.38,-246.75 362.38,-246.75"/>
<text xml:space="preserve" text-anchor="middle" x="291" y="-233.25" font-family="Segoe UI" font-size="10.00">⑧ Pad to Minimum Frame Size</text>
<text xml:space="preserve" text-anchor="middle" x="291" y="-219" font-family="Segoe UI" font-size="10.00">if (pos &lt; 60): pad with 0x00</text>
<text xml:space="preserve" text-anchor="middle" x="291" y="-204.75" font-family="Segoe UI" font-size="10.00">(Ethernet min frame = 64 &#45; 4 FCS)</text>
</g>
<!-- seqdata&#45;&gt;step8 -->
<g id="edge18" class="edge">
<title>seqdata&#45;&gt;step8</title>
<path fill="none" stroke="black" d="M291,-282.85C291,-274.88 291,-266.53 291,-258.67"/>
<polygon fill="black" stroke="black" points="294.5,-258.74 291,-248.74 287.5,-258.74 294.5,-258.74"/>
</g>
<!-- frame -->
<g id="node19" class="node">
<title>frame</title>
<polygon fill="#ffcdd2" stroke="black" points="363.12,-135.75 212.88,-135.75 212.88,-16 369.12,-16 369.12,-129.75 363.12,-135.75"/>
<polyline fill="none" stroke="black" points="363.12,-135.75 363.12,-129.75"/>
<polyline fill="none" stroke="black" points="369.12,-129.75 363.12,-129.75"/>
<text xml:space="preserve" text-anchor="middle" x="291" y="-122.25" font-family="Segoe UI" font-size="10.00">Complete SV Frame</text>
<text xml:space="preserve" text-anchor="middle" x="291" y="-108" font-family="Segoe UI" font-size="10.00">outBuffer[0..outSize]</text>
<text xml:space="preserve" text-anchor="middle" x="291" y="-81.75" font-family="Segoe UI" font-size="10.00">Typical sizes:</text>
<text xml:space="preserve" text-anchor="middle" x="291" y="-67.5" font-family="Segoe UI" font-size="10.00">• 8ch no&#45;VLAN: &#160;122 bytes</text>
<text xml:space="preserve" text-anchor="middle" x="291" y="-53.25" font-family="Segoe UI" font-size="10.00">• 8ch with&#45;VLAN: 126 bytes</text>
<text xml:space="preserve" text-anchor="middle" x="291" y="-39" font-family="Segoe UI" font-size="10.00">• 20ch with&#45;VLAN: 222 bytes</text>
<text xml:space="preserve" text-anchor="middle" x="291" y="-24.75" font-family="Segoe UI" font-size="10.00">• Multi&#45;ASDU: up to 1500 bytes</text>
</g>
<!-- step8&#45;&gt;frame -->
<g id="edge19" class="edge">
<title>step8&#45;&gt;frame</title>
<path fill="none" stroke="black" d="M291,-195.71C291,-182.23 291,-164.79 291,-147.44"/>
<polygon fill="black" stroke="black" points="294.5,-147.61 291,-137.61 287.5,-147.61 294.5,-147.61"/>
</g>
</g>
</svg>
