<?xml version="1.0" encoding="UTF-8" standalone="no"?>
<!DOCTYPE svg PUBLIC "-//W3C//DTD SVG 1.1//EN"
 "http://www.w3.org/Graphics/SVG/1.1/DTD/svg11.dtd">
<!-- Generated by graphviz version 14.1.2 (20260124.0452)
 -->
<!-- Title: ThreadModel Pages: 1 -->
<svg width="2342pt" height="551pt"
 viewBox="0.00 0.00 2342.00 551.00" xmlns="http://www.w3.org/2000/svg" xmlns:xlink="http://www.w3.org/1999/xlink">
<g id="graph0" class="graph" transform="scale(1 1) rotate(0) translate(4 547.06)">
<title>ThreadModel</title>
<polygon fill="white" stroke="none" points="-4,4 -4,-547.06 2338,-547.06 2338,4 -4,4"/>
<text xml:space="preserve" text-anchor="middle" x="1167" y="-527.66" font-family="Segoe UI" font-size="12.00">Thread Safety &amp; Concurrency Model</text>
<g id="clust1" class="cluster">
<title>cluster_threads</title>
<path fill="#e0f7fa" stroke="#006064" d="M1129,-375.06C1129,-375.06 1419,-375.06 1419,-375.06 1425,-375.06 1431,-381.06 1431,-387.06 1431,-387.06 1431,-497.81 1431,-497.81 1431,-503.81 1425,-509.81 1419,-509.81 1419,-509.81 1129,-509.81 1129,-509.81 1123,-509.81 1117,-503.81 1117,-497.81 1117,-497.81 1117,-387.06 1117,-387.06 1117,-381.06 1123,-375.06 1129,-375.06"/>
<text xml:space="preserve" text-anchor="middle" x="1274" y="-494.41" font-family="Segoe UI" font-size="12.00">Active Threads</text>
</g>
<g id="clust2" class="cluster">
<title>cluster_rust_sync</title>
<path fill="#e8f5e9" stroke="#2e7d32" d="M20,-165.38C20,-165.38 989,-165.38 989,-165.38 995,-165.38 1001,-171.38 1001,-177.38 1001,-177.38 1001,-315.94 1001,-315.94 1001,-321.94 995,-327.94 989,-327.94 989,-327.94 20,-327.94 20,-327.94 14,-327.94 8,-321.94 8,-315.94 8,-315.94 8,-177.38 8,-177.38 8,-171.38 14,-165.38 20,-165.38"/>
<text xml:space="preserve" text-anchor="middle" x="504.5" y="-312.54" font-family="Segoe UI" font-size="12.00">Rust Layer Synchronization</text>
</g>
<g id="clust3" class="cluster">
<title>cluster_cpp_sync</title>
<path fill="#f3e5f5" stroke="#6a1b9a" d="M1021,-161.75C1021,-161.75 2314,-161.75 2314,-161.75 2320,-161.75 2326,-167.75 2326,-173.75 2326,-173.75 2326,-319.56 2326,-319.56 2326,-325.56 2320,-331.56 2314,-331.56 2314,-331.56 1021,-331.56 1021,-331.56 1015,-331.56 1009,-325.56 1009,-319.56 1009,-319.56 1009,-173.75 1009,-173.75 1009,-167.75 1015,-161.75 1021,-161.75"/>
<text xml:space="preserve" text-anchor="middle" x="1667.5" y="-316.16" font-family="Segoe UI" font-size="12.00">C++ Layer Synchronization</text>
</g>
<g id="clust4" class="cluster">
<title>cluster_patterns</title>
<path fill="#fffde7" stroke="#f57f17" d="M1026,-8C1026,-8 1527,-8 1527,-8 1533,-8 1539,-14 1539,-20 1539,-20 1539,-130.75 1539,-130.75 1539,-136.75 1533,-142.75 1527,-142.75 1527,-142.75 1026,-142.75 1026,-142.75 1020,-142.75 1014,-136.75 1014,-130.75 1014,-130.75 1014,-20 1014,-20 1014,-14 1020,-8 1026,-8"/>
<text xml:space="preserve" text-anchor="middle" x="1276.5" y="-127.35" font-family="Segoe UI" font-size="12.00">Key Design Patterns</text>
</g>
<!-- tauri_main -->
<g id="node1" class="node">
<title>tauri_main</title>
<polygon fill="#b2ebf2" stroke="black" points="1246.5,-469.44 1129.5,-469.44 1125.5,-465.44 1125.5,-390.19 1242.5,-390.19 1246.5,-394.19 1246.5,-469.44"/>
<polyline fill="none" stroke="black" points="1242.5,-465.44 1125.5,-465.44"/>
<polyline fill="none" stroke="black" points="1242.5,-465.44 1242.5,-390.19"/>
<polyline fill="none" stroke="black" points="1242.5,-465.44 1246.5,-469.44"/>
<text xml:space="preserve" text-anchor="middle" x="1186" y="-455.94" font-family="Segoe UI" font-size="10.00">Tauri Main Thread</text>
<text xml:space="preserve" text-anchor="middle" x="1186" y="-441.69" font-family="Segoe UI" font-size="10.00">(Event Loop)</text>
<text xml:space="preserve" text-anchor="middle" x="1186" y="-427.44" font-family="Segoe UI" font-size="10.00">• Handles IPC calls</text>
<text xml:space="preserve" text-anchor="middle" x="1186" y="-413.19" font-family="Segoe UI" font-size="10.00">• Runs Tauri commands</text>
<text xml:space="preserve" text-anchor="middle" x="1186" y="-398.94" font-family="Segoe UI" font-size="10.00">• Accesses Rust state</text>
</g>
<!-- config_mutex -->
<g id="node3" class="node">
<title>config_mutex</title>
<path fill="#c8e6c9" stroke="black" d="M779.75,-262.58C779.75,-266.08 732.8,-268.92 675,-268.92 617.2,-268.92 570.25,-266.08 570.25,-262.58 570.25,-262.58 570.25,-205.48 570.25,-205.48 570.25,-201.98 617.2,-199.14 675,-199.14 732.8,-199.14 779.75,-201.98 779.75,-205.48 779.75,-205.48 779.75,-262.58 779.75,-262.58"/>
<path fill="none" stroke="black" d="M779.75,-262.58C779.75,-259.08 732.8,-256.23 675,-256.23 617.2,-256.23 570.25,-259.08 570.25,-262.58"/>
<text xml:space="preserve" text-anchor="middle" x="675" y="-245.91" font-family="Segoe UI" font-size="10.00">CONFIG: Mutex&lt;SvConfig&gt;</text>
<text xml:space="preserve" text-anchor="middle" x="675" y="-231.66" font-family="Segoe UI" font-size="10.00">• Locked by: set_config, start_publishing</text>
<text xml:space="preserve" text-anchor="middle" x="675" y="-217.41" font-family="Segoe UI" font-size="10.00">• Pattern: lock → clone → drop → use copy</text>
</g>
<!-- tauri_main&#45;&gt;config_mutex -->
<g id="edge1" class="edge">
<title>tauri_main&#45;&gt;config_mutex</title>
<path fill="none" stroke="#2e7d32" d="M1125.3,-422.85C1044.51,-412.98 898.95,-388.38 788,-331.56 760.95,-317.71 734.88,-296.17 714.6,-276.95"/>
<polygon fill="#2e7d32" stroke="#2e7d32" points="717.27,-274.66 707.65,-270.22 712.4,-279.69 717.27,-274.66"/>
<text xml:space="preserve" text-anchor="middle" x="887.31" y="-350.14" font-family="Segoe UI" font-size="9.00">set/get config</text>
</g>
<!-- channels_mutex -->
<g id="node4" class="node">
<title>channels_mutex</title>
<path fill="#c8e6c9" stroke="black" d="M992.62,-262.58C992.62,-266.08 948.87,-268.92 895,-268.92 841.13,-268.92 797.38,-266.08 797.38,-262.58 797.38,-262.58 797.38,-205.48 797.38,-205.48 797.38,-201.98 841.13,-199.14 895,-199.14 948.87,-199.14 992.62,-201.98 992.62,-205.48 992.62,-205.48 992.62,-262.58 992.62,-262.58"/>
<path fill="none" stroke="black" d="M992.62,-262.58C992.62,-259.08 948.87,-256.23 895,-256.23 841.13,-256.23 797.38,-259.08 797.38,-262.58"/>
<text xml:space="preserve" text-anchor="middle" x="895" y="-245.91" font-family="Segoe UI" font-size="10.00">CHANNELS: Mutex&lt;Vec&lt;Channel&gt;&gt;</text>
<text xml:space="preserve" text-anchor="middle" x="895" y="-231.66" font-family="Segoe UI" font-size="10.00">• Locked by: set_channels, get_channels</text>
<text xml:space="preserve" text-anchor="middle" x="895" y="-217.41" font-family="Segoe UI" font-size="10.00">• Pass equations to C++ after lock</text>
</g>
<!-- tauri_main&#45;&gt;channels_mutex -->
<g id="edge2" class="edge">
<title>tauri_main&#45;&gt;channels_mutex</title>
<path fill="none" stroke="#2e7d32" d="M1125.31,-400.54C1089.18,-382.67 1043.1,-358 1005,-331.56 981.73,-315.41 957.86,-295.02 938.33,-277.14"/>
<polygon fill="#2e7d32" stroke="#2e7d32" points="940.79,-274.65 931.07,-270.42 936.03,-279.78 940.79,-274.65"/>
<text xml:space="preserve" text-anchor="middle" x="1090.18" y="-350.14" font-family="Segoe UI" font-size="9.00">set/get channels</text>
</g>
<!-- interface_mutex -->
<g id="node5" class="node">
<title>interface_mutex</title>
<path fill="#c8e6c9" stroke="black" d="M247.62,-254.56C247.62,-257.08 195.8,-259.12 132,-259.12 68.2,-259.12 16.38,-257.08 16.38,-254.56 16.38,-254.56 16.38,-213.5 16.38,-213.5 16.38,-210.98 68.2,-208.94 132,-208.94 195.8,-208.94 247.62,-210.98 247.62,-213.5 247.62,-213.5 247.62,-254.56 247.62,-254.56"/>
<path fill="none" stroke="black" d="M247.62,-254.56C247.62,-252.04 195.8,-250 132,-250 68.2,-250 16.38,-252.04 16.38,-254.56"/>
<text xml:space="preserve" text-anchor="middle" x="132" y="-238.78" font-family="Segoe UI" font-size="10.00">CURRENT_INTERFACE: Mutex&lt;Option&lt;String&gt;&gt;</text>
<text xml:space="preserve" text-anchor="middle" x="132" y="-224.53" font-family="Segoe UI" font-size="10.00">• Locked by: open/close_interface</text>
</g>
<!-- tauri_main&#45;&gt;interface_mutex -->
<g id="edge3" class="edge">
<title>tauri_main&#45;&gt;interface_mutex</title>
<path fill="none" stroke="#2e7d32" d="M1125.28,-426.92C944.96,-420.61 415.35,-396.86 257,-331.56 221.33,-316.85 187.1,-289.15 163.51,-267.18"/>
<polygon fill="#2e7d32" stroke="#2e7d32" points="166.07,-264.78 156.42,-260.42 161.25,-269.85 166.07,-264.78"/>
<text xml:space="preserve" text-anchor="middle" x="417.98" y="-350.14" font-family="Segoe UI" font-size="9.00">set/get interface</text>
</g>
<!-- atomics -->
<g id="node6" class="node">
<title>atomics</title>
<path fill="#a5d6a7" stroke="black" d="M552.12,-220.91C552.12,-220.91 552.12,-247.16 552.12,-247.16 552.12,-253.16 546.6,-261.5 541.07,-263.84 541.07,-263.84 479.33,-290 479.33,-290 473.81,-292.35 462.28,-294.69 456.28,-294.69 456.28,-294.69 361.72,-294.69 361.72,-294.69 355.72,-294.69 344.19,-292.35 338.67,-290 338.67,-290 276.93,-263.84 276.93,-263.84 271.4,-261.5 265.88,-253.16 265.88,-247.16 265.88,-247.16 265.88,-220.91 265.88,-220.91 265.88,-214.91 271.4,-206.57 276.93,-204.22 276.93,-204.22 338.67,-178.06 338.67,-178.06 344.19,-175.72 355.72,-173.38 361.72,-173.38 361.72,-173.38 456.28,-173.38 456.28,-173.38 462.28,-173.38 473.81,-175.72 479.33,-178.06 479.33,-178.06 541.07,-204.22 541.07,-204.22 546.6,-206.57 552.12,-214.91 552.12,-220.91"/>
<text xml:space="preserve" text-anchor="middle" x="409" y="-260.16" font-family="Segoe UI" font-size="10.00">Atomic Variables (lock&#45;free)</text>
<text xml:space="preserve" text-anchor="middle" x="409" y="-245.91" font-family="Segoe UI" font-size="10.00">• IS_PUBLISHING: AtomicBool (SeqCst)</text>
<text xml:space="preserve" text-anchor="middle" x="409" y="-231.66" font-family="Segoe UI" font-size="10.00">• PACKETS_SENT: AtomicU64 (Relaxed)</text>
<text xml:space="preserve" text-anchor="middle" x="409" y="-217.41" font-family="Segoe UI" font-size="10.00">• BYTES_SENT: AtomicU64 (Relaxed)</text>
<text xml:space="preserve" text-anchor="middle" x="409" y="-203.16" font-family="Segoe UI" font-size="10.00">• ERRORS: AtomicU64 (Relaxed)</text>
</g>
<!-- tauri_main&#45;&gt;atomics -->
<g id="edge4" class="edge">
<title>tauri_main&#45;&gt;atomics</title>
<path fill="none" stroke="#2e7d32" d="M1125.05,-428.3C1010.44,-425.41 756.76,-409.86 561,-331.56 537.36,-322.11 513.38,-308.9 491.66,-295.28"/>
<polygon fill="#2e7d32" stroke="#2e7d32" points="493.76,-292.47 483.45,-290.03 489.99,-298.37 493.76,-292.47"/>
<text xml:space="preserve" text-anchor="middle" x="695.36" y="-350.14" font-family="Segoe UI" font-size="9.00">read/write atomics</text>
</g>
<!-- g_mutex -->
<g id="node7" class="node">
<title>g_mutex</title>
<path fill="#e1bee7" stroke="black" d="M1198.88,-278.61C1198.88,-284.08 1158.14,-288.52 1108,-288.52 1057.86,-288.52 1017.12,-284.08 1017.12,-278.61 1017.12,-278.61 1017.12,-189.45 1017.12,-189.45 1017.12,-183.99 1057.86,-179.55 1108,-179.55 1158.14,-179.55 1198.88,-183.99 1198.88,-189.45 1198.88,-189.45 1198.88,-278.61 1198.88,-278.61"/>
<path fill="none" stroke="black" d="M1198.88,-278.61C1198.88,-273.14 1158.14,-268.7 1108,-268.7 1057.86,-268.7 1017.12,-273.14 1017.12,-278.61"/>
<text xml:space="preserve" text-anchor="middle" x="1108" y="-260.16" font-family="Segoe UI" font-size="10.00">g_mutex (std::mutex)</text>
<text xml:space="preserve" text-anchor="middle" x="1108" y="-245.91" font-family="Segoe UI" font-size="10.00">sv_native_refactored.cc</text>
<text xml:space="preserve" text-anchor="middle" x="1108" y="-231.66" font-family="Segoe UI" font-size="10.00">• Protects g_config, g_frames</text>
<text xml:space="preserve" text-anchor="middle" x="1108" y="-217.41" font-family="Segoe UI" font-size="10.00">• Locked during configure/start/stop</text>
<text xml:space="preserve" text-anchor="middle" x="1108" y="-203.16" font-family="Segoe UI" font-size="10.00">• NOT locked in hot loop</text>
</g>
<!-- tauri_main&#45;&gt;g_mutex -->
<g id="edge5" class="edge">
<title>tauri_main&#45;&gt;g_mutex</title>
<path fill="none" stroke="#6a1b9a" d="M1168.35,-389.84C1164.76,-381.69 1161.07,-373.12 1157.75,-365.06 1149,-343.85 1139.89,-320.48 1131.9,-299.48"/>
<polygon fill="#6a1b9a" stroke="#6a1b9a" points="1135.19,-298.26 1128.37,-290.15 1128.64,-300.74 1135.19,-298.26"/>
<text xml:space="preserve" text-anchor="middle" x="1197.88" y="-356.51" font-family="Segoe UI" font-size="9.00">configure/start/stop</text>
<text xml:space="preserve" text-anchor="middle" x="1197.88" y="-343.76" font-family="Segoe UI" font-size="9.00">(via FFI)</text>
</g>
<!-- stats_mutex -->
<g id="node9" class="node">
<title>stats_mutex</title>
<path fill="#e1bee7" stroke="black" d="M1535.12,-286.62C1535.12,-293.07 1500.11,-298.31 1457,-298.31 1413.89,-298.31 1378.88,-293.07 1378.88,-286.62 1378.88,-286.62 1378.88,-181.44 1378.88,-181.44 1378.88,-174.99 1413.89,-169.75 1457,-169.75 1500.11,-169.75 1535.12,-174.99 1535.12,-181.44 1535.12,-181.44 1535.12,-286.62 1535.12,-286.62"/>
<path fill="none" stroke="black" d="M1535.12,-286.62C1535.12,-280.18 1500.11,-274.94 1457,-274.94 1413.89,-274.94 1378.88,-280.18 1378.88,-286.62"/>
<text xml:space="preserve" text-anchor="middle" x="1457" y="-267.28" font-family="Segoe UI" font-size="10.00">g_mutex (std::mutex)</text>
<text xml:space="preserve" text-anchor="middle" x="1457" y="-253.03" font-family="Segoe UI" font-size="10.00">sv_stats_impl.cc</text>
<text xml:space="preserve" text-anchor="middle" x="1457" y="-238.78" font-family="Segoe UI" font-size="10.00">• Protects TransmitStats</text>
<text xml:space="preserve" text-anchor="middle" x="1457" y="-224.53" font-family="Segoe UI" font-size="10.00">• Locked on read/write/update</text>
<text xml:space="preserve" text-anchor="middle" x="1457" y="-210.28" font-family="Segoe UI" font-size="10.00">• record_packet() is in hot path</text>
<text xml:space="preserve" text-anchor="middle" x="1457" y="-196.03" font-family="Segoe UI" font-size="10.00"> &#160;(small critical section)</text>
</g>
<!-- tauri_main&#45;&gt;stats_mutex -->
<g id="edge7" class="edge">
<title>tauri_main&#45;&gt;stats_mutex</title>
<path fill="none" stroke="#6a1b9a" d="M1217.56,-389.91C1234.94,-371.36 1258.11,-350.8 1283.5,-339.56 1318.8,-323.93 1335.49,-348.87 1370,-331.56 1382.57,-325.26 1394.18,-316.3 1404.55,-306.36"/>
<polygon fill="#6a1b9a" stroke="#6a1b9a" points="1407,-308.86 1411.53,-299.28 1402.01,-303.94 1407,-308.86"/>
<text xml:space="preserve" text-anchor="middle" x="1300.75" y="-356.51" font-family="Segoe UI" font-size="9.00">get_stats</text>
<text xml:space="preserve" text-anchor="middle" x="1300.75" y="-343.76" font-family="Segoe UI" font-size="9.00">(via FFI)</text>
</g>
<!-- ctrl_mutex -->
<g id="node11" class="node">
<title>ctrl_mutex</title>
<path fill="#e1bee7" stroke="black" d="M1906.88,-278.61C1906.88,-284.08 1867.49,-288.52 1819,-288.52 1770.51,-288.52 1731.12,-284.08 1731.12,-278.61 1731.12,-278.61 1731.12,-189.45 1731.12,-189.45 1731.12,-183.99 1770.51,-179.55 1819,-179.55 1867.49,-179.55 1906.88,-183.99 1906.88,-189.45 1906.88,-189.45 1906.88,-278.61 1906.88,-278.61"/>
<path fill="none" stroke="black" d="M1906.88,-278.61C1906.88,-273.14 1867.49,-268.7 1819,-268.7 1770.51,-268.7 1731.12,-273.14 1731.12,-278.61"/>
<text xml:space="preserve" text-anchor="middle" x="1819" y="-260.16" font-family="Segoe UI" font-size="10.00">m_mutex (std::mutex)</text>
<text xml:space="preserve" text-anchor="middle" x="1819" y="-245.91" font-family="Segoe UI" font-size="10.00">SvController</text>
<text xml:space="preserve" text-anchor="middle" x="1819" y="-231.66" font-family="Segoe UI" font-size="10.00">• Protects publisher vector</text>
<text xml:space="preserve" text-anchor="middle" x="1819" y="-217.41" font-family="Segoe UI" font-size="10.00">• Locked during add/remove/config</text>
<text xml:space="preserve" text-anchor="middle" x="1819" y="-203.16" font-family="Segoe UI" font-size="10.00">• NOT locked in writer loop</text>
</g>
<!-- tauri_main&#45;&gt;ctrl_mutex -->
<g id="edge6" class="edge">
<title>tauri_main&#45;&gt;ctrl_mutex</title>
<path fill="none" stroke="#6a1b9a" d="M1230.26,-389.75C1238.4,-384.08 1247.14,-378.89 1256,-375.06 1281.63,-364 1293.67,-378.74 1318,-365.06 1330.98,-357.76 1326.29,-345.94 1339.75,-339.56 1378.14,-321.36 1682.9,-348.18 1722,-331.56 1740.36,-323.76 1757.1,-310.69 1771.33,-296.65"/>
<polygon fill="#6a1b9a" stroke="#6a1b9a" points="1773.46,-299.48 1777.91,-289.87 1768.43,-294.61 1773.46,-299.48"/>
<text xml:space="preserve" text-anchor="middle" x="1378.38" y="-356.51" font-family="Segoe UI" font-size="9.00">add/remove/config</text>
<text xml:space="preserve" text-anchor="middle" x="1378.38" y="-343.76" font-family="Segoe UI" font-size="9.00">(via FFI)</text>
</g>
<!-- publisher_thread -->
<g id="node2" class="node">
<title>publisher_thread</title>
<polygon fill="#80deea" stroke="black" points="1423.25,-476.56 1268.75,-476.56 1264.75,-472.56 1264.75,-383.06 1419.25,-383.06 1423.25,-387.06 1423.25,-476.56"/>
<polyline fill="none" stroke="black" points="1419.25,-472.56 1264.75,-472.56"/>
<polyline fill="none" stroke="black" points="1419.25,-472.56 1419.25,-383.06"/>
<polyline fill="none" stroke="black" points="1419.25,-472.56 1423.25,-476.56"/>
<text xml:space="preserve" text-anchor="middle" x="1344" y="-463.06" font-family="Segoe UI" font-size="10.00">Publisher Thread</text>
<text xml:space="preserve" text-anchor="middle" x="1344" y="-448.81" font-family="Segoe UI" font-size="10.00">(TIME_CRITICAL)</text>
<text xml:space="preserve" text-anchor="middle" x="1344" y="-434.56" font-family="Segoe UI" font-size="10.00">• Single&#45;pub: publisher_loop_*()</text>
<text xml:space="preserve" text-anchor="middle" x="1344" y="-420.31" font-family="Segoe UI" font-size="10.00">• Multi&#45;pub: writerLoop()</text>
<text xml:space="preserve" text-anchor="middle" x="1344" y="-406.06" font-family="Segoe UI" font-size="10.00">• Pinned to CPU core 1</text>
<text xml:space="preserve" text-anchor="middle" x="1344" y="-391.81" font-family="Segoe UI" font-size="10.00">• timeBeginPeriod(1)</text>
</g>
<!-- publisher_thread&#45;&gt;stats_mutex -->
<g id="edge10" class="edge">
<title>publisher_thread&#45;&gt;stats_mutex</title>
<path fill="none" stroke="#ad1457" d="M1406.79,-382.86C1412.08,-377.28 1416.94,-371.33 1421,-365.06 1431.7,-348.54 1439.25,-328.86 1444.57,-309.88"/>
<polygon fill="#ad1457" stroke="#ad1457" points="1447.94,-310.83 1447.07,-300.27 1441.16,-309.07 1447.94,-310.83"/>
<text xml:space="preserve" text-anchor="middle" x="1463.79" y="-356.51" font-family="Segoe UI" font-size="9.00">record_packet()</text>
<text xml:space="preserve" text-anchor="middle" x="1463.79" y="-343.76" font-family="Segoe UI" font-size="9.00">(brief lock)</text>
</g>
<!-- g_running -->
<g id="node12" class="node">
<title>g_running</title>
<path fill="#ce93d8" stroke="black" d="M2158.72,-220.91C2158.72,-220.91 2158.72,-247.16 2158.72,-247.16 2158.72,-253.16 2153.39,-261.92 2148.07,-264.69 2148.07,-264.69 2100.99,-289.15 2100.99,-289.15 2095.67,-291.92 2084.35,-294.69 2078.35,-294.69 2078.35,-294.69 2005.65,-294.69 2005.65,-294.69 1999.65,-294.69 1988.33,-291.92 1983.01,-289.15 1983.01,-289.15 1935.93,-264.69 1935.93,-264.69 1930.61,-261.92 1925.28,-253.16 1925.28,-247.16 1925.28,-247.16 1925.28,-220.91 1925.28,-220.91 1925.28,-214.91 1930.61,-206.14 1935.93,-203.37 1935.93,-203.37 1983.01,-178.91 1983.01,-178.91 1988.33,-176.14 1999.65,-173.38 2005.65,-173.38 2005.65,-173.38 2078.35,-173.38 2078.35,-173.38 2084.35,-173.38 2095.67,-176.14 2100.99,-178.91 2100.99,-178.91 2148.07,-203.37 2148.07,-203.37 2153.39,-206.14 2158.72,-214.91 2158.72,-220.91"/>
<text xml:space="preserve" text-anchor="middle" x="2042" y="-260.16" font-family="Segoe UI" font-size="10.00">g_running: std::atomic&lt;bool&gt;</text>
<text xml:space="preserve" text-anchor="middle" x="2042" y="-245.91" font-family="Segoe UI" font-size="10.00">m_running: std::atomic&lt;bool&gt;</text>
<text xml:space="preserve" text-anchor="middle" x="2042" y="-231.66" font-family="Segoe UI" font-size="10.00">• Publisher loop exit flag</text>
<text xml:space="preserve" text-anchor="middle" x="2042" y="-217.41" font-family="Segoe UI" font-size="10.00">• Checked every iteration</text>
<text xml:space="preserve" text-anchor="middle" x="2042" y="-203.16" font-family="Segoe UI" font-size="10.00">• No lock needed</text>
</g>
<!-- publisher_thread&#45;&gt;g_running -->
<g id="edge8" class="edge">
<title>publisher_thread&#45;&gt;g_running</title>
<path fill="none" stroke="#ad1457" d="M1423.73,-427.25C1537.51,-422.4 1750.94,-403.51 1916,-331.56 1936.22,-322.75 1956.12,-310.01 1973.91,-296.66"/>
<polygon fill="#ad1457" stroke="#ad1457" points="1976.03,-299.44 1981.82,-290.56 1971.76,-293.9 1976.03,-299.44"/>
<text xml:space="preserve" text-anchor="middle" x="1926.94" y="-350.14" font-family="Segoe UI" font-size="9.00">check each iteration</text>
</g>
<!-- shared_buf -->
<g id="node13" class="node">
<title>shared_buf</title>
<polygon fill="#ce93d8" stroke="black" points="2311.62,-273.66 2176.38,-273.66 2176.38,-194.41 2317.62,-194.41 2317.62,-267.66 2311.62,-273.66"/>
<polyline fill="none" stroke="black" points="2311.62,-273.66 2311.62,-267.66"/>
<polyline fill="none" stroke="black" points="2317.62,-267.66 2311.62,-267.66"/>
<text xml:space="preserve" text-anchor="middle" x="2247" y="-260.16" font-family="Segoe UI" font-size="10.00">SharedBuffer</text>
<text xml:space="preserve" text-anchor="middle" x="2247" y="-245.91" font-family="Segoe UI" font-size="10.00">(Immutable after build)</text>
<text xml:space="preserve" text-anchor="middle" x="2247" y="-231.66" font-family="Segoe UI" font-size="10.00">• Built during startAll()</text>
<text xml:space="preserve" text-anchor="middle" x="2247" y="-217.41" font-family="Segoe UI" font-size="10.00">• Read&#45;only in writer thread</text>
<text xml:space="preserve" text-anchor="middle" x="2247" y="-203.16" font-family="Segoe UI" font-size="10.00">• NO LOCKING in hot path</text>
</g>
<!-- publisher_thread&#45;&gt;shared_buf -->
<g id="edge9" class="edge">
<title>publisher_thread&#45;&gt;shared_buf</title>
<path fill="none" stroke="#ad1457" stroke-width="2" d="M1423.41,-427.38C1604.62,-422.85 2042.62,-404.47 2168,-331.56 2187.72,-320.1 2204.58,-301.72 2217.61,-284.07"/>
<polygon fill="#ad1457" stroke="#ad1457" stroke-width="2" points="2220.19,-286.48 2223.08,-276.29 2214.46,-282.46 2220.19,-286.48"/>
<text xml:space="preserve" text-anchor="middle" x="2169.4" y="-356.51" font-family="Segoe UI" font-size="9.00">read frames</text>
<text xml:space="preserve" text-anchor="middle" x="2169.4" y="-343.76" font-family="Segoe UI" font-size="9.00">(zero&#45;lock)</text>
</g>
<!-- pattern1 -->
<g id="node14" class="node">
<title>pattern1</title>
<polygon fill="#fff9c4" stroke="black" points="1183.75,-95.25 1022.25,-95.25 1022.25,-30.25 1189.75,-30.25 1189.75,-89.25 1183.75,-95.25"/>
<polyline fill="none" stroke="black" points="1183.75,-95.25 1183.75,-89.25"/>
<polyline fill="none" stroke="black" points="1189.75,-89.25 1183.75,-89.25"/>
<text xml:space="preserve" text-anchor="middle" x="1106" y="-81.75" font-family="Segoe UI" font-size="10.00">Pattern: Lock&#45;Clone&#45;Drop</text>
<text xml:space="preserve" text-anchor="middle" x="1106" y="-67.5" font-family="Segoe UI" font-size="10.00">let config = CONFIG.lock().clone();</text>
<text xml:space="preserve" text-anchor="middle" x="1106" y="-53.25" font-family="Segoe UI" font-size="10.00">drop(lock);</text>
<text xml:space="preserve" text-anchor="middle" x="1106" y="-39" font-family="Segoe UI" font-size="10.00">// use config copy safely</text>
</g>
<!-- config_mutex&#45;&gt;pattern1 -->
<g id="edge11" class="edge">
<title>config_mutex&#45;&gt;pattern1</title>
<path fill="none" stroke="#f57f17" stroke-dasharray="5,2" d="M723.19,-198.69C742.67,-185.87 765.77,-171.97 788,-161.75 860.07,-128.62 946.31,-102.84 1010.79,-86.05"/>
<polygon fill="#f57f17" stroke="#f57f17" points="1011.48,-89.49 1020.29,-83.61 1009.73,-82.71 1011.48,-89.49"/>
</g>
<!-- encoder_mutex -->
<g id="node8" class="node">
<title>encoder_mutex</title>
<path fill="#e1bee7" stroke="black" d="M1360.75,-278.61C1360.75,-284.08 1328.59,-288.52 1289,-288.52 1249.41,-288.52 1217.25,-284.08 1217.25,-278.61 1217.25,-278.61 1217.25,-189.45 1217.25,-189.45 1217.25,-183.99 1249.41,-179.55 1289,-179.55 1328.59,-179.55 1360.75,-183.99 1360.75,-189.45 1360.75,-189.45 1360.75,-278.61 1360.75,-278.61"/>
<path fill="none" stroke="black" d="M1360.75,-278.61C1360.75,-273.14 1328.59,-268.7 1289,-268.7 1249.41,-268.7 1217.25,-273.14 1217.25,-278.61"/>
<text xml:space="preserve" text-anchor="middle" x="1289" y="-260.16" font-family="Segoe UI" font-size="10.00">g_mutex (std::mutex)</text>
<text xml:space="preserve" text-anchor="middle" x="1289" y="-245.91" font-family="Segoe UI" font-size="10.00">sv_encoder_impl.cc</text>
<text xml:space="preserve" text-anchor="middle" x="1289" y="-231.66" font-family="Segoe UI" font-size="10.00">• Protects SvEncoderConfig</text>
<text xml:space="preserve" text-anchor="middle" x="1289" y="-217.41" font-family="Segoe UI" font-size="10.00">• Locked on config change</text>
<text xml:space="preserve" text-anchor="middle" x="1289" y="-203.16" font-family="Segoe UI" font-size="10.00">• NOT locked during encode</text>
</g>
<!-- pattern3 -->
<g id="node16" class="node">
<title>pattern3</title>
<polygon fill="#fff9c4" stroke="black" points="1364.5,-95.25 1207.5,-95.25 1207.5,-30.25 1370.5,-30.25 1370.5,-89.25 1364.5,-95.25"/>
<polyline fill="none" stroke="black" points="1364.5,-95.25 1364.5,-89.25"/>
<polyline fill="none" stroke="black" points="1370.5,-89.25 1364.5,-89.25"/>
<text xml:space="preserve" text-anchor="middle" x="1289" y="-81.75" font-family="Segoe UI" font-size="10.00">Pattern: Sequential Pre&#45;build</text>
<text xml:space="preserve" text-anchor="middle" x="1289" y="-67.5" font-family="Segoe UI" font-size="10.00">Global encoder used by each</text>
<text xml:space="preserve" text-anchor="middle" x="1289" y="-53.25" font-family="Segoe UI" font-size="10.00">publisher one&#45;at&#45;a&#45;time</text>
<text xml:space="preserve" text-anchor="middle" x="1289" y="-39" font-family="Segoe UI" font-size="10.00">(mutex not needed if sequential)</text>
</g>
<!-- encoder_mutex&#45;&gt;pattern3 -->
<g id="edge13" class="edge">
<title>encoder_mutex&#45;&gt;pattern3</title>
<path fill="none" stroke="#f57f17" stroke-dasharray="5,2" d="M1289,-179.47C1289,-155.99 1289,-128.8 1289,-106.68"/>
<polygon fill="#f57f17" stroke="#f57f17" points="1292.5,-106.81 1289,-96.81 1285.5,-106.81 1292.5,-106.81"/>
</g>
<!-- eq_mutex -->
<g id="node10" class="node">
<title>eq_mutex</title>
<path fill="#e1bee7" stroke="black" d="M1712.62,-270.59C1712.62,-275.08 1676.94,-278.72 1633,-278.72 1589.06,-278.72 1553.38,-275.08 1553.38,-270.59 1553.38,-270.59 1553.38,-197.47 1553.38,-197.47 1553.38,-192.99 1589.06,-189.34 1633,-189.34 1676.94,-189.34 1712.62,-192.99 1712.62,-197.47 1712.62,-197.47 1712.62,-270.59 1712.62,-270.59"/>
<path fill="none" stroke="black" d="M1712.62,-270.59C1712.62,-266.11 1676.94,-262.47 1633,-262.47 1589.06,-262.47 1553.38,-266.11 1553.38,-270.59"/>
<text xml:space="preserve" text-anchor="middle" x="1633" y="-253.03" font-family="Segoe UI" font-size="10.00">m_mutex (std::mutex)</text>
<text xml:space="preserve" text-anchor="middle" x="1633" y="-238.78" font-family="Segoe UI" font-size="10.00">EquationProcessor</text>
<text xml:space="preserve" text-anchor="middle" x="1633" y="-224.53" font-family="Segoe UI" font-size="10.00">• Protects equation data</text>
<text xml:space="preserve" text-anchor="middle" x="1633" y="-210.28" font-family="Segoe UI" font-size="10.00">• Locked during parse/generate</text>
</g>
<!-- pattern2 -->
<g id="node15" class="node">
<title>pattern2</title>
<polygon fill="#fff9c4" stroke="black" points="1525,-109.5 1389,-109.5 1389,-16 1531,-16 1531,-103.5 1525,-109.5"/>
<polyline fill="none" stroke="black" points="1525,-109.5 1525,-103.5"/>
<polyline fill="none" stroke="black" points="1531,-103.5 1525,-103.5"/>
<text xml:space="preserve" text-anchor="middle" x="1460" y="-96" font-family="Segoe UI" font-size="10.00">Pattern: Zero&#45;Lock Hot Path</text>
<text xml:space="preserve" text-anchor="middle" x="1460" y="-81.75" font-family="Segoe UI" font-size="10.00">Writer thread reads only:</text>
<text xml:space="preserve" text-anchor="middle" x="1460" y="-67.5" font-family="Segoe UI" font-size="10.00">• SharedBuffer (immutable)</text>
<text xml:space="preserve" text-anchor="middle" x="1460" y="-53.25" font-family="Segoe UI" font-size="10.00">• atomic flags (lock&#45;free)</text>
<text xml:space="preserve" text-anchor="middle" x="1460" y="-39" font-family="Segoe UI" font-size="10.00">• Frame cache (immutable)</text>
<text xml:space="preserve" text-anchor="middle" x="1460" y="-24.75" font-family="Segoe UI" font-size="10.00">NO mutex contention!</text>
</g>
<!-- shared_buf&#45;&gt;pattern2 -->
<g id="edge12" class="edge">
<title>shared_buf&#45;&gt;pattern2</title>
<path fill="none" stroke="#f57f17" stroke-dasharray="5,2" d="M2213.01,-194.2C2200.15,-181.88 2184.58,-169.47 2168,-161.75 2058.28,-110.66 1704.69,-80.53 1542.59,-69.08"/>
<polygon fill="#f57f17" stroke="#f57f17" points="1542.98,-65.6 1532.76,-68.39 1542.49,-72.58 1542.98,-65.6"/>
</g>
</g>
</svg>
